<svg xmlns="http://www.w3.org/2000/svg" height="48px" viewBox="0 -960 960 960" width="48px" fill="#000000"><path d="M511.5-334.08q12.5-13.08 12.5-31.5T511.41-397q-12.59-13-31.5-13t-31.41 13.08q-12.5 13.08-12.5 31.5T448.59-334q12.59 13 31.5 13t31.41-13.08ZM445-458h69v-222h-69v222Zm35.08 399Q331.1-96.81 234.55-230.96 138-365.12 138-522.77v-252.25L480-903l343 128.01v251.46q0 158.32-96.97 292.52Q629.07-96.81 480.08-59Zm-.08-93q109-43 180-143.83 71-100.83 71-227.32V-712.1L480-806l-251 94.38v188.01q0 126.95 71 227.78T480-152Zm0-328Z"/></svg>