<svg xmlns="http://www.w3.org/2000/svg" height="48px" viewBox="0 -960 960 960" width="48px" fill="#000000"><path d="M513-263.59q14-13.59 14-31.64t-13.93-30.91Q499.14-339 481.55-339t-31.07 12.95Q437-313.1 437-295.05t13.41 31.55q13.41 13.5 31 13.5T513-263.59ZM440-394h72q0-23.07 6.5-44.04Q525-459 555-485q30-22 42-47.57 12-25.58 12-57.16 0-55.69-31.78-88.98Q545.44-712 488.79-712 436-712 396-684q-40 28-59 74.15L404-585q11-28 31.99-43.5Q456.97-644 481-644q24.5 0 41.75 14.9T540-589.32q0 18.32-11.21 36.82Q517.57-534 498-518q-28 23-43 52.07T440-394Zm39.68 335q-86.32 0-163.65-32.6-77.32-32.61-134.57-89.86T91.6-316.03Q59-393.35 59-479.86q0-87.41 32.66-164.28 32.67-76.86 90.21-134.41 57.54-57.55 134.41-90.5T479.34-902q87.55 0 164.88 32.86t134.56 90.25q57.23 57.4 90.22 134.52 33 77.11 33 164.91 0 86.74-32.95 163.38-32.95 76.65-90.5 134.2Q721-124.33 644.13-91.66 567.26-59 479.68-59Zm.09-91q136.74 0 233.49-96.39Q810-342.77 810-479.77q0-136.74-96.51-233.49Q616.97-810 479.73-810q-136.24 0-232.99 96.51Q150-616.97 150-479.73q0 136.24 96.39 232.99Q342.77-150 479.77-150Zm.23-330Z"/></svg>