<svg xmlns="http://www.w3.org/2000/svg" height="48px" viewBox="0 -960 960 960" width="48px" fill="#000000"><path d="M519.5-270.81q14.5-13.8 14.5-39Q534-335 519.69-350q-14.3-15-39.5-15-25.19 0-39.69 14.81-14.5 14.8-14.5 40Q426-285 440.31-271q14.3 14 39.5 14 25.19 0 39.69-13.81ZM437-432h91v-269h-91v269ZM481-6 343.7-138.77H139V-344L3-480l135.77-136.3V-822H344l137-136 135.3 135.77H822V-616l136 136-135.77 136.3V-139H616L481-6Zm0-128 98.09-96.18h150.73v-151.64L829-480l-99.18-99.18v-150.64H579.18L481-829l-99.18 99.18H230.18v150.64L132-480l98.18 98.18v151.64h150.64L481-134Zm0-347Z"/></svg>