<svg xmlns="http://www.w3.org/2000/svg" height="48px" viewBox="0 -960 960 960" width="48px" fill="#000000"><path d="M445.01-59.15Q429.02-66.3 416-79L79-416q-12.7-13.02-19.85-29.01Q52-461 52-480t7.15-34.78Q66.3-530.56 79-544l337-337q13.02-13.3 29.01-20.15Q461-908 480-908t34.78 6.85Q530.56-894.3 544-881l337 337q13.3 13.44 20.15 29.22Q908-499 908-480t-6.85 34.99Q894.3-429.02 881-416L544-79q-13.44 12.7-29.22 19.85Q499-52 480-52t-34.99-7.15ZM480-145l336-335-336-336-335 336 335 335Zm-39-292h79v-237h-79v237Zm67.5 117.5Q520-331 520-347.01t-11.5-28Q497-387 480-387t-28 11.99q-11 11.99-11 28 0 16.01 11 27.51t28 11.5q17 0 28.5-11.5ZM480-480Z"/></svg>