<svg xmlns="http://www.w3.org/2000/svg" height="48px" viewBox="0 -960 960 960" width="48px" fill="#000000"><path d="M330.35-79.93q-69.32-25.94-120.9-69.87-51.59-43.92-80.19-102.39-28.59-58.48-28.59-123.48v-121l193 145L229-287.33Q258.67-241 314.17-206t113.16 40.33V-494H300.67v-106h126.66v-46.33q-46-19.67-69.16-54.5Q335-735.66 335-779q0-61.92 42.04-104.62 42.03-42.71 103.04-42.71 61.67 0 103.96 42.71 42.29 42.7 42.29 104.62 0 43.34-23.93 78.19-23.94 34.85-69.07 54.48V-600H660v106H533.33v328.33q57-5.33 112.5-40.33T731-287.33l-64.67-64.34 193.67-145v121q0 65-28.93 123.48-28.93 58.47-80.52 102.39-51.58 43.93-120.9 69.87Q560.33-54 480-54q-80.33 0-149.65-25.93ZM480.07-740q17.74 0 28.67-10.67 10.93-10.66 10.93-28.4t-11-29.17q-11-11.43-28.74-11.43t-28.33 11.5q-10.6 11.5-10.6 29.24t10.67 28.33q10.66 10.6 28.4 10.6Z"/></svg>