<?xml version="1.0" encoding="UTF-8" standalone="no"?><!DOCTYPE svg PUBLIC "-//W3C//DTD SVG 1.1//EN" "http://www.w3.org/Graphics/SVG/1.1/DTD/svg11.dtd"><svg width="100%" height="100%" viewBox="0 0 13892 13892" version="1.1" xmlns="http://www.w3.org/2000/svg" xmlns:xlink="http://www.w3.org/1999/xlink" xml:space="preserve" xmlns:serif="http://www.serif.com/" style="fill-rule:evenodd;clip-rule:evenodd;stroke-linejoin:round;stroke-miterlimit:2;"><path d="M3124.86,2174.48c-0.001,-878.125 711.858,-1589.99 1589.99,-1589.99l4459.21,-0c878.125,-0 1589.99,711.862 1589.99,1589.99l-0,9539.92c-0,878.129 -711.863,1589.99 -1589.99,1589.99l-4459.21,-0.001c-878.129,0.001 -1589.99,-711.862 -1589.99,-1589.99l-0.001,-9539.92Zm4502.31,3193.46c144.098,-170.972 246.032,-408.201 246.032,-645.43c0,-32.897 -2.78,-66.257 -8.803,-93.131c-234.449,8.803 -513.379,156.145 -681.57,351.21c-132.052,150.122 -255.3,387.351 -255.3,627.823c0,36.141 6.024,72.281 8.804,83.864c14.827,2.78 38.92,6.024 63.014,6.024c210.355,-0 474.921,-140.855 627.823,-330.36Zm-1755.99,-4321.06c39.95,113.037 61.692,234.679 61.692,361.4c-0,199.596 161.804,361.4 361.4,361.4l1300.35,-0c199.596,-0 361.4,-161.804 361.4,-361.4c-0,-126.721 21.741,-248.363 61.696,-361.4l-2146.53,-0Zm2840.2,5162.02c-312.29,-447.584 -786.748,-459.631 -918.799,-459.631c-348.431,-0 -633.847,213.135 -816.865,213.135c-192.286,0 -447.585,-201.088 -753.851,-201.088c-576.393,-0 -1162.05,477.701 -1162.05,1378.43c0,561.566 216.379,1153.25 484.188,1534.11c231.206,324.337 432.295,588.44 720.491,588.44c288.196,-0 414.224,-189.042 768.678,-189.042c363.72,-0 444.804,183.018 759.874,183.018c315.07,0 522.182,-284.953 720.49,-570.369c222.403,-324.336 315.534,-642.65 318.314,-657.476c-18.071,-6.024 -621.8,-249.276 -621.8,-936.87c0,-594.463 474.458,-861.809 501.332,-882.659Z"/></svg>