<?xml version="1.0" encoding="UTF-8" standalone="no"?><!DOCTYPE svg PUBLIC "-//W3C//DTD SVG 1.1//EN" "http://www.w3.org/Graphics/SVG/1.1/DTD/svg11.dtd"><svg width="100%" height="100%" viewBox="0 0 3334 3334" version="1.1" xmlns="http://www.w3.org/2000/svg" xmlns:xlink="http://www.w3.org/1999/xlink" xml:space="preserve" xmlns:serif="http://www.serif.com/" style="fill-rule:evenodd;clip-rule:evenodd;stroke-linejoin:round;stroke-miterlimit:2;"><path d="M1132.35,292.917c-126.45,-0 -228.958,102.508 -228.958,228.958l0,2289.58c0,126.451 102.508,228.959 228.958,228.959l1070.21,-0c126.451,-0 228.959,-102.508 228.959,-228.959l-0,-2289.58c-0,-126.45 -102.508,-228.958 -228.959,-228.958l-1.733,-0c-42.15,-0 -76.32,34.169 -76.32,76.319c0,126.45 -102.508,228.958 -228.958,228.958l-457.917,0c-126.45,0 -228.958,-102.508 -228.958,-228.958c-0,-42.15 -34.169,-76.319 -76.32,-76.319Zm215.931,-0c8.437,23.871 13.028,49.559 13.028,76.319c-0,42.15 34.169,76.32 76.319,76.32l457.917,-0c42.15,-0 76.319,-34.17 76.319,-76.32c0,-26.76 4.591,-52.448 13.029,-76.319l-636.612,-0Zm-597.528,228.958c0,-210.75 170.847,-381.597 381.597,-381.597l1070.21,-0c210.751,-0 381.598,170.847 381.598,381.597l-0,2289.58c-0,210.751 -170.847,381.598 -381.598,381.598l-1070.21,-0c-210.75,-0 -381.597,-170.847 -381.597,-381.598l0,-2289.58Z" style="fill-rule:nonzero;"/><path d="M2161.92,1459.95c-7.538,5.849 -140.629,80.842 -140.629,247.596c0,192.877 169.353,261.112 174.422,262.802c-0.78,4.159 -26.904,93.449 -89.29,184.429c-55.628,80.062 -113.725,159.995 -202.106,159.995c-88.38,-0 -111.125,-51.339 -213.153,-51.339c-99.428,0 -134.78,53.028 -215.622,53.028c-80.842,0 -137.25,-74.083 -202.106,-165.063c-75.123,-106.837 -135.82,-272.81 -135.82,-430.335c0,-252.665 164.284,-386.665 325.968,-386.665c85.912,-0 157.526,56.408 211.464,56.408c51.338,-0 131.401,-59.787 229.139,-59.787c37.042,-0 170.133,3.379 257.733,128.931Zm-304.132,-235.898c40.421,-47.959 69.014,-114.504 69.014,-181.05c0,-9.228 -0.78,-18.586 -2.469,-26.124c-65.766,2.469 -144.008,43.8 -191.188,98.518c-37.042,42.111 -71.614,108.656 -71.614,176.111c-0,10.138 1.689,20.276 2.469,23.525c4.159,0.78 10.918,1.69 17.676,1.69c59.007,-0 133.221,-39.511 176.112,-92.67Z" style="fill-rule:nonzero;"/></svg>