<svg xmlns="http://www.w3.org/2000/svg" height="48px" viewBox="0 -960 960 960" width="48px" fill="#000000"><path d="M56-130v-116.73q0-38.34 21.73-73.1Q99.47-354.59 137-372q70-32 134.5-47T398-434q28 0 72 6t78 14l-78 77q-19.12-2-37.06-3.5t-35.37-1.5q-57.34 0-105.46 10.5Q244-321 180.36-293.26q-18.06 7.62-25.71 22.24-7.65 14.61-7.65 27.74V-221h299l90 91H56Zm588 2L498-275l47-46 99 98 213-212 49 46-262 261ZM272.8-542.3q-47.8-48.29-47.8-124 0-75.7 47.97-123.7t124-48Q473-838 522-790t49 123.7q0 75.71-48.88 124-48.88 48.3-125.2 48.3-76.33 0-124.12-48.3ZM446-221Zm9.5-387.5q23.5-23.51 23.5-58 0-34.5-23.3-58-23.29-23.5-58.58-23.5t-58.2 23.54Q316-700.92 316-666.42q0 34.49 22.71 57.96 22.71 23.46 58 23.46t58.79-23.5ZM398-666Z"/></svg>