<svg xmlns="http://www.w3.org/2000/svg" height="48px" viewBox="0 -960 960 960" width="48px" fill="#000000"><path d="M471.33-329.33 561.67-418 651-329.33l62-62L622.67-480l89-88.67-62-62.66-88 89.33-90.34-89.33-61.66 62.66 90 88.67-90 88.67 61.66 62Zm-108 198.66q-25.13 0-47.87-11.42T278-173.67L50.67-480l226.66-307q14.72-20.16 37.46-31.58Q337.53-830 362.67-830H804q44.48 0 75.57 31.1 31.1 31.09 31.1 75.57v486.66q0 44.2-31.1 75.1-31.09 30.9-75.57 30.9H363.33ZM182.67-480l178.77 244.67H806v-490H362L182.67-480Zm402 0Z"/></svg>