<?xml version="1.0" encoding="UTF-8" standalone="no"?>
<!DOCTYPE svg PUBLIC "-//W3C//DTD SVG 1.1//EN" "http://www.w3.org/Graphics/SVG/1.1/DTD/svg11.dtd">
<svg width="100%" height="100%" viewBox="0 0 800 800" version="1.1" xmlns="http://www.w3.org/2000/svg" xmlns:xlink="http://www.w3.org/1999/xlink" xml:space="preserve" xmlns:serif="http://www.serif.com/" style="fill-rule:evenodd;clip-rule:evenodd;stroke-linejoin:round;stroke-miterlimit:2;">
    <g transform="matrix(2.13889,0,0,2.15217,-247.377,-21.1379)">
        <path d="M342.411,69.747L342.411,325.304L262.93,325.304L262.93,69.747L342.411,69.747ZM325.58,86.475L279.761,86.475L279.761,308.576L325.58,308.576L325.58,86.475ZM115.657,336.004L115.657,55.357C115.657,43.048 125.713,33.054 138.099,33.054L241.891,33.054L241.891,358.307L138.099,358.307C125.713,358.307 115.657,348.313 115.657,336.004ZM132.488,336.004C132.488,339.081 135.002,341.58 138.099,341.58L225.06,341.58L225.06,49.782L138.099,49.782C135.002,49.782 132.488,52.28 132.488,55.357L132.488,336.004ZM363.45,358.307L363.45,33.054L467.242,33.054C479.628,33.054 489.683,43.048 489.683,55.357L489.683,336.004C489.683,348.313 479.628,358.307 467.242,358.307L363.45,358.307ZM380.281,341.58L467.242,341.58C470.338,341.58 472.852,339.081 472.852,336.004L472.852,55.357C472.852,52.28 470.338,49.782 467.242,49.782L380.281,49.782L380.281,341.58Z"/>
    </g>
</svg>
