<svg xmlns="http://www.w3.org/2000/svg" height="48px" viewBox="0 -960 960 960" width="48px" fill="#000000"><path d="M492-561h193v-90H492v90Zm0 252h193v-90H492v90Zm-73-236q25-25 25-60.5t-25.21-60q-25.21-24.5-60-24.5T299-665.5q-25 24.5-25 60t25.21 60.5q25.21 25 60 25T419-545Zm0 250.5q25-24.5 25-60T418.79-415q-25.21-25-60-25T299-415q-25 25-25 60.5t25.21 60q25.21 24.5 60 24.5T419-294.5ZM212-76q-57.4 0-96.7-39.3Q76-154.6 76-212v-536q0-57.4 39.3-96.7Q154.6-884 212-884h536q57.4 0 96.7 39.3Q884-805.4 884-748v536q0 57.4-39.3 96.7Q805.4-76 748-76H212Z"/></svg>