<?xml version="1.0" encoding="UTF-8" standalone="no"?><!DOCTYPE svg PUBLIC "-//W3C//DTD SVG 1.1//EN" "http://www.w3.org/Graphics/SVG/1.1/DTD/svg11.dtd"><svg width="100%" height="100%" viewBox="0 0 100 100" version="1.1" xmlns="http://www.w3.org/2000/svg" xmlns:xlink="http://www.w3.org/1999/xlink" xml:space="preserve" xmlns:serif="http://www.serif.com/" style="fill-rule:evenodd;clip-rule:evenodd;stroke-linejoin:round;stroke-miterlimit:2;"><path d="M21.675,11.904c-8.271,-6.212 -21.675,-11.016 -21.675,4.275c0,3.05 1.75,25.654 2.779,29.321c3.567,12.754 16.575,16.008 28.146,14.037c-20.225,3.446 -25.371,14.846 -14.258,26.25c21.104,21.65 30.329,-5.433 32.695,-12.375c0.43,-1.27 0.638,-1.866 0.638,-1.362c0.004,-0.504 0.204,0.092 0.638,1.362c2.362,6.942 11.591,34.025 32.695,12.375c11.113,-11.404 5.967,-22.804 -14.258,-26.245c11.571,1.966 24.579,-1.288 28.146,-14.042c1.029,-3.671 2.779,-26.271 2.779,-29.321c0,-15.291 -13.404,-10.487 -21.675,-4.275c-11.467,8.604 -23.796,26.058 -28.325,35.421c-4.529,-9.367 -16.858,-26.817 -28.325,-35.421Z"/></svg>