<svg xmlns="http://www.w3.org/2000/svg" height="48px" viewBox="0 -960 960 960" width="48px" fill="#000000"><path d="M377.67-178.67v-106h493v106h-493Zm0-248v-106h493v106h-493Zm0-249.33v-106h493v106h-493ZM180.46-142q-37.16 0-63.64-26.17-26.49-26.18-26.49-63.82 0-36.34 26.49-62.84 26.48-26.5 63.94-26.5 36.79 0 62.52 26.83Q269-267.67 269-230.99q0 36.81-26.3 62.9Q216.4-142 180.46-142Zm0-248q-37.16 0-63.64-26.72-26.49-26.73-26.49-64 0-37.28 26.81-63.45 26.8-26.16 63.95-26.16 35.94 0 61.93 26.72 25.98 26.72 25.98 64t-26.3 63.44Q216.4-390 180.46-390ZM116.5-665.85q-26.17-26.51-26.17-63.5 0-36.98 26.38-63.15t63.17-26.17q36.79 0 62.95 26.52Q269-765.64 269-728.65q0 36.98-26.38 63.15-26.37 26.17-63.16 26.17-36.79 0-62.96-26.52Z"/></svg>