<svg xmlns="http://www.w3.org/2000/svg" height="48px" viewBox="0 -960 960 960" width="48px" fill="#000000"><path d="M242-399h309v-60H242v60Zm0-129h476v-60H242v60Zm0-128h411v2q-18-12-32.5-27.5T595.71-716H242v60ZM59-60v-749q0-37.59 26.91-64.79Q112.83-901 150-901h430q-9 23-13 46t-2 46H150v548l41-47h619v-328q26.68-4.73 50.34-18.86Q884-669 902-690v382q0 37.17-27.21 64.09Q847.59-217 810-217H216L59-60Zm91-749v501-501Zm528 67.62q-33-34.38-33-82T678.41-905q33.41-34 82-34T843-904.62q34 34.38 34 82T842.88-741q-34.12 34-83 34T678-741.38Z"/></svg>