<svg xmlns="http://www.w3.org/2000/svg" height="48px" viewBox="0 -960 960 960" width="48px" fill="#000000"><path d="M479.74-358q-51.21 0-86.48-35.57Q358-429.13 358-479.94q0-51.56 35.57-86.81Q429.13-602 479.94-602q51.56 0 86.81 35.53T602-479.74q0 51.21-35.53 86.48Q530.94-358 479.74-358ZM316.3-91.7q-77.02-32.71-134.67-90.2-57.64-57.49-90.14-134.43Q59-393.28 59-480.14t32.7-163.67q32.7-76.81 90.05-133.8 57.34-56.99 134.19-90.69Q392.78-902 479.78-902q86.99 0 163.97 33.7 76.97 33.71 134.12 90.7 57.14 56.99 90.64 134.03Q902-566.54 902-479.58q0 86.97-33.7 163.73-33.7 76.76-90.69 134.1-56.99 57.35-133.75 90.05Q567.11-59 480.22-59q-86.9 0-163.92-32.7ZM479.27-150q137.25 0 233.99-96.01 96.74-96 96.74-233.26 0-137.25-96.49-233.99Q617.02-810 479.76-810q-137.25 0-233.51 96.49Q150-617.02 150-479.76q0 137.25 96.01 233.51 96 96.25 233.26 96.25Zm.73-330Zm150 150.81q61-62.18 61-151Q691-569 630.16-630t-149.95-61q-89.1 0-151.16 60.84Q267-569.32 267-480.21q0 89.1 62.19 151.16 62.18 62.05 151 62.05Q569-267 630-329.19Z"/></svg>