<svg xmlns="http://www.w3.org/2000/svg" height="48px" viewBox="0 -960 960 960" width="48px" fill="#000000"><path d="M253-138q-95.41 0-163.7-67.4Q21-272.8 21-370.49q0-81.44 51-147.47Q123-584 204-597q22-100 100.22-162.5T482.6-822q114.4 0 195.9 82.5T767-541v24q75 8 123.5 60.91T939-327q0 78.67-55.17 133.83Q828.67-138 750-138H253Zm.42-91H748q40.84 0 70.42-29.5T848-329.31q0-41.31-29.51-70.68-29.51-29.37-70.24-29.37H677v-94.15q0-86.75-57.65-146.62Q561.71-730 478.47-730q-85.47 0-142.9 63.59-57.42 63.58-57.42 153.67h-27.9q-57.2 0-97.73 40.44Q112-431.86 112-371.69 112-313 153.57-271q41.58 42 99.85 42ZM480-480Zm30 154.82q13-12.18 13-29.3Q523-373 510.21-385t-30.02-12q-17.23 0-29.21 11.84Q439-373.33 439-355.5q0 18.52 12.07 30.51 12.07 11.99 29 11.99T510-325.18ZM439-452h84v-196h-84v196Z"/></svg>