<?xml version="1.0" encoding="UTF-8" standalone="no"?><!DOCTYPE svg PUBLIC "-//W3C//DTD SVG 1.1//EN" "http://www.w3.org/Graphics/SVG/1.1/DTD/svg11.dtd"><svg width="100%" height="100%" viewBox="0 0 2134 2134" version="1.1" xmlns="http://www.w3.org/2000/svg" xmlns:xlink="http://www.w3.org/1999/xlink" xml:space="preserve" xmlns:serif="http://www.serif.com/" style="fill-rule:evenodd;clip-rule:evenodd;stroke-linejoin:round;stroke-miterlimit:2;"><path d="M862.222,1955.56l-44.444,-280c-28.146,-10.368 -57.778,-24.448 -88.889,-42.226c-31.111,-17.778 -58.517,-36.295 -82.226,-55.552l-262.222,120l-206.663,-364.445l240,-175.559c-2.966,-13.333 -4.814,-28.515 -5.554,-45.554c-0.74,-17.038 -1.116,-32.22 -1.116,-45.553c-0,-13.334 0.376,-28.516 1.116,-45.554c0.74,-17.038 2.588,-32.221 5.554,-45.554l-240,-175.559l206.67,-364.444l262.222,120c23.702,-19.257 51.108,-37.775 82.219,-55.552c31.111,-17.778 60.743,-31.112 88.889,-40l44.444,-282.226l408.889,-0l44.445,280c28.145,10.368 58.147,24.071 89.998,41.109c31.85,17.038 58.887,35.925 81.109,56.669l262.222,-120l206.671,364.444l-240,171.115c2.965,14.812 4.814,30.734 5.553,47.772c0.74,17.038 1.11,32.967 1.11,47.78c-0,14.812 -0.37,30.371 -1.11,46.67c-0.739,16.291 -2.588,31.851 -5.553,46.663l240,173.333l-206.671,364.445l-262.222,-120c-23.701,19.257 -50.738,38.151 -81.109,56.668c-30.372,18.518 -60.366,32.221 -89.998,41.11l-44.445,280l-408.889,-0Zm204.445,-600c80,-0 148.145,-28.146 204.444,-84.445c56.299,-56.299 84.445,-124.444 84.445,-204.444c-0,-80 -28.146,-148.146 -84.445,-204.445c-56.299,-56.298 -124.444,-84.444 -204.444,-84.444c-80,-0 -148.146,28.146 -204.445,84.444c-56.298,56.299 -84.444,124.445 -84.444,204.445c-0,80 28.146,148.145 84.444,204.444c56.299,56.299 124.445,84.445 204.445,84.445Z" style="fill-rule:nonzero;"/></svg>