<svg xmlns="http://www.w3.org/2000/svg" height="48px" viewBox="0 -960 960 960" width="48px" fill="#000000"><path d="m687.65-227.13-54.87-54.11L830.3-480.76 632.78-679.52l54.87-53.87 253.63 252.63-253.63 253.63Zm-414.3 0L19.72-480l253.63-253.39 54.87 53.87L130.17-480l198.05 198.76-54.87 54.11Zm20.44-226.22q-11.12-11.31-11.12-27.48t11.31-27.29q11.31-11.12 27.48-11.12t27.29 11.31q11.12 11.31 11.12 27.48t-11.31 27.29q-11.31 11.12-27.48 11.12t-27.29-11.31Zm159.37 0q-11.12-11.31-11.12-27.48t11.31-27.29q11.31-11.12 27.48-11.12t27.29 11.31q11.12 11.31 11.12 27.48t-11.31 27.29q-11.31 11.12-27.48 11.12t-27.29-11.31Zm159.73 0q-11-11.31-11-27.48t11.19-27.29q11.19-11.12 27.36-11.12t27.29 11.31q11.12 11.31 11.12 27.48t-11.31 27.29q-11.31 11.12-27.48 11.12t-27.17-11.31Z"/></svg>