<svg xmlns="http://www.w3.org/2000/svg" height="48px" viewBox="0 -960 960 960" width="48px" fill="#000000"><path d="M623-591.74q-18-18.73-18-45 0-26.26 18.18-43.76 18.17-17.5 43.94-17.5 25.76 0 44.32 17.68Q730-662.65 730-636.38q0 26.26-18.74 44.82Q692.53-573 666.76-573 641-573 623-591.74Zm-373.94 0q-18.06-18.73-18.06-45 0-26.26 18.24-43.76 18.23-17.5 44-17.5Q319-698 337-680.32q18 17.67 18 43.94 0 26.26-18.18 44.82Q318.65-573 292.88-573q-25.76 0-43.82-18.74ZM435.5-477.18Q418-494.35 418-521.12q0-26.76 17.68-45.32Q453.35-585 480.18-585 507-585 525-566.26q18 18.73 18 45.5Q543-494 524.82-477q-18.17 17-45 17-26.82 0-44.32-17.18Zm0-229q-17.5-18.17-17.5-44.5Q418-777 435.68-795q17.67-18 44.5-18Q507-813 525-794.82q18 18.17 18 44.5Q543-724 524.82-706q-18.17 18-45 18-26.82 0-44.32-18.18Zm3.92 555.73q-21.57-3.45-40.42-7.19v-150.25q0-35.79 22.46-62.45Q443.91-397 479.96-397 516-397 539-370.34t23 62.45v150.25q-19.85 3.74-41.4 7.19-21.55 3.45-40.58 3.45-19.02 0-40.6-3.45ZM337-181q-19.96-7.16-40.7-18.11-20.74-10.95-36.26-22.7-29.86-19.07-46.95-52.28Q196-307.3 196-347q0-26.8-5.5-51.4Q185-423 171-443q-11.09-12.69-41.09-40.01Q99.91-510.33 78-533q-13-14-13-30.5T77.5-593q12.5-14 29-14t29.5 14l160.84 150.01Q315-424 326-398.5q11 25.5 11 53.5v164Zm287 0v-164q0-28 12.99-53.81 13-25.81 32.94-43.71l154.25-150.75Q836-605 854-604.5t29.5 11.5q11.5 13 11.5 29.5T883-533q-22.91 22.67-52.91 49.04-30 26.38-40.09 40.96-15 21-20 45t-5 50.75q0 39.88-18 73.06-18 33.19-46.71 52.21-17.94 12.56-37.53 23.06Q643.18-188.41 624-181Z"/></svg>