<?xml version="1.0" encoding="UTF-8" standalone="no"?><!DOCTYPE svg PUBLIC "-//W3C//DTD SVG 1.1//EN" "http://www.w3.org/Graphics/SVG/1.1/DTD/svg11.dtd"><svg width="100%" height="100%" viewBox="0 0 417 417" version="1.1" xmlns="http://www.w3.org/2000/svg" xmlns:xlink="http://www.w3.org/1999/xlink" xml:space="preserve" xmlns:serif="http://www.serif.com/" style="fill-rule:evenodd;clip-rule:evenodd;stroke-linejoin:round;stroke-miterlimit:2;"><path d="M378.871,127.204c-10.621,-24.808 -25.992,-47.304 -45.242,-66.212c-19.291,-19.059 -42.083,-34.209 -67.121,-44.621c-26.037,-10.854 -53.975,-16.421 -82.187,-16.371l-152.654,-0c-5.734,0 -10.45,4.717 -10.45,10.45l-0,65.367c-0,2.812 1.108,5.416 3.108,7.396l72.292,71.579c2.021,2.004 4.771,3.112 7.621,3.075l79.166,-0c13.992,-0 27.084,5.433 36.892,15.275c9.671,9.704 14.862,22.5 14.633,36.025c-0.5,27.275 -23.312,49.462 -50.883,49.462l-117.013,0c-2.804,-0.008 -5.504,1.088 -7.5,3.054c-1.95,1.98 -3.058,4.638 -3.091,7.413l-0,65.35c-0,2.812 1.091,5.416 3.091,7.412l71.855,71.163c2.125,2.317 5.125,3.642 8.266,3.646l44.65,-0c28.209,0.02 56.138,-5.554 82.171,-16.404c25.033,-10.425 47.825,-25.584 67.117,-44.638c19.246,-18.917 34.62,-41.4 45.262,-66.196c10.992,-25.679 16.596,-52.971 16.596,-81.079c0,-28.108 -5.571,-55.379 -16.596,-81.058l0.017,-0.088Zm-250.121,253.542l-51.129,-50.642l-0,-37.1l51.129,47.829l0,39.913Zm230.642,-99.513c-9.567,22.313 -23.396,42.546 -40.713,59.567c-17.358,17.158 -37.875,30.8 -60.416,40.171c-23.43,9.762 -48.575,14.762 -73.959,14.704l-34.425,0.004l0,-48.854l33.263,0c37.241,0 72.241,-13.925 98.525,-39.133c27.229,-25.884 42.629,-61.875 42.554,-99.446c-0,-37.796 -15.104,-73.092 -42.554,-99.442c-26.284,-25.246 -61.25,-39.133 -98.525,-39.133l-72.221,-0l-52.188,-48.804l125.592,-0c25.675,-0 50.538,4.95 73.938,14.708c22.529,9.383 43.041,23.017 60.416,40.154c17.313,17.029 31.142,37.267 40.713,59.584c9.912,23.091 14.933,47.62 14.933,72.95c0,25.35 -5.021,49.879 -14.933,72.97Zm-265.434,-1.737l90.105,-0c39.029,-0 71.3,-31.371 71.995,-69.967c0.363,-19.1 -7.12,-37.541 -20.695,-50.987c-13.755,-13.834 -32.505,-21.584 -52.013,-21.513l-68.662,0.004l-0,-46.479l69.375,0c31.787,0 61.683,12.258 84.183,34.479c22.325,21.942 34.908,51.959 34.908,83.259c0,32.562 -13.621,63.683 -37.546,85.77c-22.145,20.588 -51.308,32.013 -81.545,31.946l-40.4,0l-49.705,-46.496l0,-0.016Zm-51.579,-208.004l0,-37.084l51.129,47.834l0.017,39.875l-51.146,-50.625Z" style="fill:url(#_Radial1);"/><defs><radialGradient id="_Radial1" cx="0" cy="0" r="1" gradientUnits="userSpaceOnUse" gradientTransform="matrix(249.363,-370.198,446.195,375.715,77.5589,382.088)"><stop offset="0" style="stop-color:#6de0e2;stop-opacity:1"/><stop offset="0.46" style="stop-color:#4c99ff;stop-opacity:1"/><stop offset="1" style="stop-color:#e07ded;stop-opacity:1"/></radialGradient></defs></svg>