<?xml version="1.0" encoding="UTF-8" standalone="no"?><!DOCTYPE svg PUBLIC "-//W3C//DTD SVG 1.1//EN" "http://www.w3.org/Graphics/SVG/1.1/DTD/svg11.dtd"><svg width="100%" height="100%" viewBox="0 0 100 100" version="1.1" xmlns="http://www.w3.org/2000/svg" xmlns:xlink="http://www.w3.org/1999/xlink" xml:space="preserve" xmlns:serif="http://www.serif.com/" style="fill-rule:evenodd;clip-rule:evenodd;stroke-linejoin:round;stroke-miterlimit:2;"><path d="M90.929,30.529c-2.549,-5.954 -6.238,-11.353 -10.858,-15.891c-4.63,-4.574 -10.1,-8.21 -16.109,-10.709c-6.249,-2.605 -12.954,-3.941 -19.725,-3.929l-36.608,0c-0.01,-0 -0.019,-0 -0.029,-0c-1.376,-0 -2.508,1.132 -2.508,2.508c-0,0.002 -0,0.003 -0,0.005l-0,15.683c-0,0.675 0.266,1.3 0.746,1.775l17.35,17.179c0.485,0.481 1.145,0.747 1.829,0.738l19,-0c3.358,-0 6.5,1.304 8.854,3.666c2.321,2.329 3.567,5.4 3.512,8.646c-0.12,6.546 -5.595,11.871 -12.212,11.871l-28.083,-0c-0.673,-0.002 -1.321,0.261 -1.8,0.733c-0.468,0.475 -0.734,1.113 -0.742,1.779l-0,15.684c-0,0.675 0.262,1.3 0.742,1.779l17.245,17.079c0.51,0.556 1.23,0.874 1.984,0.875l10.716,0c6.77,0.005 13.473,-1.333 19.721,-3.937c6.008,-2.502 11.478,-6.14 16.108,-10.713c4.619,-4.54 8.309,-9.936 10.863,-15.887c2.638,-6.163 3.983,-12.713 3.983,-19.459c0,-6.746 -1.337,-13.291 -3.983,-19.454l0.004,-0.021Zm-80.758,-13.371l-0,-8.9l12.271,11.48l0.004,9.57l-12.275,-12.15Zm20.729,74.221l-12.271,-12.154l0,-8.904l12.271,11.479l-0,9.579Zm-8.35,-24.3l21.625,0c9.367,0 17.112,-7.529 17.279,-16.792c0.087,-4.584 -1.709,-9.01 -4.967,-12.237c-3.301,-3.32 -7.801,-5.18 -12.483,-5.163l-16.479,0.001l-0,-11.155l16.65,0c7.629,0 14.804,2.942 20.204,8.275c5.358,5.266 8.378,12.47 8.378,19.982c0,7.815 -3.269,15.284 -9.011,20.585c-5.315,4.941 -12.314,7.683 -19.571,7.667l-9.696,-0l-11.929,-11.159l0,-0.004Zm63.704,0.417c-2.296,5.355 -5.615,10.211 -9.771,14.296c-4.166,4.118 -9.09,7.392 -14.5,9.641c-5.623,2.343 -11.658,3.543 -17.75,3.529l-8.262,0.001l-0,-11.725l7.983,-0c8.938,-0 17.338,-3.342 23.646,-9.392c6.535,-6.212 10.231,-14.85 10.213,-23.867c-0,-9.071 -3.625,-17.542 -10.213,-23.866c-6.308,-6.059 -14.7,-9.392 -23.646,-9.392l-17.333,-0l-12.525,-11.713l30.142,0c6.162,0 12.129,1.188 17.745,3.53c5.407,2.252 10.33,5.524 14.5,9.637c4.155,4.087 7.474,8.944 9.771,14.3c2.379,5.542 3.584,11.429 3.584,17.508c-0,6.084 -1.205,11.971 -3.584,17.513Z" style="fill-rule:nonzero;"/></svg>