<?xml version="1.0" encoding="UTF-8" standalone="no"?><!DOCTYPE svg PUBLIC "-//W3C//DTD SVG 1.1//EN" "http://www.w3.org/Graphics/SVG/1.1/DTD/svg11.dtd"><svg width="100%" height="100%" viewBox="0 0 4846 3750" version="1.1" xmlns="http://www.w3.org/2000/svg" xmlns:xlink="http://www.w3.org/1999/xlink" xml:space="preserve" xmlns:serif="http://www.serif.com/" style="fill-rule:evenodd;clip-rule:evenodd;stroke-linejoin:round;stroke-miterlimit:2;"><path d="M4103.62,314.069c-313.577,-146.731 -648.878,-253.363 -999.412,-314.069c-43.051,77.831 -93.349,182.515 -128.035,265.796c-372.637,-56.032 -741.848,-56.032 -1107.63,-0c-34.667,-83.281 -86.1,-187.965 -129.548,-265.796c-350.913,60.706 -686.611,167.736 -1000.19,314.845c-632.491,955.794 -803.955,1887.84 -718.232,2806.66c419.509,313.274 826.056,503.585 1225.75,628.119c98.685,-135.831 186.697,-280.215 262.522,-432.377c-144.403,-54.859 -282.713,-122.585 -413.397,-201.192c34.667,-25.679 68.578,-52.55 101.353,-80.178c797.085,372.826 1663.16,372.826 2450.75,-0c33.135,27.628 67.045,54.499 101.334,80.178c-131.062,79.004 -269.751,146.712 -414.154,201.589c75.806,151.765 163.459,296.546 262.522,432.359c400.075,-124.534 807.001,-314.827 1226.51,-628.498c100.596,-1065.15 -171.843,-1988.64 -720.144,-2807.43Zm-2486.17,2242.37c-239.285,0 -435.519,-223.389 -435.519,-495.41c0,-272.022 192.052,-495.789 435.519,-495.789c243.485,-0 439.701,223.37 435.518,495.789c0.379,272.021 -192.033,495.41 -435.518,495.41Zm1609.44,0c-239.284,0 -435.499,-223.389 -435.499,-495.41c-0,-272.022 192.033,-495.789 435.499,-495.789c243.486,-0 439.701,223.37 435.519,495.789c-0,272.021 -192.033,495.41 -435.519,495.41Z" style="fill:url(#_Radial1);"/><defs><radialGradient id="_Radial1" cx="0" cy="0" r="1" gradientUnits="userSpaceOnUse" gradientTransform="matrix(2.6534e-13,4333.33,-6033.56,3.69449e-13,2422.92,-291.667)"><stop offset="0" style="stop-color:#3d99f5;stop-opacity:1"/><stop offset="1" style="stop-color:#5865f2;stop-opacity:1"/></radialGradient></defs></svg>