<?xml version="1.0" encoding="UTF-8" standalone="no"?>
<!DOCTYPE svg PUBLIC "-//W3C//DTD SVG 1.1//EN" "http://www.w3.org/Graphics/SVG/1.1/DTD/svg11.dtd">
<svg width="100%" height="100%" viewBox="0 0 48 48" version="1.1" xmlns="http://www.w3.org/2000/svg" xmlns:xlink="http://www.w3.org/1999/xlink" xml:space="preserve" xmlns:serif="http://www.serif.com/" style="fill-rule:evenodd;clip-rule:evenodd;stroke-linejoin:round;stroke-miterlimit:2;">
    <g transform="matrix(0.05,0,0,0.05,0,48)">
        <path d="M430,-79.336L140.48,-245.61C128.007,-252.723 118.61,-262.053 112.29,-273.6C105.963,-285.147 102.8,-297.68 102.8,-311.2L102.8,-429.76L299.39,-429.76L299.39,-299.91L430,-299.91L430,-79.336ZM102.8,-529.76L102.8,-649.33C102.8,-662.623 105.903,-674.927 112.11,-686.24C118.31,-697.553 127.847,-707.19 140.72,-715.15L430,-880.704L430,-660.61L299.39,-660.61L299.39,-529.76L102.8,-529.76ZM395.7,-396.22L395.7,-564.3L564.54,-564.3L564.54,-396.22L395.7,-396.22ZM530,-79.345L530,-299.91L661.09,-299.91L661.09,-429.76L857.43,-429.76L857.43,-311.2C857.43,-297.727 854.193,-285.23 847.72,-273.71C841.247,-262.19 831.767,-252.823 819.28,-245.61L530,-79.345ZM661.09,-529.76L661.09,-660.61L530,-660.61L530,-880.704L819.28,-715.15C831.767,-706.977 841.247,-697.267 847.72,-686.02C854.193,-674.773 857.43,-662.543 857.43,-649.33L857.43,-529.76L661.09,-529.76Z" style="fill-rule:nonzero;"/>
    </g>
</svg>
