<?xml version="1.0" encoding="UTF-8" standalone="no"?>
<!DOCTYPE svg PUBLIC "-//W3C//DTD SVG 1.1//EN" "http://www.w3.org/Graphics/SVG/1.1/DTD/svg11.dtd">
<svg width="100%" height="100%" viewBox="0 0 800 800" version="1.1" xmlns="http://www.w3.org/2000/svg" xmlns:xlink="http://www.w3.org/1999/xlink" xml:space="preserve" xmlns:serif="http://www.serif.com/" style="fill-rule:evenodd;clip-rule:evenodd;stroke-linejoin:round;stroke-miterlimit:2;">
    <g transform="matrix(1.61865,0,0,1.61865,0,0.000809325)">
        <g transform="matrix(-1,0,0,1,450.881,0)">
            <path d="M85.211,123.173L119.211,157.173L119.211,70.025L199.725,70.025L199.725,423.778L119.211,423.713L119.211,337.065L85.211,371.065L85.211,457.685L199.725,457.779L199.725,494.238L408.81,456.683L409.026,37.816L199.725,0L199.725,36.025L85.211,36.025L85.211,123.173ZM228.144,460.26L228.144,34.013L380.595,61.558L380.404,432.912L228.144,460.26Z"/>
        </g>
        <g transform="matrix(-1,0,0,1,450.881,0)">
            <path d="M246.76,230.574C239.738,230.574 234.044,237.982 234.045,247.119C234.045,256.258 239.737,263.664 246.76,263.664C253.783,263.664 259.475,256.258 259.475,247.119C259.475,237.982 253.782,230.574 246.76,230.574Z"/>
        </g>
        <g transform="matrix(-0.650471,0,0,2.62235,513.77,-713.275)">
            <path d="M94.372,378.052L228.375,378.052L228.375,400L364.502,366.234L228.375,332.468L228.375,354.416L94.372,354.416L94.372,378.052ZM125.715,370.277L125.715,362.19L259.717,362.19L259.717,351.237L320.177,366.234L259.717,381.231L259.717,370.277L125.715,370.277Z"/>
        </g>
    </g>
</svg>
