<?xml version="1.0" encoding="UTF-8" standalone="no"?><!DOCTYPE svg PUBLIC "-//W3C//DTD SVG 1.1//EN" "http://www.w3.org/Graphics/SVG/1.1/DTD/svg11.dtd"><svg width="100%" height="100%" viewBox="0 0 1738 1738" version="1.1" xmlns="http://www.w3.org/2000/svg" xmlns:xlink="http://www.w3.org/1999/xlink" xml:space="preserve" xmlns:serif="http://www.serif.com/" style="fill-rule:evenodd;clip-rule:evenodd;stroke-linejoin:round;stroke-miterlimit:2;"><path d="M658.35,1713.75l0,-577.258l-178.958,-0l-0,-265.259l178.958,0l0,-114.287c-0,-295.504 133.683,-432.433 423.75,-432.433c29.013,-0 69.079,3.041 106.2,7.449c27.796,2.863 55.363,7.571 82.533,14.096l0,240.521c-15.712,-1.458 -31.458,-2.325 -47.237,-2.604c-17.675,-0.45 -35.35,-0.658 -53.025,-0.642c-51.142,0 -91.075,6.946 -121.163,22.346c-20.225,10.154 -37.237,25.746 -49.112,45c-18.663,30.379 -27.067,71.975 -27.067,126.734l0,93.82l283.492,0l-27.917,152.134l-20.766,113.125l-234.809,-0l0,596.441c429.846,-51.941 762.884,-417.9 762.884,-861.7c-0,-479.375 -388.684,-868.058 -868.059,-868.058c-479.391,-0 -868.054,388.683 -868.054,868.058c0,407.117 280.242,748.696 658.35,842.517Z" style="fill:url(#_Radial1);"/><defs><radialGradient id="_Radial1" cx="0" cy="0" r="1" gradientUnits="userSpaceOnUse" gradientTransform="matrix(-1679.38,5041.28,-4805.36,-1353.78,2256.88,-3081.89)"><stop offset="0" style="stop-color:#b8ffff;stop-opacity:1"/><stop offset="0.46" style="stop-color:#86d4ff;stop-opacity:1"/><stop offset="1" style="stop-color:#0866ff;stop-opacity:1"/></radialGradient></defs></svg>