<?xml version="1.0" encoding="UTF-8" standalone="no"?><!DOCTYPE svg PUBLIC "-//W3C//DTD SVG 1.1//EN" "http://www.w3.org/Graphics/SVG/1.1/DTD/svg11.dtd"><svg width="100%" height="100%" viewBox="0 0 2134 2134" version="1.1" xmlns="http://www.w3.org/2000/svg" xmlns:xlink="http://www.w3.org/1999/xlink" xml:space="preserve" xmlns:serif="http://www.serif.com/" style="fill-rule:evenodd;clip-rule:evenodd;stroke-linejoin:round;stroke-miterlimit:2;"><path d="M2016.67,306.667l-0,1520c-0,104.864 -85.136,190 -190,190l-1520,-0c-104.864,-0 -190,-85.136 -190,-190l-0,-1520c-0,-104.864 85.136,-190 190,-190l1520,-0c104.864,-0 190,85.136 190,190Zm-89.063,19.593c0,-66.523 -54.008,-120.531 -120.531,-120.531l-1480.81,0c-66.523,0 -120.531,54.008 -120.531,120.531l0,1480.81c0,66.523 54.008,120.531 120.531,120.531l1480.81,0c66.523,0 120.531,-54.008 120.531,-120.531l0,-1480.81Zm-81.64,39.039l-0,1402.74c-0,43.01 -34.92,77.93 -77.93,77.93l-1402.74,-0c-43.01,-0 -77.929,-34.92 -77.929,-77.93l-0,-1402.74c-0,-43.01 34.919,-77.929 77.929,-77.929l1402.74,-0c43.01,-0 77.93,34.919 77.93,77.929Z"/></svg>