<svg xmlns="http://www.w3.org/2000/svg" height="48px" viewBox="0 -960 960 960" width="48px" fill="#000000"><path d="M144.26-183.33q-43.98 0-69.84-32.57-25.85-32.58-19.62-83.06L102.57-634q7.78-57.86 54.39-100.39 46.6-42.52 105.76-42.52h435.56q58.8 0 105.45 42.63 46.65 42.63 54.7 100.28l46.77 335.04q7.23 50.2-19.44 82.92-26.67 32.71-68.91 32.71-25.09 0-44.92-8.62-19.84-8.62-32.08-21.85L638.07-314.09H322.43L221.39-213.8q-13.12 13.23-32.71 21.85-19.6 8.62-44.42 8.62ZM730.78-452.1q13.11-12.96 13.11-29.55t-12.9-29.85q-12.91-13.26-29.55-13.26t-29.9 13.07q-13.26 13.07-13.26 29.66 0 16.6 13.05 29.74 13.05 13.14 29.69 13.14t29.76-12.95Zm-84.4-128.47q13.14-13.05 13.14-29.67 0-16.61-12.95-29.87-12.95-13.26-29.66-13.26t-29.86 13.05q-13.14 13.05-13.14 29.66 0 16.62 12.95 29.88 12.96 13.26 29.67 13.26t29.85-13.05ZM295.91-444.39h55.85v-73.57h73.57v-55.61h-73.57v-73.56h-55.85v73.56h-73.8v55.61h73.8v73.57Z"/></svg>