<svg xmlns="http://www.w3.org/2000/svg" height="48px" viewBox="0 -960 960 960" width="48px" fill="#000000"><path d="M479.86-56Q392-56 314.75-89.48q-77.24-33.47-134.38-90.86-57.15-57.39-90.76-134.67Q56-392.28 56-480.14t33.48-165.11q33.47-77.24 90.86-134.38 57.39-57.15 134.67-90.76Q392.28-904 480.14-904t165.11 33.48q77.24 33.47 134.38 90.86 57.15 57.39 90.76 134.67Q904-567.72 904-479.86t-33.48 165.11q-33.47 77.24-90.86 134.38-57.39 57.15-134.67 90.76Q567.72-56 479.86-56ZM436-130v-85q-37 0-61.5-26.26T350-304.55V-350L138-562q-5 19.5-7 40.5t-2 41.59Q129-346 216.5-245.5T436-130Zm302.74-112q46.66-49.27 69.46-110.95Q831-414.64 831-481q0-109-59.59-198.55Q711.82-769.09 611-810v17.98q0 37.02-24.26 63.52Q562.47-702 525-702h-89v90q0 18-13.5 29T391-572h-87v91h267.43q16.39 0 27.98 13.57T611-437.5V-304h44.21q29.79 0 52.63 17.05 22.84 17.06 30.9 44.95Z"/></svg>