<?xml version="1.0" encoding="UTF-8" standalone="no"?>
<!DOCTYPE svg PUBLIC "-//W3C//DTD SVG 1.1//EN" "http://www.w3.org/Graphics/SVG/1.1/DTD/svg11.dtd">
<svg width="100%" height="100%" viewBox="0 0 48 48" version="1.1" xmlns="http://www.w3.org/2000/svg" xmlns:xlink="http://www.w3.org/1999/xlink" xml:space="preserve" xmlns:serif="http://www.serif.com/" style="fill-rule:evenodd;clip-rule:evenodd;stroke-linejoin:round;stroke-miterlimit:2;">
    <g transform="matrix(0.05,0,0,0.05,0,48)">
        <path d="M479.84,-62.8C422.38,-62.8 368.33,-73.767 317.69,-95.7C267.043,-117.64 222.867,-147.46 185.16,-185.16C147.46,-222.867 117.64,-267.1 95.7,-317.86C73.767,-368.62 62.8,-422.823 62.8,-480.47C62.8,-538.043 73.787,-592.15 95.76,-642.79C117.733,-693.423 147.67,-737.687 185.57,-775.58C223.47,-813.473 267.67,-843.257 318.17,-864.93C368.677,-886.597 422.62,-897.43 480,-897.43C537.627,-897.43 591.877,-886.603 642.75,-864.95C693.617,-843.29 737.913,-813.523 775.64,-775.65C813.373,-737.777 843.107,-693.407 864.84,-642.54C886.567,-591.673 897.43,-537.4 897.43,-479.72C897.43,-422.06 886.597,-368.09 864.93,-317.81C843.257,-267.53 813.473,-223.507 775.58,-185.74C737.687,-147.973 693.33,-118.043 642.51,-95.95C591.69,-73.85 537.467,-62.8 479.84,-62.8ZM549.341,-541.901C568.503,-560.594 578.084,-583.669 578.084,-611.127C578.084,-638.585 568.536,-661.895 549.44,-681.057C530.343,-700.219 507.268,-709.8 480.214,-709.8C453.16,-709.8 430.051,-700.235 410.889,-681.106C391.727,-661.977 382.146,-638.865 382.146,-611.769C382.146,-583.858 391.694,-560.561 410.79,-541.877C429.887,-523.192 452.962,-513.85 480.016,-513.85C507.07,-513.85 530.179,-523.201 549.341,-541.901ZM675.181,-319.136C694.343,-338.282 703.924,-361.406 703.924,-388.51C703.924,-415.622 694.376,-438.709 675.28,-457.773C656.184,-476.844 633.108,-486.38 606.054,-486.38C579,-486.38 555.941,-476.856 536.878,-457.81C517.815,-438.771 508.283,-415.696 508.283,-388.584C508.283,-361.472 517.782,-338.335 536.779,-319.173C555.776,-300.011 578.802,-290.43 605.856,-290.43C632.911,-290.43 656.019,-299.999 675.181,-319.136ZM354.275,-290.43C382.087,-290.43 405.319,-299.999 423.97,-319.136C442.621,-338.282 451.947,-361.406 451.947,-388.51C451.947,-415.622 442.621,-438.709 423.97,-457.773C405.319,-476.844 382.293,-486.38 354.893,-486.38C327.492,-486.38 304.211,-476.856 285.049,-457.81C265.887,-438.771 256.306,-415.696 256.306,-388.584C256.306,-361.472 265.862,-338.335 284.975,-319.173C304.096,-300.011 327.196,-290.43 354.275,-290.43Z"/>
    </g>
</svg>
