<svg xmlns="http://www.w3.org/2000/svg" height="48px" viewBox="0 -960 960 960" width="48px" fill="#000000"><path d="M22-130v-116q0-42.01 21-75.51 21-33.49 60.04-50.51Q178-404 238.7-419q60.7-15 124.3-15 65.94 0 125.97 15T624-372q39.19 15.73 60.59 49.31Q706-289.11 706-246v116H22Zm755 0v-114q0-65-32.5-108T659-432q60 10 113 24.5t88.88 31.94Q896-357 917.5-322.5T939-241v111H777ZM248.5-537.5Q205-581 205-652.45t43.5-115.5Q292-812 362.95-812t116 44.05Q524-723.9 524-652.45T478.95-537.5q-45.05 43.5-116 43.5T248.5-537.5Zm457.12-.5q-44.37 44-114.58 44-13.04 0-23.54-1.5T543-502q26-27.41 38.5-65.26Q594-605.1 594-652.71q0-46.6-12.5-83.44Q569-773 543-804q10.75-3.75 23.5-5.88Q579.25-812 591-812q70.22 0 114.61 44.55t44.39 115Q750-582 705.62-538Z"/></svg>