<?xml version="1.0" encoding="UTF-8" standalone="no"?>
<!DOCTYPE svg PUBLIC "-//W3C//DTD SVG 1.1//EN" "http://www.w3.org/Graphics/SVG/1.1/DTD/svg11.dtd">
<svg width="100%" height="100%" viewBox="0 0 48 48" version="1.1" xmlns="http://www.w3.org/2000/svg" xmlns:xlink="http://www.w3.org/1999/xlink" xml:space="preserve" xmlns:serif="http://www.serif.com/" style="fill-rule:evenodd;clip-rule:evenodd;stroke-linejoin:round;stroke-miterlimit:2;">
    <g transform="matrix(0.05,0,0,0.05,0,48)">
        <path d="M479.84,-62.8C422.38,-62.8 368.33,-73.767 317.69,-95.7C267.043,-117.64 222.867,-147.46 185.16,-185.16C147.46,-222.867 117.64,-267.1 95.7,-317.86C73.767,-368.62 62.8,-422.823 62.8,-480.47C62.8,-538.043 73.787,-592.15 95.76,-642.79C117.733,-693.423 147.67,-737.687 185.57,-775.58C223.47,-813.473 267.67,-843.257 318.17,-864.93C368.677,-886.597 422.62,-897.43 480,-897.43C537.627,-897.43 591.877,-886.603 642.75,-864.95C693.617,-843.29 737.913,-813.523 775.64,-775.65C813.373,-737.777 843.107,-693.407 864.84,-642.54C886.567,-591.673 897.43,-537.4 897.43,-479.72C897.43,-422.06 886.597,-368.09 864.93,-317.81C843.257,-267.53 813.473,-223.507 775.58,-185.74C737.687,-147.973 693.33,-118.043 642.51,-95.95C591.69,-73.85 537.467,-62.8 479.84,-62.8ZM480.45,-140.11C574.203,-140.11 654.213,-173.343 720.48,-239.81C786.753,-306.277 819.89,-386.49 819.89,-480.45C819.89,-574.203 786.837,-654.213 720.73,-720.48C654.617,-786.753 574.353,-819.89 479.94,-819.89C386.433,-819.89 306.42,-786.837 239.9,-720.73C173.373,-654.617 140.11,-574.353 140.11,-479.94C140.11,-386.433 173.343,-306.42 239.81,-239.9C306.277,-173.373 386.49,-140.11 480.45,-140.11Z"/>
    </g>
    <g transform="matrix(0.0617865,0,0,0.0617865,-4.65179,52.8566)">
        <path d="M621.67,-336.86C637.177,-352.353 644.93,-371.067 644.93,-393C644.93,-414.94 637.203,-433.623 621.75,-449.05C606.297,-464.483 587.623,-472.2 565.73,-472.2C543.837,-472.2 525.177,-464.493 509.75,-449.08C494.323,-433.673 486.61,-415 486.61,-393.06C486.61,-371.12 494.297,-352.397 509.67,-336.89C525.043,-321.383 543.677,-313.63 565.57,-313.63C587.463,-313.63 606.163,-321.373 621.67,-336.86Z"/>
    </g>
    <g transform="matrix(0.0617865,0,0,0.0617865,-6.65179,52.8566)">
        <path d="M394.35,-313.63C416.857,-313.63 435.657,-321.373 450.75,-336.86C465.843,-352.353 473.39,-371.067 473.39,-393C473.39,-414.94 465.843,-433.623 450.75,-449.05C435.657,-464.483 417.023,-472.2 394.85,-472.2C372.677,-472.2 353.837,-464.493 338.33,-449.08C322.823,-433.673 315.07,-415 315.07,-393.06C315.07,-371.12 322.803,-352.397 338.27,-336.89C353.743,-321.383 372.437,-313.63 394.35,-313.63Z"/>
    </g>
    <g transform="matrix(0.0617865,0,0,0.0617865,-5.65179,52.8566)">
        <path d="M536.02,-517.13C551.527,-532.257 559.28,-550.93 559.28,-573.15C559.28,-595.37 551.553,-614.233 536.1,-629.74C520.647,-645.247 501.973,-653 480.08,-653C458.187,-653 439.487,-645.26 423.98,-629.78C408.473,-614.3 400.72,-595.597 400.72,-573.67C400.72,-551.083 408.447,-532.23 423.9,-517.11C439.353,-501.99 458.027,-494.43 479.92,-494.43C501.813,-494.43 520.513,-501.997 536.02,-517.13Z"/>
    </g>
</svg>
