<svg xmlns="http://www.w3.org/2000/svg" height="48px" viewBox="0 -960 960 960" width="48px" fill="#000000"><path d="M250.17-161.33Q170.67-232 170.67-339v-292.33l248 241L344.33-315l-68.66-62v43.67q0 61 49.29 99.5t113.5 38.5q64.54 0 113.54-40.31t49-103.38v-136.65q-38.2-14.7-60.77-47.54-22.56-32.84-22.56-72.31 0-39.81 23.5-72.48T601-717.33V-910h105.67v192.67q36.66 16.66 60 49.44Q790-635.12 790-595.56q0 39.56-23.83 72.06-23.84 32.5-59.5 47.83V-339q0 107.33-79.82 177.83-79.81 70.5-188.5 70.5-108.68 0-188.18-70.66Z"/></svg>