<svg xmlns="http://www.w3.org/2000/svg" height="48px" viewBox="0 -960 960 960" width="48px" fill="#000000"><path d="M589-422h162v-70H589v70Zm0-130h162v-70H589v70ZM209-328h320v-5q0-40-42.5-67.5T369-428q-75 0-117.5 27.5T209-333v5Zm211.5-180.5q21.5-20.5 21.5-52T420.5-613Q399-634 369-634t-51.5 21Q296-592 296-560.5t21.5 52Q339-488 369-488t51.5-20.5ZM149-138q-37.17 0-64.09-26.91Q58-191.82 58-229v-502q0-37.59 26.91-64.79Q111.83-823 149-823h662q37.59 0 64.79 27.21Q903-768.59 903-731v502q0 37.18-27.21 64.09Q848.59-138 811-138H149Z"/></svg>