<svg xmlns="http://www.w3.org/2000/svg" height="48px" viewBox="0 -960 960 960" width="48px" fill="#000000"><path d="M427-269h106v-250H427v250Zm94-326.09q17-17.09 17-41T520.91-677q-17.09-17-41-17T439-676.91q-17 17.09-17 41T439.09-595q17.09 17 41 17T521-595.09ZM480.15-32Q321.23-69.81 217.62-208.86 114-347.91 114-516.16v-275.28L480-928l366 136.56v274.84q0 168.8-103.47 307.8Q639.07-69.81 480.15-32ZM480-172q98-40 164-133.33 66-93.33 66-210.16v-182.48L480-783l-230 85.51v181.54q0 117.29 66 210.62T480-172Zm0-306Z"/></svg>