<svg xmlns="http://www.w3.org/2000/svg" height="48px" viewBox="0 -960 960 960" width="48px" fill="#000000"><path d="M745-433v-124H621v-69h124v-123h69v123h123v69H814v124h-69ZM237.8-541.3q-47.8-48.29-47.8-124 0-75.7 47.64-123.7 47.63-48 124-48 76.36 0 124.86 48T535-665.3q0 75.71-48.34 124-48.34 48.3-124.7 48.3-76.37 0-124.16-48.3ZM20-130v-116q0-42.89 21.7-75.66Q63.39-354.43 102-372q76-35 136.22-48.5T361.26-434Q426-434 486-420t136 48q38.61 17.42 60.8 49.67 22.2 32.25 22.2 76.1V-130H20Zm91-91h502v-21q0-15.39-9.27-30.13-9.28-14.74-25-20.98Q513-324 466-333t-105-9q-56 0-103.5 9t-112.07 39.84q-16.48 6.24-25.46 21Q111-257.41 111-242v21Zm309-386.5q23-23.51 23-58 0-34.5-22.96-58-22.97-23.5-57.46-23.5-34.5 0-58.04 23.54T281-665.42q0 34.49 23.5 57.96 23.51 23.46 58 23.46 34.5 0 57.5-23.5ZM362-665Zm0 444Z"/></svg>