<?xml version="1.0" encoding="UTF-8" standalone="no"?><!DOCTYPE svg PUBLIC "-//W3C//DTD SVG 1.1//EN" "http://www.w3.org/Graphics/SVG/1.1/DTD/svg11.dtd"><svg width="100%" height="100%" viewBox="0 0 3334 3334" version="1.1" xmlns="http://www.w3.org/2000/svg" xmlns:xlink="http://www.w3.org/1999/xlink" xml:space="preserve" xmlns:serif="http://www.serif.com/" style="fill-rule:evenodd;clip-rule:evenodd;stroke-linejoin:round;stroke-miterlimit:2;"><path d="M749.967,521.875c-0,-210.75 170.846,-381.597 381.597,-381.597l1070.21,-0c210.75,-0 381.597,170.847 381.597,381.597l-0,2289.58c-0,210.751 -170.847,381.598 -381.597,381.598l-1070.21,-0c-210.751,-0 -381.597,-170.847 -381.597,-381.598l-0,-2289.58Zm659.116,-270.625c9.588,27.129 14.806,56.323 14.806,86.736c-0,47.903 38.833,86.736 86.736,86.736l312.083,0c47.903,0 86.736,-38.833 86.736,-86.736c0,-30.413 5.218,-59.607 14.807,-86.736l-515.168,-0Z"/></svg>