<?xml version="1.0" encoding="UTF-8" standalone="no"?><!DOCTYPE svg PUBLIC "-//W3C//DTD SVG 1.1//EN" "http://www.w3.org/Graphics/SVG/1.1/DTD/svg11.dtd"><svg width="100%" height="100%" viewBox="0 0 3334 3334" version="1.1" xmlns="http://www.w3.org/2000/svg" xmlns:xlink="http://www.w3.org/1999/xlink" xml:space="preserve" xmlns:serif="http://www.serif.com/" style="fill-rule:evenodd;clip-rule:evenodd;stroke-linejoin:round;stroke-miterlimit:2;"><path d="M1132.35,292.917c-126.45,-0 -228.958,102.508 -228.958,228.958l0,2289.58c0,126.451 102.508,228.959 228.958,228.959l1070.21,-0c126.451,-0 228.959,-102.508 228.959,-228.959l-0,-2289.58c-0,-126.45 -102.508,-228.958 -228.959,-228.958l-1.733,-0c-42.15,-0 -76.32,34.169 -76.32,76.319c0,126.45 -102.508,228.958 -228.958,228.958l-457.917,0c-126.45,0 -228.958,-102.508 -228.958,-228.958c-0,-42.15 -34.169,-76.319 -76.32,-76.319Zm215.931,-0c8.437,23.871 13.028,49.559 13.028,76.319c-0,42.15 34.169,76.32 76.319,76.32l457.917,-0c42.15,-0 76.319,-34.17 76.319,-76.32c0,-26.76 4.591,-52.448 13.029,-76.319l-636.612,-0Zm-597.528,228.958c0,-210.75 170.847,-381.597 381.597,-381.597l1070.21,-0c210.751,-0 381.598,170.847 381.598,381.597l-0,2289.58c-0,210.751 -170.847,381.598 -381.598,381.598l-1070.21,-0c-210.75,-0 -381.597,-170.847 -381.597,-381.598l0,-2289.58Z" style="fill-rule:nonzero;"/></svg>