<svg xmlns="http://www.w3.org/2000/svg" height="48px" viewBox="0 -960 960 960" width="48px" fill="#000000"><path d="M227.13-427.13q-22.08-22.09-22.08-52.87 0-30.78 22.08-52.87 22.09-22.08 52.87-22.08 30.78 0 52.87 22.08 22.08 22.09 22.08 52.87 0 30.78-22.08 52.87-22.09 22.08-52.87 22.08-30.78 0-52.87-22.08ZM280-233.86q-102.39 0-174.26-71.88Q33.86-377.61 33.86-480q0-102.39 71.88-174.26 71.87-71.88 174.26-71.88 72.49 0 128.21 34.78 55.72 34.79 87.05 99.74h353.63l118.52 118.29-175.55 166.22-85.58-63.14-85.09 62.42-79.37-60.55h-46.56q-27.25 58.71-82.68 96.62-55.43 37.9-132.58 37.9Zm0-72.81q58.13 0 105.12-37.63 47-37.64 60.44-96.65h121.09l54.3 42.87 86-62.33 78.25 59.19 78.48-72.65-44.94-45.18H445.48q-11.71-55.78-58.32-95.03-46.6-39.25-107.16-39.25-72 0-122.67 50.66Q106.67-552 106.67-480t50.66 122.67Q208-306.67 280-306.67Z"/></svg>