<?xml version="1.0" encoding="UTF-8" standalone="no"?>
<!DOCTYPE svg PUBLIC "-//W3C//DTD SVG 1.1//EN" "http://www.w3.org/Graphics/SVG/1.1/DTD/svg11.dtd">
<svg width="100%" height="100%" viewBox="0 0 800 800" version="1.1" xmlns="http://www.w3.org/2000/svg" xmlns:xlink="http://www.w3.org/1999/xlink" xml:space="preserve" xmlns:serif="http://www.serif.com/" style="fill-rule:evenodd;clip-rule:evenodd;stroke-linejoin:round;stroke-miterlimit:2;">
    <g transform="matrix(2.13889,0,0,2.15217,-247.378,-71.1388)">
        <path d="M489.683,107.398L489.683,330.428C489.683,345.815 477.114,358.307 461.631,358.307L143.709,358.307C128.227,358.307 115.657,345.815 115.657,330.428L115.657,107.398C115.657,92.011 128.227,79.519 143.709,79.519L461.631,79.519C477.114,79.519 489.683,92.011 489.683,107.398ZM472.852,107.398C472.852,101.243 467.824,96.246 461.631,96.246L143.709,96.246C137.516,96.246 132.488,101.243 132.488,107.398L132.488,330.428C132.488,336.583 137.516,341.58 143.709,341.58L461.631,341.58C467.824,341.58 472.852,336.583 472.852,330.428L472.852,107.398Z"/>
        <g transform="matrix(0.566294,0,0,0.5628,143.314,2.43235)">
            <g transform="matrix(300,0,0,300,166.202,487.85)">
                <path d="M0.505,-0C0.678,-0 0.722,-0.078 0.722,-0.197L0.722,-0.231C0.722,-0.392 0.599,-0.396 0.457,-0.396L0.675,-0.564L0.675,-0.688L0.07,-0.688L0.07,-0.551L0.454,-0.551L0.237,-0.377L0.237,-0.292L0.505,-0.292C0.548,-0.292 0.579,-0.276 0.579,-0.213C0.579,-0.15 0.553,-0.135 0.505,-0.135L0.046,-0.135L0.046,-0L0.505,-0Z" style="fill-rule:nonzero;"/>
            </g>
        </g>
    </g>
</svg>
