<?xml version="1.0" encoding="UTF-8" standalone="no"?>
<!DOCTYPE svg PUBLIC "-//W3C//DTD SVG 1.1//EN" "http://www.w3.org/Graphics/SVG/1.1/DTD/svg11.dtd">
<svg width="100%" height="100%" viewBox="0 0 800 800" version="1.1" xmlns="http://www.w3.org/2000/svg" xmlns:xlink="http://www.w3.org/1999/xlink" xml:space="preserve" xmlns:serif="http://www.serif.com/" style="fill-rule:evenodd;clip-rule:evenodd;stroke-linejoin:round;stroke-miterlimit:2;">
    <g transform="matrix(2.13889,0,0,2.15217,-247.378,-71.1388)">
        <path d="M115.657,336.004L115.657,101.822C115.657,89.513 125.713,79.519 138.099,79.519L340.073,79.519L340.073,358.307L138.099,358.307C125.713,358.307 115.657,348.313 115.657,336.004ZM132.488,336.004C132.488,339.081 135.002,341.58 138.099,341.58L323.242,341.58L323.242,96.246L138.099,96.246C135.002,96.246 132.488,98.745 132.488,101.822L132.488,336.004Z"/>
        <path d="M358.774,79.519L467.242,79.519C479.628,79.519 489.683,89.513 489.683,101.822L489.683,209.62L358.774,209.62L358.774,79.519ZM375.605,96.246L375.605,192.893L472.852,192.893L472.852,101.822C472.852,98.745 470.338,96.246 467.242,96.246L375.605,96.246Z"/>
        <g transform="matrix(0.617957,0,0,0.614144,98.121,-30.7324)">
            <path d="M228.452,313.51L230.544,333.497C236.284,335.116 241.812,337.406 247.016,340.32L262.628,327.666C272.979,334.583 281.868,343.471 288.784,353.823L276.13,369.434C279.044,374.638 281.335,380.167 282.953,385.906L302.94,387.998C305.369,400.209 305.369,412.778 302.94,424.989L282.953,427.081C281.335,432.82 279.044,438.349 276.13,443.553L288.784,459.164C281.868,469.516 272.979,478.404 262.628,485.321L247.016,472.667C241.812,475.581 236.284,477.871 230.544,479.49L228.452,499.477C216.242,501.906 203.672,501.906 191.461,499.477L189.37,479.49C183.63,477.871 178.101,475.581 172.898,472.667L157.286,485.321C146.934,478.404 138.046,469.516 131.129,459.164L143.783,443.553C140.869,438.349 138.579,432.82 136.96,427.081L116.973,424.989C114.544,412.778 114.544,400.209 116.973,387.998L136.96,385.906C138.579,380.167 140.869,374.638 143.783,369.434L131.129,353.823C138.046,343.471 146.934,334.583 157.286,327.666L172.898,340.32C178.101,337.406 183.63,335.116 189.37,333.497L191.461,313.51C203.672,311.081 216.242,311.081 228.452,313.51ZM209.957,359.091C236.119,359.091 257.359,380.331 257.359,406.494C257.359,432.656 236.119,453.896 209.957,453.896C183.795,453.896 162.554,432.656 162.554,406.494C162.554,380.331 183.795,359.091 209.957,359.091Z"/>
        </g>
        <g transform="matrix(1.07692,0,0,1.07692,98.2768,57.5041)">
            <path d="M290.982,230.53L290.982,279.318L314.358,279.318L314.358,230.53L363.449,230.53L363.449,207.297L314.358,207.297L314.358,158.509L290.982,158.509L290.982,207.297L241.891,207.297L241.891,230.53L290.982,230.53Z"/>
        </g>
    </g>
</svg>
