<?xml version="1.0" encoding="UTF-8" standalone="no"?>
<!DOCTYPE svg PUBLIC "-//W3C//DTD SVG 1.1//EN" "http://www.w3.org/Graphics/SVG/1.1/DTD/svg11.dtd">
<svg width="100%" height="100%" viewBox="0 0 800 800" version="1.1" xmlns="http://www.w3.org/2000/svg" xmlns:xlink="http://www.w3.org/1999/xlink" xml:space="preserve" xmlns:serif="http://www.serif.com/" style="fill-rule:evenodd;clip-rule:evenodd;stroke-linejoin:round;stroke-miterlimit:2;">
    <g transform="matrix(2.13889,0,0,2.15217,-247.378,-71.1388)">
        <path d="M115.657,128.639L115.657,107.398C115.657,92.011 128.227,79.519 143.709,79.519L161.876,79.519L161.876,96.246L143.709,96.246C137.516,96.246 132.488,101.243 132.488,107.398L132.488,128.639L115.657,128.639ZM225.461,79.519L225.461,96.246L189.126,96.246L189.126,79.519L225.461,79.519ZM289.045,79.519L289.045,96.246L252.711,96.246L252.711,79.519L289.045,79.519ZM352.63,79.519L352.63,96.246L316.296,96.246L316.296,79.519L352.63,79.519ZM416.214,79.519L416.214,96.246L379.88,96.246L379.88,79.519L416.214,79.519ZM489.683,128.639L472.852,128.639L472.852,107.398C472.852,101.243 467.824,96.246 461.631,96.246L443.464,96.246L443.464,79.519L461.631,79.519C477.114,79.519 489.683,92.011 489.683,107.398L489.683,128.639ZM489.683,202.982L472.852,202.982L472.852,160.5L489.683,160.5L489.683,202.982ZM489.683,277.326L472.852,277.326L472.852,234.844L489.683,234.844L489.683,277.326ZM443.464,358.307L443.464,341.58L461.631,341.58C467.824,341.58 472.852,336.583 472.852,330.428L472.852,309.187L489.683,309.187L489.683,330.428C489.683,345.815 477.114,358.307 461.631,358.307L443.464,358.307ZM379.879,358.307L379.879,341.58L416.214,341.58L416.214,358.307L379.879,358.307ZM316.295,358.307L316.295,341.58L352.629,341.58L352.629,358.307L316.295,358.307ZM252.71,358.307L252.71,341.58L289.044,341.58L289.044,358.307L252.71,358.307ZM189.126,358.307L189.126,341.58L225.46,341.58L225.46,358.307L189.126,358.307ZM115.657,309.187L132.488,309.187L132.488,330.428C132.488,336.583 137.516,341.58 143.709,341.58L161.876,341.58L161.876,358.307L143.709,358.307C128.227,358.307 115.657,345.815 115.657,330.428L115.657,309.187ZM115.657,234.844L132.488,234.844L132.488,277.326L115.657,277.326L115.657,234.844ZM115.657,160.5L132.488,160.5L132.488,202.982L115.657,202.982L115.657,160.5Z"/>
        <g transform="matrix(0.409091,0,0,0.501919,135.492,15.1037)">
            <path d="M380.087,429.204L260.087,429.204L260.087,382.917L380.087,382.917L380.087,285.714L437.229,285.714L437.229,382.917L557.229,382.917L557.229,429.204L437.229,429.204L437.229,526.407L380.087,526.407L380.087,429.204Z"/>
        </g>
    </g>
</svg>
