<?xml version="1.0" encoding="UTF-8" standalone="no"?>
<!DOCTYPE svg PUBLIC "-//W3C//DTD SVG 1.1//EN" "http://www.w3.org/Graphics/SVG/1.1/DTD/svg11.dtd">
<svg width="100%" height="100%" viewBox="0 0 800 800" version="1.1" xmlns="http://www.w3.org/2000/svg" xmlns:xlink="http://www.w3.org/1999/xlink" xml:space="preserve" xmlns:serif="http://www.serif.com/" style="fill-rule:evenodd;clip-rule:evenodd;stroke-linejoin:round;stroke-miterlimit:2;">
    <g transform="matrix(2.13889,0,0,2.15217,-247.378,-71.1388)">
        <path d="M489.683,107.398L489.683,330.428C489.683,345.815 477.114,358.307 461.631,358.307L143.709,358.307C128.227,358.307 115.657,345.815 115.657,330.428L115.657,107.398C115.657,92.011 128.227,79.519 143.709,79.519L461.631,79.519C477.114,79.519 489.683,92.011 489.683,107.398ZM323.227,276.994C352.617,276.994 360.092,263.825 360.092,243.733L360.092,237.992C360.092,210.809 339.196,210.134 315.072,210.134L352.108,181.769L352.108,160.832L249.325,160.832L249.325,183.963L314.562,183.963L277.697,213.342L277.697,227.693L323.227,227.693C330.532,227.693 335.798,230.394 335.798,241.031C335.798,251.668 331.381,254.201 323.227,254.201L245.248,254.201L245.248,276.994L323.227,276.994Z"/>
    </g>
</svg>
