<?xml version="1.0" encoding="UTF-8" standalone="no"?>
<!DOCTYPE svg PUBLIC "-//W3C//DTD SVG 1.1//EN" "http://www.w3.org/Graphics/SVG/1.1/DTD/svg11.dtd">
<svg width="100%" height="100%" viewBox="0 0 800 800" version="1.1" xmlns="http://www.w3.org/2000/svg" xmlns:xlink="http://www.w3.org/1999/xlink" xml:space="preserve" xmlns:serif="http://www.serif.com/" style="fill-rule:evenodd;clip-rule:evenodd;stroke-linejoin:round;stroke-miterlimit:2;">
    <g transform="matrix(2.13889,0,0,2.15217,-247.378,-71.1388)">
        <path d="M288.645,358.307L138.099,358.307C125.713,358.307 115.657,348.313 115.657,336.004L115.657,232.852L288.645,232.852L288.645,358.307ZM271.814,341.58L271.814,249.579L132.488,249.579L132.488,336.004C132.488,339.081 135.002,341.58 138.099,341.58L271.814,341.58ZM115.657,204.974L115.657,101.822C115.657,89.513 125.713,79.519 138.099,79.519L288.645,79.519L288.645,204.974L115.657,204.974ZM132.488,188.247L271.814,188.247L271.814,96.246L138.099,96.246C135.002,96.246 132.488,98.745 132.488,101.822L132.488,188.247ZM316.696,79.519L467.242,79.519C479.628,79.519 489.683,89.513 489.683,101.822L489.683,204.974L316.696,204.974L316.696,79.519ZM333.527,96.246L333.527,188.247L472.852,188.247L472.852,101.822C472.852,98.745 470.338,96.246 467.242,96.246L333.527,96.246ZM489.683,232.852L489.683,336.004C489.683,348.313 479.628,358.307 467.242,358.307L316.696,358.307L316.696,232.852L489.683,232.852ZM472.852,249.579L333.527,249.579L333.527,341.58L467.242,341.58C470.338,341.58 472.852,339.081 472.852,336.004L472.852,249.579Z"/>
    </g>
</svg>
