<?xml version="1.0" encoding="UTF-8" standalone="no"?>
<!DOCTYPE svg PUBLIC "-//W3C//DTD SVG 1.1//EN" "http://www.w3.org/Graphics/SVG/1.1/DTD/svg11.dtd">
<svg width="100%" height="100%" viewBox="0 0 800 800" version="1.1" xmlns="http://www.w3.org/2000/svg" xmlns:xlink="http://www.w3.org/1999/xlink" xml:space="preserve" xmlns:serif="http://www.serif.com/" style="fill-rule:evenodd;clip-rule:evenodd;stroke-linejoin:round;stroke-miterlimit:2;">
    <g transform="matrix(2.13889,0,0,2.15217,-247.378,-71.1388)">
        <path d="M358.774,79.519L467.242,79.519C479.628,79.519 489.683,89.513 489.683,101.822L489.683,204.974L358.774,204.974L358.774,79.519ZM115.657,336.004L115.657,101.822C115.657,89.513 125.713,79.519 138.099,79.519L330.723,79.519L330.723,358.307L138.099,358.307C125.713,358.307 115.657,348.313 115.657,336.004ZM223.189,232.082L223.189,312.821L279.294,205.743L223.189,205.743L223.189,125.006L167.086,232.082L223.189,232.082ZM489.683,232.852L489.683,336.004C489.683,348.313 479.628,358.307 467.242,358.307L358.774,358.307L358.774,232.852L489.683,232.852Z" style="stroke:black;stroke-width:0.47px;"/>
    </g>
</svg>
