<?xml version="1.0" encoding="UTF-8" standalone="no"?>
<!DOCTYPE svg PUBLIC "-//W3C//DTD SVG 1.1//EN" "http://www.w3.org/Graphics/SVG/1.1/DTD/svg11.dtd">
<svg width="100%" height="100%" viewBox="0 0 800 800" version="1.1" xmlns="http://www.w3.org/2000/svg" xmlns:xlink="http://www.w3.org/1999/xlink" xml:space="preserve" xmlns:serif="http://www.serif.com/" style="fill-rule:evenodd;clip-rule:evenodd;stroke-linejoin:round;stroke-miterlimit:2;">
    <g transform="matrix(2.13889,0,0,2.86957,-247.378,-228.185)">
        <path d="M115.657,159.67L115.657,101.822C115.657,89.513 129.065,79.519 145.58,79.519L288.645,79.519L288.645,159.67L115.657,159.67ZM316.696,79.519L459.761,79.519C476.276,79.519 489.683,89.513 489.683,101.822L489.683,159.67L316.696,159.67L316.696,79.519ZM489.683,180.58L489.683,257.246L316.696,257.246L316.696,180.58L489.683,180.58ZM489.683,278.156L489.683,336.004C489.683,348.313 476.276,358.307 459.761,358.307L316.696,358.307L316.696,278.156L489.683,278.156ZM288.645,358.307L145.58,358.307C129.065,358.307 115.657,348.313 115.657,336.004L115.657,278.156L288.645,278.156L288.645,358.307ZM115.657,257.246L115.657,180.58L288.645,180.58L288.645,257.246L115.657,257.246Z"/>
    </g>
</svg>
