<?xml version="1.0" encoding="UTF-8" standalone="no"?>
<!DOCTYPE svg PUBLIC "-//W3C//DTD SVG 1.1//EN" "http://www.w3.org/Graphics/SVG/1.1/DTD/svg11.dtd">
<svg width="100%" height="100%" viewBox="0 0 800 800" version="1.1" xmlns="http://www.w3.org/2000/svg" xmlns:xlink="http://www.w3.org/1999/xlink" xml:space="preserve" xmlns:serif="http://www.serif.com/" style="fill-rule:evenodd;clip-rule:evenodd;stroke-linejoin:round;stroke-miterlimit:2;">
    <g transform="matrix(2.13889,0,0,2.15217,-247.378,-71.1388)">
        <g transform="matrix(1,0,0,1,0,0.000375802)">
            <path d="M489.683,107.398L489.683,330.428C489.683,345.815 477.114,358.307 461.631,358.307L143.709,358.307C128.227,358.307 115.657,345.815 115.657,330.428L115.657,107.398C115.657,92.011 128.227,79.519 143.709,79.519L461.631,79.519C477.114,79.519 489.683,92.011 489.683,107.398ZM472.852,107.398C472.852,101.243 467.824,96.246 461.631,96.246L143.709,96.246C137.516,96.246 132.488,101.243 132.488,107.398L132.488,330.428C132.488,336.583 137.516,341.58 143.709,341.58L461.631,341.58C467.824,341.58 472.852,336.583 472.852,330.428L472.852,107.398Z"/>
        </g>
        <g transform="matrix(0.517445,0,0,0.483484,148.385,-61.0054)">
            <path d="M207.814,685.636L207.814,750.987C207.814,778.038 187.166,800 161.733,800L46.08,800C20.648,800 -0,778.038 -0,750.987L-0,685.636C-0,658.585 20.648,636.623 46.08,636.623L161.733,636.623C187.166,636.623 207.814,658.585 207.814,685.636ZM175.286,685.636C175.286,677.68 169.213,671.221 161.733,671.221L46.08,671.221C38.6,671.221 32.527,677.68 32.527,685.636L32.527,750.987C32.527,758.943 38.6,765.403 46.08,765.403L161.733,765.403C169.213,765.403 175.286,758.943 175.286,750.987L175.286,685.636Z"/>
        </g>
    </g>
</svg>
