<?xml version="1.0" encoding="UTF-8" standalone="no"?>
<!DOCTYPE svg PUBLIC "-//W3C//DTD SVG 1.1//EN" "http://www.w3.org/Graphics/SVG/1.1/DTD/svg11.dtd">
<svg width="100%" height="100%" viewBox="0 0 800 800" version="1.1" xmlns="http://www.w3.org/2000/svg" xmlns:xlink="http://www.w3.org/1999/xlink" xml:space="preserve" xmlns:serif="http://www.serif.com/" style="fill-rule:evenodd;clip-rule:evenodd;stroke-linejoin:round;stroke-miterlimit:2;">
    <g transform="matrix(2.13889,0,0,2.15217,-247.378,-71.1388)">
        <path d="M115.657,336.004L115.657,101.822C115.657,89.513 125.713,79.519 138.099,79.519L293.32,79.519L293.32,358.307L138.099,358.307C125.713,358.307 115.657,348.313 115.657,336.004ZM132.488,336.004C132.488,339.081 135.002,341.58 138.099,341.58L276.489,341.58L276.489,96.246L138.099,96.246C135.002,96.246 132.488,98.745 132.488,101.822L132.488,336.004Z"/>
        <path d="M312.021,79.519L467.242,79.519C479.628,79.519 489.683,89.513 489.683,101.822L489.683,209.62L312.021,209.62L312.021,79.519ZM328.852,96.246L328.852,192.893L472.852,192.893L472.852,101.822C472.852,98.745 470.338,96.246 467.242,96.246L328.852,96.246Z"/>
        <path d="M489.683,228.206L489.683,336.004C489.683,348.313 479.628,358.307 467.242,358.307L312.021,358.307L312.021,228.206L489.683,228.206ZM472.852,244.933L328.852,244.933L328.852,341.58L467.242,341.58C470.338,341.58 472.852,339.081 472.852,336.004L472.852,244.933Z"/>
        <g transform="matrix(0.467532,0,0,0.464647,98.2598,37.7259)">
            <path d="M223.008,349.459C223.672,348.353 224.557,347.911 225.884,347.911L228.539,347.911C230.088,347.911 230.973,348.353 231.636,349.459L257.079,400.345C266.371,419.15 269.468,424.017 273.229,430.433L272.566,431.982C265.044,431.318 257.079,431.097 238.052,431.097L192.919,431.097L192.919,435.522L206.194,470.478L344.026,470.478L344.026,468.708L263.937,314.725C261.725,310.742 260.176,309.415 255.088,309.415L199.556,309.415C194.468,309.415 193.14,310.742 191.149,314.725L110.397,468.708L110.397,470.478L163.052,470.478L223.008,349.459Z" style="fill-rule:nonzero;"/>
        </g>
    </g>
</svg>
