<?xml version="1.0" encoding="UTF-8" standalone="no"?>
<!DOCTYPE svg PUBLIC "-//W3C//DTD SVG 1.1//EN" "http://www.w3.org/Graphics/SVG/1.1/DTD/svg11.dtd">
<svg width="100%" height="100%" viewBox="0 0 800 800" version="1.1" xmlns="http://www.w3.org/2000/svg" xmlns:xlink="http://www.w3.org/1999/xlink" xml:space="preserve" xmlns:serif="http://www.serif.com/" style="fill-rule:evenodd;clip-rule:evenodd;stroke-linejoin:round;stroke-miterlimit:2;">
    <g transform="matrix(2.13889,0,0,2.86957,-247.378,-228.185)">
        <path d="M115.657,163.155L115.657,101.822C115.657,89.513 129.065,79.519 145.58,79.519L293.32,79.519L293.32,163.155L115.657,163.155ZM312.021,79.519L459.761,79.519C476.276,79.519 489.683,89.513 489.683,101.822L489.683,163.155L312.021,163.155L312.021,79.519ZM489.683,177.095L489.683,260.731L312.021,260.731L312.021,177.095L489.683,177.095ZM489.683,274.671L489.683,336.004C489.683,348.313 476.276,358.307 459.761,358.307L312.021,358.307L312.021,274.671L489.683,274.671ZM293.32,358.307L145.58,358.307C129.065,358.307 115.657,348.313 115.657,336.004L115.657,274.671L293.32,274.671L293.32,358.307ZM115.657,260.731L115.657,177.095L293.32,177.095L293.32,260.731L115.657,260.731Z"/>
    </g>
</svg>
