<?xml version="1.0" encoding="UTF-8" standalone="no"?>
<!DOCTYPE svg PUBLIC "-//W3C//DTD SVG 1.1//EN" "http://www.w3.org/Graphics/SVG/1.1/DTD/svg11.dtd">
<svg width="100%" height="100%" viewBox="0 0 800 800" version="1.1" xmlns="http://www.w3.org/2000/svg" xmlns:xlink="http://www.w3.org/1999/xlink" xml:space="preserve" xmlns:serif="http://www.serif.com/" style="fill-rule:evenodd;clip-rule:evenodd;stroke-linejoin:round;stroke-miterlimit:2;">
    <g transform="matrix(2.13889,0,0,2.15217,-247.378,-71.1388)">
        <path d="M489.683,107.398L489.683,330.428C489.683,345.815 477.114,358.307 461.631,358.307L143.709,358.307C128.227,358.307 115.657,345.815 115.657,330.428L115.657,107.398C115.657,92.011 128.227,79.519 143.709,79.519L461.631,79.519C477.114,79.519 489.683,92.011 489.683,107.398ZM360.347,276.994L360.347,254.201L267.248,254.201L267.248,240.018C267.248,231.07 271.665,228.537 282.708,228.537L325.18,228.537C352.872,228.537 361.536,219.588 361.536,200.172L361.536,192.912C361.536,170.625 351.003,160.832 323.141,160.832L250.939,160.832L250.939,183.794L323.141,183.794C335.883,183.794 338.092,186.158 338.092,196.964C338.092,206.419 335.883,209.458 323.651,209.458L282.708,209.458C253.827,209.458 243.804,219.42 243.804,241.706L243.804,276.994L360.347,276.994Z"/>
    </g>
</svg>
