<?xml version="1.0" encoding="UTF-8" standalone="no"?>
<!DOCTYPE svg PUBLIC "-//W3C//DTD SVG 1.1//EN" "http://www.w3.org/Graphics/SVG/1.1/DTD/svg11.dtd">
<svg width="100%" height="100%" viewBox="0 0 800 800" version="1.1" xmlns="http://www.w3.org/2000/svg" xmlns:xlink="http://www.w3.org/1999/xlink" xml:space="preserve" xmlns:serif="http://www.serif.com/" style="fill-rule:evenodd;clip-rule:evenodd;stroke-linejoin:round;stroke-miterlimit:2;">
    <g transform="matrix(2.13889,0,0,2.15217,-247.378,-71.1388)">
        <path d="M115.657,336.004L115.657,101.822C115.657,89.513 125.713,79.519 138.099,79.519L340.073,79.519L340.073,358.307L138.099,358.307C125.713,358.307 115.657,348.313 115.657,336.004ZM239.295,161.808C231.749,160.316 223.981,160.316 216.436,161.808L215.143,174.083C211.596,175.077 208.18,176.483 204.964,178.273L195.317,170.502C188.92,174.749 183.427,180.208 179.153,186.565L186.973,196.153C185.172,199.349 183.757,202.744 182.756,206.27L170.405,207.554C168.904,215.053 168.904,222.773 170.405,230.272L182.756,231.556C183.757,235.082 185.172,238.477 186.973,241.673L179.153,251.261C183.427,257.618 188.92,263.077 195.317,267.324L204.964,259.553C208.18,261.343 211.596,262.749 215.143,263.743L216.436,276.018C223.981,277.51 231.749,277.51 239.295,276.018L240.587,263.743C244.134,262.749 247.551,261.343 250.766,259.553L260.413,267.324C266.81,263.077 272.303,257.618 276.577,251.261L268.758,241.673C270.558,238.477 271.974,235.082 272.974,231.556L285.325,230.272C286.826,222.773 286.826,215.053 285.325,207.554L272.974,206.27C271.974,202.744 270.558,199.349 268.758,196.153L276.577,186.565C272.303,180.208 266.81,174.749 260.413,170.502L250.766,178.273C247.551,176.483 244.134,175.077 240.587,174.083L239.295,161.808ZM227.865,189.801C244.032,189.801 257.158,202.846 257.158,218.913C257.158,234.98 244.032,248.025 227.865,248.025C211.698,248.025 198.572,234.98 198.572,218.913C198.572,202.846 211.698,189.801 227.865,189.801Z"/>
        <path d="M358.774,79.519L467.242,79.519C479.628,79.519 489.683,89.513 489.683,101.822L489.683,209.62L358.774,209.62L358.774,79.519Z"/>
        <g transform="matrix(1.07692,0,0,1.07692,98.2768,57.5041)">
            <path d="M290.982,230.53L290.982,279.318L314.358,279.318L314.358,230.53L363.449,230.53L363.449,207.297L314.358,207.297L314.358,158.509L290.982,158.509L290.982,207.297L241.891,207.297L241.891,230.53L290.982,230.53Z"/>
        </g>
    </g>
</svg>
