<?xml version="1.0" encoding="UTF-8" standalone="no"?>
<!DOCTYPE svg PUBLIC "-//W3C//DTD SVG 1.1//EN" "http://www.w3.org/Graphics/SVG/1.1/DTD/svg11.dtd">
<svg width="100%" height="100%" viewBox="0 0 800 800" version="1.1" xmlns="http://www.w3.org/2000/svg" xmlns:xlink="http://www.w3.org/1999/xlink" xml:space="preserve" xmlns:serif="http://www.serif.com/" style="fill-rule:evenodd;clip-rule:evenodd;stroke-linejoin:round;stroke-miterlimit:2;">
    <g transform="matrix(2.13889,0,0,2.15217,-247.378,-71.1388)">
        <path d="M115.657,336.004L115.657,101.822C115.657,89.513 125.713,79.519 138.099,79.519L293.32,79.519L293.32,358.307L138.099,358.307C125.713,358.307 115.657,348.313 115.657,336.004ZM202.523,200.101C202.834,199.587 203.247,199.382 203.868,199.382L205.109,199.382C205.833,199.382 206.247,199.587 206.557,200.101L218.452,223.745C222.797,232.483 224.245,234.744 226.003,237.726L225.693,238.445C222.176,238.137 218.452,238.034 209.557,238.034L188.456,238.034L188.456,240.09L194.662,256.332L259.103,256.332L259.103,255.51L221.659,183.962C220.625,182.111 219.901,181.495 217.522,181.495L191.559,181.495C189.18,181.495 188.559,182.111 187.628,183.962L149.874,255.51L149.874,256.332L174.492,256.332L202.523,200.101ZM312.021,79.519L467.242,79.519C479.628,79.519 489.683,89.513 489.683,101.822L489.683,209.62L312.021,209.62L312.021,79.519ZM489.683,228.206L489.683,336.004C489.683,348.313 479.628,358.307 467.242,358.307L312.021,358.307L312.021,228.206L489.683,228.206Z"/>
    </g>
</svg>
