<?xml version="1.0" encoding="UTF-8" standalone="no"?>
<!DOCTYPE svg PUBLIC "-//W3C//DTD SVG 1.1//EN" "http://www.w3.org/Graphics/SVG/1.1/DTD/svg11.dtd">
<svg width="100%" height="100%" viewBox="0 0 800 800" version="1.1" xmlns="http://www.w3.org/2000/svg" xmlns:xlink="http://www.w3.org/1999/xlink" xml:space="preserve" xmlns:serif="http://www.serif.com/" style="fill-rule:evenodd;clip-rule:evenodd;stroke-linejoin:round;stroke-miterlimit:2;">
    <g transform="matrix(2.13889,0,0,2.15217,-247.378,-71.1388)">
        <path d="M489.683,107.398L489.683,330.428C489.683,345.815 477.114,358.307 461.631,358.307L143.709,358.307C128.227,358.307 115.657,345.815 115.657,330.428L115.657,107.398C115.657,92.011 128.227,79.519 143.709,79.519L461.631,79.519C477.114,79.519 489.683,92.011 489.683,107.398ZM472.852,107.398C472.852,101.243 467.824,96.246 461.631,96.246L143.709,96.246C137.516,96.246 132.488,101.243 132.488,107.398L132.488,330.428C132.488,336.583 137.516,341.58 143.709,341.58L461.631,341.58C467.824,341.58 472.852,336.583 472.852,330.428L472.852,107.398Z"/>
        <g transform="matrix(169.888,0,0,168.84,235.819,276.994)">
            <g>
                <path d="M0.733,-0L0.733,-0.135L0.185,-0.135L0.185,-0.219C0.185,-0.272 0.211,-0.287 0.276,-0.287L0.526,-0.287C0.689,-0.287 0.74,-0.34 0.74,-0.455L0.74,-0.498C0.74,-0.63 0.678,-0.688 0.514,-0.688L0.089,-0.688L0.089,-0.552L0.514,-0.552C0.589,-0.552 0.602,-0.538 0.602,-0.474C0.602,-0.418 0.589,-0.4 0.517,-0.4L0.276,-0.4C0.106,-0.4 0.047,-0.341 0.047,-0.209L0.047,-0L0.733,-0Z" style="fill-rule:nonzero;"/>
            </g>
        </g>
    </g>
</svg>
