<?xml version="1.0" encoding="UTF-8" standalone="no"?>
<!DOCTYPE svg PUBLIC "-//W3C//DTD SVG 1.1//EN" "http://www.w3.org/Graphics/SVG/1.1/DTD/svg11.dtd">
<svg width="100%" height="100%" viewBox="0 0 800 800" version="1.1" xmlns="http://www.w3.org/2000/svg" xmlns:xlink="http://www.w3.org/1999/xlink" xml:space="preserve" xmlns:serif="http://www.serif.com/" style="fill-rule:evenodd;clip-rule:evenodd;stroke-linejoin:round;stroke-miterlimit:2;">
    <g transform="matrix(2.13889,0,0,2.15217,-247.378,-71.1388)">
        <path d="M489.683,107.398L489.683,330.428C489.683,345.815 477.114,358.307 461.631,358.307L143.709,358.307C128.227,358.307 115.657,345.815 115.657,330.428L115.657,107.398C115.657,92.011 128.227,79.519 143.709,79.519L461.631,79.519C477.114,79.519 489.683,92.011 489.683,107.398ZM330.023,276.994C354.996,276.994 365.529,270.072 365.529,246.097L365.529,238.499C365.529,224.485 357.714,218.238 347.521,216.887C357.544,215.199 362.811,209.121 362.811,197.808L362.811,190.548C362.811,167.586 354.317,160.832 329.853,160.832L275.488,160.832C251.025,160.832 242.53,167.586 242.53,190.548L242.53,197.808C242.53,209.121 247.797,215.199 257.82,216.887C247.627,218.238 239.812,224.485 239.812,238.499L239.812,246.097C239.812,270.072 250.345,276.994 275.319,276.994L330.023,276.994ZM340.046,197.808C340.046,205.744 337.328,208.614 330.023,208.614L275.319,208.614C267.843,208.614 265.295,205.744 265.295,197.808L265.295,193.756C265.295,186.327 267.843,183.795 275.488,183.795L329.853,183.795C337.498,183.795 340.046,186.327 340.046,193.756L340.046,197.808ZM342.764,243.395C342.764,251.162 340.046,254.201 330.023,254.201L275.319,254.201C265.295,254.201 262.577,251.162 262.577,243.395L262.577,239.512C262.577,230.901 265.125,227.862 274.469,227.862L330.702,227.862C340.216,227.862 342.764,230.901 342.764,239.512L342.764,243.395Z"/>
    </g>
</svg>
