<?xml version="1.0" encoding="UTF-8" standalone="no"?>
<!DOCTYPE svg PUBLIC "-//W3C//DTD SVG 1.1//EN" "http://www.w3.org/Graphics/SVG/1.1/DTD/svg11.dtd">
<svg width="100%" height="100%" viewBox="0 0 800 800" version="1.1" xmlns="http://www.w3.org/2000/svg" xmlns:xlink="http://www.w3.org/1999/xlink" xml:space="preserve" xmlns:serif="http://www.serif.com/" style="fill-rule:evenodd;clip-rule:evenodd;stroke-linejoin:round;stroke-miterlimit:2;">
    <g transform="matrix(2.13889,0,0,2.15217,-247.378,-71.1388)">
        <path d="M489.683,107.398L489.683,330.428C489.683,345.815 477.114,358.307 461.631,358.307L143.709,358.307C128.227,358.307 115.657,345.815 115.657,330.428L115.657,107.398C115.657,92.011 128.227,79.519 143.709,79.519L461.631,79.519C477.114,79.519 489.683,92.011 489.683,107.398ZM329.512,276.995C359.073,276.995 366.548,263.656 366.548,243.396L366.548,234.785C366.548,218.576 358.903,205.069 329.512,205.069L288.229,205.069C273.449,205.069 266.144,211.822 261.897,220.94L261.897,203.212C261.897,187.51 269.202,183.795 284.662,183.795L356.864,183.795L356.864,160.833L278.885,160.833C250.174,160.833 238.792,172.989 238.792,203.212L238.792,239.85C238.792,262.981 250.174,276.995 278.885,276.995L329.512,276.995ZM328.833,224.148C339.705,224.148 343.273,228.2 343.273,238.837C343.273,249.474 339.705,254.201 328.833,254.201L279.055,254.201C267.673,254.201 262.746,248.292 262.746,238.33C262.746,228.538 271.24,224.148 279.565,224.148L328.833,224.148Z"/>
    </g>
</svg>
