<?xml version="1.0" encoding="UTF-8" standalone="no"?>
<!DOCTYPE svg PUBLIC "-//W3C//DTD SVG 1.1//EN" "http://www.w3.org/Graphics/SVG/1.1/DTD/svg11.dtd">
<svg width="100%" height="100%" viewBox="0 0 800 800" version="1.1" xmlns="http://www.w3.org/2000/svg" xmlns:xlink="http://www.w3.org/1999/xlink" xml:space="preserve" xmlns:serif="http://www.serif.com/" style="fill-rule:evenodd;clip-rule:evenodd;stroke-linejoin:round;stroke-miterlimit:2;">
    <g transform="matrix(2.13889,0,0,2.15217,-247.378,-71.1388)">
        <path d="M489.683,107.398L489.683,330.428C489.683,345.815 477.114,358.307 461.631,358.307L143.709,358.307C128.227,358.307 115.657,345.815 115.657,330.428L115.657,107.398C115.657,92.011 128.227,79.519 143.709,79.519L461.631,79.519C477.114,79.519 489.683,92.011 489.683,107.398ZM472.852,107.398C472.852,101.243 467.824,96.246 461.631,96.246L143.709,96.246C137.516,96.246 132.488,101.243 132.488,107.398L132.488,330.428C132.488,336.583 137.516,341.58 143.709,341.58L461.631,341.58C467.824,341.58 472.852,336.583 472.852,330.428L472.852,107.398Z"/>
        <g transform="matrix(0.566294,0,0,0.5628,142.549,2.43273)">
            <g transform="matrix(300,0,0,300,152.252,487.85)">
                <path d="M0.593,-0C0.767,-0 0.811,-0.079 0.811,-0.199L0.811,-0.25C0.811,-0.346 0.766,-0.426 0.593,-0.426L0.35,-0.426C0.263,-0.426 0.22,-0.386 0.195,-0.332L0.195,-0.437C0.195,-0.53 0.238,-0.552 0.329,-0.552L0.754,-0.552L0.754,-0.688L0.295,-0.688C0.126,-0.688 0.059,-0.616 0.059,-0.437L0.059,-0.22C0.059,-0.083 0.126,-0 0.295,-0L0.593,-0ZM0.589,-0.313C0.653,-0.313 0.674,-0.289 0.674,-0.226C0.674,-0.163 0.653,-0.135 0.589,-0.135L0.296,-0.135C0.229,-0.135 0.2,-0.17 0.2,-0.229C0.2,-0.287 0.25,-0.313 0.299,-0.313L0.589,-0.313Z" style="fill-rule:nonzero;"/>
            </g>
        </g>
    </g>
</svg>
