<?xml version="1.0" encoding="UTF-8" standalone="no"?>
<!DOCTYPE svg PUBLIC "-//W3C//DTD SVG 1.1//EN" "http://www.w3.org/Graphics/SVG/1.1/DTD/svg11.dtd">
<svg width="100%" height="100%" viewBox="0 0 800 800" version="1.1" xmlns="http://www.w3.org/2000/svg" xmlns:xlink="http://www.w3.org/1999/xlink" xml:space="preserve" xmlns:serif="http://www.serif.com/" style="fill-rule:evenodd;clip-rule:evenodd;stroke-linejoin:round;stroke-miterlimit:2;">
    <g transform="matrix(2.13889,0,0,2.15217,-247.378,-71.1388)">
        <path d="M489.683,107.398L489.683,330.428C489.683,345.815 477.114,358.307 461.631,358.307L143.709,358.307C128.227,358.307 115.657,345.815 115.657,330.428L115.657,107.398C115.657,92.011 128.227,79.519 143.709,79.519L461.631,79.519C477.114,79.519 489.683,92.011 489.683,107.398ZM472.852,107.398C472.852,101.243 467.824,96.246 461.631,96.246L143.709,96.246C137.516,96.246 132.488,101.243 132.488,107.398L132.488,330.428C132.488,336.583 137.516,341.58 143.709,341.58L461.631,341.58C467.824,341.58 472.852,336.583 472.852,330.428L472.852,107.398Z"/>
        <g transform="matrix(0.566294,0,0,0.5628,143.739,2.43235)">
            <g transform="matrix(300,0,0,300,154.052,487.85)">
                <path d="M0.583,-0C0.73,-0 0.792,-0.041 0.792,-0.183L0.792,-0.228C0.792,-0.311 0.746,-0.348 0.686,-0.356C0.745,-0.366 0.776,-0.402 0.776,-0.469L0.776,-0.512C0.776,-0.648 0.726,-0.688 0.582,-0.688L0.262,-0.688C0.118,-0.688 0.068,-0.648 0.068,-0.512L0.068,-0.469C0.068,-0.402 0.099,-0.366 0.158,-0.356C0.098,-0.348 0.052,-0.311 0.052,-0.228L0.052,-0.183C0.052,-0.041 0.114,-0 0.261,-0L0.583,-0ZM0.658,-0.199C0.658,-0.153 0.642,-0.135 0.583,-0.135L0.261,-0.135C0.202,-0.135 0.186,-0.153 0.186,-0.199L0.186,-0.222C0.186,-0.273 0.201,-0.291 0.256,-0.291L0.587,-0.291C0.643,-0.291 0.658,-0.273 0.658,-0.222L0.658,-0.199ZM0.642,-0.469C0.642,-0.422 0.626,-0.405 0.583,-0.405L0.261,-0.405C0.217,-0.405 0.202,-0.422 0.202,-0.469L0.202,-0.493C0.202,-0.537 0.217,-0.552 0.262,-0.552L0.582,-0.552C0.627,-0.552 0.642,-0.537 0.642,-0.493L0.642,-0.469Z" style="fill-rule:nonzero;"/>
            </g>
        </g>
    </g>
</svg>
