<?xml version="1.0" encoding="UTF-8" standalone="no"?>
<!DOCTYPE svg PUBLIC "-//W3C//DTD SVG 1.1//EN" "http://www.w3.org/Graphics/SVG/1.1/DTD/svg11.dtd">
<svg width="100%" height="100%" viewBox="0 0 800 800" version="1.1" xmlns="http://www.w3.org/2000/svg" xmlns:xlink="http://www.w3.org/1999/xlink" xml:space="preserve" xmlns:serif="http://www.serif.com/" style="fill-rule:evenodd;clip-rule:evenodd;stroke-linejoin:round;stroke-miterlimit:2;">
    <g transform="matrix(2.13889,0,0,2.15217,-247.378,-71.1388)">
        <path d="M312.021,79.519L467.242,79.519C479.628,79.519 489.683,89.513 489.683,101.822L489.683,209.62L312.021,209.62L312.021,79.519ZM328.852,96.246L328.852,192.893L472.852,192.893L472.852,101.822C472.852,98.745 470.338,96.246 467.242,96.246L328.852,96.246ZM115.657,336.004L115.657,101.822C115.657,89.513 125.713,79.519 138.099,79.519L293.32,79.519L293.32,358.307L138.099,358.307C125.713,358.307 115.657,348.313 115.657,336.004ZM132.488,336.004C132.488,339.081 135.002,341.58 138.099,341.58L276.489,341.58L276.489,96.246L138.099,96.246C135.002,96.246 132.488,98.745 132.488,101.822L132.488,336.004ZM489.683,228.206L489.683,336.004C489.683,348.313 479.628,358.307 467.242,358.307L312.021,358.307L312.021,228.206L489.683,228.206ZM472.852,244.933L328.852,244.933L328.852,341.58L467.242,341.58C470.338,341.58 472.852,339.081 472.852,336.004L472.852,244.933Z"/>
        <g transform="matrix(1.35,0,0,1.48347,-156.68,116.313)">
            <path d="M267.532,76.19L234.632,76.19L267.532,19.048L267.532,62.134L300.433,62.134L267.532,119.277L267.532,76.19Z"/>
        </g>
    </g>
</svg>
