<?xml version="1.0" encoding="UTF-8" standalone="no"?>
<!DOCTYPE svg PUBLIC "-//W3C//DTD SVG 1.1//EN" "http://www.w3.org/Graphics/SVG/1.1/DTD/svg11.dtd">
<svg width="100%" height="100%" viewBox="0 0 800 800" version="1.1" xmlns="http://www.w3.org/2000/svg" xmlns:xlink="http://www.w3.org/1999/xlink" xml:space="preserve" xmlns:serif="http://www.serif.com/" style="fill-rule:evenodd;clip-rule:evenodd;stroke-linejoin:round;stroke-miterlimit:2;">
    <g transform="matrix(2.13889,0,0,2.15217,-247.378,-71.1388)">
        <path d="M489.683,107.398L489.683,330.428C489.683,345.815 477.114,358.307 461.631,358.307L143.709,358.307C128.227,358.307 115.657,345.815 115.657,330.428L115.657,107.398C115.657,92.011 128.227,79.519 143.709,79.519L461.631,79.519C477.114,79.519 489.683,92.011 489.683,107.398ZM325.18,276.995C351.173,276.995 361.366,266.358 361.366,243.564L361.366,236.98C361.366,217.057 350.663,207.601 322.462,207.601L267.418,207.601L267.418,183.795L353.721,183.795L353.721,160.833L243.974,160.833L243.974,226.849L322.462,226.849C334.354,226.849 337.752,229.888 337.752,240.356C337.752,251.162 334.354,254.201 324.161,254.201L244.143,254.201L244.143,276.995L325.18,276.995Z"/>
    </g>
</svg>
