<?xml version="1.0" encoding="UTF-8" standalone="no"?><!DOCTYPE svg PUBLIC "-//W3C//DTD SVG 1.1//EN" "http://www.w3.org/Graphics/SVG/1.1/DTD/svg11.dtd"><svg width="100%" height="100%" viewBox="0 0 2500 2500" version="1.1" xmlns="http://www.w3.org/2000/svg" xmlns:xlink="http://www.w3.org/1999/xlink" xml:space="preserve" xmlns:serif="http://www.serif.com/" style="fill-rule:evenodd;clip-rule:evenodd;stroke-linejoin:round;stroke-miterlimit:2;"><path d="M1530.31,1014.92c53.577,-3.784 103.015,22.801 138.184,61.59c-0.269,-15.849 -0.244,-31.704 0.073,-47.552l113.342,-0.126l-0.244,442.235l-113.135,0.049c-0.329,-15.71 -0.146,-32.117 -0.195,-47.888c-10.51,13.049 -23.315,23.474 -36.975,32.996c-22.888,15.368 -49.17,24.951 -76.575,27.954c-53.21,5.591 -114.331,-18.445 -154.968,-52.002c-48.584,-39.771 -79.175,-97.376 -84.9,-159.9c-6.018,-62.63 13.257,-125.067 53.552,-173.396c41.529,-49.783 97.473,-78.244 161.841,-83.96Zm-0.537,114.731c-66.235,9.352 -112.402,70.547 -103.21,136.802c9.191,66.26 70.275,112.573 136.547,103.54c66.504,-9.057 113.025,-70.398 103.797,-136.877c-9.217,-66.487 -70.667,-112.849 -137.134,-103.465Z"/><path d="M945.715,421.617c129.927,-4.174 238.672,97.699 242.975,227.623c4.302,129.923 -97.464,238.768 -227.383,243.199c-130.1,4.437 -239.13,-97.502 -243.438,-227.607c-4.309,-130.104 97.738,-239.034 227.846,-243.215Zm-8.877,114.798c-66.419,9.062 -112.909,70.263 -103.824,136.679c9.084,66.416 70.301,112.886 136.715,103.779c66.382,-9.103 112.823,-70.284 103.743,-136.669c-9.08,-66.384 -70.246,-112.847 -136.634,-103.789Z"/><path d="M334.319,1609.57c129.289,-14.319 245.648,79.041 259.698,208.35c14.052,129.321 -79.541,245.483 -208.889,259.277c-128.97,13.733 -244.722,-79.516 -258.732,-208.459c-14.01,-128.943 79.01,-244.885 207.923,-259.168Z" style="fill-rule:nonzero;"/><path d="M2135.94,421.61c129.968,-2.13 236.999,101.605 238.94,231.576c1.941,129.972 -101.953,236.854 -231.934,238.601c-129.699,1.744 -236.303,-101.885 -238.244,-231.586c-1.941,-129.701 101.538,-236.464 231.237,-238.591Z" style="fill-rule:nonzero;"/><path d="M2130.62,1608.17c48.572,-3.003 103.723,7.263 149.304,24.511c13.611,5.152 25.147,11.292 38.306,16.504c-10.583,33.081 -22.449,70.447 -31.726,103.711c-35.022,-18.811 -71.155,-31.946 -111.304,-36.06c-20.532,-2.111 -105.822,-6.591 -108.581,25.11c-2.588,29.578 78.137,36.731 98.523,40.369c17.517,2.966 34.875,6.897 51.965,11.755c69.592,20.252 126.013,55.774 122.022,135.877c-1.612,38.513 -18.665,74.756 -47.315,100.537c-50.806,45.959 -118.689,50.11 -183.313,46.863c-68.787,-7.251 -111.719,-26.001 -168.628,-62.793c12.525,-34.68 24.243,-71.973 35.889,-107.117c47.021,40.869 107.495,62.927 169.787,61.939c19.043,-0.489 58.985,-4.468 71.534,-20.496c35.241,-45.056 -66.736,-53.027 -91.87,-57.739c-17.078,-3.089 -33.997,-6.983 -50.696,-11.658c-65.259,-18.701 -118.103,-48.633 -121.399,-121.668c-1.575,-34.729 5.139,-61.853 29.016,-88.146c38.196,-42.09 93.469,-58.277 148.486,-61.499Z" style="fill-rule:nonzero;"/><path d="M979.111,1014.93c62.766,-6.183 125.429,12.731 174.292,52.607c-16.168,33.215 -31.859,68.431 -47.202,102.128c-27.219,-24.333 -52.055,-36.661 -88.839,-40.967c-38.014,-4.449 -73.113,1.361 -103.511,26.252c-25.053,20.566 -40.891,50.257 -44.019,82.515c-3.008,32.557 7.075,64.978 28.02,90.088c21.064,25.025 51.334,40.479 83.952,42.884c49.046,3.808 87.554,-7.801 124.481,-39.71c5.768,13.281 11.792,26.441 18.068,39.478c9.46,20.874 19.158,41.638 29.091,62.292c-39.217,30.969 -79.745,48.279 -129.851,52.161c-68.702,5.322 -133.25,-9.546 -186.479,-55.261c-47.964,-40.784 -77.518,-99.146 -82.016,-161.951c-4.755,-63.009 16.031,-125.282 57.679,-172.802c43.995,-50.089 100.342,-75.595 166.334,-79.714Z" style="fill-rule:nonzero;"/><path d="M2122.72,1081.96c92.737,-9.429 175.525,58.174 184.827,150.923c9.302,92.749 -58.411,175.439 -151.172,184.619c-92.578,9.167 -175.085,-58.386 -184.375,-150.964c-9.289,-92.569 58.167,-175.168 150.72,-184.578Z" style="fill-rule:nonzero;"/><path d="M342.35,1082.05c92.656,-9.881 175.76,57.266 185.56,149.928c9.8,92.664 -57.423,175.708 -150.096,185.425c-92.556,9.705 -175.475,-57.409 -185.262,-149.963c-9.787,-92.543 57.259,-175.52 149.798,-185.39Z" style="fill-rule:nonzero;"/><path d="M939.59,1675.24c92.729,-7.556 174.056,61.426 181.732,154.151c7.675,92.712 -61.201,174.133 -153.912,181.921c-92.876,7.812 -174.471,-61.218 -182.16,-154.102c-7.689,-92.895 61.443,-174.402 154.34,-181.97Z" style="fill-rule:nonzero;"/><path d="M1533.61,488.657c92.761,-7.25 173.852,62.051 181.152,154.816c7.3,92.765 -61.963,173.892 -154.724,181.235c-92.822,7.351 -174.023,-61.97 -181.323,-154.802c-7.3,-92.832 62.06,-173.995 154.895,-181.249Z" style="fill-rule:nonzero;"/><path d="M1357.34,1622.36c38.392,0.452 77.576,0.037 116.016,0.025l0.098,327.551l262.292,-0.098l-0.036,113.062l-378.431,0.024l0.061,-440.564Z" style="fill-rule:nonzero;"/><path d="M173.398,435.524l111.438,0.136l-0.004,329.596c86.873,1.527 177.723,0.159 264.915,0.155l-0.133,113.533c-42.086,0.894 -87.254,0.126 -129.564,0.129l-246.776,0.016c-1.011,-59.524 -0.087,-121.91 -0.088,-181.627l0.212,-261.938Z" style="fill-rule:nonzero;"/></svg>