<svg xmlns="http://www.w3.org/2000/svg" height="48px" viewBox="0 -960 960 960" width="48px" fill="#000000"><path d="M282.91-260.8q-43.48 37.23-91.57 33.85-48.1-3.38-81.58-33.85-34.48-29.48-46.08-74.96-11.59-45.48 18.12-95.67l81.05-135.09q-27.76-23.24-43.4-55.74-15.65-32.5-15.65-70.26 0-68.72 48.48-117.32 48.48-48.59 117.08-48.59t117.31 48.59q48.72 48.6 48.72 117.2t-48.72 117.31q-48.71 48.72-117.19 48.72-10.52 0-20.4-1-9.88-1-18.41-5l-82.8 140.57q-13.52 21.28-8.38 41.94 5.14 20.67 20.04 32.07 14.9 11.4 35.07 13.9 20.16 2.5 38.44-14.02L677.33-700.2q43.47-37.23 91.81-34.47 48.34 2.76 82.2 32.97 33.86 30.22 45.48 76.7 11.61 46.48-17.62 95.2l-78.81 135.32q26.76 23 42.4 55.62 15.64 32.62 15.64 70.38 0 68.72-49.09 117.2-49.1 48.48-117.82 48.48-68.48 0-116.69-48.48-48.22-48.48-48.22-117.2 0-68.48 48.22-117.19 48.21-48.72 116.69-48.72 9.52 0 19.4.5 9.88.5 18.65 3.26l83.04-138.33q12.52-21.04 8.02-41.44t-20.02-32.07q-15.52-11.66-35.45-13.78-19.92-2.12-37.96 13.4L282.91-260.8Z"/></svg>