<svg xmlns="http://www.w3.org/2000/svg" height="48px" viewBox="0 -960 960 960" width="48px" fill="#000000"><path d="M282.91-260.8q-43.48 37.23-91.57 33.85-48.1-3.38-81.58-33.85-34.48-29.48-46.08-74.96-11.59-45.48 18.12-95.67l81.05-135.09q-27.76-23.32-43.4-56.17-15.65-32.84-15.65-69.83 0-68.24 48.48-117.08 48.48-48.83 117.08-48.83t117.31 48.59q48.72 48.6 48.72 117.2t-48.95 117.31q-48.96 48.72-116.96 48.72-9.99 0-20.34-1-10.34-1-18.56-5l-82.71 140.57q-13.52 21.64-8.2 42.23 5.31 20.59 20.04 31.88 14.72 11.3 34.83 13.8t38.5-14.02L677.33-700.2q43.47-37.23 91.81-34.47 48.34 2.76 82.26 32.97 33.93 30.22 45.48 76.7 11.55 46.48-17.68 95.2l-78.81 135.32q26.76 23 42.4 55.7 15.64 32.7 15.64 70.3 0 68.24-49.14 116.96T691.48-102.8q-68.44 0-116.65-48.72-48.22-48.72-48.22-116.96 0-68 48.22-116.96 48.21-48.95 116.69-48.95 8.87 0 19.08.5 10.2.5 18.97 3.26l83.04-138.33q12.52-21.04 7.84-41.55-4.67-20.5-20.02-32.06-15.34-11.56-35.27-13.68-19.92-2.12-37.96 13.4L282.91-260.8Zm49.27-369.13q25.91-25.77 25.91-62.58 0-36.82-25.9-62.6-25.89-25.78-62.7-25.78-36.82 0-62.6 25.77-25.78 25.78-25.78 62.59t25.77 62.6q25.78 25.78 62.59 25.78t62.71-25.78Zm422.56 423.81q26.15-26.01 26.15-62.35t-25.98-62.48q-25.98-26.14-63.09-26.14-37.1 0-62.39 26.13-25.28 26.13-25.28 62.47t25.12 62.36q25.11 26.02 62.22 26.02 37.1 0 63.25-26.01Zm-485.26-486.4Zm423.04 424.04Z"/></svg>