<svg xmlns="http://www.w3.org/2000/svg" height="48px" viewBox="0 -960 960 960" width="48px" fill="#000000"><path d="m314-203 132-82-132-82v164Zm218-472h140v-40H532v40ZM107-34q-30.75 0-51.87-21.13Q34-76.25 34-107v-357q0-29.75 21.13-51.38Q76.25-537 107-537h507q29.75 0 51.38 21.62Q687-493.75 687-464v357q0 30.75-21.62 51.87Q643.75-34 614-34H107Zm640-370v-60q0-44-26.5-78.5T654-590h28q43.83 0 74.42-30.62Q787-651.24 787-695.12q0-43.88-30.58-74.38Q725.83-800 682-800h-40v40h40q28.17 0 46.58 18.38Q747-723.24 747-695.12t-18.42 46.62Q710.17-630 682-630h-40v40q-6.33 0-13.5-3.5T614-597h-52v-33h-40q-28.17 0-46.58-18.38Q457-666.76 457-694.88t18.42-46.62Q493.83-760 522-760h40v-40h-40q-43.83 0-74.42 30.58Q417-738.83 417-695q0 34 20 61.5t52 36.5H274v-257q0-29.75 21.13-51.38Q316.25-927 347-927h507q29.75 0 51.38 21.62Q927-883.75 927-854v377q0 30.75-21.62 51.87Q883.75-404 854-404H747Z"/></svg>