<?xml version="1.0" encoding="UTF-8" standalone="no"?>
<!DOCTYPE svg PUBLIC "-//W3C//DTD SVG 1.1//EN" "http://www.w3.org/Graphics/SVG/1.1/DTD/svg11.dtd">
<svg width="100%" height="100%" viewBox="0 0 48 48" version="1.1" xmlns="http://www.w3.org/2000/svg" xmlns:xlink="http://www.w3.org/1999/xlink" xml:space="preserve" xmlns:serif="http://www.serif.com/" style="fill-rule:evenodd;clip-rule:evenodd;stroke-linejoin:round;stroke-miterlimit:2;">
    <g transform="matrix(3.48547e-17,-0.56922,2.43952,1.49377e-16,-23.4597,30.8454)">
        <path d="M17.662,14.607L17.662,24.302C17.662,24.737 16.147,25.091 14.281,25.091L9.771,25.091C7.905,25.091 6.39,24.737 6.39,24.302L6.39,14.607C6.39,14.172 7.905,13.818 9.771,13.818L14.281,13.818C16.147,13.818 17.662,14.172 17.662,14.607Z"/>
    </g>
    <g transform="matrix(3.48547e-17,-0.56922,2.43952,1.49377e-16,-23.4597,19.8026)">
        <path d="M17.662,14.607L17.662,24.302C17.662,24.737 16.147,25.091 14.281,25.091L9.771,25.091C7.905,25.091 6.39,24.737 6.39,24.302L6.39,14.607C6.39,14.172 7.905,13.818 9.771,13.818L14.281,13.818C16.147,13.818 17.662,14.172 17.662,14.607Z"/>
    </g>
    <g transform="matrix(3.48547e-17,-0.56922,2.43952,1.49377e-16,-23.4597,41.8883)">
        <path d="M17.662,14.607L17.662,24.302C17.662,24.737 16.147,25.091 14.281,25.091L9.771,25.091C7.905,25.091 6.39,24.737 6.39,24.302L6.39,14.607C6.39,14.172 7.905,13.818 9.771,13.818L14.281,13.818C16.147,13.818 17.662,14.172 17.662,14.607Z"/>
    </g>
    <g transform="matrix(0.916667,0,0,0.916667,2,2)">
        <path d="M48,7.68L48,40.32C48,44.559 44.559,48 40.32,48L7.68,48C3.441,48 0,44.559 0,40.32L0,7.68C0,3.441 3.441,0 7.68,0L40.32,0C44.559,0 48,3.441 48,7.68ZM43.636,7.68C43.636,5.85 42.15,4.364 40.32,4.364L7.68,4.364C5.85,4.364 4.364,5.85 4.364,7.68L4.364,40.32C4.364,42.15 5.85,43.636 7.68,43.636L40.32,43.636C42.15,43.636 43.636,42.15 43.636,40.32L43.636,7.68Z"/>
    </g>
</svg>
