<?xml version="1.0" encoding="UTF-8" standalone="no"?>
<!DOCTYPE svg PUBLIC "-//W3C//DTD SVG 1.1//EN" "http://www.w3.org/Graphics/SVG/1.1/DTD/svg11.dtd">
<svg width="100%" height="100%" viewBox="0 0 48 48" version="1.1" xmlns="http://www.w3.org/2000/svg" xmlns:xlink="http://www.w3.org/1999/xlink" xml:space="preserve" xmlns:serif="http://www.serif.com/" style="fill-rule:evenodd;clip-rule:evenodd;stroke-linejoin:round;stroke-miterlimit:2;">
    <g transform="matrix(0.05,0,0,0.05,0,48.3)">
        <path d="M390,-430C366,-456 354,-487 354,-523L354,-769C354,-803.113 366.127,-832.473 390.38,-857.08C414.633,-881.693 444.467,-894 479.88,-894C515.293,-894 545.333,-881.693 570,-857.08C594.667,-832.473 607,-803.113 607,-769L607,-523C607,-487 594.873,-456 570.62,-430C546.367,-404 516.2,-391 480.12,-391C444.04,-391 414,-404 390,-430ZM441,-78L441,-218C361.667,-226 296,-258.837 244,-316.51C192,-374.183 166,-443.013 166,-523L246,-523C246,-459 268.77,-404.667 314.31,-360C359.843,-315.333 415.177,-293 480.31,-293C545.437,-293 600.667,-315.38 646,-360.14C691.333,-404.907 714,-459.193 714,-523L794,-523C794,-443.007 768,-374.177 716,-316.51C664,-258.837 598.667,-226 520,-218L520,-78L441,-78Z" style="fill-rule:nonzero;"/>
    </g>
</svg>
