<svg xmlns="http://www.w3.org/2000/svg" height="48px" viewBox="0 -960 960 960" width="48px" fill="#000000"><path d="M390-429.79q-36-38.79-36-93.21v-246q0-51.25 36.44-88.13Q426.88-894 479.94-894T570-857.13q37 36.88 37 88.13v246q0 54.42-36.21 93.21-36.2 38.79-90.5 38.79Q426-391 390-429.79ZM480-643ZM441-78v-140q-119-12-197-98.51T166-523h80q0 96 68.37 163 68.38 67 166 67Q578-293 646-360.14q68-67.15 68-162.86h80q0 119.99-78 206.49Q638-230 520-218.1V-78h-79Zm64.5-416.06Q515-506.13 515-523v-245.87q0-13.73-10.29-23.93Q494.43-803 480-803q-14.42 0-24.71 10.2Q445-782.6 445-768.87V-523q0 16.87 9.61 28.94 9.6 12.06 25.5 12.06 15.89 0 25.39-12.06Z"/></svg>