<?xml version="1.0" encoding="UTF-8" standalone="no"?>
<!DOCTYPE svg PUBLIC "-//W3C//DTD SVG 1.1//EN" "http://www.w3.org/Graphics/SVG/1.1/DTD/svg11.dtd">
<svg width="100%" height="100%" viewBox="0 0 48 48" version="1.1" xmlns="http://www.w3.org/2000/svg" xmlns:xlink="http://www.w3.org/1999/xlink" xml:space="preserve" xmlns:serif="http://www.serif.com/" style="fill-rule:evenodd;clip-rule:evenodd;stroke-linejoin:round;stroke-miterlimit:2;">
    <g transform="matrix(0.05,0,0,0.05,-0.65,47.825)">
        <path d="M307,-429.79C282.333,-455.65 270,-486.72 270,-523L270,-769C270,-803.167 282.313,-832.543 306.94,-857.13C331.567,-881.71 361.773,-894 397.56,-894C433.347,-894 463.367,-881.71 487.62,-857.13C511.873,-832.543 524,-803.167 524,-769L524,-523C524,-486.72 511.873,-455.65 487.62,-429.79C463.367,-403.93 433.367,-391 397.62,-391C361.873,-391 331.667,-403.93 307,-429.79ZM423,-494.06C429.667,-502.107 433,-511.753 433,-523L433,-768.87C433,-778.023 429.57,-786 422.71,-792.8C415.857,-799.6 407.42,-803 397.4,-803C387.387,-803 378.983,-799.6 372.19,-792.8C365.397,-786 362,-778.023 362,-768.87L362,-523C362,-511.753 365.203,-502.107 371.61,-494.06C378.01,-486.02 386.51,-482 397.11,-482C407.703,-482 416.333,-486.02 423,-494.06ZM437,-78L357,-78L357,-218.1C279,-226.033 214,-258.837 162,-316.51C110,-374.183 84,-443.013 84,-523L164,-523C164,-459 186.637,-404.667 231.91,-360C277.183,-315.333 332.547,-293 398,-293C404.413,-293 411.1,-293.667 418.06,-295C425.02,-296.333 431.333,-297.333 437,-298L437,-78ZM712.5,-106C719.5,-106 725.5,-108.5 730.5,-113.5C735.5,-118.5 738,-124.5 738,-131.5C738,-138.5 735.583,-144.833 730.75,-150.5C725.917,-156.167 719.667,-159 712,-159C704.333,-159 697.917,-156.167 692.75,-150.5C687.583,-144.833 685,-138.5 685,-131.5C685,-124.5 687.633,-118.5 692.9,-113.5C698.167,-108.5 704.7,-106 712.5,-106ZM685,-199L738,-199L738,-391L685,-391L685,-199ZM578,-114.4C540.667,-151.333 522,-196 522,-248.4C522,-300.8 540.667,-345.667 578,-383C615.333,-420.333 659.833,-439 711.5,-439C763.167,-439 807.833,-420.377 845.5,-383.13C883.167,-345.89 902,-300.847 902,-248C902,-195.713 883.167,-151.14 845.5,-114.28C807.833,-77.427 763.167,-59 711.5,-59C659.833,-59 615.333,-77.467 578,-114.4Z" style="fill-rule:nonzero;"/>
    </g>
</svg>
