<svg xmlns="http://www.w3.org/2000/svg" height="48px" viewBox="0 -960 960 960" width="48px" fill="#000000"><path d="M307-429.79q-37-38.79-37-93.21v-246q0-51.25 36.94-88.13Q343.88-894 397.56-894q53.68 0 90.06 36.87Q524-820.25 524-769v246q0 54.42-36.38 93.21-36.38 38.79-90 38.79T307-429.79ZM437-78h-80v-140.1Q240-230 162-316.51 84-403.02 84-523h80q0 96 67.91 163T398-293q9.62 0 20.06-2t18.94-3v220Zm275.5-28q10.5 0 18-7.5t7.5-18q0-10.5-7.25-19T712-159q-11.5 0-19.25 8.5t-7.75 19q0 10.5 7.9 18t19.6 7.5ZM685-199h53v-192h-53v192Zm-107 84.6q-56-55.4-56-134T578-383q56-56 133.5-56t134 55.87Q902-327.27 902-248q0 78.43-56.5 133.72Q789-59 711.5-59T578-114.4Z"/></svg>