<svg xmlns="http://www.w3.org/2000/svg" height="48px" viewBox="0 -960 960 960" width="48px" fill="#000000"><path d="M307-430q-37-39-37-93v-246q0-51 37-88t90.5-37q53.5 0 90 37t36.5 88v246q0 54-36.5 93t-90 39q-53.5 0-90.5-39ZM437-78h-80v-140q-117-12-195-98.5T84-523h80q0 96 67.5 163T398-293q9 0 19.5-2t19.5-3v220Zm237 43-5-50q-21-5-38-15t-31-24l-43 20-42-67 39-31q-8-19-8-38t8-38l-39-31 42-68 43 20q15-13 31.5-22t37.5-15l5-51h76l7 51q19 6 36 15t32 22l43-20 44 68-41 31q6 19 6 38t-6 38l41 31-44 67-43-20q-15 14-32 24t-36 15l-7 50h-76Zm106.5-137q28.5-28 28.5-68.5T780.5-309q-28.5-28-69-28T643-309q-28 28-28 68.5t28 68.5q28 28 68.5 28t69-28Z"/></svg>