<svg xmlns="http://www.w3.org/2000/svg" height="48px" viewBox="0 -960 960 960" width="48px" fill="#000000"><path d="M307-430.08q-37-39.09-37-92.92v-246q0-51.17 37-88.08Q344-894 397.62-894q53.62 0 90 36.92Q524-820.17 524-769v246q0 53.83-36.38 92.92-36.38 39.08-90 39.08T307-430.08Zm116-63.91q10-11.99 10-29.01v-245.87q0-13.88-10.39-24.01-10.4-10.12-25.1-10.12-14.7 0-25.11 10.12-10.4 10.13-10.4 24.01V-523q0 17.02 9.5 29.01Q381-482 397-482t26-11.99ZM437-78h-80v-140.1Q240-230 162-316.51 84-403.02 84-523h80q0 96 67.9 163T398-293q9.37 0 19.68-2 10.32-2 19.32-3v220Zm-39-566ZM674-35l-5-50q-20.73-5-37.86-15Q614-110 600-124l-43 20-42-67 39-31q-8-18.33-8-37.67 0-19.33 8-38.33l-39-31 42-68 43 20q15-13 31.5-22t37.5-15l4.91-51h76.35l6.74 51q19 6 36 15t32 22l43-20 44 68-41 31q6 18.42 6 37.83 0 19.42-6 38.17l41 31-44 67-43-20q-15 14-32.14 24Q775.73-90 757-85l-6.65 50H674Zm106.38-136.92Q809-199.84 809-240.42T780.29-309q-28.71-28-69.09-28-40.37 0-68.28 28.21Q615-280.58 615-240.29T642.71-172q27.71 28 68.38 28 40.66 0 69.29-27.92Z"/></svg>