<?xml version="1.0" encoding="UTF-8" standalone="no"?>
<!DOCTYPE svg PUBLIC "-//W3C//DTD SVG 1.1//EN" "http://www.w3.org/Graphics/SVG/1.1/DTD/svg11.dtd">
<svg width="100%" height="100%" viewBox="0 0 48 48" version="1.1" xmlns="http://www.w3.org/2000/svg" xmlns:xlink="http://www.w3.org/1999/xlink" xml:space="preserve" xmlns:serif="http://www.serif.com/" style="fill-rule:evenodd;clip-rule:evenodd;stroke-linejoin:round;stroke-miterlimit:2;">
    <g transform="matrix(0.05,0,0,0.05,1.35,48.05)">
        <path d="M728,-352L670,-411C681.333,-427.667 689.667,-445.167 695,-463.5C700.333,-481.833 703,-501.667 703,-523L782,-523C782,-493 777,-463 767,-433C757,-403 744,-376 728,-352ZM591,-488L348,-731L348,-805C354.667,-829 369,-849.833 391,-867.5C413,-885.167 438.667,-894 468,-894C503.333,-894 533.5,-881.833 558.5,-857.5C583.5,-833.167 596,-803.333 596,-768L596,-524C596,-520 595.333,-513.667 594,-505C592.667,-496.333 591.667,-490.667 591,-488ZM429,-78L429,-217C349.667,-225.667 284,-258.833 232,-316.5C180,-374.167 154,-443 154,-523L234,-523C234,-459 256.833,-404.667 302.5,-360C348.167,-315.333 403.333,-293 468,-293C498,-293 526,-298.5 552,-309.5C578,-320.5 602,-335 624,-353L682,-295C658,-273.667 631.333,-256 602,-242C572.667,-228 541.333,-219.667 508,-217L508,-78L429,-78ZM827,-63L34,-856L78,-899L872,-106L827,-63Z" style="fill-rule:nonzero;"/>
    </g>
</svg>
