<svg xmlns="http://www.w3.org/2000/svg" height="48px" viewBox="0 -960 960 960" width="48px" fill="#000000"><path d="m728-352-58-59q17-25 25-52.5t8-59.5h79q0 45.07-15 90.03Q752-388 728-352ZM465-613Zm126 125-86-86v-193.48Q505-783 494.5-793t-27-10q-16.5 0-25.5 10.15T433-768v122l-85-85v-74q10-36.17 42.92-62.58Q423.83-894 468-894q52.42 0 90.21 36.5Q596-821 596-768v244.31q0 5.98-1.81 18.72-1.81 12.73-3.19 16.97ZM429-78v-140.1Q310-231 232-317.09 154-403.18 154-523h80q0 96 69.06 163 69.07 67 164.94 67 42.49 0 82.75-16.5Q591-326 624-353l58 58q-36 32-80 52.5T508-218v140h-79Zm398 15L34-856l44-43 794 793-45 43Z"/></svg>