<?xml version="1.0" encoding="UTF-8" standalone="no"?>
<!DOCTYPE svg PUBLIC "-//W3C//DTD SVG 1.1//EN" "http://www.w3.org/Graphics/SVG/1.1/DTD/svg11.dtd">
<svg width="100%" height="100%" viewBox="0 0 48 48" version="1.1" xmlns="http://www.w3.org/2000/svg" xmlns:xlink="http://www.w3.org/1999/xlink" xml:space="preserve" xmlns:serif="http://www.serif.com/" style="fill-rule:evenodd;clip-rule:evenodd;stroke-linejoin:round;stroke-miterlimit:2;">
    <g transform="matrix(0.05,0,0,0.05,1.35,48.05)">
        <path d="M728,-352L670,-411C681.333,-427.667 689.667,-445.167 695,-463.5C700.333,-481.833 703,-501.667 703,-523L782,-523C782,-492.953 777,-462.943 767,-432.97C757,-402.99 744,-376 728,-352ZM591,-488L505,-574L505,-767.48C505,-777.827 501.5,-786.333 494.5,-793C487.5,-799.667 478.5,-803 467.5,-803C456.5,-803 448,-799.617 442,-792.85C436,-786.083 433,-777.8 433,-768L433,-646L348,-731L348,-805C354.667,-829.113 368.973,-849.973 390.92,-867.58C412.86,-885.193 438.553,-894 468,-894C502.947,-894 533.017,-881.833 558.21,-857.5C583.403,-833.167 596,-803.333 596,-768L596,-523.69C596,-519.703 595.397,-513.463 594.19,-504.97C592.983,-496.483 591.92,-490.827 591,-488ZM429,-78L429,-218.1C349.667,-226.7 284,-259.697 232,-317.09C180,-374.483 154,-443.12 154,-523L234,-523C234,-459 257.02,-404.667 303.06,-360C349.107,-315.333 404.087,-293 468,-293C496.327,-293 523.91,-298.5 550.75,-309.5C577.583,-320.5 602,-335 624,-353L682,-295C658,-273.667 631.333,-256.167 602,-242.5C572.667,-228.833 541.333,-220.667 508,-218L508,-78L429,-78ZM827,-63L34,-856L78,-899L872,-106L827,-63Z" style="fill-rule:nonzero;"/>
    </g>
</svg>
