<svg xmlns="http://www.w3.org/2000/svg" height="48px" viewBox="0 -960 960 960" width="48px" fill="#000000"><path d="M181.04-20.74v-154.3q64.71 0 109.79 45.26 45.08 45.27 45.08 109.04H181.04Zm212.05 0q0-87.83-61.83-149.65-61.83-61.83-150.22-61.83v-70.74q118.25 0 200.52 82.18 82.27 82.17 82.27 200.04h-70.74Zm127.91 0q0-140.48-99.3-239.93-99.31-99.46-240.66-99.46v-70.74q84.9 0 159.73 33.11 74.83 33.11 130.08 87.78 55.24 54.68 88.06 129.8 32.83 75.11 32.83 159.44H521Zm-17-695.39q10.43-9.65 10.43-24.93 0-15.29-10.43-25.72-10.43-10.44-25.22-10.44-14.78 0-24.93 10.44-10.15 10.43-10.15 25.72 0 15.28 10.15 24.93t24.93 9.65q14.79 0 25.22-9.65ZM708.17-22.3q-18-90.3-66.61-174.72-48.62-84.43-119.77-149.59-71.15-65.17-158.62-104.71-87.47-39.55-182.13-39.55v-365.22q0-33.5 25.4-58.62 25.4-25.12 58.34-25.12h429.44q32.94 0 58.34 25.12 25.4 25.12 25.4 58.62v136.18q17.33 5.42 29.38 21.45t12.05 35.59V-591q0 20.57-12.05 36.87-12.05 16.31-29.38 21.57v428.65q0 30.86-20.13 54.17-20.13 23.31-49.66 27.44Z"/></svg>