<svg xmlns="http://www.w3.org/2000/svg" height="48px" viewBox="0 -960 960 960" width="48px" fill="#000000"><path d="m411.48-61.17 207.87-267.4-50.57-52.56q-21.43-21-50.78-29.78-29.35-8.79-57.78-.79l-103.48 35.31v-319.48H243.69v-119.78q0-34.96 24.4-59.35 24.39-24.39 59.34-24.39H715.3q34.96 0 59.35 24.39t24.39 59.35v671.3q0 34.96-24.39 59.07T715.3-61.17H411.48Zm-183.09 0q-53.57 0-90.85-37-37.28-37-37.28-89.57v-312.74q0-57.26 42.46-96.32 42.45-39.07 101.28-39.07h52.74v335.35l177.48-52.18q13-3.56 27.28-.56 14.28 3 25.85 13.56l13 15.13L353.78-86.74Q343.35-72.17 326-66.67t-33.78 5.5h-63.83Zm318.41-617.5q10.72-9.94 10.72-24.94 0-15-10.72-25.43-10.71-10.44-25.71-10.44t-24.66 10.44q-9.65 10.43-9.65 25.43t9.65 24.94q9.66 9.93 24.66 9.93t25.71-9.93Z"/></svg>