<svg xmlns="http://www.w3.org/2000/svg" height="48px" viewBox="0 -960 960 960" width="48px" fill="#000000"><path d="M265.35-21.87q-34.39 0-58.78-24.39-24.4-24.39-24.4-58.78v-749.92q0-34.39 24.4-58.78 24.39-24.39 58.78-24.39h429.3q34.39 0 58.78 24.39 24.4 24.39 24.4 58.78v233.35H562.09q-44.83 0-73.46 28.91Q460-563.78 460-520.52v415.48h50.04L625-220h152.83v114.96q0 34.39-24.4 58.78-24.39 24.39-58.78 24.39h-429.3ZM520-200v-320.52q0-17.26 11.91-29.18 11.92-11.91 30.18-11.91h276.82q17.26 0 29.18 11.91Q880-537.78 880-520.52v198.43q0 18.26-11.91 30.18Q856.17-280 838.91-280H600l-80 80Zm-16-516.13q10.43-9.65 10.43-24.93 0-15.29-10.43-25.72-10.43-10.44-25.22-10.44-14.78 0-24.93 10.44-10.15 10.43-10.15 25.72 0 15.28 10.15 24.93t24.93 9.65q14.79 0 25.22-9.65Z"/></svg>