<svg xmlns="http://www.w3.org/2000/svg" height="48px" viewBox="0 -960 960 960" width="48px" fill="#000000"><path d="M265.35-21.17q-34.96 0-59.35-24.11t-24.39-59.07v-751.3q0-33.52 24.61-58.63t59.13-25.11h427.87q33.95 0 58.85 24.39 24.89 24.39 24.89 59.35v135.95q17.43 5.7 29.93 21.48 12.5 15.79 12.5 35.35V-591q0 20.57-12.5 36.63-12.5 16.07-29.93 21.76v153.7H606q-82.26 0-139.46 57.19-57.19 57.2-57.19 138.46v162.09h-144ZM789-37.91l-58.35-58.35 87-87-87-87L789-328.61l146.91 145.35L789-37.91Zm-173.3 0L468.78-183.26 615.7-328.61l57.78 58.35-85.44 87 85.44 87-57.78 58.35ZM504-716.13q10.43-9.65 10.43-24.93 0-15.29-10.43-25.72-10.43-10.44-25.22-10.44-14.78 0-24.93 10.44-10.15 10.43-10.15 25.72 0 15.28 10.15 24.93t24.93 9.65q14.79 0 25.22-9.65Z"/></svg>