<svg xmlns="http://www.w3.org/2000/svg" height="48px" viewBox="0 -960 960 960" width="48px" fill="#000000"><path d="M184.91-61.17q-33.52 0-58.63-24.83t-25.11-58.35v-671.3q0-33.52 25.11-58.63t58.63-25.11h387.87q33.52 0 58.63 25.11t25.11 58.63v161L419.48-419.04H286.91v275.26h132.57l83.17 82.61H184.91Zm219.37-614.96q10.15-9.65 10.15-24.93 0-15.29-10.15-25.72-10.15-10.44-25.43-10.44t-25.22 10.44q-9.93 10.43-9.93 25.72 0 15.28 9.93 24.93 9.94 9.65 25.22 9.65t25.43-9.65ZM581.61-67.65 445.48-203.78h-98.57v-155.26h98.57l136.13-136.13v427.52Zm85.3 33.87v-75.7q62.44-8.43 102.22-57.72 39.78-49.28 39.78-113.71 0-64-39.78-114.07-39.78-50.06-102.22-57.93v-75.7q93.57 9.44 155.42 80.72 61.84 71.28 61.84 166.69 0 95.42-61.84 166.98-61.85 71.57-155.42 80.44Zm0-134v-226.83q36.57 11 61.13 41.78 24.57 30.79 24.57 71.63 0 40.85-24.57 72.42-24.56 31.56-61.13 41Z"/></svg>