<?xml version="1.0" encoding="UTF-8" standalone="no"?>
<!DOCTYPE svg PUBLIC "-//W3C//DTD SVG 1.1//EN" "http://www.w3.org/Graphics/SVG/1.1/DTD/svg11.dtd">
<svg width="100%" height="100%" viewBox="0 0 48 48" version="1.1" xmlns="http://www.w3.org/2000/svg" xmlns:xlink="http://www.w3.org/1999/xlink" xml:space="preserve" xmlns:serif="http://www.serif.com/" style="fill-rule:evenodd;clip-rule:evenodd;stroke-linejoin:round;stroke-miterlimit:2;">
    <g transform="matrix(1,0,0,1,11.974,4.54545)">
        <path d="M17.662,17.2L17.662,21.709C17.662,23.576 16.147,25.091 14.281,25.091L9.771,25.091C7.905,25.091 6.39,23.576 6.39,21.709L6.39,17.2C6.39,15.334 7.905,13.818 9.771,13.818L14.281,13.818C16.147,13.818 17.662,15.334 17.662,17.2Z"/>
    </g>
    <g transform="matrix(1,0,0,1,28.2468,4.54545)">
        <path d="M17.662,17.2L17.662,21.709C17.662,23.576 16.147,25.091 14.281,25.091L9.771,25.091C7.905,25.091 6.39,23.576 6.39,21.709L6.39,17.2C6.39,15.334 7.905,13.818 9.771,13.818L14.281,13.818C16.147,13.818 17.662,15.334 17.662,17.2Z"/>
    </g>
    <g transform="matrix(1,0,0,1,-4.2987,4.54545)">
        <path d="M17.662,17.2L17.662,21.709C17.662,23.576 16.147,25.091 14.281,25.091L9.771,25.091C7.905,25.091 6.39,23.576 6.39,21.709L6.39,17.2C6.39,15.334 7.905,13.818 9.771,13.818L14.281,13.818C16.147,13.818 17.662,15.334 17.662,17.2Z"/>
    </g>
</svg>
