<svg xmlns="http://www.w3.org/2000/svg" height="48px" viewBox="0 -960 960 960" width="48px" fill="#000000"><path d="M102.78-103.7Q62.8-143.83 62.8-201.75q0-57.92 40.09-98.52 40.09-40.6 98.54-40.6 17.29 0 34.05 4.91 16.76 4.91 31.64 12.61l174.73-172.61v-129.65q-44.24-12.48-72.12-48.71-27.88-36.23-27.88-84.72 0-57.08 40.13-97.74 40.13-40.65 98.17-40.65 58.05 0 98.52 40.65 40.48 40.66 40.48 97.74 0 48.49-28.38 84.72t-71.62 48.71v129.65l173.82 172.37q15.25-7.46 31.83-11.99t34.24-4.53q57.5 0 98.45 40.89 40.94 40.89 40.94 98.17 0 57.29-40.75 97.77T759.01-62.8q-57.92 0-98.02-40.83-40.1-40.83-40.1-98.33 0-17.6 4.41-33.94 4.41-16.34 12.11-31.58L480-425.89 322.59-268.24q7.68 15.15 12.6 31.9t4.92 34.62q0 57.98-40.75 98.07-40.76 40.08-98.68 40.08-57.92 0-97.9-40.13Zm700.15-53.99q17.96-17.58 17.96-43.45 0-25.86-17.79-43.76-17.78-17.9-43.94-17.9-26.16 0-43.44 17.58-17.29 17.58-17.29 43.44 0 25.87 17.11 43.77 17.11 17.9 43.27 17.9 26.16 0 44.12-17.58ZM523.89-714.9q17.96-17.46 17.96-43.32 0-25.87-17.79-43.77-17.79-17.9-43.94-17.9-26.16 0-43.57 17.58-17.4 17.58-17.4 43.45 0 25.86 17.23 43.64 17.23 17.79 43.39 17.79t44.12-17.47ZM244.84-158.1q17.96-17.23 17.96-43.38 0-26.16-17.78-44.12-17.79-17.97-43.95-17.97-26.16 0-43.56 17.79-17.4 17.79-17.4 43.95 0 26.16 17.23 43.56 17.23 17.4 43.38 17.4 26.16 0 44.12-17.23Z"/></svg>