<svg xmlns="http://www.w3.org/2000/svg" height="48px" viewBox="0 -960 960 960" width="48px" fill="#000000"><path d="M571.46-771.6Q555-788.2 555-810.1t16.6-38.9q16.6-17 38.5-17t38.9 17.14q17 17.14 17 39.04t-17.14 38.36Q631.72-755 609.82-755t-38.36-16.6Zm0 660Q555-128.2 555-150.1t16.6-38.9q16.6-17 38.5-17t38.9 17.14q17 17.14 17 39.04t-17.14 38.36Q631.72-95 609.82-95t-38.36-16.6Zm160-520Q715-648.2 715-670.1t16.6-38.9q16.6-17 38.5-17t38.9 17.14q17 17.14 17 39.04t-17.14 38.36Q791.72-615 769.82-615t-38.36-16.6Zm0 380Q715-268.2 715-290.1t16.6-38.9q16.6-17 38.5-17t38.9 17.14q17 17.14 17 39.04t-17.14 38.36Q791.72-235 769.82-235t-38.36-16.6Zm60-190Q775-458.2 775-480.1t16.6-38.9q16.6-17 38.5-17t38.9 17.14q17 17.14 17 39.04t-17.14 38.36Q851.72-425 829.82-425t-38.36-16.6ZM480-67q-85.55 0-160.78-32Q244-131 187.5-187.5T99-319.1q-32-75.09-32-160.5 0-85.4 32-160.9t88.5-132q56.5-56.5 131.72-89Q394.45-894 480-894v94q-133 0-225.5 93.5T162-480q0 133 92.31 225.5Q346.63-162 480-162v95Zm-61-352.06q-24-24.07-24-61.2 0-3.68.5-8.71.5-5.03 1.5-8.86L311-584l65-64 87 84q4-2 17-2 36.4 0 61.2 24.59 24.8 24.59 24.8 61.5T541.41-419q-24.59 24-61.5 24T419-419.06Z"/></svg>