<?xml version="1.0" encoding="UTF-8" standalone="no"?><!DOCTYPE svg PUBLIC "-//W3C//DTD SVG 1.1//EN" "http://www.w3.org/Graphics/SVG/1.1/DTD/svg11.dtd"><svg width="100%" height="100%" viewBox="0 0 100 100" version="1.1" xmlns="http://www.w3.org/2000/svg" xmlns:xlink="http://www.w3.org/1999/xlink" xml:space="preserve" xmlns:serif="http://www.serif.com/" style="fill-rule:evenodd;clip-rule:evenodd;stroke-linejoin:round;stroke-miterlimit:2;"><path d="M50.071,0c-27.588,0 -49.95,22.362 -49.95,49.946c-0,21.162 13.158,39.237 31.742,46.508c-0.438,-3.954 -0.83,-10.012 0.17,-14.329c0.913,-3.904 5.859,-24.821 5.859,-24.821c-0,0 -1.496,-3 -1.496,-7.421c-0,-6.929 4.029,-12.129 9.033,-12.129c4.267,0 6.325,3.204 6.325,7.033c0,4.288 -2.721,10.696 -4.133,16.634c-1.188,4.971 2.5,9.021 7.396,9.021c8.866,-0 15.7,-9.355 15.7,-22.863c-0,-11.921 -8.596,-20.287 -20.867,-20.287c-14.208,-0 -22.537,10.675 -22.537,21.662c-0,4.304 1.641,8.929 3.704,11.421c0.412,0.5 0.466,0.937 0.354,1.437c-0.375,1.563 -1.221,4.996 -1.392,5.68c-0.221,0.937 -0.716,1.129 -1.671,0.687c-6.229,-2.875 -10.137,-11.992 -10.137,-19.358c-0,-15.734 11.45,-30.217 33,-30.217c17.325,0 30.8,12.363 30.8,28.846c-0,17.229 -10.863,31.092 -25.971,31.092c-5.058,-0 -9.808,-2.621 -11.492,-5.746l-3.12,11.866c-1.121,4.355 -4.184,9.8 -6.242,13.109c4.679,1.437 9.608,2.229 14.792,2.229c27.529,-0 49.937,-22.354 49.937,-49.946c0,-27.596 -22.408,-49.946 -49.938,-49.946l0.134,-0.108Z" style="fill:url(#_Radial1);"/><defs><radialGradient id="_Radial1" cx="0" cy="0" r="1" gradientUnits="userSpaceOnUse" gradientTransform="matrix(-29.8936,111.564,-111.564,-29.8936,68.1968,-7.78222)"><stop offset="0" style="stop-color:#ff2459;stop-opacity:1"/><stop offset="1" style="stop-color:#bd081c;stop-opacity:1"/></radialGradient></defs></svg>