<svg xmlns="http://www.w3.org/2000/svg" height="48px" viewBox="0 -960 960 960" width="48px" fill="#000000"><path d="M480-49.33q-152.33-38-251.17-173.73Q130-358.78 130-519.95v-259.44l350-131.28 350.67 131v236.34H724V-299L614.33-405.33q10.34-16 15.17-35.97 4.83-19.96 4.83-40.03 0-64.7-44.89-109.85-44.89-45.15-109.33-45.15t-109.44 45.12q-45 45.11-45 109.77 0 63.99 45.15 108.88 45.15 44.89 109.18 44.89 20.07 0 40.43-5.33 20.37-5.33 37.24-14.33l156 152.66q-41.34 49.67-106.5 90.84Q542-62.67 480-49.33Zm51.83-380.63Q554-451.91 554-481.46q0-30.21-22.29-52.37Q509.42-556 479.88-556q-29.55 0-51.71 22.29Q406-511.42 406-481.21q0 29.54 22.29 51.38Q450.58-408 480.12-408q29.55 0 51.71-21.96ZM819.16-65.62q-14.83-14.96-14.83-38.17 0-22.21 14.83-37.54 14.82-15.34 37.33-15.34 22.51 0 38.51 15.34 16 15.33 16 37.54 0 23.21-16 38.17-16 14.95-38.51 14.95-22.51 0-37.33-14.95Zm-14.83-139.71v-271.34H911v271.34H804.33Z"/></svg>