<svg xmlns="http://www.w3.org/2000/svg" height="48px" viewBox="0 -960 960 960" width="48px" fill="#000000"><path d="M192-101q-37.78 0-64.39-26.61T101-192v-576q0-37.77 26.61-64.39Q154.22-859 192-859h576q37.77 0 64.39 26.61Q859-805.77 859-768v576q0 37.78-26.61 64.39Q805.77-101 768-101H192Zm-11-80h598v-519H181v519Zm156.5-148.65Q275-372.3 247-440.15 275-508 337.46-551q62.46-43 142.5-43 80.04 0 142.54 43.15 62.5 43.15 90.5 111Q685-372 622.54-329.5 560.08-287 480.04-287 400-287 337.5-329.65Zm108-75.97q-14.5-14.62-14.5-34.5 0-19.88 14.62-34.38 14.62-14.5 34.5-14.5 19.88 0 34.38 14.62 14.5 14.62 14.5 34.5 0 19.88-14.62 34.38-14.62 14.5-34.5 14.5-19.88 0-34.38-14.62Zm91 22.12Q559-406 559-440t-22.5-56.5Q514-519 480-519t-56.5 22.5Q401-474 401-440t22.5 56.5Q446-361 480-361t56.5-22.5Z"/></svg>