<?xml version="1.0" encoding="UTF-8" standalone="no"?><!DOCTYPE svg PUBLIC "-//W3C//DTD SVG 1.1//EN" "http://www.w3.org/Graphics/SVG/1.1/DTD/svg11.dtd"><svg width="100%" height="100%" viewBox="0 0 2134 2134" version="1.1" xmlns="http://www.w3.org/2000/svg" xmlns:xlink="http://www.w3.org/1999/xlink" xml:space="preserve" xmlns:serif="http://www.serif.com/" style="fill-rule:evenodd;clip-rule:evenodd;stroke-linejoin:round;stroke-miterlimit:2;"><path d="M492.667,1542.67c79.333,-60.667 168,-108.5 266,-143.5c98,-35 200.666,-52.5 308,-52.5c107.333,-0 210,17.5 308,52.5c98,35 186.666,82.833 266,143.5c54.444,-63.778 96.833,-136.111 127.166,-217c30.334,-80.889 45.5,-167.223 45.5,-259c0,-206.889 -72.722,-383.056 -218.166,-528.5c-145.445,-145.445 -321.611,-218.167 -528.5,-218.167c-206.889,-0 -383.056,72.722 -528.5,218.167c-145.445,145.444 -218.167,321.611 -218.167,528.5c0,91.777 15.167,178.111 45.5,259c30.333,80.889 72.722,153.222 127.167,217Zm574,-382.667c-91.778,-0 -169.167,-31.5 -232.167,-94.5c-63,-63 -94.5,-140.389 -94.5,-232.167c0,-91.777 31.5,-169.166 94.5,-232.166c63,-63 140.389,-94.5 232.167,-94.5c91.777,-0 169.166,31.5 232.166,94.5c63,63 94.5,140.389 94.5,232.166c0,91.778 -31.5,169.167 -94.5,232.167c-63,63 -140.389,94.5 -232.166,94.5Zm-0,840c-129.111,0 -250.445,-24.5 -364,-73.5c-113.556,-49 -212.334,-115.5 -296.334,-199.5c-84,-84 -150.5,-182.778 -199.5,-296.333c-49,-113.556 -73.5,-234.889 -73.5,-364c0,-129.111 24.5,-250.445 73.5,-364c49,-113.556 115.5,-212.334 199.5,-296.334c84,-84 182.778,-150.5 296.334,-199.5c113.555,-49 234.889,-73.5 364,-73.5c129.111,0 250.444,24.5 364,73.5c113.555,49 212.333,115.5 296.333,199.5c84,84 150.5,182.778 199.5,296.334c49,113.555 73.5,234.889 73.5,364c0,129.111 -24.5,250.444 -73.5,364c-49,113.555 -115.5,212.333 -199.5,296.333c-84,84 -182.778,150.5 -296.333,199.5c-113.556,49 -234.889,73.5 -364,73.5Z" style="fill-rule:nonzero;"/></svg>