<svg xmlns="http://www.w3.org/2000/svg" height="48px" viewBox="0 -960 960 960" width="48px" fill="#000000"><path d="M189-98q-37.05 0-64.03-26.97Q98-151.95 98-189v-582q0-37.46 26.97-64.73Q151.95-863 189-863h185q3-37 33-66.5t73-29.5q43 0 73 29.5t33 66.5h185q37.46 0 64.73 27.27Q863-808.46 863-771v582q0 37.05-27.27 64.03Q808.46-98 771-98H189Zm317-727.91q11-9.9 11-25.5 0-15.59-10.91-26.09-10.9-10.5-26-10.5-15.09 0-25.59 10.41-10.5 10.4-10.5 26Q444-836 454.41-826q10.4 10 25.5 10 15.09 0 26.09-9.91Zm77 395.53q41-41.38 41-101.5T583.12-632.5Q542.24-673 482.62-673T381.5-632.62Q340-592.24 340-532.12t41.38 101.62q41.38 41.5 101 41.5T583-430.38ZM189-189h582v-53q-59-53-131-83t-160-30q-88 0-160 31t-131 84v51Z"/></svg>