<svg xmlns="http://www.w3.org/2000/svg" height="48px" viewBox="0 -960 960 960" width="48px" fill="#000000"><path d="M318.37-94.08q-76.52-33.08-133.88-90.08-57.37-57-90.43-133.62Q61-394.4 61-480.2q0-85.8 33.03-162.15 33.03-76.35 90.37-133.39 57.33-57.04 134.14-90.65Q395.35-900 481.37-900q86.02 0 162.71 33.48 76.7 33.47 133.28 90.54 56.57 57.06 89.61 133.61Q900-565.83 900-479.91q0 85.91-32.8 162.37-32.8 76.46-89.75 133.59-56.95 57.12-133.84 90.03Q566.72-61 480.81-61q-85.92 0-162.44-33.08ZM439-153v-80q-35 0-57.44-24.62-22.43-24.62-22.43-59.34v-42.66L162-557q-5 18.47-7 37.45-2 18.97-2 37.98 0 123.24 81 219.9Q315-165 439-153Zm283.84-104q43.56-46.27 64.36-104.67 20.8-58.4 20.8-119.92 0-101.61-55.59-185.06Q696.82-750.09 604-788v16.33q0 34.43-22.91 58.55Q558.18-689 522.84-689H439v84.7q0 18.3-12.5 27.8t-31.8 9.5H316v85h249.62q15.55 0 26.96 12.71Q604-456.58 604-440.74V-317h39.79q27.21 0 49.67 16.55 22.46 16.56 29.38 43.45Z"/></svg>