<?xml version="1.0" encoding="UTF-8" standalone="no"?><!DOCTYPE svg PUBLIC "-//W3C//DTD SVG 1.1//EN" "http://www.w3.org/Graphics/SVG/1.1/DTD/svg11.dtd"><svg width="100%" height="100%" viewBox="0 0 2900 2900" version="1.1" xmlns="http://www.w3.org/2000/svg" xmlns:xlink="http://www.w3.org/1999/xlink" xml:space="preserve" xmlns:serif="http://www.serif.com/" style="fill-rule:evenodd;clip-rule:evenodd;stroke-linejoin:round;stroke-miterlimit:2;"><g><path d="M2283.33,200c-229.964,-0 -416.666,186.702 -416.666,416.667c-0,229.964 186.702,416.666 416.666,416.666c229.965,0 416.667,-186.702 416.667,-416.666c0,-229.965 -186.702,-416.667 -416.667,-416.667Z"/><path d="M1588.89,616.667c-0,380.961 313.483,694.444 694.444,694.444c46.625,-0.358 93.117,-5.007 138.889,-13.889l0,1125c0,152.385 -125.393,277.778 -277.778,277.778l-1666.67,-0c-152.385,-0 -277.778,-125.393 -277.778,-277.778l-0,-1666.67c-0,-152.385 125.393,-277.778 277.778,-277.778l1125,-0c-8.882,45.772 -13.531,92.264 -13.889,138.889Zm428.472,1536.81c0,-35.644 -28.939,-64.583 -64.583,-64.583l-1283.33,-0c-35.644,-0 -64.583,28.939 -64.583,64.583c0,35.645 28.939,64.584 64.583,64.584l1283.33,-0c35.644,-0 64.583,-28.939 64.583,-64.584Zm-458.333,-750c-0,-35.644 -28.939,-64.583 -64.584,-64.583l-825,-0c-35.644,-0 -64.583,28.939 -64.583,64.583c0,35.645 28.939,64.584 64.583,64.584l825,-0c35.645,-0 64.584,-28.939 64.584,-64.584Zm458.333,375c0,-35.644 -28.939,-64.583 -64.583,-64.583l-1283.33,-0c-35.644,-0 -64.583,28.939 -64.583,64.583c0,35.645 28.939,64.584 64.583,64.584l1283.33,-0c35.644,-0 64.583,-28.939 64.583,-64.584Z"/></g></svg>