<svg xmlns="http://www.w3.org/2000/svg" height="48px" viewBox="0 -960 960 960" width="48px" fill="#000000"><path d="M227-38q-58.92 0-97.96-39.75Q90-117.5 90-175.47V-321h139v-573l65 64 63.77-64 63.77 64 63.77-64 63.78 64 64.77-64 63.57 64 63.9-64 63.34 64L871-894v719q0 57.5-40.04 97.25T734-38H227Zm505.5-92q18.5 0 31-12.89Q776-155.77 776-174.6V-775H323v504h370v96q0 19 10 32t29.5 13ZM377-617v-57h219v57H377Zm0 132v-57h219v57H377Zm312.42-132q-11.42 0-19.92-8.76-8.5-8.77-8.5-19.5 0-10.74 8.28-19.74 8.28-9 20-9t20.22 8.96q8.5 8.97 8.5 20 0 11.04-8.58 19.54t-20 8.5Zm0 127q-11.42 0-19.92-8.68-8.5-8.69-8.5-20 0-11.32 8.28-19.82t20-8.5q11.72 0 20.22 8.68 8.5 8.69 8.5 20 0 11.32-8.58 19.82t-20 8.5Z"/></svg>