<?xml version="1.0" encoding="UTF-8" standalone="no"?><!DOCTYPE svg PUBLIC "-//W3C//DTD SVG 1.1//EN" "http://www.w3.org/Graphics/SVG/1.1/DTD/svg11.dtd"><svg width="100%" height="100%" viewBox="0 0 100 100" version="1.1" xmlns="http://www.w3.org/2000/svg" xmlns:xlink="http://www.w3.org/1999/xlink" xml:space="preserve" xmlns:serif="http://www.serif.com/" style="fill-rule:evenodd;clip-rule:evenodd;stroke-linejoin:round;stroke-miterlimit:2;"><path d="M50,0c-27.612,0 -50,22.388 -50,50c0,13.808 5.596,26.308 14.646,35.354l-9.525,9.525c-1.892,1.892 -0.55,5.121 2.121,5.121l42.758,0c27.612,0 50,-22.388 50,-50c0,-27.612 -22.388,-50 -50,-50Zm18.283,13.329c4.6,0 8.329,3.729 8.329,8.329c0.001,4.605 -3.729,8.334 -8.329,8.334c-3.941,-0 -7.245,-2.738 -8.112,-6.413l-0,0.009c-4.779,0.675 -8.467,4.791 -8.467,9.754l0,0.029c7.4,0.279 14.167,2.362 19.525,5.679c1.971,-1.513 4.434,-2.417 7.113,-2.417c6.446,0 11.675,5.225 11.675,11.675c-0,4.654 -2.729,8.671 -6.671,10.546c-0.367,13.567 -15.154,24.484 -33.321,24.484c-18.171,-0.001 -32.937,-10.905 -33.325,-24.459c-3.975,-1.862 -6.725,-5.896 -6.725,-10.575c0,-6.45 5.229,-11.675 11.679,-11.675c2.688,0 5.163,0.908 7.134,2.438c5.312,-3.292 12.004,-5.38 19.333,-5.688l-0,-0.041c-0,-6.93 5.262,-12.642 12,-13.363c0.783,-3.796 4.137,-6.646 8.162,-6.646Zm-33.687,34.9c-3.267,0 -6.079,3.25 -6.275,7.488c-0.196,4.233 2.666,5.954 5.941,5.954c3.275,-0 5.713,-1.538 5.909,-5.771c0.196,-4.237 -2.304,-7.671 -5.575,-7.671Zm30.858,0c-3.275,0 -5.771,3.433 -5.575,7.671c0.196,4.237 2.642,5.771 5.908,5.771c3.271,-0 6.138,-1.721 5.942,-5.954c-0.192,-4.238 -3.004,-7.488 -6.275,-7.488Zm-15.429,16.721c-4.058,0 -7.946,0.2 -11.542,0.563c-0.612,0.062 -1.004,0.699 -0.762,1.27c2.012,4.809 6.758,8.184 12.304,8.184c5.542,-0 10.292,-3.375 12.304,-8.184c0.238,-0.571 -0.154,-1.208 -0.766,-1.27c-3.596,-0.363 -7.48,-0.563 -11.538,-0.563Z" style="fill-rule:nonzero;"/></svg>