<?xml version="1.0" encoding="UTF-8" standalone="no"?>
<!DOCTYPE svg PUBLIC "-//W3C//DTD SVG 1.1//EN" "http://www.w3.org/Graphics/SVG/1.1/DTD/svg11.dtd">
<svg width="100%" height="100%" viewBox="0 0 48 48" version="1.1" xmlns="http://www.w3.org/2000/svg" xmlns:xlink="http://www.w3.org/1999/xlink" xml:space="preserve" xmlns:serif="http://www.serif.com/" style="fill-rule:evenodd;clip-rule:evenodd;stroke-linejoin:round;stroke-miterlimit:2;">
    <g transform="matrix(0.05,0,0,0.05,0,48)">
        <path d="M608.098,-862L770,-862C795.473,-862 817.177,-853.037 835.11,-835.11C853.037,-817.177 862,-795.473 862,-770L862,-190C862,-164.8 853.037,-143.333 835.11,-125.6C817.177,-107.867 795.473,-99 770,-99L190,-99C164.8,-99 143.333,-107.867 125.6,-125.6C107.867,-143.333 99,-164.8 99,-190L99,-770C99,-795.473 107.867,-817.177 125.6,-835.11C143.333,-853.037 164.8,-862 190,-862L352.902,-862L352.969,-770L303.057,-770L294.771,-778.286L286.485,-770L190,-770L190,-414L296.622,-414L480.5,-230.122L664.378,-414L770,-414L770,-770L674.515,-770L666.229,-778.286L657.943,-770L608.031,-770L608.098,-862Z"/>
    </g>
    <g transform="matrix(-0.0353553,0.0353553,-0.0353553,-0.0353553,24.025,-1.32254)">
        <path d="M125.33,-50.67L50.67,-125.33L279,-353.33L90.67,-353.33L90.67,-460L460,-460L460,-90.67L353.33,-90.67L353.33,-279L125.33,-50.67Z"/>
    </g>
</svg>
