<svg xmlns="http://www.w3.org/2000/svg" height="48px" viewBox="0 -960 960 960" width="48px" fill="#000000"><path d="M67-98v-91h103v-673h443v45h178v307h-91v-215h-87v244q-66 36-105 101t-39 137q0 36.01 11.5 74.5Q492-130 511-98H67Zm395.5-350.39q12.5-13.4 12.5-31.5Q475-499 462.5-512t-31.4-13q-18.91 0-32.5 12.89-13.6 12.9-13.6 32 0 18.11 13.6 31.61 13.59 13.5 32.5 13.5 18.9 0 31.4-13.39ZM699.09-38 694-87q-18-6-37.5-17.5T625-126l-44 20-42-67 40-31q-7-18.88-6-38.5t6-39.5l-40-30 42-67 43 20q12-10 32-21t38-17l5.09-50H774l7 50q16.73 5.59 36.86 17.29Q838-368 849-359l45-21 42 70-41 31q6 19 5.5 38.08-.5 19.09-5.5 36.92l41 31-42 67-45.15-20q-10.85 10-30.99 21.71Q797.73-92.59 781-87l-7 49h-74.91Zm37.03-109Q777-147 805-174.42q28-27.41 28-68Q833-283 804.88-311q-28.13-28-69-28-40.88 0-68.38 28-27.5 28-27.5 68.58 0 40.59 27.62 68Q695.25-147 736.12-147Z"/></svg>