<svg xmlns="http://www.w3.org/2000/svg" height="48px" viewBox="0 -960 960 960" width="48px" fill="#000000"><path d="M67-98v-91h103v-673h443v45h178v307h-91v-215h-87v277h-92v-322H261v581h200v91H67Zm632 60-5-49q-18-6-37.52-17.4Q636.97-115.8 625-126l-43.71 20L539-173l40-31q-7-17.38-6-38.25t6-39.75l-40-30 42.29-67L624-359q11.97-10.14 31.98-21.07Q676-391 694-397l5-50h75l7 50q16.73 5.59 36.86 17.29Q838-368 849-359l44.71-21L936-310l-41 31q6 18.5 5.5 38.33-.5 19.84-5.5 36.67l41 31-42.29 67-44.86-20q-10.85 10-30.99 21.71Q797.73-92.59 781-87l-7 49h-75Zm37.12-109q41.29 0 69.09-27.42 27.79-27.41 27.79-68Q833-283 805.08-311t-69.2-28q-41.29 0-68.59 28Q640-283 640-242.42q0 40.59 27.42 68Q694.84-147 736.12-147ZM398.6-448.18q-13.6-13.19-13.6-31.5Q385-499 398.39-512q13.38-13 32.5-13 19.11 0 31.61 12.68 12.5 12.69 12.5 32 0 18.32-12.29 31.82t-31.4 13.5q-19.12 0-32.71-13.18ZM261-189v-581 581Z"/></svg>