<?xml version="1.0" encoding="UTF-8" standalone="no"?><!DOCTYPE svg PUBLIC "-//W3C//DTD SVG 1.1//EN" "http://www.w3.org/Graphics/SVG/1.1/DTD/svg11.dtd"><svg width="100%" height="100%" viewBox="0 0 2768 3041" version="1.1" xmlns="http://www.w3.org/2000/svg" xmlns:xlink="http://www.w3.org/1999/xlink" xml:space="preserve" xmlns:serif="http://www.serif.com/" style="fill-rule:evenodd;clip-rule:evenodd;stroke-linejoin:round;stroke-miterlimit:2;"><g id="Layer"></g><path d="M2573.04,1031.89c-447.679,-483.608 -1033.31,-866.537 -1657.37,-1015.25c-337.009,-80.313 -664.218,137.955 -762.208,485.531c-185.988,661.912 -214.425,1407.02 -21.519,2066.05c22.672,80.313 60.715,155.631 111.824,221.726c51.3,65.903 114.705,121.43 187.141,163.316c72.243,42.078 151.98,69.554 234.791,81.274c82.619,11.72 166.967,7.301 248.049,-13.065c158.898,-39.196 314.721,-90.305 466.125,-152.557c151.403,-62.252 298.004,-135.649 438.456,-219.42c140.644,-83.964 274.756,-178.111 401.374,-281.865c126.619,-103.754 245.359,-216.731 355.262,-337.969c61.483,-67.825 109.902,-146.409 142.757,-231.718c32.856,-85.308 49.572,-175.997 49.38,-267.454c-0.193,-91.65 -17.293,-182.146 -50.34,-267.455c-33.24,-85.309 -82.043,-163.508 -143.719,-231.141Zm-878.642,684.392l-0,0.961c-43.423,34.84 -87.999,68.145 -133.728,99.911c-45.728,31.766 -92.481,61.997 -140.26,90.689c-47.778,28.686 -96.452,55.72 -146.024,81.082c-49.571,25.362 -99.911,49.052 -151.019,71.09c-137.186,59.755 -286.092,-33.239 -300.695,-189.062c-21.711,-225.185 -15.755,-462.09 17.485,-697.073c21.711,-153.71 172.539,-243.822 307.611,-179.264c48.932,23.696 97.093,48.803 144.487,75.317c47.395,26.644 93.892,54.631 139.492,83.964c45.728,29.334 90.496,60.076 134.303,92.226c43.808,32.024 86.591,65.39 128.348,100.103c117.588,95.877 117.588,277.062 -0,370.056Z" style="fill:url(#_Radial1);"/><defs><radialGradient id="_Radial1" cx="0" cy="0" r="1" gradientUnits="userSpaceOnUse" gradientTransform="matrix(4343.48,0,0,4383.33,383.667,466.336)"><stop offset="0" style="stop-color:#aade49;stop-opacity:1"/><stop offset="1" style="stop-color:#6cb830;stop-opacity:1"/></radialGradient></defs></svg>