<?xml version="1.0" encoding="UTF-8" standalone="no"?>
<!DOCTYPE svg PUBLIC "-//W3C//DTD SVG 1.1//EN" "http://www.w3.org/Graphics/SVG/1.1/DTD/svg11.dtd">
<svg width="100%" height="100%" viewBox="0 0 48 48" version="1.1" xmlns="http://www.w3.org/2000/svg" xmlns:xlink="http://www.w3.org/1999/xlink" xml:space="preserve" xmlns:serif="http://www.serif.com/" style="fill-rule:evenodd;clip-rule:evenodd;stroke-linejoin:round;stroke-miterlimit:2;">
    <g transform="matrix(0.05,0,0,0.05,0,48)">
        <path d="M104.35,-141.17C82.017,-141.17 62.57,-149.45 46.01,-166.01C29.45,-182.57 21.17,-202.017 21.17,-224.35L21.17,-735.65C21.17,-758.143 29.45,-777.723 46.01,-794.39C62.57,-811.057 82.017,-819.39 104.35,-819.39L175.43,-819.39C197.923,-819.39 217.503,-811.057 234.17,-794.39C250.837,-777.723 259.17,-758.143 259.17,-735.65L259.17,-224.35C259.17,-202.017 250.837,-182.57 234.17,-166.01C217.503,-149.45 197.923,-141.17 175.43,-141.17L104.35,-141.17ZM104.35,-223.35L175.87,-223.35L175.87,-736.65L104.35,-736.65L104.35,-223.35ZM416.48,-141.17C394.147,-141.17 374.7,-149.45 358.14,-166.01C341.587,-182.57 333.31,-202.017 333.31,-224.35L333.31,-735.65C333.31,-758.143 341.587,-777.723 358.14,-794.39C374.7,-811.057 394.147,-819.39 416.48,-819.39L856.22,-819.39C878.553,-819.39 897.997,-811.057 914.55,-794.39C931.11,-777.723 939.39,-758.143 939.39,-735.65L939.39,-224.35C939.39,-202.017 931.11,-182.57 914.55,-166.01C897.997,-149.45 878.553,-141.17 856.22,-141.17L416.48,-141.17ZM416.48,-223.35L857.22,-223.35L857.22,-736.65L416.48,-736.65L416.48,-223.35ZM175.87,-223.35L175.87,-736.65L175.87,-223.35ZM416.48,-223.35L416.48,-736.65L416.48,-223.35Z" style="fill-rule:nonzero;"/>
    </g>
    <g transform="matrix(0.0184294,0,0,0.0184294,22.9964,32.883)">
        <path d="M18.78,-228.22L279.26,-575.83L476.96,-311.39L551.39,-311.39L395.83,-519.13L560,-737.3L941.22,-228.22L18.78,-228.22Z" style="fill-rule:nonzero;"/>
    </g>
</svg>
