<?xml version="1.0" encoding="UTF-8" standalone="no"?><!DOCTYPE svg PUBLIC "-//W3C//DTD SVG 1.1//EN" "http://www.w3.org/Graphics/SVG/1.1/DTD/svg11.dtd"><svg width="100%" height="100%" viewBox="0 0 2134 2134" version="1.1" xmlns="http://www.w3.org/2000/svg" xmlns:xlink="http://www.w3.org/1999/xlink" xml:space="preserve" xmlns:serif="http://www.serif.com/" style="fill-rule:evenodd;clip-rule:evenodd;stroke-linejoin:round;stroke-miterlimit:2;"><path d="M1872.27,1914.31l-470.134,-472.378c-60.933,46.045 -130.177,82.904 -207.733,110.578c-77.556,27.659 -157.126,41.489 -238.711,41.489c-203.541,-0 -375.674,-70.385 -516.4,-211.156c-140.711,-140.785 -211.067,-312.948 -211.067,-516.488c0,-203.541 70.385,-376.178 211.156,-517.912c140.785,-141.733 312.948,-212.6 516.489,-212.6c203.54,0 376.177,70.941 517.911,212.823c141.733,141.881 212.6,314.592 212.6,518.133c-0,80.756 -14.867,160.119 -44.6,238.089c-29.719,77.97 -65.963,147.022 -108.734,207.155l468.889,471.334l-129.666,130.933Zm-915,-505.133c150.118,-0 278.148,-52.593 384.089,-157.778c105.955,-105.185 158.933,-234 158.933,-386.444c-0,-150.119 -52.911,-278.149 -158.733,-384.089c-105.837,-105.956 -234.304,-158.934 -385.4,-158.934c-151.704,0 -280.149,52.911 -385.334,158.734c-105.185,105.837 -157.778,234.303 -157.778,385.4c0,151.703 52.593,280.148 157.778,385.333c105.185,105.185 234,157.778 386.445,157.778Z" style="fill-rule:nonzero;"/></svg>