<svg xmlns="http://www.w3.org/2000/svg" height="48px" viewBox="0 -960 960 960" width="48px" fill="#000000"><path d="M687.71-59q-56.21 0-95.96-39.46Q552-137.92 552-193q0-8 5-26.83L284-379q-19.48 17.22-41.51 26.11Q220.45-344 194-344q-56.17 0-95.58-39.74Q59-423.47 59-480.24 59-537 97.92-577q38.91-40 96.08-40 27 0 49.31 9.86Q265.62-597.28 284-582l272-156q-2-7-3-14t-1-14q0-55.5 39.75-96.25T688-903q53.5 0 94.25 41.25T823-766q0 54.5-40.77 94.75T687.5-631q-27.14 0-50.32-10.5T597-667L325-518q3 8.86 4.5 19.15t1.5 19.07q0 8.78-.5 17.93T326-445l270 153q20.03-17.06 41.81-27.03 21.77-9.97 50.38-9.97 55.39 0 95.1 40.28Q823-248.44 823-193.47t-41.04 94.72Q740.91-59 687.71-59Z"/></svg>