<svg xmlns="http://www.w3.org/2000/svg" height="48px" viewBox="0 -960 960 960" width="48px" fill="#000000"><path d="M692.32-62.8q-52.45 0-89.16-36.61-36.7-36.6-36.7-89.02 0-9.53 5.76-33.81L277.91-392.7q-17.96 17.98-40.54 28.02-22.59 10.03-48.7 10.03-51.91 0-88.89-36.69-36.98-36.7-36.98-88.9 0-52.19 36.48-89.15 36.48-36.96 89.39-36.96 25.48 0 47.86 10.24 22.37 10.24 39.86 26.28l295.59-168.93q-2.76-7.76-4.14-16.28-1.38-8.53-1.38-17.05 0-51.76 36.66-89.05t89.4-37.29q50.5 0 87.83 37.4 37.32 37.4 37.32 88.9 0 51.5-37.45 88.33-37.46 36.82-87.77 36.82-25.72 0-47.9-9.74t-38.42-25.5L307.5-518q3 8.97 4.88 19.04 1.88 10.07 1.88 18.63 0 8.57-.88 16.96t-3.36 16.09l296.63 168.21q17.73-16.25 38.98-25.48 21.26-9.23 47.1-9.23 50.92 0 87.93 37.39 37.01 37.39 37.01 88.02 0 51.39-37.57 88.48-37.58 37.09-87.78 37.09Z"/></svg>