<svg xmlns="http://www.w3.org/2000/svg" height="48px" viewBox="0 -960 960 960" width="48px" fill="#000000"><path d="M444.57-279.7h70.73v-261.26h-70.73v261.26Zm64.97-330q11.85-12.17 11.85-29.54 0-17.37-11.9-29.5-11.89-12.13-29.54-12.13t-29.49 12.18q-11.85 12.17-11.85 29.54 0 17.37 11.9 29.5 11.89 12.13 29.54 12.13t29.49-12.18ZM480.06-61.17Q332.36-97.76 236.7-231.44q-95.66-133.68-95.66-291.4v-250.68L480-900.83l339.52 127.32v250.05q0 158.34-95.88 292.02Q627.75-97.76 480.06-61.17Zm-.06-85.18q111.61-41.26 183.7-144.55 72.08-103.3 72.08-232.28v-192.83L480-812.09l-255.78 96.35v192.3q0 129.24 72.08 232.54Q368.39-187.61 480-146.35ZM480-480Z"/></svg>