<svg xmlns="http://www.w3.org/2000/svg" height="48px" viewBox="0 -960 960 960" width="48px" fill="00000"><path d="M480.06-61.17Q332.36-97.76 236.7-231.44q-95.66-133.68-95.66-291.4v-250.68L480-900.83l339.52 127.32v250.05q0 158.34-95.88 292.02Q627.75-97.76 480.06-61.17Zm-.06-85.18q111.61-41.26 183.7-144.55 72.08-103.3 72.08-232.28v-192.83L480-812.09l-255.78 96.35v192.3q0 129.24 72.08 232.54Q368.39-187.61 480-146.35ZM480-480Zm28.04 180.89q11.87-11.19 11.87-26.45 0-15.27-11.83-27.14-11.84-11.87-27.44-11.87-15.6 0-26.77 11.89t-11.17 27.15q0 15.27 11.14 26.44 11.14 11.18 26.74 11.18 15.59 0 27.46-11.2Zm-55.21-108.46h53.21q0-13.93 2.5-23.41t4.94-14.65q3-9.24 9.69-16.8 6.7-7.57 20.13-19.44 23.74-22.17 35.81-44.68 12.06-22.51 12.06-46.14 0-39.89-31.59-69.08-31.59-29.19-76.26-29.19-39.19 0-69.74 21.69-30.54 21.68-43.19 56.23l48.41 19.61q6.72-22.35 24.46-35.17 17.73-12.83 41.1-12.83 21.42 0 36.94 15.22 15.53 15.22 15.53 35.54 0 14.45-7.85 28.45t-27.28 29.44q-17.31 17-26.1 28.78-8.79 11.78-11.9 22.21-5 11.14-7.94 24.25-2.93 13.11-2.93 29.97Z"/></svg>