<svg xmlns="http://www.w3.org/2000/svg" height="48px" viewBox="0 -960 960 960" width="48px" fill="#000000"><path d="M400-520h160q33 0 56.5-23.5T640-600q0-33-23.5-56.5T560-680H400q-33 0-56.5 23.5T320-600q0 33 23.5 56.5T400-520Zm131.5-51.5Q520-583 520-600t11.5-28.5Q543-640 560-640t28.5 11.5Q600-617 600-600t-11.5 28.5Q577-560 560-560t-28.5-11.5ZM400-320h160q33 0 56.5-23.5T640-400q0-33-23.5-56.5T560-480H400q-33 0-56.5 23.5T320-400q0 33 23.5 56.5T400-320Zm-28.5-51.5Q360-383 360-400t11.5-28.5Q383-440 400-440t28.5 11.5Q440-417 440-400t-11.5 28.5Q417-360 400-360t-28.5-11.5ZM480.11-50q-152.3-37.81-251.2-173.6Q130-359.38 130-520.57v-259.92l350-130.84 350.67 130.86v259.25q0 161.81-99.14 297.61Q632.4-87.81 480.11-50Z"/></svg>