<svg xmlns="http://www.w3.org/2000/svg" height="48px" viewBox="0 -960 960 960" width="48px" fill="#000000"><path d="M377.63-484.07q-41.54-41.55-41.54-102.04 0-60.5 41.5-102.37 41.5-41.87 102.37-41.87 60.87 0 102.41 41.83t41.54 102.33q0 60.49-41.5 102.08-41.5 41.59-102.37 41.59-60.87 0-102.41-41.55Zm154.85-49.56q20.69-20.37 20.69-52.52 0-32.15-20.69-52.81-20.69-20.65-52.48-20.65-31.79 0-52.48 20.65-20.69 20.66-20.69 52.81 0 32.15 20.69 52.52 20.69 20.37 52.48 20.37 31.79 0 52.48-20.37ZM479.99-61.17q-147.76-36.7-243.35-170.38-95.6-133.68-95.6-291.2v-250.53L480-900.83l339.52 127.57v249.9q0 158.13-95.89 291.81T479.99-61.17ZM480-480Zm0-332.09-255.78 96.3v193.03q0 59.21 16.58 115.52 16.59 56.32 47.98 103.41 46.31-23.3 93.11-35.52 46.81-12.22 98.26-12.22 50.88 0 97.54 12.22 46.66 12.22 93.31 35.52 31.61-47.09 48.2-103.41 16.58-56.31 16.58-115.52v-193.03L480-812.09Zm-73.74 539.92q-35.74 9.21-72.61 26.52 30.1 33.84 66.49 58.79 36.39 24.95 79.56 40.51 43.17-15.56 79.79-40.51 36.62-24.95 66.86-58.79-36.87-17.31-72.62-26.52-35.75-9.22-73.74-9.22-37.99 0-73.73 9.22Z"/></svg>