<?xml version="1.0" encoding="UTF-8" standalone="no"?><!DOCTYPE svg PUBLIC "-//W3C//DTD SVG 1.1//EN" "http://www.w3.org/Graphics/SVG/1.1/DTD/svg11.dtd"><svg width="100%" height="100%" viewBox="0 0 37050 37050" version="1.1" xmlns="http://www.w3.org/2000/svg" xmlns:xlink="http://www.w3.org/1999/xlink" xml:space="preserve" xmlns:serif="http://www.serif.com/" style="fill-rule:evenodd;clip-rule:evenodd;stroke-linejoin:round;stroke-miterlimit:2;"><path d="M8031.16,25411.5c462.971,0 868.059,173.613 1215.28,520.834c347.221,347.225 520.834,752.329 520.834,1215.28l-0,5632.71c-0,462.954 -173.613,868.059 -520.834,1215.28c-347.22,347.221 -752.308,520.834 -1215.28,520.834l-3202.15,-0c-462.971,-0 -868.058,-173.613 -1215.28,-520.834c-347.221,-347.22 -520.833,-752.325 -520.833,-1215.28l-0,-5632.71c-0,-462.95 173.612,-868.054 520.833,-1215.28c347.221,-347.221 752.308,-520.834 1215.28,-520.834l3202.15,0Zm0,-11458.3c462.971,0 868.059,173.613 1215.28,520.833c347.221,347.225 520.834,752.33 520.834,1215.28l-0,5671.29c-0,462.967 -173.613,868.054 -520.834,1215.28c-347.22,347.225 -752.308,520.834 -1215.28,520.834l-3202.15,-0c-462.971,-0 -868.058,-173.609 -1215.28,-520.834c-347.221,-347.221 -520.833,-752.308 -520.833,-1215.28l-0,-5671.29c-0,-462.95 173.612,-868.055 520.833,-1215.28c347.221,-347.22 752.308,-520.833 1215.28,-520.833l3202.15,0Zm23611.1,-11419.8c617.292,0 1157.41,231.475 1620.38,694.446c462.95,462.95 694.441,1003.07 694.441,1620.36l0,27353.5c0,617.291 -231.491,1157.42 -694.441,1620.38c-462.971,462.95 -1003.09,694.446 -1620.38,694.446l-17245.4,-0c-617.291,-0 -1157.42,-231.496 -1620.37,-694.446c-462.967,-462.967 -694.446,-1003.09 -694.446,-1620.38l-0,-27353.5c-0,-617.291 231.479,-1157.41 694.446,-1620.36c462.95,-462.971 1003.08,-694.446 1620.37,-694.446l17245.4,0Zm-23611.1,0c462.971,0 868.059,173.613 1215.28,520.833c347.221,347.221 520.834,752.309 520.834,1215.28l-0,5632.71c-0,462.967 -173.613,868.054 -520.834,1215.28c-347.22,347.225 -752.308,520.833 -1215.28,520.833l-3202.15,0c-462.971,0 -868.058,-173.608 -1215.28,-520.833c-347.221,-347.221 -520.833,-752.308 -520.833,-1215.28l-0,-5632.71c-0,-462.971 173.612,-868.059 520.833,-1215.28c347.221,-347.22 752.308,-520.833 1215.28,-520.833l3202.15,0Z" style="fill-rule:nonzero;"/></svg>