<?xml version="1.0" encoding="UTF-8" standalone="no"?><!DOCTYPE svg PUBLIC "-//W3C//DTD SVG 1.1//EN" "http://www.w3.org/Graphics/SVG/1.1/DTD/svg11.dtd"><svg width="100%" height="100%" viewBox="0 0 1288 1205" version="1.1" xmlns="http://www.w3.org/2000/svg" xmlns:xlink="http://www.w3.org/1999/xlink" xml:space="preserve" xmlns:serif="http://www.serif.com/" style="fill-rule:evenodd;clip-rule:evenodd;stroke-linejoin:round;stroke-miterlimit:2;"><path d="M653.083,17.413l0,-0.05l-3.125,-0l-21.82,0.779c-51.459,-0 -225.784,14.062 -305.938,197.762c-27.708,61.771 -21.096,167.238 -15.992,251.925l2.396,29.638c-4.216,2.341 -12.029,5.466 -24.216,5.466c-16.409,0 -35.625,-5.52 -57.5,-15.625c-5.888,-2.341 -12.346,-3.854 -19.95,-3.854c-25.73,0 -56.146,16.354 -60.834,41.304c-3.125,17.863 4.688,43.646 62.346,66.3c5.521,2.346 11.717,4.688 18.021,6.2c23.333,7.863 59.217,19.529 69.375,42.134c5.467,11.666 3.175,27.291 -6.2,45.262l-0.833,1.508c-3.175,7.346 -79.53,181.25 -249.53,209.375c-13.283,2.292 -22.658,13.855 -21.875,26.513c0.155,3.904 1.25,8.437 2.863,11.717c12.45,30.416 66.2,52.291 166.096,63.854c3.175,3.958 6.25,20.262 8.646,29.687c2.341,9.271 3.854,19.534 7.029,29.534c3.125,10.208 10.887,21.875 30.366,21.875c7.759,-0 17.134,-1.617 28.125,-3.855c16.355,-3.125 38.125,-7.762 66.25,-7.762c15.571,-0 31.98,1.512 48.334,3.854c31.25,5.471 57.708,24.167 88.904,46.042c44.375,31.929 94.325,67.083 170.783,67.083l7.759,0c3.179,0 6.25,0.783 9.375,0.783c76.458,0 127.137,-35.887 171.562,-67.083c31.25,-21.875 58.492,-40.625 89.742,-46.042c16.354,-3.075 31.925,-3.854 47.55,-3.854c26.458,0 47.554,3.125 66.304,7.029c11.717,2.242 20.987,3.855 28.021,3.855l1.562,-0c14.842,-0 24.946,-6.98 28.904,-21.092c3.125,-10.054 5.471,-19.479 6.98,-28.804c2.291,-10.154 5.47,-24.946 8.541,-29.688c97.554,-14.737 151.354,-36.562 163.854,-66.196c1.563,-3.958 2.346,-7.812 2.346,-11.72c0.779,-12.446 -8.596,-24.217 -21.875,-26.509c-170.054,-28.075 -246.408,-201.979 -249.533,-209.062l-0.779,-0.783c-9.429,-17.917 -10.938,-33.542 -6.25,-45.209c10.104,-23.437 45.987,-35.154 69.425,-42.187c7.033,-2.292 13.283,-4.688 17.916,-6.196c42.867,-17.138 63.959,-37.45 63.18,-60.833c-0,-18.7 -14.792,-35.888 -38.23,-43.646c-7.812,-3.179 -17.033,-4.688 -26.512,-4.688c-6.25,0 -15.571,0.834 -24.167,5.417c-19.479,9.425 -38.175,14.842 -53.8,15.675c-10.312,-0 -16.979,-2.342 -20.887,-4.688c0.416,-8.591 0.937,-17.187 1.562,-26.562l0.159,-3.125c5.416,-84.792 11.979,-190.313 -15.575,-252.446c-82.446,-184.637 -257.292,-199.012 -308.855,-199.012Z" style="fill:url(#_Radial1);"/><defs><radialGradient id="_Radial1" cx="0" cy="0" r="1" gradientUnits="userSpaceOnUse" gradientTransform="matrix(5.90892e-14,965,-962.954,5.89638e-14,642.354,261.111)"><stop offset="0" style="stop-color:#fffc00;stop-opacity:1"/><stop offset="0.42" style="stop-color:#fff000;stop-opacity:1"/><stop offset="1" style="stop-color:#ffd500;stop-opacity:1"/></radialGradient></defs></svg>