<?xml version="1.0" encoding="UTF-8" standalone="no"?><!DOCTYPE svg PUBLIC "-//W3C//DTD SVG 1.1//EN" "http://www.w3.org/Graphics/SVG/1.1/DTD/svg11.dtd"><svg width="100%" height="100%" viewBox="0 0 10417 5780" version="1.1" xmlns="http://www.w3.org/2000/svg" xmlns:xlink="http://www.w3.org/1999/xlink" xml:space="preserve" xmlns:serif="http://www.serif.com/" style="fill-rule:evenodd;clip-rule:evenodd;stroke-linejoin:round;stroke-miterlimit:2;"><path d="M0,4741.21c0,129.267 46.863,227.004 140.571,293.258c93.713,66.242 193.888,89.667 300.525,70.284c100.171,-19.388 170.459,-54.938 210.863,-106.638c40.387,-51.7 60.592,-137.342 60.592,-256.904l-0,-1405.69c-0,-100.183 -34.734,-185.013 -104.217,-254.479c-69.467,-69.484 -154.292,-104.217 -254.475,-104.217c-96.946,-0 -180.155,34.733 -249.634,104.217c-69.479,69.466 -104.225,154.292 -104.225,254.479l-0,1405.69Zm1114.86,601.054c0,93.73 33.125,164.001 99.367,210.867c66.25,46.863 151.083,70.284 254.479,70.284c106.638,-0 193.075,-23.434 259.326,-70.284c66.241,-46.854 99.37,-117.137 99.37,-210.867l0,-3276.71c0,-96.945 -34.75,-180.162 -104.216,-249.633c-69.48,-69.467 -154.305,-104.213 -254.48,-104.213c-96.941,0 -180.162,34.746 -249.629,104.213c-69.483,69.483 -104.217,152.688 -104.217,249.633l0,3276.71Zm1110.01,155.113c-0,93.717 33.929,164 101.791,210.863c67.859,46.854 155.109,70.287 261.759,70.287c103.4,0 188.225,-23.433 254.467,-70.287c66.25,-46.863 99.379,-117.146 99.379,-210.863l0,-2990.73c0,-100.17 -34.746,-185.812 -104.217,-256.904c-69.479,-71.087 -152.683,-106.625 -249.629,-106.625c-100.184,-0 -185.813,35.538 -256.904,106.625c-71.088,71.092 -106.638,156.734 -106.638,256.904l-0,2990.73l-0.008,0Zm1114.86,14.542c-0,177.737 119.562,266.608 358.692,266.608c239.125,0 358.683,-88.871 358.683,-266.608l0,-4847.21c0,-271.446 -82.4,-424.937 -247.208,-460.487c-106.638,-25.855 -211.667,4.845 -315.067,92.096c-103.408,87.25 -155.113,210.041 -155.113,368.387l0,4847.22l0.013,-0Zm1134.26,140.571l0,-5273.77c0,-168.034 50.083,-268.209 150.263,-300.53c216.5,-51.7 431.4,-77.554 644.679,-77.554c494.405,0 954.901,116.334 1381.45,349c426.555,232.667 771.522,550.159 1034.88,952.476c263.375,402.334 416.059,845.838 458.067,1330.57c197.117,-84.021 407.155,-126.029 630.126,-126.029c452.408,-0 839.384,159.958 1160.91,479.875c321.534,319.925 482.309,704.467 482.309,1153.65c-0,452.409 -160.775,838.567 -482.309,1158.48c-321.525,319.917 -706.88,479.876 -1156.06,479.876l-4217.07,-4.846c-29.096,-9.696 -50.908,-27.475 -65.45,-53.321c-14.541,-25.846 -21.779,-48.492 -21.779,-67.879Z" style="fill-rule:nonzero;"/></svg>