<?xml version="1.0" encoding="UTF-8" standalone="no"?><!DOCTYPE svg PUBLIC "-//W3C//DTD SVG 1.1//EN" "http://www.w3.org/Graphics/SVG/1.1/DTD/svg11.dtd"><svg width="100%" height="100%" viewBox="0 0 2134 2134" version="1.1" xmlns="http://www.w3.org/2000/svg" xmlns:xlink="http://www.w3.org/1999/xlink" xml:space="preserve" xmlns:serif="http://www.serif.com/" style="fill-rule:evenodd;clip-rule:evenodd;stroke-linejoin:round;stroke-miterlimit:2;"><path d="M682.778,1461.67l770,-0l-0,-792.223l-770,0l-0,792.223Zm-262.778,453.889c-55.081,-0 -102.556,-19.934 -142.422,-59.8c-39.867,-39.867 -59.8,-87.341 -59.8,-142.423l-0,-1293.33c-0,-55.689 19.933,-103.681 59.8,-143.978c39.866,-40.311 87.341,-60.466 142.422,-60.466l1293.33,-0c55.689,-0 103.682,20.155 143.978,60.466c40.311,40.297 60.467,88.289 60.467,143.978l-0,1293.33c-0,55.082 -20.156,102.556 -60.467,142.423c-40.296,39.866 -88.289,59.8 -143.978,59.8l-1293.33,-0Zm0,-202.223l1293.33,0l0,-1293.33l-1293.33,0l0,1293.33Zm0,-1293.33l0,1293.33l0,-1293.33Z" style="fill-rule:nonzero;"/></svg>