<?xml version="1.0" encoding="UTF-8" standalone="no"?><!DOCTYPE svg PUBLIC "-//W3C//DTD SVG 1.1//EN" "http://www.w3.org/Graphics/SVG/1.1/DTD/svg11.dtd"><svg width="100%" height="100%" viewBox="0 0 2134 2134" version="1.1" xmlns="http://www.w3.org/2000/svg" xmlns:xlink="http://www.w3.org/1999/xlink" xml:space="preserve" xmlns:serif="http://www.serif.com/" style="fill-rule:evenodd;clip-rule:evenodd;stroke-linejoin:round;stroke-miterlimit:2;"><path d="M1066.67,-0l919.54,154.87l-0,853.72c-0.285,715.517 -732.978,1083.42 -919.54,1124.74c-186.562,-41.319 -919.256,-409.226 -919.541,-1124.74l0,-853.72l919.541,-154.87Zm-0,125.641l-795.645,134.003l0,748.908c0.131,317.961 165.52,557.472 349.076,723.299c167.767,151.563 351.28,243.481 446.57,273.243c95.286,-29.762 278.8,-121.679 446.568,-273.243c183.555,-165.827 348.945,-405.338 349.075,-723.299l-0,-748.908l-795.644,-134.003Zm-406.096,649.756l300.763,-312.533l671.435,-0.01l-298.58,311.428l-173.863,0.002l-249.828,261.413l-249.925,0.003l-0.002,-260.303Zm812.196,388.952l-300.766,312.533l-671.436,0.01l298.581,-311.428l173.863,-0.002l249.827,-261.413l249.925,-0.004l0.006,260.304Z"/></svg>