<?xml version="1.0" encoding="UTF-8" standalone="no"?><!DOCTYPE svg PUBLIC "-//W3C//DTD SVG 1.1//EN" "http://www.w3.org/Graphics/SVG/1.1/DTD/svg11.dtd"><svg width="100%" height="100%" viewBox="0 0 2134 2134" version="1.1" xmlns="http://www.w3.org/2000/svg" xmlns:xlink="http://www.w3.org/1999/xlink" xml:space="preserve" xmlns:serif="http://www.serif.com/" style="fill-rule:evenodd;clip-rule:evenodd;stroke-linejoin:round;stroke-miterlimit:2;"><path d="M1012.34,2094.23l-255.548,-263.206l-377.974,0l-81.105,-76.512l0.006,-370.317l-258.613,-263.206l-0.001,-108.644l258.61,-263.207l0.002,-371.848l81.102,-76.513l377.973,-0.001l255.552,-261.669l108.649,-0.002l263.199,261.672l371.854,-0.003l76.511,74.984l-0.003,373.381l261.678,263.205l-0.005,108.646l-266.262,263.202l-0.001,370.315l-76.514,76.52l-367.259,-0.002l-263.202,263.203l-108.649,0.002Zm426.323,-850.062l-0.003,-238.445l-228.938,0.004l-228.848,239.461l-159.263,0.003l-273.508,285.274l615.053,-0.006l275.507,-286.291Zm-743.991,-356.288l0.003,238.445l228.938,-0.005l228.848,-239.461l159.263,-0.002l273.508,-285.274l-615.053,0.006l-275.507,286.291Z"/></svg>