<?xml version="1.0" encoding="UTF-8" standalone="no"?><!DOCTYPE svg PUBLIC "-//W3C//DTD SVG 1.1//EN" "http://www.w3.org/Graphics/SVG/1.1/DTD/svg11.dtd"><svg width="100%" height="100%" viewBox="0 0 2134 2134" version="1.1" xmlns="http://www.w3.org/2000/svg" xmlns:xlink="http://www.w3.org/1999/xlink" xml:space="preserve" xmlns:serif="http://www.serif.com/" style="fill-rule:evenodd;clip-rule:evenodd;stroke-linejoin:round;stroke-miterlimit:2;"><path d="M1116.48,1066.67l-654.979,649.06l555.351,0l654.979,-649.06l-654.979,-649.061l-555.351,0l654.979,649.061Z"/><path d="M2091.67,369.667l-0,1394c-0,181.028 -146.972,328 -328,328l-1394,-0c-181.028,-0 -328,-146.972 -328,-328l-0,-1394c-0,-181.028 146.972,-328 328,-328l1394,-0c181.028,-0 328,146.972 328,328Zm-153.614,52.173c0,-125.042 -101.518,-226.56 -226.56,-226.56l-1289.65,-0c-125.042,-0 -226.56,101.518 -226.56,226.56l-0,1289.65c-0,125.042 101.518,226.56 226.56,226.56l1289.65,0c125.042,0 226.56,-101.518 226.56,-226.56l0,-1289.65Z"/></svg>