<?xml version="1.0" encoding="UTF-8" standalone="no"?><!DOCTYPE svg PUBLIC "-//W3C//DTD SVG 1.1//EN" "http://www.w3.org/Graphics/SVG/1.1/DTD/svg11.dtd"><svg width="100%" height="100%" viewBox="0 0 2134 2134" version="1.1" xmlns="http://www.w3.org/2000/svg" xmlns:xlink="http://www.w3.org/1999/xlink" xml:space="preserve" xmlns:serif="http://www.serif.com/" style="fill-rule:evenodd;clip-rule:evenodd;stroke-linejoin:round;stroke-miterlimit:2;"><path d="M678.613,1991.55c-122.099,-52.784 -228.912,-124.652 -320.439,-215.604c-91.542,-90.952 -163.689,-197.558 -216.442,-319.816c-52.752,-122.259 -79.128,-251.842 -79.128,-388.748c0,-136.907 26.352,-266.274 79.057,-388.102c52.704,-121.828 124.803,-228.25 216.298,-319.266c91.478,-91.016 198.499,-163.338 321.061,-216.968c122.561,-53.63 252.471,-80.445 389.729,-80.445c137.258,0 267.072,26.711 389.442,80.134c122.387,53.406 228.721,125.641 319.002,216.705c90.266,91.048 161.759,197.645 214.48,319.792c52.704,122.131 79.056,251.746 79.056,388.844c0,137.082 -26.168,266.625 -78.506,388.628c-52.337,122.004 -123.942,228.585 -214.814,319.744c-90.872,91.144 -197.653,162.972 -320.343,215.485c-122.689,52.529 -252.575,78.793 -389.657,78.793c-137.099,0 -266.697,-26.392 -388.796,-79.176Zm288.724,-141.023l0,-191.478c-55.847,-0 -101.674,-19.643 -137.481,-58.928c-35.79,-39.285 -53.685,-86.628 -53.685,-142.029l-0,-102.105l-471.826,-472.424c-7.978,29.472 -13.563,59.35 -16.754,89.635c-3.192,30.27 -4.787,60.571 -4.787,90.905c-0,196.648 64.624,372.089 193.871,526.325c129.248,154.251 292.802,240.951 490.662,260.099Zm679.364,-248.922c69.507,-73.831 120.855,-157.339 154.044,-250.525c33.19,-93.186 49.785,-188.861 49.785,-287.025c-0,-162.134 -44.352,-309.78 -133.054,-442.937c-88.702,-133.141 -207.107,-229.957 -355.215,-290.448l-0,39.086c-0,54.938 -18.278,101.651 -54.835,140.138c-36.556,38.487 -83.029,57.73 -139.42,57.73l-200.669,0l0,202.728c0,29.2 -9.972,51.379 -29.918,66.538c-19.946,15.159 -45.316,22.738 -76.112,22.738l-188.367,0l0,203.445l597.459,0c24.813,0 46.322,10.141 64.528,30.422c18.223,20.28 27.334,43.058 27.334,68.333l-0,296.169l95.236,-0c43.418,-0 83.046,13.204 118.884,39.612c35.838,26.424 59.278,61.089 70.32,103.996Z" style="fill-rule:nonzero;"/></svg>