<?xml version="1.0" encoding="UTF-8" standalone="no"?>
<!DOCTYPE svg PUBLIC "-//W3C//DTD SVG 1.1//EN" "http://www.w3.org/Graphics/SVG/1.1/DTD/svg11.dtd">
<svg width="100%" height="100%" viewBox="0 0 1828 1637" version="1.1" xmlns="http://www.w3.org/2000/svg" xmlns:xlink="http://www.w3.org/1999/xlink" xml:space="preserve" xmlns:serif="http://www.serif.com/" style="fill-rule:evenodd;clip-rule:evenodd;stroke-linejoin:round;stroke-miterlimit:2;">
    <path d="M258.291,504.525L743.799,0.016L1827.67,0L1345.68,502.725L1065.03,502.728L661.737,924.716L258.294,924.722L258.291,504.525ZM358.291,544.825L358.293,824.721L618.982,824.717L992.731,433.637C1011.6,413.896 1037.72,402.728 1065.02,402.728L1303.02,402.725L1593.26,100.003L786.35,100.015L358.291,544.825ZM1500.04,1204.45C1496.07,1200.63 1492.41,1196.48 1489.12,1192.05C1492.42,1196.5 1496.08,1200.64 1500.04,1204.45L1083.87,1636.9L-0.003,1636.92L481.984,1134.19L762.644,1134.19L1165.93,712.203L1569.37,712.197L1569.38,1132.39L1569.38,1132.39L1500.04,1204.45ZM1469.77,1141.28C1469.51,1138.36 1469.38,1135.39 1469.38,1132.4L1469.38,1131.47C1469.35,1134.74 1469.48,1138.01 1469.77,1141.28ZM1469.38,1092.09L1469.37,812.198L1208.68,812.202L834.939,1203.28C816.072,1223.02 789.952,1234.19 762.645,1234.19L524.645,1234.19L234.41,1536.92L1041.32,1536.9L1469.38,1092.09Z"/>
</svg>
