<svg xmlns="http://www.w3.org/2000/svg" height="48px" viewBox="0 -960 960 960" width="48px" fill="#000000"><path d="m482-39-4-130-44-1q-145.51-12-245.75-121.46Q88-400.92 88-548q0-155.41 111.33-265.7Q310.66-924 467.51-924q76.92 0 143.88 29.01 66.96 29 115.9 79.06 48.94 50.05 77.32 118.99Q833-628 833-548.25q0 77.51-27 150.88Q779-324 733-259T622.93-137.26Q558.85-80.51 482-39Zm83-160q81.67-68.19 127.83-162.46Q739-455.73 739-547.58q0-125.85-77.18-204.14-77.18-78.28-195-78.28Q347-830 264-747.32t-83 201.5Q181-427 263.5-344t201.54 83H565v62Zm-63.97-123.12Q515-336.24 515-354.62q0-18.38-13.91-32.88-13.92-14.5-33-14.5-19.09 0-33.59 14.33-14.5 14.33-14.5 33T434.45-322q14.45 14 33.53 14 19.09 0 33.05-14.12ZM431-450h68.17q0-24.89 8.91-43.44Q517-512 541-535q27-28 39-50.46t12-51.65q0-50.51-30.5-81.7Q531-750 473-750q-45.58 0-82.12 26.04Q354.33-697.92 337-653l62.57 25q11.43-27 29.94-40T468-681q25 0 40 11.05t15 32.9q0 16.82-11 34.94Q501-584 476-557q-29 28-37 48.47T431-450Zm29-65Z"/></svg>