<?xml version="1.0" encoding="UTF-8" standalone="no"?><!DOCTYPE svg PUBLIC "-//W3C//DTD SVG 1.1//EN" "http://www.w3.org/Graphics/SVG/1.1/DTD/svg11.dtd"><svg width="100%" height="100%" viewBox="0 0 8892 8892" version="1.1" xmlns="http://www.w3.org/2000/svg" xmlns:xlink="http://www.w3.org/1999/xlink" xml:space="preserve" xmlns:serif="http://www.serif.com/" style="fill-rule:evenodd;clip-rule:evenodd;stroke-linejoin:round;stroke-miterlimit:2;"><path d="M6097.21,6962.97c0,-111.113 41.667,-208.334 125,-291.667c83.334,-83.333 180.559,-125 291.667,-125l1351.85,-0c111.109,-0 208.334,41.667 291.667,125c83.333,83.333 125,180.554 125,291.667l-0,768.516c-0,111.113 -41.667,208.334 -125,291.667c-83.333,83.333 -180.558,125 -291.667,125l-1351.85,-0c-111.108,-0 -208.333,-41.667 -291.667,-125c-83.333,-83.333 -125,-180.554 -125,-291.667l0,-768.516Zm-2750,-0c0,-111.113 41.667,-208.334 125,-291.667c83.334,-83.333 180.559,-125 291.667,-125l1361.11,-0c111.112,-0 208.333,41.667 291.666,125c83.334,83.333 125,180.554 125,291.667l0,768.516c0,111.113 -41.666,208.334 -125,291.667c-83.333,83.333 -180.554,125 -291.666,125l-1361.11,-0c-111.108,-0 -208.333,-41.667 -291.667,-125c-83.333,-83.333 -125,-180.554 -125,-291.667l0,-768.516Zm-2740.74,-5666.67c-0,-148.15 55.554,-277.779 166.667,-388.892c111.108,-111.108 240.737,-166.666 388.887,-166.666l6564.83,-0c148.15,-0 277.78,55.558 388.892,166.666c111.108,111.113 166.667,240.742 166.667,388.892l-0,4138.89c-0,148.15 -55.559,277.78 -166.667,388.888c-111.112,111.112 -240.742,166.667 -388.892,166.667l-6564.83,-0c-148.15,-0 -277.779,-55.555 -388.887,-166.667c-111.113,-111.108 -166.667,-240.738 -166.667,-388.888l-0,-4138.89Zm-0,5666.67c-0,-111.113 41.667,-208.334 125,-291.667c83.333,-83.333 180.554,-125 291.667,-125l1351.85,-0c111.112,-0 208.333,41.667 291.666,125c83.334,83.333 125,180.554 125,291.667l0,768.516c0,111.113 -41.666,208.334 -125,291.667c-83.333,83.333 -180.554,125 -291.666,125l-1351.85,-0c-111.113,-0 -208.334,-41.667 -291.667,-125c-83.333,-83.333 -125,-180.554 -125,-291.667l-0,-768.516Z" style="fill-rule:nonzero;"/></svg>