<?xml version="1.0" encoding="UTF-8" standalone="no"?><!DOCTYPE svg PUBLIC "-//W3C//DTD SVG 1.1//EN" "http://www.w3.org/Graphics/SVG/1.1/DTD/svg11.dtd"><svg width="100%" height="100%" viewBox="0 0 100 100" version="1.1" xmlns="http://www.w3.org/2000/svg" xmlns:xlink="http://www.w3.org/1999/xlink" xml:space="preserve" xmlns:serif="http://www.serif.com/" style="fill-rule:evenodd;clip-rule:evenodd;stroke-linejoin:round;stroke-miterlimit:2;"><path d="M50.775,100l-0.029,-0c-14.921,-0.1 -26.392,-5.021 -34.1,-14.621c-6.854,-8.546 -10.396,-20.437 -10.513,-35.337l0,-0.071c0.125,-14.913 3.663,-26.792 10.521,-35.342c7.7,-9.608 19.179,-14.529 34.096,-14.629l0.058,-0c11.442,0.083 21.013,3.021 28.442,8.742c6.987,5.375 11.908,13.041 14.621,22.779l-8.5,2.371c-4.6,-16.5 -16.242,-24.934 -34.6,-25.063c-12.125,0.092 -21.292,3.9 -27.25,11.321c-5.575,6.95 -8.454,16.992 -8.567,29.85c0.113,12.858 2.992,22.9 8.571,29.85c5.958,7.429 15.129,11.242 27.25,11.321c10.929,-0.084 18.158,-2.629 24.167,-8.521c6.862,-6.721 6.741,-14.971 4.541,-19.992c-1.291,-2.958 -3.637,-5.416 -6.808,-7.291c-0.8,5.633 -2.592,10.191 -5.35,13.633c-3.692,4.592 -8.917,7.1 -15.542,7.458c-5.008,0.271 -9.837,-0.908 -13.579,-3.337c-4.429,-2.871 -7.021,-7.25 -7.3,-12.35c-0.271,-4.959 1.7,-9.521 5.542,-12.842c3.667,-3.167 8.829,-5.029 14.929,-5.379c4.203,-0.262 8.423,-0.064 12.583,0.592c-0.525,-3.092 -1.562,-5.55 -3.125,-7.321c-2.137,-2.442 -5.45,-3.679 -9.829,-3.709l-0.121,0c-3.516,0 -8.3,0.967 -11.337,5.5l-7.321,-4.916c4.083,-6.059 10.7,-9.4 18.658,-9.4l0.184,-0c13.308,0.083 21.237,8.229 22.029,22.45c0.45,0.191 0.9,0.391 1.337,0.591c6.209,2.917 10.75,7.338 13.142,12.792c3.321,7.583 3.629,19.958 -6.45,29.825c-7.708,7.542 -17.058,10.95 -30.321,11.042l-0.029,0.004Zm4.179,-48.708c-1.008,-0 -2.029,0.029 -3.079,0.087c-7.65,0.429 -12.417,3.942 -12.15,8.929c0.279,5.234 6.05,7.663 11.6,7.363c5.1,-0.271 11.742,-2.263 12.858,-15.459c-3.035,-0.633 -6.129,-0.941 -9.229,-0.92Z" style="fill-rule:nonzero;"/></svg>