<?xml version="1.0" encoding="UTF-8" standalone="no"?><!DOCTYPE svg PUBLIC "-//W3C//DTD SVG 1.1//EN" "http://www.w3.org/Graphics/SVG/1.1/DTD/svg11.dtd"><svg width="100%" height="100%" viewBox="0 0 39063 39063" version="1.1" xmlns="http://www.w3.org/2000/svg" xmlns:xlink="http://www.w3.org/1999/xlink" xml:space="preserve" xmlns:serif="http://www.serif.com/" style="fill-rule:evenodd;clip-rule:evenodd;stroke-linejoin:round;stroke-miterlimit:2;"><g><path d="M29634.8,38055.6c2339.14,-0 4327.42,-822.834 5964.92,-2468.51c1637.24,-1645.66 2455.87,-3643.86 2455.87,-5994.59c0,-2350.92 -818.63,-4345.63 -2455.87,-5984.17c-1637.46,-1638.71 -3625.77,-2458.07 -5964.92,-2458.07l-20207.1,0c-2339.13,0 -4327.42,822.83 -5964.88,2468.49c-1637.26,1645.68 -2455.89,3643.86 -2455.89,5994.59c-0,2350.94 818.63,4345.63 2455.89,5984.17c1637.45,1638.74 3625.75,2458.09 5964.88,2458.09l20207.1,-0l-0.004,-0Zm-5.987,-2957.97l-20191.6,-0c-1507.57,-0 -2796.62,-535.78 -3867.12,-1607.36c-1070.31,-1071.56 -1605.47,-2368.6 -1605.47,-3891.12c0,-1522.73 536.426,-2818.62 1609.26,-3887.64c1072.83,-1068.84 2357.45,-1603.25 3853.86,-1603.25l20191.6,0c1525.68,0 2820.19,535.472 3883.55,1606.41c1063.35,1071.15 1595.04,2367.66 1595.04,3889.53c0,1521.88 -532.934,2817.97 -1598.82,3888.29c-1065.68,1070.09 -2355.76,1605.14 -3870.28,1605.14Zm-2420.51,-3059.34c-655.992,-664.205 -983.992,-1474.73 -983.992,-2431.55c-0,-956.843 329.254,-1768.63 987.776,-2435.35c658.734,-666.734 1469.57,-1000.11 2432.5,-1000.11c963.163,0 1777.68,332.101 2443.57,996.306c666.092,664.217 999.147,1474.72 999.147,2431.57c-0,956.838 -334.321,1768.61 -1002.94,2435.35c-668.421,666.721 -1484.1,1000.09 -2447.03,1000.09c-963.143,0 -1772.83,-332.1 -2429.03,-996.301Z" style="fill-rule:nonzero;"/><path d="M9427.68,17912.3c-2339.13,-0 -4327.42,-822.83 -5964.88,-2468.51c-1637.26,-1645.66 -2455.89,-3643.86 -2455.89,-5994.55c0,-2350.92 818.63,-4345.63 2455.89,-5984.17c1637.45,-1638.72 3625.75,-2458.09 5964.88,-2458.09l20207.1,0c2339.14,0 4327.42,822.847 5964.92,2468.51c1637.24,1645.68 2455.87,3643.86 2455.87,5994.59c0,2350.94 -818.63,4345.63 -2455.87,5984.13c-1637.46,1638.74 -3625.77,2458.09 -5964.92,2458.09l-20207.1,-0Zm6.008,-2957.97l20191.6,-0c1507.55,-0 2796.6,-535.78 3867.12,-1607.36c1070.3,-1071.56 1605.45,-2368.62 1605.45,-3891.12c-0,-1522.73 -536.422,-2818.61 -1609.25,-3887.64c-1072.84,-1068.84 -2357.45,-1603.26 -3853.86,-1603.26l-20191.6,-0c-1525.66,-0 -2820.18,535.467 -3883.55,1606.41c-1063.35,1071.15 -1595.04,2367.68 -1595.04,3889.55c-0,1521.88 532.95,2817.97 1598.84,3888.28c1065.66,1070.09 2355.77,1605.14 3870.28,1605.14l-0,-0.004Zm2420.49,-3059.35c656.005,-664.205 983.992,-1474.73 983.992,-2431.57c0,-956.826 -329.254,-1768.61 -987.78,-2435.33c-658.73,-666.739 -1469.56,-1000.11 -2432.5,-1000.11c-963.143,0 -1777.66,332.101 -2443.56,996.301c-666.092,664.205 -999.151,1474.73 -999.151,2431.57c0,956.826 334.325,1768.62 1002.96,2435.35c668.401,666.717 1484.08,1000.08 2447.01,1000.08c963.159,0 1772.83,-332.1 2429.03,-996.301Z" style="fill-rule:nonzero;"/></g></svg>