<?xml version="1.0" encoding="UTF-8" standalone="no"?><!DOCTYPE svg PUBLIC "-//W3C//DTD SVG 1.1//EN" "http://www.w3.org/Graphics/SVG/1.1/DTD/svg11.dtd"><svg width="100%" height="100%" viewBox="0 0 39063 39063" version="1.1" xmlns="http://www.w3.org/2000/svg" xmlns:xlink="http://www.w3.org/1999/xlink" xml:space="preserve" xmlns:serif="http://www.serif.com/" style="fill-rule:evenodd;clip-rule:evenodd;stroke-linejoin:round;stroke-miterlimit:2;"><g><path d="M9427.7,17912.3c-2339.13,0 -4327.42,-822.833 -5964.88,-2468.51c-1637.26,-1645.66 -2455.89,-3643.85 -2455.89,-5994.58c0,-2350.92 818.63,-4345.62 2455.89,-5984.17c1637.45,-1638.71 3625.75,-2458.09 5964.88,-2458.09l20207.1,-0c2339.13,-0 4327.42,822.845 5964.92,2468.5c1637.24,1645.68 2455.87,3643.85 2455.87,5994.58c-0,2350.94 -818.63,4345.62 -2455.87,5984.17c-1637.47,1638.73 -3625.77,2458.09 -5964.92,2458.09l-20207.1,0Zm3045.64,-5401.25c821.925,-832.225 1232.9,-1847.78 1232.9,-3046.65c-0,-1198.89 -412.555,-2216.03 -1237.66,-3051.41c-825.362,-835.4 -1841.3,-1253.09 -3047.85,-1253.09c-1206.79,-0 -2227.35,416.108 -3061.68,1248.33c-834.604,832.221 -1251.91,1847.78 -1251.91,3046.67c-0,1198.87 418.891,2216 1256.65,3051.4c837.5,835.383 1859.53,1253.08 3066.06,1253.08c1206.79,-0 2221.29,-416.113 3043.49,-1248.33Z"/><path d="M29634.8,38055.6c2339.13,0 4327.42,-822.833 5964.88,-2468.51c1637.26,-1645.66 2455.89,-3643.85 2455.89,-5994.58c-0,-2350.92 -818.63,-4345.62 -2455.89,-5984.17c-1637.45,-1638.71 -3625.75,-2458.09 -5964.88,-2458.09l-20207.1,-0c-2339.13,-0 -4327.42,822.845 -5964.92,2468.5c-1637.24,1645.68 -2455.87,3643.85 -2455.87,5994.58c0,2350.94 818.63,4345.62 2455.87,5984.17c1637.47,1638.73 3625.77,2458.09 5964.92,2458.09l20207.1,0Zm-3045.64,-5401.25c-821.925,-832.225 -1232.9,-1847.78 -1232.9,-3046.65c0,-1198.89 412.555,-2216.03 1237.66,-3051.41c825.362,-835.4 1841.3,-1253.09 3047.85,-1253.09c1206.79,-0 2227.35,416.108 3061.68,1248.33c834.604,832.221 1251.91,1847.78 1251.91,3046.67c0,1198.87 -418.891,2216 -1256.65,3051.4c-837.5,835.383 -1859.53,1253.08 -3066.06,1253.08c-1206.79,-0 -2221.29,-416.113 -3043.49,-1248.33Z"/></g></svg>