<?xml version="1.0" encoding="UTF-8" standalone="no"?><!DOCTYPE svg PUBLIC "-//W3C//DTD SVG 1.1//EN" "http://www.w3.org/Graphics/SVG/1.1/DTD/svg11.dtd"><svg width="100%" height="100%" viewBox="0 0 2134 2134" version="1.1" xmlns="http://www.w3.org/2000/svg" xmlns:xlink="http://www.w3.org/1999/xlink" xml:space="preserve" xmlns:serif="http://www.serif.com/" style="fill-rule:evenodd;clip-rule:evenodd;stroke-linejoin:round;stroke-miterlimit:2;"><path d="M1452.81,22.937l-640.384,0c-28.675,0 -66.908,19.117 -76.466,57.351l-66.909,296.295c-9.554,28.675 -28.671,38.234 -47.787,47.788l-410.992,-0c-38.233,-0 -66.904,19.116 -76.462,57.35l-133.813,583.037l-0,9.559c-0,28.675 19.117,57.345 47.792,57.345l430.104,0c19.117,9.559 28.675,28.675 28.675,47.792c-19.117,57.346 -28.675,124.254 -28.675,181.6c-9.558,181.6 38.233,382.321 181.604,535.246c248.508,267.621 697.733,277.179 965.354,133.812c219.834,-114.695 315.413,-334.529 267.621,-516.129c-28.671,-143.37 -143.367,-238.95 -296.296,-238.95c-152.925,0 -238.946,95.58 -248.504,200.717c-9.558,86.021 19.117,143.371 66.904,172.042c76.463,47.791 133.813,-38.229 105.138,-66.904c-19.117,-19.117 -28.675,-38.234 -28.675,-66.905c-0,-28.675 19.116,-57.35 76.466,-57.35c57.346,0 95.58,28.675 105.138,124.255c9.558,86.02 -47.792,191.158 -152.929,210.274c-133.813,28.676 -267.621,-38.233 -315.413,-162.483c-47.787,-124.254 -38.229,-296.296 76.463,-410.992c86.025,-95.579 200.716,-124.254 305.854,-124.254l334.529,19.117c28.675,0 47.792,-9.558 57.35,-38.233l143.367,-602.154c8.825,-38.234 -19.117,-57.346 -47.788,-57.346l-621.266,-0c-9.559,-0 -19.117,-19.117 -19.117,-28.675l66.904,-305.855l0,-9.558c0,-28.675 -19.117,-47.792 -47.787,-47.792Z"/></svg>