<?xml version="1.0" encoding="UTF-8" standalone="no"?>
<!DOCTYPE svg PUBLIC "-//W3C//DTD SVG 1.1//EN" "http://www.w3.org/Graphics/SVG/1.1/DTD/svg11.dtd">
<svg width="100%" height="100%" viewBox="0 0 48 48" version="1.1" xmlns="http://www.w3.org/2000/svg" xmlns:xlink="http://www.w3.org/1999/xlink" xml:space="preserve" xmlns:serif="http://www.serif.com/" style="fill-rule:evenodd;clip-rule:evenodd;stroke-linejoin:round;stroke-miterlimit:2;">
    <g transform="matrix(-0.01646,0.01646,-0.01646,-0.01646,37.0236,21.2221)">
        <path d="M478.538,-705.654C417.184,-705.542 364.21,-683.094 319.558,-638.442C274.81,-593.695 252.345,-540.906 252.345,-480C252.345,-459.949 254.363,-440.993 258.436,-423.135C262.453,-405.522 267.822,-389.905 274.62,-376.31L279.889,-365.773L193.782,-279.666L182.609,-295.626C162.785,-323.947 148.84,-353.524 140.697,-384.322C132.681,-414.647 128.655,-446.538 128.655,-480C128.655,-575.126 163.046,-657.161 231.942,-726.058C300.862,-794.978 382.241,-829.345 476,-829.345L479.936,-829.346L426.967,-883.083L495,-951.116L678.116,-768L495.126,-585.01L425.756,-652.872L478.538,-705.654ZM280.956,-188.928L464.182,-374.445L531.947,-303.668L478.866,-251.345L482.167,-251.345C543.009,-250.724 595.741,-272.857 640.442,-317.558C685.222,-362.338 707.655,-415.806 707.655,-478C707.655,-497.404 705.632,-516.026 701.564,-533.865C697.562,-551.413 691.897,-567.278 684.508,-581.439L678.914,-592.162L767.026,-678.918L777.843,-661.692C796.739,-631.599 810.346,-601.487 818.744,-571.394C827.139,-541.311 831.345,-510.181 831.345,-478C831.345,-382.234 796.97,-299.553 728.116,-230.001C659.16,-160.344 578.078,-125.979 484.977,-126.655L478.462,-126.654L532.247,-72.869L463.871,-6.013L280.956,-188.928Z" style="fill-rule:nonzero;"/>
    </g>
    <g>
        <g transform="matrix(1,0,0,1,0,2.09527)">
            <path d="M26.207,42.844L23.999,44.189L5.95,33.21L5.95,12.485L23.999,23.464L42.05,12.465L42.05,22.49C40.491,21.855 38.786,21.505 37,21.505C29.604,21.505 23.6,27.509 23.6,34.905C23.6,37.875 24.569,40.621 26.207,42.844Z"/>
        </g>
        <g transform="matrix(0.707107,0.707107,-0.707107,0.707107,39.148,-20.5241)">
            <path d="M24.032,22.004L19.69,40.975L0.568,45.426L5.015,26.437L24.032,22.004Z"/>
        </g>
    </g>
</svg>
