<?xml version="1.0" encoding="UTF-8" standalone="no"?>
<!DOCTYPE svg PUBLIC "-//W3C//DTD SVG 1.1//EN" "http://www.w3.org/Graphics/SVG/1.1/DTD/svg11.dtd">
<svg width="100%" height="100%" viewBox="0 0 48 48" version="1.1" xmlns="http://www.w3.org/2000/svg" xmlns:xlink="http://www.w3.org/1999/xlink" xml:space="preserve" xmlns:serif="http://www.serif.com/" style="fill-rule:evenodd;clip-rule:evenodd;stroke-linejoin:round;stroke-miterlimit:2;">
    <g transform="matrix(1.07324,0,0,1.07324,8.79191,-3.51537)">
        <path d="M26.283,27.501C31.94,27.501 36.533,32.094 36.533,37.751C36.533,43.407 31.94,48 26.283,48C20.626,48 16.034,43.407 16.034,37.751C16.034,32.094 20.626,27.501 26.283,27.501ZM19.914,37.537L26.186,43.916L32.635,37.52L30.463,35.498L28.318,37.644C28.212,37.75 28.051,37.782 27.912,37.724C27.773,37.667 27.682,37.531 27.682,37.38L27.682,31.43L24.793,31.43L24.793,37.423C24.793,37.573 24.704,37.708 24.566,37.766C24.428,37.824 24.268,37.794 24.161,37.69L21.892,35.483L19.914,37.537Z"/>
    </g>
    <g transform="matrix(1,0,0,1,0,2.09527)">
        <path d="M26.207,42.844L23.999,44.189L5.95,33.21L5.95,12.485L23.999,23.464L42.05,12.465L42.05,22.49C41.099,22.103 40.095,21.821 39.05,21.661L39.05,17.806L25.561,26.026C24.603,26.61 23.399,26.61 22.44,26.027L8.95,17.821L8.95,31.523L23.998,40.677L24.708,40.244C25.111,41.17 25.615,42.041 26.207,42.844Z"/>
    </g>
    <g transform="matrix(0.707107,0.707107,-0.707107,0.707107,39.148,-20.5241)">
        <path d="M24.032,22.004L19.69,40.975L0.568,45.426L5.015,26.437L24.032,22.004ZM20.036,26.016L7.511,28.935L4.59,41.41L17.184,38.478L20.036,26.016Z"/>
    </g>
</svg>
