<svg xmlns="http://www.w3.org/2000/svg" height="48px" viewBox="0 -960 960 960" width="48px" fill="#000000"><path d="m410.28-271.63 240.05-240.04-47.53-48.05-190.28 190.29-102-100.77-48.8 49.29 148.56 149.28Zm-160.32 128.3q-94.04 0-160.74-65.89t-66.7-161.27q0-80.75 51-144.09 51-63.33 130.48-77.85 23.52-99.24 101.23-161.36 77.71-62.12 176.84-62.12 114.17 0 194.91 81.74t86.98 198.5v24q74.24 4.19 123.88 55.6 49.64 51.41 49.64 128.31 0 76.12-54.16 130.28-54.15 54.15-130.28 54.15H249.96Zm.42-77.3h502.19q43.68 0 75.64-31.78 31.96-31.79 31.96-75.76 0-43.97-31.89-76.01-31.88-32.03-75.46-32.03h-65.93v-86.27q0-90.89-60.43-153.39-60.43-62.5-148.23-62.5-88.27 0-149.2 63.5-60.92 63.5-60.92 155.28h-20.9q-61.9 0-104.64 42.49T99.83-370.28q0 62.61 43.79 106.13 43.79 43.52 106.76 43.52ZM480-480Z"/></svg>