<?xml version="1.0" encoding="UTF-8" standalone="no"?>
<!DOCTYPE svg PUBLIC "-//W3C//DTD SVG 1.1//EN" "http://www.w3.org/Graphics/SVG/1.1/DTD/svg11.dtd">
<svg width="100%" height="100%" viewBox="0 0 48 48" version="1.1" xmlns="http://www.w3.org/2000/svg" xmlns:xlink="http://www.w3.org/1999/xlink" xml:space="preserve" xmlns:serif="http://www.serif.com/" style="fill-rule:evenodd;clip-rule:evenodd;stroke-linejoin:round;stroke-miterlimit:2;">
    <g transform="matrix(2,0,0,2,0,0)">
        <path d="M11.462,20L4.353,20C2.499,20 1,18.505 1,16.667L1,7.333C1,5.495 2.499,4 4.353,4L13.765,4C15.619,4 17.118,5.495 17.118,7.333L17.118,9.93L21.378,6.55C21.679,6.311 22.09,6.266 22.435,6.433C22.78,6.6 23,6.95 23,7.333L23,14.562C21.917,12.575 19.809,11.225 17.388,11.225C13.862,11.225 11,14.087 11,17.613C11,18.456 11.164,19.262 11.462,20Z"/>
    </g>
    <g transform="matrix(0.05,0,0,0.05,-0.9,47.225)">
        <path d="M674,-35L669,-85C655.18,-88.333 642.56,-93.333 631.14,-100C619.713,-106.667 609.333,-114.667 600,-124L557,-104L515,-171L554,-202C548.667,-214.22 546,-226.777 546,-239.67C546,-252.557 548.667,-265.333 554,-278L515,-309L557,-377L600,-357C610,-365.667 620.5,-373 631.5,-379C642.5,-385 655,-390 669,-394L673.91,-445L750.26,-445L757,-394C769.667,-390 781.667,-385 793,-379C804.333,-373 815,-365.667 825,-357L868,-377L912,-309L871,-278C875,-265.72 877,-253.11 877,-240.17C877,-227.223 875,-214.5 871,-202L912,-171L868,-104L825,-124C815,-114.667 804.287,-106.667 792.86,-100C781.44,-93.333 769.487,-88.333 757,-85L750.35,-35L674,-35ZM780.38,-171.92C799.46,-190.533 809,-213.367 809,-240.42C809,-267.473 799.43,-290.333 780.29,-309C761.15,-327.667 738.12,-337 711.2,-337C684.287,-337 661.527,-327.597 642.92,-308.79C624.307,-289.983 615,-267.15 615,-240.29C615,-213.43 624.237,-190.667 642.71,-172C661.183,-153.333 683.977,-144 711.09,-144C738.197,-144 761.293,-153.307 780.38,-171.92Z" style="fill-rule:nonzero;"/>
    </g>
</svg>
