<?xml version="1.0" encoding="UTF-8" standalone="no"?>
<!DOCTYPE svg PUBLIC "-//W3C//DTD SVG 1.1//EN" "http://www.w3.org/Graphics/SVG/1.1/DTD/svg11.dtd">
<svg width="100%" height="100%" viewBox="0 0 800 800" version="1.1" xmlns="http://www.w3.org/2000/svg" xmlns:xlink="http://www.w3.org/1999/xlink" xml:space="preserve" xmlns:serif="http://www.serif.com/" style="fill-rule:evenodd;clip-rule:evenodd;stroke-linejoin:round;stroke-miterlimit:2;">
    <g transform="matrix(33.3333,0,0,33.3333,0,0)">
        <path d="M17.118,9.93L21.378,6.55C21.679,6.311 22.09,6.266 22.435,6.433C22.78,6.6 23,6.95 23,7.333L23,16.667C23,17.05 22.78,17.4 22.435,17.567C22.09,17.734 21.679,17.689 21.378,17.45L17.118,14.07L17.118,16.667C17.118,18.505 15.619,20 13.765,20L4.353,20C2.499,20 1,18.505 1,16.667L1,7.333C1,5.495 2.499,4 4.353,4L13.765,4C15.619,4 17.118,5.495 17.118,7.333L17.118,9.93Z"/>
    </g>
</svg>
