<?xml version="1.0" encoding="UTF-8" standalone="no"?>
<!DOCTYPE svg PUBLIC "-//W3C//DTD SVG 1.1//EN" "http://www.w3.org/Graphics/SVG/1.1/DTD/svg11.dtd">
<svg width="100%" height="100%" viewBox="0 0 48 48" version="1.1" xmlns="http://www.w3.org/2000/svg" xmlns:xlink="http://www.w3.org/1999/xlink" xml:space="preserve" xmlns:serif="http://www.serif.com/" style="fill-rule:evenodd;clip-rule:evenodd;stroke-linejoin:round;stroke-miterlimit:2;">
    <g transform="matrix(2,0,0,2,0,0)">
        <path d="M12.188,20L4.353,20C2.499,20 1,18.505 1,16.667L1,7.333C1,5.495 2.499,4 4.353,4L13.765,4C15.619,4 17.118,5.495 17.118,7.333L17.118,9.93L21.378,6.55C21.679,6.311 22.09,6.266 22.435,6.433C22.78,6.6 23,6.95 23,7.333L23,16.065C22.737,15.155 22.242,14.341 21.516,13.623C20.377,12.497 19.025,11.938 17.463,11.938C15.898,11.938 14.549,12.5 13.418,13.63C12.289,14.76 11.725,16.117 11.725,17.703C11.725,18.532 11.879,19.298 12.188,20Z"/>
    </g>
    <g transform="matrix(0.05,0,0,0.05,-0.65,47.825)">
        <path d="M712.5,-106C719.5,-106 725.5,-108.5 730.5,-113.5C735.5,-118.5 738,-124.5 738,-131.5C738,-138.5 735.583,-144.833 730.75,-150.5C725.917,-156.167 719.667,-159 712,-159C704.333,-159 697.917,-156.167 692.75,-150.5C687.583,-144.833 685,-138.5 685,-131.5C685,-124.5 687.633,-118.5 692.9,-113.5C698.167,-108.5 704.7,-106 712.5,-106ZM685,-199L738,-199L738,-391L685,-391L685,-199ZM578,-114.4C540.667,-151.333 522,-196 522,-248.4C522,-300.8 540.667,-345.667 578,-383C615.333,-420.333 659.833,-439 711.5,-439C763.167,-439 807.833,-420.377 845.5,-383.13C883.167,-345.89 902,-300.847 902,-248C902,-195.713 883.167,-151.14 845.5,-114.28C807.833,-77.427 763.167,-59 711.5,-59C659.833,-59 615.333,-77.467 578,-114.4Z" style="fill-rule:nonzero;"/>
    </g>
</svg>
