<?xml version="1.0" encoding="UTF-8" standalone="no"?><!DOCTYPE svg PUBLIC "-//W3C//DTD SVG 1.1//EN" "http://www.w3.org/Graphics/SVG/1.1/DTD/svg11.dtd"><svg width="100%" height="100%" viewBox="0 0 100 100" version="1.1" xmlns="http://www.w3.org/2000/svg" xmlns:xlink="http://www.w3.org/1999/xlink" xml:space="preserve" xmlns:serif="http://www.serif.com/" style="fill-rule:evenodd;clip-rule:evenodd;stroke-linejoin:round;stroke-miterlimit:2;"><path d="M99.902,26.737l0.054,-0.042c0.563,-13.054 -4.25,-19.737 -14.554,-19.987c-13.866,-0.5 -23.232,7.37 -28.174,23.487c2.542,-1.125 5.012,-1.63 7.404,-1.63c5.079,0 7.325,2.875 6.725,8.588c-0.3,3.462 -2.533,8.496 -6.717,15.117c-4.204,6.62 -7.345,9.937 -9.437,9.937c-2.688,0 -5.154,-5.1 -7.4,-15.308c-0.758,-2.992 -2.108,-10.642 -4.046,-22.946c-1.795,-11.408 -6.583,-16.741 -14.362,-15.991c-3.287,0.308 -8.229,3.295 -14.808,8.995c-4.83,4.381 -9.693,8.725 -14.587,13.033l4.704,6.071c4.479,-3.141 7.091,-4.716 7.837,-4.716c3.433,-0 6.637,5.391 9.633,16.158l7.991,29.641c4.063,10.779 8.934,16.171 14.805,16.171c9.433,-0 20.924,-8.846 34.54,-26.542c13.146,-16.941 19.955,-30.295 20.392,-40.036Z" style="fill:url(#_Linear1);"/><defs><linearGradient id="_Linear1" x1="0" y1="0" x2="1" y2="0.119848" gradientUnits="userSpaceOnUse" gradientTransform="matrix(-85.5054,126.317,-116.184,-101.164,111.092,-42.5627)"><stop offset="0" style="stop-color:#2ddcec;stop-opacity:1"/><stop offset="1" style="stop-color:#1ab7ea;stop-opacity:1"/></linearGradient></defs></svg>