<?xml version="1.0" encoding="UTF-8" standalone="no"?>
<!DOCTYPE svg PUBLIC "-//W3C//DTD SVG 1.1//EN" "http://www.w3.org/Graphics/SVG/1.1/DTD/svg11.dtd">
<svg width="100%" height="100%" viewBox="0 0 800 800" version="1.1" xmlns="http://www.w3.org/2000/svg" xmlns:xlink="http://www.w3.org/1999/xlink" xml:space="preserve" xmlns:serif="http://www.serif.com/" style="fill-rule:evenodd;clip-rule:evenodd;stroke-linejoin:round;stroke-miterlimit:2;">
    <g transform="matrix(6.25,0,0,6.25,0,0)">
        <g transform="matrix(1,0,0,1,-0.590222,-0.6251)">
            <circle cx="39.2" cy="17.9" r="12.6"/>
        </g>
        <g transform="matrix(1,0,0,1,-0.590222,-0.6251)">
            <path d="M78.6,70.2L57.4,70.2L51.7,41.8C48.3,27 27.5,31.4 29.7,45.9L36.3,78.9C37.3,83.9 41.3,88.2 47.6,88.2L74.7,88.2L74.7,118.2C74.7,127.7 88,127.7 88,118.4L88,79.7C88,75.1 84.8,70.2 78.6,70.2Z" style="fill-rule:nonzero;"/>
        </g>
        <g transform="matrix(1,0,0,1,-0.590222,-0.6251)">
            <path d="M64.7,90.6L46.9,90.6C40.5,90.6 35.1,86.8 33.5,79.6L27.7,51.4C26.3,44.5 16.6,46.8 17.9,53.5L24,82.9C26.5,93.9 35.9,101 45.4,101L64.9,101C71.7,101 71.7,90.6 64.7,90.6Z" style="fill-rule:nonzero;"/>
        </g>
        <g transform="matrix(1,0,0,1,-0.590222,-0.6251)">
            <path d="M91.1,3.9C102.3,3.9 111.4,13.1 111.4,24.2C111.4,35.4 102.3,44.5 91.1,44.5C79.9,44.5 70.8,35.4 70.8,24.2C70.8,13 79.9,3.9 91.1,3.9ZM99.5,20L91.5,23.6L91.5,14.2C91.5,12.7 89.3,12.8 89.3,14.2L89.3,25.5C89.3,26.3 90.2,27 91,26.5L100.4,22C101.7,21.3 100.9,19.3 99.5,20Z"/>
        </g>
    </g>
</svg>
