<?xml version="1.0" encoding="UTF-8" standalone="no"?>
<!DOCTYPE svg PUBLIC "-//W3C//DTD SVG 1.1//EN" "http://www.w3.org/Graphics/SVG/1.1/DTD/svg11.dtd">
<svg width="100%" height="100%" viewBox="0 0 800 800" version="1.1" xmlns="http://www.w3.org/2000/svg" xmlns:xlink="http://www.w3.org/1999/xlink" xml:space="preserve" xmlns:serif="http://www.serif.com/" style="fill-rule:evenodd;clip-rule:evenodd;stroke-linejoin:round;stroke-miterlimit:2;">
    <g transform="matrix(6.25,0,0,6.25,0,0)">
        <g transform="matrix(1,0,0,1,-0.590222,-0.6251)">
            <path d="M39.2,5.3C46.154,5.3 51.8,10.946 51.8,17.9C51.8,24.854 46.154,30.5 39.2,30.5C32.246,30.5 26.6,24.854 26.6,17.9C26.6,10.946 32.246,5.3 39.2,5.3ZM39.2,11.06C35.425,11.06 32.36,14.125 32.36,17.9C32.36,21.675 35.425,24.74 39.2,24.74C42.975,24.74 46.04,21.675 46.04,17.9C46.04,14.125 42.975,11.06 39.2,11.06Z"/>
        </g>
        <g transform="matrix(1,0,0,1,-0.590222,-0.6251)">
            <path d="M78.6,70.2C84.8,70.2 88,75.1 88,79.7L88,118.4C88,127.7 74.7,127.7 74.7,118.2L74.7,88.2L47.6,88.2C41.3,88.2 37.3,83.9 36.3,78.9L29.7,45.9C27.5,31.4 48.3,27 51.7,41.8L57.4,70.2L78.6,70.2ZM78.6,75.96L57.4,75.96C54.656,75.96 52.293,74.024 51.753,71.333L46.069,43.018C45.549,40.827 44.407,39.374 42.886,38.763C39.383,37.356 34.707,39.979 35.378,44.921L41.948,77.77C42.449,80.275 44.444,82.44 47.6,82.44L74.7,82.44C77.881,82.44 80.46,85.019 80.46,88.2L80.46,118.2C80.46,118.87 80.6,119.403 81.05,119.54C81.63,119.715 82.24,119.244 82.24,118.4L82.24,79.7C82.24,77.904 81.021,75.96 78.6,75.96Z"/>
        </g>
        <g transform="matrix(1,0,0,1,-0.590222,-0.6251)">
            <path d="M64.7,90.6L46.9,90.6C40.5,90.6 35.1,86.8 33.5,79.6L27.7,51.4C26.3,44.5 16.6,46.8 17.9,53.5L24,82.9C26.5,93.9 35.9,101 45.4,101L64.9,101C71.7,101 71.7,90.6 64.7,90.6Z" style="fill-rule:nonzero;"/>
        </g>
        <g transform="matrix(1,0,0,1,-0.590222,-0.6251)">
            <path d="M91.1,3.9C79.9,3.9 70.8,13 70.8,24.2C70.8,35.4 79.9,44.5 91.1,44.5C102.3,44.5 111.4,35.4 111.4,24.2C111.4,13.1 102.3,3.9 91.1,3.9ZM91.1,40.7C82,40.7 74.6,33.3 74.6,24.2C74.6,15.1 82,7.7 91.1,7.7C100.2,7.7 107.6,15.1 107.6,24.2C107.5,33.3 100.1,40.7 91.1,40.7Z" style="fill-rule:nonzero;"/>
        </g>
        <g transform="matrix(1,0,0,1,-0.590222,-0.6251)">
            <path d="M99.5,20L91.5,23.6L91.5,14.2C91.5,12.7 89.3,12.8 89.3,14.2L89.3,25.5C89.3,26.3 90.2,27 91,26.5L100.4,22C101.7,21.3 100.9,19.3 99.5,20Z" style="fill-rule:nonzero;"/>
        </g>
    </g>
</svg>
