<svg xmlns="http://www.w3.org/2000/svg" height="48px" viewBox="0 -960 960 960" width="48px" fill="#000000"><path d="M190-99q-36.78 0-63.89-27.11T99-190v-580q0-37.19 27.11-64.59Q153.22-862 190-862h580q37.19 0 64.59 27.41Q862-807.19 862-770v54H542q-55 0-92 36.06-37 36.05-37 89.94v222q0 55 37 90t92 35h320v53q0 37-27.41 64-27.4 27-64.59 27H190Zm352-197q-31.95 0-53.48-21.07Q467-338.15 467-368.21v-221.83q0-29.96 21.52-51.46Q510.05-663 542-663h287q30.95 0 52.47 21.5Q903-620 903-590.04v221.83q0 30.06-21.53 51.14Q859.95-296 829-296H542Zm154-139.5q20-19.5 20-45.5 0-25-20-44t-44.5-19q-24.5 0-44 19T588-481q0 26 19.5 45.5t44 19.5q24.5 0 44.5-19.5Z"/></svg>