<?xml version="1.0" encoding="UTF-8" standalone="no"?><!DOCTYPE svg PUBLIC "-//W3C//DTD SVG 1.1//EN" "http://www.w3.org/Graphics/SVG/1.1/DTD/svg11.dtd"><svg width="100%" height="100%" viewBox="0 0 417 417" version="1.1" xmlns="http://www.w3.org/2000/svg" xmlns:xlink="http://www.w3.org/1999/xlink" xml:space="preserve" xmlns:serif="http://www.serif.com/" style="fill-rule:evenodd;clip-rule:evenodd;stroke-linejoin:round;stroke-miterlimit:2;"><path d="M355.263,60.554c-38.625,-38.875 -91.259,-60.7 -146.063,-60.554c-113.8,0 -206.421,92.621 -206.475,206.458c-0,36.388 9.496,71.909 27.571,103.213l-29.304,106.996l109.458,-28.717c30.271,16.492 64.196,25.137 98.662,25.142l0.088,-0c113.787,-0 206.425,-92.625 206.475,-206.479c0.171,-54.775 -21.6,-107.405 -60.412,-146.059Zm-146.063,317.659l-0.067,-0c-30.733,-0 -60.904,-8.263 -87.345,-23.926l-6.267,-3.716l-64.95,17.05l17.329,-63.334l-4.079,-6.491c-17.179,-27.354 -26.271,-59.021 -26.217,-91.321c0.017,-94.617 77.013,-171.596 171.667,-171.596c45.833,0 88.925,17.883 121.321,50.313c32.271,32.129 50.371,75.883 50.225,121.425c-0.054,94.616 -77.034,171.595 -171.617,171.595Zm94.133,-128.525c-5.158,-2.587 -30.52,-15.054 -35.241,-16.787c-4.742,-1.721 -8.179,-2.571 -11.634,2.604c-3.42,5.154 -13.316,16.771 -16.32,20.208c-3.005,3.455 -6.021,3.871 -11.18,1.3c-5.158,-2.604 -21.787,-8.037 -41.491,-25.608c-15.329,-13.679 -25.696,-30.571 -28.7,-35.746c-3.004,-5.154 -0.313,-7.95 2.258,-10.521c2.325,-2.308 5.171,-6.025 7.742,-9.025c2.587,-3.02 3.437,-5.175 5.175,-8.629c1.716,-3.437 0.866,-6.441 -0.434,-9.029c-1.304,-2.587 -11.616,-27.987 -15.904,-38.317c-4.2,-10.05 -8.454,-8.679 -11.617,-8.854c-3,-0.137 -6.437,-0.171 -9.895,-0.171c-3.438,0 -9.025,1.284 -13.75,6.459c-4.721,5.154 -18.055,17.637 -18.055,43.037c0,25.379 18.492,49.913 21.059,53.367c2.587,3.437 36.392,55.554 88.146,77.9c12.308,5.313 21.908,8.487 29.408,10.85c12.358,3.942 23.608,3.387 32.483,2.05c9.913,-1.475 30.521,-12.483 34.825,-24.533c4.305,-12.046 4.305,-22.38 3.005,-24.53c-1.288,-2.154 -4.725,-3.437 -9.896,-6.025l0.016,0Z" style="fill:url(#_Radial1);"/><defs><radialGradient id="_Radial1" cx="0" cy="0" r="1" gradientUnits="userSpaceOnUse" gradientTransform="matrix(-732.404,728.271,-695.896,-691.971,603,-196.232)"><stop offset="0" style="stop-color:#c8e35e;stop-opacity:1"/><stop offset="1" style="stop-color:#25d366;stop-opacity:1"/></radialGradient></defs></svg>