<?xml version="1.0" encoding="UTF-8" standalone="no"?><!DOCTYPE svg PUBLIC "-//W3C//DTD SVG 1.1//EN" "http://www.w3.org/Graphics/SVG/1.1/DTD/svg11.dtd"><svg width="100%" height="100%" viewBox="0 0 200 200" version="1.1" xmlns="http://www.w3.org/2000/svg" xmlns:xlink="http://www.w3.org/1999/xlink" xml:space="preserve" xmlns:serif="http://www.serif.com/" style="fill-rule:evenodd;clip-rule:evenodd;stroke-linejoin:round;stroke-miterlimit:2;"><path d="M106.5,11.117c43.944,3.178 79.088,38.322 82.266,82.266l-59.473,-0c-2.51,-11.344 -11.449,-20.283 -22.793,-22.793l-0,-59.473Zm82.266,95.266c-2.017,27.891 -16.911,52.237 -38.759,67.115l-29.737,-51.507c4.454,-4.085 7.671,-9.498 9.023,-15.608l59.473,-0Zm-50.009,73.628c-11.719,5.684 -24.869,8.872 -38.757,8.872c-13.888,-0 -27.038,-3.188 -38.757,-8.872l29.739,-51.509c2.847,0.897 5.877,1.381 9.018,1.381c3.141,-0 6.171,-0.484 9.018,-1.381l29.739,51.509Zm-88.764,-6.513c-21.848,-14.878 -36.742,-39.224 -38.759,-67.115l59.473,-0c1.352,6.11 4.569,11.523 9.023,15.608l-29.737,51.507Zm-38.759,-80.115c3.178,-43.944 38.322,-79.088 82.266,-82.266l-0,59.473c-11.344,2.51 -20.283,11.449 -22.793,22.793l-59.473,-0Zm107.766,6.5c0,10.486 -8.514,19 -19,19c-10.486,-0 -19,-8.514 -19,-19c0,-10.486 8.514,-19 19,-19c10.486,-0 19,8.514 19,19Z"/></svg>