<?xml version="1.0" encoding="UTF-8" standalone="no"?><!DOCTYPE svg PUBLIC "-//W3C//DTD SVG 1.1//EN" "http://www.w3.org/Graphics/SVG/1.1/DTD/svg11.dtd"><svg width="100%" height="100%" viewBox="0 0 1600 1600" version="1.1" xmlns="http://www.w3.org/2000/svg" xmlns:xlink="http://www.w3.org/1999/xlink" xml:space="preserve" xmlns:serif="http://www.serif.com/" style="fill-rule:evenodd;clip-rule:evenodd;stroke-linejoin:round;stroke-miterlimit:2;"><path d="M756.25,30.25c-0,-16.695 -13.555,-30.25 -30.25,-30.25l-695.75,-0c-16.695,-0 -30.25,13.555 -30.25,30.25l-0,695.75c-0,16.695 13.555,30.25 30.25,30.25l695.75,0c16.695,0 30.25,-13.555 30.25,-30.25l-0,-695.75Zm843.75,-0c-0,-16.695 -13.555,-30.25 -30.25,-30.25l-695.75,-0c-16.695,-0 -30.25,13.555 -30.25,30.25l-0,695.75c-0,16.695 13.555,30.25 30.25,30.25l695.75,0c16.695,0 30.25,-13.555 30.25,-30.25l-0,-695.75Zm-0,843.75c-0,-16.695 -13.555,-30.25 -30.25,-30.25l-695.75,0c-16.695,0 -30.25,13.555 -30.25,30.25l-0,695.75c-0,16.695 13.555,30.25 30.25,30.25l695.75,0c16.695,0 30.25,-13.555 30.25,-30.25l-0,-695.75Zm-843.75,-0c-0,-16.695 -13.555,-30.25 -30.25,-30.25l-695.75,0c-16.695,0 -30.25,13.555 -30.25,30.25l-0,695.75c-0,16.695 13.555,30.25 30.25,30.25l695.75,0c16.695,0 30.25,-13.555 30.25,-30.25l-0,-695.75Z" style="fill:url(#_Radial1);"/><defs><radialGradient id="_Radial1" cx="0" cy="0" r="1" gradientUnits="userSpaceOnUse" gradientTransform="matrix(-1884.36,1875.84,-1788.01,-1796.13,1742.18,-137.922)"><stop offset="0" style="stop-color:#87cbff;stop-opacity:1"/><stop offset="0.5" style="stop-color:#65b6f4;stop-opacity:1"/><stop offset="1" style="stop-color:#0078d4;stop-opacity:1"/></radialGradient></defs></svg>