<?xml version="1.0" encoding="UTF-8" standalone="no"?><!DOCTYPE svg PUBLIC "-//W3C//DTD SVG 1.1//EN" "http://www.w3.org/Graphics/SVG/1.1/DTD/svg11.dtd"><svg width="100%" height="100%" viewBox="0 0 1600 1600" version="1.1" xmlns="http://www.w3.org/2000/svg" xmlns:xlink="http://www.w3.org/1999/xlink" xml:space="preserve" xmlns:serif="http://www.serif.com/" style="fill-rule:evenodd;clip-rule:evenodd;stroke-linejoin:round;stroke-miterlimit:2;"><path d="M756.25,30.25l0,695.75c0,16.695 -13.555,30.25 -30.25,30.25l-695.75,0c-16.695,0 -30.25,-13.555 -30.25,-30.25l0,-695.75c0,-16.695 13.555,-30.25 30.25,-30.25l695.75,0c16.695,0 30.25,13.555 30.25,30.25Zm843.75,-0l0,695.75c0,16.695 -13.555,30.25 -30.25,30.25l-695.75,0c-16.695,0 -30.25,-13.555 -30.25,-30.25l0,-695.75c0,-16.695 13.555,-30.25 30.25,-30.25l695.75,0c16.695,0 30.25,13.555 30.25,30.25Zm0,843.75l0,695.75c0,16.695 -13.555,30.25 -30.25,30.25l-695.75,0c-16.695,0 -30.25,-13.555 -30.25,-30.25l0,-695.75c0,-16.695 13.555,-30.25 30.25,-30.25l695.75,0c16.695,0 30.25,13.555 30.25,30.25Zm-843.75,-0l0,695.75c0,16.695 -13.555,30.25 -30.25,30.25l-695.75,0c-16.695,0 -30.25,-13.555 -30.25,-30.25l0,-695.75c0,-16.695 13.555,-30.25 30.25,-30.25l695.75,0c16.695,0 30.25,13.555 30.25,30.25Z"/></svg>