<?xml version="1.0" encoding="UTF-8" standalone="no"?>
<!DOCTYPE svg PUBLIC "-//W3C//DTD SVG 1.1//EN" "http://www.w3.org/Graphics/SVG/1.1/DTD/svg11.dtd">
<svg width="100%" height="100%" viewBox="0 0 242 242" version="1.1" xmlns="http://www.w3.org/2000/svg" xmlns:xlink="http://www.w3.org/1999/xlink" xml:space="preserve" xmlns:serif="http://www.serif.com/" style="fill-rule:evenodd;clip-rule:evenodd;stroke-linejoin:round;stroke-miterlimit:2;">
    <g transform="matrix(4.16667,0,0,4.16667,0,0)">
        <g>
            <g transform="matrix(0.940533,0,0,0.940533,1.72454,1.72454)">
                <rect x="10" y="10" width="38" height="38" style="fill:rgb(143,97,39);"/>
                <g transform="matrix(0.00252049,0,0,0.00252049,-4.36192,-1.23427)">
                    <path d="M5698.06,8095.25L5698.06,12610.8L13490.4,4457.17L9187.23,4457.17L5698.06,8095.25Z" style="fill:rgb(112,73,30);"/>
                </g>
                <g transform="matrix(0.00252049,0,0,0.00252049,18.6689,-1.23427)">
                    <path d="M-3439.38,17232.7L-3439.38,19533.6L-917.96,19533.6L11637,6396.43L11637,4457.17L9187.23,4457.17L-3439.38,17232.7Z" style="fill:rgb(112,73,30);"/>
                </g>
                <g transform="matrix(0.00252049,0,0,0.00252049,30.5025,10.5993)">
                    <path d="M-1073.24,14838.6L3568.93,14838.6L6942.09,11309.1L6942.09,6728.79L-1073.24,14838.6Z" style="fill:rgb(112,73,30);"/>
                </g>
            </g>
            <g>
                <g transform="matrix(0.976461,0,0,1,1.36526,0)">
                    <path d="M53.904,0C56.166,0 58,1.791 58,4C58,6.784 58,10 58,10L10,10L10,0L53.904,0Z" style="fill:rgb(173,126,78);"/>
                </g>
                <g transform="matrix(1,0,0,0.976461,0,1.36526)">
                    <path d="M58,10L58,53.904C58,56.166 56.209,58 54,58C51.216,58 48,58 48,58L48,10L58,10Z" style="fill:rgb(202,150,90);"/>
                </g>
                <g transform="matrix(0.976461,0,0,1,0,0)">
                    <path d="M48,48L48,58L4.096,58C1.834,58 -0,56.209 -0,54C0,51.216 0,48 0,48L48,48Z" style="fill:rgb(173,126,78);"/>
                </g>
                <g transform="matrix(1,0,0,0.976461,0,0)">
                    <path d="M10,0L10,48L0,48L0,4.096C0,1.834 1.791,-0 4,-0C6.784,0 10,0 10,0Z" style="fill:rgb(202,150,90);"/>
                </g>
            </g>
            <g>
                <circle cx="54" cy="3" r="1" style="fill:rgb(112,73,30);"/>
                <circle cx="50" cy="3" r="1" style="fill:rgb(112,73,30);"/>
                <circle cx="54" cy="7" r="1" style="fill:rgb(112,73,30);"/>
                <circle cx="50" cy="7" r="1" style="fill:rgb(112,73,30);"/>
                <circle cx="55" cy="54" r="1" style="fill:rgb(112,73,30);"/>
                <circle cx="55" cy="50" r="1" style="fill:rgb(112,73,30);"/>
                <circle cx="51" cy="54" r="1" style="fill:rgb(112,73,30);"/>
                <circle cx="51" cy="50" r="1" style="fill:rgb(112,73,30);"/>
                <circle cx="4" cy="55" r="1" style="fill:rgb(112,73,30);"/>
                <circle cx="8" cy="55" r="1" style="fill:rgb(112,73,30);"/>
                <circle cx="4" cy="51" r="1" style="fill:rgb(112,73,30);"/>
                <circle cx="8" cy="51" r="1" style="fill:rgb(112,73,30);"/>
                <circle cx="3" cy="4" r="1" style="fill:rgb(112,73,30);"/>
                <circle cx="3" cy="8" r="1" style="fill:rgb(112,73,30);"/>
                <g transform="matrix(1,0,0,1,4,0)">
                    <circle cx="3" cy="8" r="1" style="fill:rgb(112,73,30);"/>
                </g>
                <circle cx="7" cy="4" r="1" style="fill:rgb(112,73,30);"/>
            </g>
        </g>
        <g transform="matrix(1,0,0,1,-3.55271e-15,1.24155)">
            <g transform="matrix(-1.5286,1.04465,-1.04293,-1.5261,128.723,15.9694)">
                <path d="M57.474,28.514L55.395,27.091C55.183,26.946 54.892,27 54.747,27.213C54.602,27.426 54.657,27.717 54.869,27.862L56.948,29.285L57.474,28.514ZM39.141,25.348C39.189,25.601 39.432,25.768 39.685,25.72L42.317,25.224C42.57,25.177 42.737,24.932 42.689,24.679C42.642,24.426 42.398,24.259 42.145,24.307L39.513,24.802C39.26,24.85 39.093,25.094 39.141,25.348ZM41.01,18.375L43.089,19.798C43.302,19.944 43.592,19.889 43.737,19.676C43.882,19.464 43.828,19.173 43.615,19.027L41.536,17.604L41.01,18.375ZM54.147,30.979C54.362,30.838 54.423,30.548 54.283,30.333L53.529,29.175C53.389,28.959 53.1,28.898 52.884,29.039C52.669,29.18 52.608,29.469 52.748,29.685L53.502,30.843C53.642,31.059 53.931,31.12 54.147,30.979ZM51.142,33.562C51.395,33.515 51.561,33.271 51.514,33.017L51.019,30.381C50.971,30.128 50.727,29.961 50.475,30.008C50.222,30.056 50.055,30.3 50.103,30.553L50.598,33.19C50.645,33.443 50.889,33.61 51.142,33.562ZM40.453,21.602C40.4,21.854 40.562,22.102 40.814,22.155L42.164,22.438C42.416,22.491 42.663,22.329 42.716,22.077C42.769,21.824 42.607,21.577 42.355,21.524L41.005,21.241C40.753,21.188 40.506,21.35 40.453,21.602ZM54.61,24.881L45.956,18.958C45.462,19.32 45.021,19.771 44.656,20.305C42.926,22.841 43.577,26.306 46.108,28.038C48.639,29.771 52.098,29.119 53.828,26.584C54.193,26.049 54.452,25.473 54.61,24.881ZM43.443,31.945C43.655,32.09 43.946,32.035 44.091,31.823L45.602,29.608C45.747,29.395 45.692,29.104 45.48,28.959C45.268,28.813 44.977,28.868 44.832,29.081L43.321,31.296C43.176,31.508 43.23,31.799 43.443,31.945ZM47.395,32.247C47.647,32.3 47.894,32.138 47.947,31.886L48.231,30.534C48.284,30.281 48.123,30.034 47.871,29.981C47.619,29.928 47.372,30.089 47.319,30.341L47.035,31.694C46.982,31.946 47.144,32.194 47.395,32.247ZM41.725,28.364C41.865,28.579 42.154,28.64 42.37,28.499L43.525,27.744C43.74,27.603 43.801,27.313 43.66,27.097C43.519,26.882 43.23,26.821 43.015,26.962L41.86,27.717C41.644,27.858 41.584,28.148 41.725,28.364Z" style="fill:url(#_Linear1);"/>
            </g>
            <g transform="matrix(1.15197,0,0,1.23273,-4.22176,-8.47293)">
                <path d="M38.931,40.98C38.931,41.37 38.592,41.687 38.174,41.687L19.504,41.687C19.087,41.687 18.748,41.37 18.748,40.98C18.748,40.59 19.087,40.273 19.504,40.273L38.174,40.273C38.592,40.273 38.931,40.59 38.931,40.98ZM42.457,37.632C42.457,38.023 42.118,38.34 41.7,38.34L15.978,38.34C15.56,38.34 15.221,38.023 15.221,37.632C15.221,37.242 15.56,36.925 15.978,36.925L41.7,36.925C42.118,36.925 42.457,37.242 42.457,37.632Z" style="fill:rgb(103,198,57);"/>
            </g>
        </g>
    </g>
    <defs>
        <linearGradient id="_Linear1" x1="0" y1="0" x2="1" y2="0" gradientUnits="userSpaceOnUse" gradientTransform="matrix(24.2341,0,0,23.2,33.7659,25.6471)"><stop offset="0" style="stop-color:rgb(255,217,142);stop-opacity:1"/><stop offset="1" style="stop-color:rgb(255,170,0);stop-opacity:1"/></linearGradient>
    </defs>
</svg>
