<?xml version="1.0" encoding="UTF-8" standalone="no"?>
<!DOCTYPE svg PUBLIC "-//W3C//DTD SVG 1.1//EN" "http://www.w3.org/Graphics/SVG/1.1/DTD/svg11.dtd">
<svg width="100%" height="100%" viewBox="0 0 58 58" version="1.1" xmlns="http://www.w3.org/2000/svg" xmlns:xlink="http://www.w3.org/1999/xlink" xml:space="preserve" xmlns:serif="http://www.serif.com/" style="fill-rule:evenodd;clip-rule:evenodd;stroke-linejoin:round;stroke-miterlimit:2;">
    <g>
        <g transform="matrix(0.940533,0,0,0.940533,1.72454,1.72454)">
            <rect x="10" y="10" width="38" height="38" style="fill:rgb(143,97,39);"/>
            <g transform="matrix(0.00252049,0,0,0.00252049,-4.36192,-1.23427)">
                <path d="M5698.06,8095.25L5698.06,12610.8L13490.4,4457.17L9187.23,4457.17L5698.06,8095.25Z" style="fill:rgb(112,73,30);"/>
            </g>
            <g transform="matrix(0.00252049,0,0,0.00252049,18.6689,-1.23427)">
                <path d="M-3439.38,17232.7L-3439.38,19533.6L-917.96,19533.6L11637,6396.43L11637,4457.17L9187.23,4457.17L-3439.38,17232.7Z" style="fill:rgb(112,73,30);"/>
            </g>
            <g transform="matrix(0.00252049,0,0,0.00252049,30.5025,10.5993)">
                <path d="M-1073.24,14838.6L3568.93,14838.6L6942.09,11309.1L6942.09,6728.79L-1073.24,14838.6Z" style="fill:rgb(112,73,30);"/>
            </g>
        </g>
        <g transform="matrix(0.00249257,0,0,0.00249257,5.15608,5.15615)">
            <path d="M5394.38,7568.21L5394.4,10242.2L7961.75,10242.1L10528.1,7556.78L12314.1,7556.76L15381.3,4357.63L8483.96,4357.73L5394.38,7568.22L5394.39,7568.22L5394.38,7568.21ZM13737.6,11563.7L13737.6,8889.75L11170.2,8889.79L8603.89,11575.1L6817.89,11575.2L3750.72,14774.3L10648,14774.2L13737.6,11563.7L13737.6,11563.7L13737.6,11563.7Z" style="fill:rgb(202,150,90);"/>
            <path d="M5394.38,7568.21L8483.96,4357.73L15381.3,4357.63L12314.1,7556.76L10528.1,7556.78L7961.75,10242.1L5394.4,10242.2L5394.38,7568.21ZM5816.21,7738.22L5816.23,9820.33L7781.39,9820.3L10223.1,7265.33C10302.7,7182.05 10412.9,7134.95 10528.1,7134.94L12134.1,7134.93L14392.4,4779.47L8663.45,4779.56L5816.21,7738.22ZM13530.7,11778.7L13315.8,11563.7C13315.8,11619.4 13326.8,11675.6 13349.5,11728.9L13360.3,11752.4C13382.1,11796 13411,11834.8 13445.1,11867.7L10648,14774.2L3750.72,14774.3L6817.89,11575.2L8603.89,11575.1L11170.2,8889.79L13737.6,8889.75L13737.6,11563.7L13530.7,11778.7ZM13315.8,11393.7L13315.7,9311.59L11350.6,9311.61L8908.85,11866.6C8829.27,11949.9 8719.09,11997 8603.9,11997L6997.85,11997L4739.56,14352.4L10468.5,14352.4L13315.8,11393.7Z" style="fill:rgb(255,205,153);"/>
        </g>
        <g>
            <g transform="matrix(0.976461,0,0,1,1.36526,0)">
                <path d="M53.904,0C56.166,0 58,1.791 58,4C58,6.784 58,10 58,10L10,10L10,0L53.904,0Z" style="fill:rgb(173,126,78);"/>
            </g>
            <g transform="matrix(1,0,0,0.976461,0,1.36526)">
                <path d="M58,10L58,53.904C58,56.166 56.209,58 54,58C51.216,58 48,58 48,58L48,10L58,10Z" style="fill:rgb(202,150,90);"/>
            </g>
            <g transform="matrix(0.976461,0,0,1,0,0)">
                <path d="M48,48L48,58L4.096,58C1.834,58 -0,56.209 -0,54C0,51.216 0,48 0,48L48,48Z" style="fill:rgb(173,126,78);"/>
            </g>
            <g transform="matrix(1,0,0,0.976461,0,0)">
                <path d="M10,0L10,48L0,48L0,4.096C0,1.834 1.791,-0 4,-0C6.784,0 10,0 10,0Z" style="fill:rgb(202,150,90);"/>
            </g>
        </g>
        <g>
            <circle cx="54" cy="3" r="1" style="fill:rgb(112,73,30);"/>
            <circle cx="50" cy="3" r="1" style="fill:rgb(112,73,30);"/>
            <circle cx="54" cy="7" r="1" style="fill:rgb(112,73,30);"/>
            <circle cx="50" cy="7" r="1" style="fill:rgb(112,73,30);"/>
            <circle cx="55" cy="54" r="1" style="fill:rgb(112,73,30);"/>
            <circle cx="55" cy="50" r="1" style="fill:rgb(112,73,30);"/>
            <circle cx="51" cy="54" r="1" style="fill:rgb(112,73,30);"/>
            <circle cx="51" cy="50" r="1" style="fill:rgb(112,73,30);"/>
            <circle cx="4" cy="55" r="1" style="fill:rgb(112,73,30);"/>
            <circle cx="8" cy="55" r="1" style="fill:rgb(112,73,30);"/>
            <circle cx="4" cy="51" r="1" style="fill:rgb(112,73,30);"/>
            <circle cx="8" cy="51" r="1" style="fill:rgb(112,73,30);"/>
            <circle cx="3" cy="4" r="1" style="fill:rgb(112,73,30);"/>
            <circle cx="3" cy="8" r="1" style="fill:rgb(112,73,30);"/>
            <g transform="matrix(1,0,0,1,4,0)">
                <circle cx="3" cy="8" r="1" style="fill:rgb(112,73,30);"/>
            </g>
            <circle cx="7" cy="4" r="1" style="fill:rgb(112,73,30);"/>
        </g>
    </g>
</svg>
