<?xml version="1.0" encoding="UTF-8" standalone="no"?>
<!DOCTYPE svg PUBLIC "-//W3C//DTD SVG 1.1//EN" "http://www.w3.org/Graphics/SVG/1.1/DTD/svg11.dtd">
<svg width="100%" height="100%" viewBox="0 0 242 242" version="1.1" xmlns="http://www.w3.org/2000/svg" xmlns:xlink="http://www.w3.org/1999/xlink" xml:space="preserve" xmlns:serif="http://www.serif.com/" style="fill-rule:evenodd;clip-rule:evenodd;stroke-linejoin:round;stroke-miterlimit:2;">
    <g transform="matrix(4.16667,0,0,4.16667,0,0)">
        <g>
            <g transform="matrix(0.940533,0,0,0.940533,1.72454,1.72454)">
                <rect x="10" y="10" width="38" height="38" style="fill:rgb(120,82,33);"/>
                <g transform="matrix(0.00252049,0,0,0.00252049,-4.36192,-1.23427)">
                    <path d="M5698.06,8095.25L9187.23,4457.17L13490.4,4457.17L5698.06,12610.8L5698.06,8095.25ZM5698.06,17232.7L18324.7,4457.17L20774.5,4457.17L20774.5,6396.43L8219.48,19533.6L5698.06,19533.6L5698.06,17232.7ZM12759.1,19533.6L20774.5,11423.7L20774.5,16004L17401.3,19533.6L12759.1,19533.6Z" style="fill:rgb(80,52,22);"/>
                </g>
            </g>
            <g>
                <g transform="matrix(0.976461,0,0,1,1.36526,0)">
                    <path d="M53.904,0C56.166,0 58,1.791 58,4L58,10L10,10L10,0L53.904,0ZM46.602,48L46.602,58L2.698,58C0.436,58 -1.398,56.209 -1.398,54L-1.398,48L46.602,48Z" style="fill:rgb(141,102,63);"/>
                </g>
                <g transform="matrix(1,0,0,0.976461,0,1.36526)">
                    <path d="M58,10L58,53.904C58,56.166 56.209,58 54,58L48,58L48,10L58,10ZM10,-1.398L10,46.602L0,46.602L0,2.698C0,0.436 1.791,-1.398 4,-1.398L10,-1.398Z" style="fill:rgb(179,131,77);"/>
                </g>
            </g>
            <g>
                <circle cx="54" cy="3" r="1" style="fill:rgb(80,52,22);"/>
                <circle cx="50" cy="3" r="1" style="fill:rgb(80,52,22);"/>
                <circle cx="54" cy="7" r="1" style="fill:rgb(80,52,22);"/>
                <circle cx="50" cy="7" r="1" style="fill:rgb(80,52,22);"/>
                <circle cx="55" cy="54" r="1" style="fill:rgb(80,52,22);"/>
                <circle cx="55" cy="50" r="1" style="fill:rgb(80,52,22);"/>
                <circle cx="51" cy="54" r="1" style="fill:rgb(80,52,22);"/>
                <circle cx="51" cy="50" r="1" style="fill:rgb(80,52,22);"/>
                <circle cx="4" cy="55" r="1" style="fill:rgb(80,52,22);"/>
                <circle cx="8" cy="55" r="1" style="fill:rgb(80,52,22);"/>
                <circle cx="4" cy="51" r="1" style="fill:rgb(80,52,22);"/>
                <circle cx="8" cy="51" r="1" style="fill:rgb(80,52,22);"/>
                <circle cx="3" cy="4" r="1" style="fill:rgb(80,52,22);"/>
                <circle cx="3" cy="8" r="1" style="fill:rgb(80,52,22);"/>
                <circle cx="7" cy="4" r="1" style="fill:rgb(80,52,22);"/>
                <g transform="matrix(1,0,0,1,8.88178e-16,4)">
                    <circle cx="7" cy="4" r="1" style="fill:rgb(80,52,22);"/>
                </g>
            </g>
            <g transform="matrix(-0.917336,0.917336,-0.707107,-0.707107,86.3437,13.2131)">
                <path d="M46.412,19.049L43.101,23.344L46.711,28.027L50.022,23.732L46.412,19.049ZM34.206,32.089C33.628,31.338 33.608,30.847 34.107,30.2L34.665,29.476C35.044,28.984 35.243,28.932 35.862,29.217L42.044,31.959C43.061,32.399 43.62,32.037 44.298,31.157L45.734,29.295L42.084,24.56L41.187,25.621C40.887,25.957 40.668,26.086 40.269,25.879L35.223,23.37C33.129,22.309 31.953,22.645 30.517,24.508L29.28,26.112C27.425,28.518 26.688,31.132 29.38,34.624L39.152,47.302L39.312,47.095C39.99,45.181 40.648,43.24 41.306,41.3L34.206,32.089Z" style="fill:url(#_Radial1);"/>
                <path d="M39.312,47.095L39.152,47.302L29.38,34.624C26.688,31.132 27.425,28.518 29.28,26.112L30.517,24.508C31.953,22.645 33.129,22.309 35.223,23.37L40.269,25.879C40.668,26.086 40.887,25.957 41.187,25.621L42.084,24.56L45.734,29.295L44.298,31.157C43.62,32.037 43.061,32.399 42.044,31.959L35.862,29.217C35.243,28.932 35.044,28.984 34.665,29.476L34.107,30.2C33.608,30.847 33.628,31.338 34.206,32.089L41.306,41.3C40.752,42.933 40.198,44.567 39.632,46.186C39.532,46.126 39.423,46.095 39.312,46.095L39.539,46.389L39.561,46.389C39.478,46.625 39.395,46.86 39.312,47.095ZM46.412,19.049L50.022,23.732L46.711,28.027L43.101,23.344L46.412,19.049ZM46.412,20.463L44.191,23.344L46.711,26.613L48.932,23.732L46.412,20.463ZM38.972,45.653C39.45,44.284 39.92,42.904 40.388,41.523L33.661,32.796C33.195,32.191 33.008,31.651 32.983,31.171C32.956,30.632 33.11,30.078 33.562,29.493L34.12,28.769C34.456,28.333 34.734,28.138 35.043,28.07C35.313,28.01 35.635,28.053 36.112,28.271L42.29,31.012C42.553,31.125 42.766,31.174 42.958,31.133C43.256,31.071 43.481,30.803 43.753,30.45L44.644,29.295L42.059,25.942L41.706,26.36L41.691,26.376C41.369,26.739 41.081,26.924 40.761,26.969C40.538,27 40.29,26.965 39.992,26.813L34.948,24.303L34.943,24.301C34.066,23.857 33.386,23.67 32.77,23.824C32.168,23.975 31.649,24.454 31.062,25.215L29.825,26.819C29.044,27.833 28.461,28.863 28.394,30.035C28.327,31.204 28.794,32.45 29.925,33.917L38.972,45.653Z" style="fill:white;"/>
            </g>
        </g>
    </g>
    <defs>
        <radialGradient id="_Radial1" cx="0" cy="0" r="1" gradientUnits="userSpaceOnUse" gradientTransform="matrix(44.0956,0,0,52.6104,16.9802,28.3052)"><stop offset="0" style="stop-color:rgb(255,204,102);stop-opacity:1"/><stop offset="1" style="stop-color:rgb(255,0,0);stop-opacity:1"/></radialGradient>
    </defs>
</svg>
