<?xml version="1.0" encoding="UTF-8" standalone="no"?>
<!DOCTYPE svg PUBLIC "-//W3C//DTD SVG 1.1//EN" "http://www.w3.org/Graphics/SVG/1.1/DTD/svg11.dtd">
<svg width="100%" height="100%" viewBox="0 0 800 800" version="1.1" xmlns="http://www.w3.org/2000/svg" xmlns:xlink="http://www.w3.org/1999/xlink" xml:space="preserve" xmlns:serif="http://www.serif.com/" style="fill-rule:evenodd;clip-rule:evenodd;stroke-linejoin:round;stroke-miterlimit:2;">
    <g transform="matrix(0.0128018,0,0,0.0128018,-110.258,-110.257)">
        <path d="M22913.9,31743.7L22914,42604.9L33342.1,42604.7L43766.2,31697.3L51020.6,31697.2L63478.8,18702.9L35463.2,18703.4L22913.9,31743.9L22913.9,31743.7ZM56802.7,47972.7L56802.5,37111.5L46374.4,37111.7L35950.4,48019.1L28695.9,48019.1L16237.6,61013.4L44253.2,61013L56802.6,47972.6L56802.7,47972.6L56802.7,47972.7Z"/>
    </g>
    <g transform="matrix(-0.680284,-0.680284,0.680284,-0.680284,702.571,967.582)">
        <path d="M480.755,-96.62L348.152,35.983L345.557,-99.215L480.755,-96.62Z"/>
    </g>
    <g transform="matrix(0.680284,0.680284,-0.680284,0.680284,97.4287,-167.582)">
        <path d="M480.755,-96.62L348.152,35.983L345.557,-99.215L480.755,-96.62Z"/>
    </g>
</svg>
