<?xml version="1.0" encoding="UTF-8" standalone="no"?>
<!DOCTYPE svg PUBLIC "-//W3C//DTD SVG 1.1//EN" "http://www.w3.org/Graphics/SVG/1.1/DTD/svg11.dtd">
<svg width="100%" height="100%" viewBox="0 0 800 800" version="1.1" xmlns="http://www.w3.org/2000/svg" xmlns:xlink="http://www.w3.org/1999/xlink" xml:space="preserve" xmlns:serif="http://www.serif.com/" style="fill-rule:evenodd;clip-rule:evenodd;stroke-linejoin:round;stroke-miterlimit:2;">
    <g transform="matrix(0.0128018,0,0,0.0128018,-110.258,-110.257)">
        <path d="M22913.9,34347.6L22913.9,31743.8L35463.2,18703.4L63478.8,18702.9L51020.6,31697.2L43766.2,31697.3L33342.1,42604.7L22914,42604.9L22913.9,34347.6ZM25517.7,32793.3L25517.8,40001.1L32228.8,40000.9L41883.8,29898.3C42375.1,29384.3 43055.1,29093.5 43766.2,29093.5L49909.8,29093.4L57375.2,21306.8L36571.1,21307.2L25517.7,32793.3ZM55525.7,49299.5L54198.9,47972.6L54198.9,47943.9C54198.5,47977.2 54198.8,48010.6 54199.7,48044C54213.4,48651.9 54401.5,49115.3 54671,49468.2C54767.8,49606.2 54877.2,49733.5 54997.1,49848.8L44253.2,61013L16237.6,61013.4L28695.9,48019.1L35950.4,48019.1L46374.4,37111.7L56802.5,37111.5L56802.7,47972.7L55525.7,49299.5ZM55015,49830.2C54891.8,49724.8 54775.3,49604.8 54671,49468.2C54567.8,49321.1 54478.9,49161.8 54406.7,48992.1C54276.4,48685.9 54208.4,48364.3 54199.7,48044C54199.2,48020.5 54198.9,47996.7 54198.9,47972.7L55525.7,49299.5L55015,49830.2ZM54198.9,46923.1L54198.8,39715.3L47487.7,39715.5L37832.8,49818.1C37341.5,50332.1 36661.4,50622.9 35950.4,50622.9L29806.7,50622.9L22341.3,58409.5L43145.3,58409.2L54198.9,46923.1Z"/>
    </g>
    <g transform="matrix(-0.680284,-0.680284,0.680284,-0.680284,702.571,967.582)">
        <path d="M480.755,-96.62L348.152,35.983L345.557,-99.215L480.755,-96.62ZM419.197,-71.811L372.056,-72.716L372.961,-25.575L419.197,-71.811Z"/>
    </g>
    <g transform="matrix(0.680284,0.680284,-0.680284,0.680284,97.4287,-167.582)">
        <path d="M480.755,-96.62L348.152,35.983L345.557,-99.215L480.755,-96.62ZM419.197,-71.811L372.056,-72.716L372.961,-25.575L419.197,-71.811Z"/>
    </g>
</svg>
