<?xml version="1.0" encoding="UTF-8" standalone="no"?>
<!DOCTYPE svg PUBLIC "-//W3C//DTD SVG 1.1//EN" "http://www.w3.org/Graphics/SVG/1.1/DTD/svg11.dtd">
<svg width="100%" height="100%" viewBox="0 0 800 800" version="1.1" xmlns="http://www.w3.org/2000/svg" xmlns:xlink="http://www.w3.org/1999/xlink" xml:space="preserve" xmlns:serif="http://www.serif.com/" style="fill-rule:evenodd;clip-rule:evenodd;stroke-linejoin:round;stroke-miterlimit:2;">
    <g transform="matrix(0.0114614,0,0,0.0114614,-56.8312,-56.8306)">
        <path d="M22913.9,31743.7L22914,42604.9L33342.1,42604.7L43766.2,31697.3L51020.6,31697.2L63478.8,18702.9L35463.2,18703.4L22913.9,31743.9L22913.9,31743.7ZM56802.7,47972.7L56802.5,37111.5L46374.4,37111.7L35950.4,48019.1L28695.9,48019.1L16237.6,61013.4L44253.2,61013L56802.6,47972.6L56802.7,47972.6L56802.7,47972.7Z"/>
    </g>
    <path d="M70.108,626.154C42.757,586.352 22.418,541.364 10.881,492.977C3.767,463.137 0,432.005 0,400C0,179.234 179.234,0 400,0C503.252,0 597.42,39.206 668.415,103.531L514.486,103.534C478.959,89.79 440.353,82.251 400,82.251C224.63,82.251 82.251,224.63 82.251,400C82.251,432.425 87.118,463.722 96.162,493.2L197.324,493.464L70.108,626.154ZM729.892,173.846C757.244,213.647 777.582,258.636 789.119,307.023C796.233,336.863 800,367.995 800,400C800,620.766 620.766,800 400,800C296.748,800 202.58,760.794 131.585,696.469L285.516,696.467C321.042,710.211 359.648,717.749 400,717.749C575.37,717.749 717.749,575.37 717.749,400C717.749,367.575 712.882,336.278 703.838,306.8L602.677,306.536L729.892,173.846Z"/>
</svg>
