<?xml version="1.0" encoding="UTF-8" standalone="no"?>
<!DOCTYPE svg PUBLIC "-//W3C//DTD SVG 1.1//EN" "http://www.w3.org/Graphics/SVG/1.1/DTD/svg11.dtd">
<svg width="100%" height="100%" viewBox="0 0 800 800" version="1.1" xmlns="http://www.w3.org/2000/svg" xmlns:xlink="http://www.w3.org/1999/xlink" xml:space="preserve" xmlns:serif="http://www.serif.com/" style="fill-rule:evenodd;clip-rule:evenodd;stroke-linejoin:round;stroke-miterlimit:2;">
    <g transform="matrix(0.0114614,0,0,0.0114614,-56.8312,-56.8306)">
        <path d="M22913.9,34652.1L22913.9,31743.8L35463.2,18703.4L63478.8,18702.9L51020.6,31697.2L43766.2,31697.3L33342.1,42604.7L22914,42604.9L22913.9,34652.1ZM55493.6,49332.9C54721.5,48458.5 53894.4,47607 53894.4,47972.6L53894.4,47941.6C53894,47977.6 53894.3,48013.7 53895.2,48049.8C53910,48729.2 54119.9,49247.3 54420.8,49641.8C54421.1,49642.3 54421.5,49642.8 54421.9,49643.3C54538.3,49795.7 54668.4,49929.7 54806,50047.4L44253.2,61013L16237.6,61013.4L28695.9,48019.1L35950.4,48019.1L46374.4,37111.7L56802.5,37111.5L56802.7,47972.7L55493.6,49332.9ZM53895.2,48049.8C53894.7,48024.6 53894.4,47999.2 53894.4,47973.5C53894.4,48070.8 53899.2,48166.9 53908.6,48261.7C53901.5,48191.1 53897.1,48120.4 53895.2,48049.8ZM53908.6,48261.7C53937.3,48549.6 54009.3,48836 54126.5,49111.3C54206.9,49300.4 54305.9,49477.8 54420.8,49641.8C54141.2,49243.5 53958.9,48772 53908.6,48261.7ZM53894.4,46800.4L53894.2,40019.9L47617.9,40020L38052.9,50028.5C37504.2,50602.6 36744.6,50927.4 35950.4,50927.4L29936.6,50927.4L23055.1,58105L43015.7,58104.7L53894.4,46800.4ZM25822.2,32916L25822.3,39696.5L32098.6,39696.4L41663.7,29687.9C42212.4,29113.8 42972,28789 43766.2,28789L49779.9,28788.9L56661.3,21611.3L36700.7,21611.7L25822.2,32916Z"/>
    </g>
    <path d="M70.108,626.154C42.757,586.352 22.418,541.364 10.881,492.977C3.767,463.137 0,432.005 0,400C0,179.234 179.234,0 400,0C503.252,0 597.42,39.206 668.415,103.531L514.486,103.534C478.959,89.79 440.353,82.251 400,82.251C224.63,82.251 82.251,224.63 82.251,400C82.251,432.425 87.118,463.722 96.162,493.2L197.324,493.464L70.108,626.154ZM76.045,571.797L119.382,526.594L71.501,526.469L64.294,502.976C54.302,470.406 48.918,435.827 48.918,400C48.918,206.232 206.232,48.918 400,48.918C442.344,48.918 482.946,56.438 520.547,70.2L560.315,70.2C511.875,46.586 457.473,33.333 400,33.333C197.631,33.333 33.333,197.631 33.333,400C33.333,429.344 36.783,457.888 43.306,485.246C50.578,515.749 61.67,544.776 76.045,571.797ZM729.892,173.846C757.244,213.647 777.582,258.636 789.119,307.023C796.233,336.863 800,367.995 800,400C800,620.766 620.766,800 400,800C296.748,800 202.58,760.794 131.585,696.469L285.516,696.467C321.042,710.211 359.648,717.749 400,717.749C575.37,717.749 717.749,575.37 717.749,400C717.749,367.575 712.882,336.278 703.838,306.8L602.677,306.536L729.892,173.846ZM723.956,228.203L680.618,273.406L728.499,273.531L735.706,297.024C745.698,329.594 751.082,364.173 751.082,400C751.082,593.768 593.768,751.082 400,751.082C357.656,751.082 317.055,743.563 279.454,729.8L239.686,729.801C288.125,753.414 342.527,766.667 400,766.667C602.369,766.667 766.667,602.369 766.667,400C766.667,370.656 763.217,342.112 756.694,314.754C749.422,284.251 738.33,255.224 723.956,228.203Z"/>
</svg>
