<?xml version="1.0" encoding="UTF-8" standalone="no"?>
<!DOCTYPE svg PUBLIC "-//W3C//DTD SVG 1.1//EN" "http://www.w3.org/Graphics/SVG/1.1/DTD/svg11.dtd">
<svg width="100%" height="100%" viewBox="0 0 1102 1102" version="1.1" xmlns="http://www.w3.org/2000/svg" xmlns:xlink="http://www.w3.org/1999/xlink" xml:space="preserve" xmlns:serif="http://www.serif.com/" style="fill-rule:evenodd;clip-rule:evenodd;stroke-linejoin:round;stroke-miterlimit:2;">
    <g transform="matrix(0.951299,0,0,0.951299,26.8344,26.8344)">
        <path d="M551,-6.307L1026,73.693L1026,521C1025.85,890.609 647.371,1080.66 551,1102C454.629,1080.66 76.147,890.609 76,521L76,73.693L551,-6.307Z" style="fill:url(#_Radial1);"/>
    </g>
    <path d="M551,0L1026,80L1026,521C1025.85,890.609 647.371,1080.66 551,1102C454.629,1080.66 76.147,890.609 76,521L76,80L551,0ZM551,64.901L140,134.122L140,520.98C140.067,685.227 225.501,808.949 320.319,894.609C406.982,972.901 501.777,1020.38 551,1035.76C600.222,1020.38 695.018,972.901 781.681,894.609C876.499,808.949 961.933,685.227 962,520.98L962,134.122L551,64.901Z" style="fill:url(#_Radial2);"/>
    <g transform="matrix(0.992406,0,0,0.992406,4.18434,1.80463)">
        <path d="M674.786,764.363L675.084,764.363C675.821,764.305 676.557,764.197 677.294,764.197C738.953,764.19 800.613,764.19 862.272,764.19C862.769,764.19 863.267,764.208 863.763,764.183C864.132,764.164 864.5,764.09 865,764.023L804.771,540.305L804.45,540.304C804.264,540.799 804.074,541.293 803.892,541.79C802.578,545.375 801.352,548.996 799.933,552.54C797.029,559.791 793.55,566.768 789.246,573.293C784.731,580.138 779.943,586.791 774.182,592.673C771.124,595.794 768.18,599.057 764.876,601.898C760.626,605.553 756.122,608.921 751.621,612.269C748.996,614.221 746.278,616.108 743.4,617.649C736.535,621.327 729.627,624.951 722.221,627.478C718.041,628.904 713.93,630.617 709.655,631.652C703.876,633.052 697.981,633.996 692.112,634.992C689.573,635.423 686.979,635.577 684.402,635.709C680.435,635.911 676.456,636.186 672.493,636.071C665.193,635.858 657.92,635.16 650.741,633.765C646.117,632.867 641.455,632.035 636.939,630.727C628.966,628.419 621.281,625.32 613.906,621.465C607.825,618.285 601.847,614.913 596.321,610.858C588.176,604.882 580.68,598.151 573.896,590.637C570.361,586.721 567.016,582.648 564.084,578.279C559.434,571.35 555.135,564.197 551.814,556.511C550.26,552.913 548.588,549.345 547.351,545.635C545.154,539.043 543.442,532.305 542.212,525.456C540.957,518.461 540.036,511.44 539.934,504.309C539.822,496.514 539.422,488.739 537.961,481.037C536.682,474.291 535.218,467.619 532.502,461.284C530.782,457.271 529.223,453.173 527.236,449.295C523.974,442.926 520.217,436.834 515.7,431.253C513.671,428.746 511.643,426.23 509.461,423.858C507.716,421.962 505.703,420.316 503.873,418.494C500.557,415.19 497.007,412.157 493.189,409.464C485.819,404.264 477.892,400.077 469.571,396.589C460.912,392.961 451.951,390.504 442.673,389.175C440.77,388.903 438.843,388.797 436.947,388.617C436.758,388.971 436.624,389.179 436.531,389.404C433.402,396.919 430.019,404.34 427.208,411.972C422.52,424.701 418.959,437.779 416.481,451.123C415.431,456.779 414.669,462.492 413.92,468.199C413.346,472.578 412.886,476.979 412.579,481.385C412.171,487.229 411.727,493.087 411.717,498.94C411.701,508.973 412.197,518.993 413.271,528.982C414.157,537.229 415.121,545.462 416.947,553.559C418.453,560.237 419.839,566.965 421.814,573.509C425.139,584.528 428.794,595.453 433.616,605.942C435.854,610.811 437.84,615.809 440.302,620.562C445.215,630.045 450.637,639.245 456.767,648.006C460.268,653.01 463.603,658.153 467.411,662.916C475.073,672.502 483.178,681.715 492.087,690.186C495.363,693.299 498.557,696.511 501.988,699.445C506.138,702.993 510.469,706.331 514.775,709.693C525.01,717.682 535.773,724.867 547.168,731.117C557.064,736.546 567.248,741.337 577.742,745.476C585.178,748.408 592.661,751.256 600.354,753.411C609.572,755.994 618.865,758.342 628.296,760.056C631.519,760.642 634.747,761.227 637.995,761.631C642.428,762.182 646.879,762.618 651.331,762.998C656.079,763.403 660.836,763.73 665.594,764C668.122,764.144 670.66,764.082 673.194,764.141C673.726,764.153 674.255,764.286 674.786,764.363ZM426.733,764.363L427.031,764.363C427.663,764.282 428.295,764.139 428.929,764.128C436.777,763.987 444.623,763.792 452.427,762.871C457.997,762.213 463.593,761.681 469.114,760.728C476.004,759.539 482.885,758.2 489.672,756.526C501.674,753.566 513.514,750.027 524.984,745.354C525.469,745.156 525.945,744.941 526.6,744.659C482.433,717.457 448.115,681.244 423.539,635.868C416.365,635.544 409.366,634.806 402.419,633.514C394.003,631.948 385.78,629.789 377.819,626.585C370.432,623.612 363.278,620.241 356.541,615.962C350.242,611.96 344.11,607.733 338.455,602.871C330.671,596.178 323.688,588.714 317.771,580.3C315.401,576.929 312.893,573.62 310.891,570.035C305.685,560.711 300.906,551.17 297.892,540.857C297.791,540.511 297.579,540.198 297.419,539.87L297.135,539.894L237,764.19L239.401,764.19C301.16,764.19 362.918,764.189 424.676,764.197C425.361,764.197 426.047,764.305 426.733,764.363ZM804.707,461.782C824.765,387.217 844.822,312.65 864.876,238.084C864.885,238.048 864.847,237.995 864.823,237.955C864.798,237.914 864.762,237.879 864.631,237.717L862.963,237.717C811.882,237.717 760.802,237.681 709.721,237.743C696.765,237.759 683.802,237.324 670.85,238.108C664.406,238.498 657.944,238.623 651.511,239.133C646.071,239.565 640.631,240.192 635.246,241.071C628.539,242.165 621.835,243.382 615.225,244.947C602.08,248.06 589.149,251.921 576.604,256.986C576.254,257.127 575.93,257.329 575.277,257.665C590.063,266.256 603.358,276.418 615.999,287.481C628.712,298.608 640.184,310.905 650.756,324.05C661.303,337.163 670.198,351.381 678.383,366.089C707.473,367.117 733.667,376.149 756.848,393.673C780.059,411.218 795.507,434.213 804.707,461.782ZM665.129,613.582C665.82,611.998 666.497,610.514 667.118,609.006C669.782,602.535 672.614,596.124 675.039,589.563C678.568,580.015 681.248,570.201 683.605,560.294C685.134,553.863 686.306,547.37 687.254,540.841C688.244,534.012 689.096,527.159 689.467,520.261C689.78,514.459 690.228,508.656 690.273,502.851C690.354,492.364 689.707,481.905 688.559,471.475C687.685,463.526 686.682,455.599 684.892,447.798C683.439,441.464 682.159,435.066 680.269,428.859C676.973,418.04 673.436,407.284 668.718,396.967C666.386,391.867 664.285,386.65 661.727,381.667C656.62,371.721 650.838,362.16 644.453,352.972C640.003,346.57 635.634,340.109 630.466,334.243C626.297,329.511 622.25,324.666 617.946,320.06C614.287,316.143 610.357,312.477 606.51,308.737C604.409,306.695 602.318,304.629 600.071,302.754C596.145,299.477 592.138,296.293 588.101,293.152C581.357,287.906 574.473,282.851 567.207,278.337C555.803,271.251 543.977,264.979 531.608,259.732C521.912,255.619 512.086,251.831 501.984,248.883C492.653,246.16 483.192,243.863 473.617,242.105C470.591,241.549 467.563,240.945 464.509,240.609C457.945,239.889 451.354,239.407 444.791,238.681C437.969,237.927 431.098,238.404 424.279,237.715L240.041,237.715C239.395,237.715 238.749,237.697 238.104,237.723C237.786,237.736 237.471,237.83 237.078,237.902L297.183,462.045L297.502,462.056C297.67,461.615 297.847,461.178 298.004,460.734C299.081,457.695 299.994,454.586 301.262,451.629C303.432,446.568 305.539,441.447 308.181,436.629C313.063,427.729 318.83,419.393 325.681,411.863C330.495,406.571 335.408,401.381 341.085,396.969C347.636,391.877 354.167,386.764 361.59,382.958C367.155,380.104 372.723,377.266 378.621,375.123C386.092,372.41 393.587,369.831 401.476,368.562C406.573,367.742 411.644,366.737 416.819,366.538C421.382,366.361 425.954,366.061 430.514,366.172C437.568,366.345 444.587,367.111 451.52,368.462C456.095,369.354 460.707,370.184 465.173,371.484C472.95,373.748 480.448,376.773 487.668,380.495C497.51,385.568 506.737,391.514 515.086,398.824C521.306,404.269 527.176,410.061 532.374,416.474C538.868,424.486 544.225,433.247 548.74,442.528C552.662,450.59 555.765,458.932 557.851,467.663C560.467,478.615 562.198,489.667 562.161,500.961C562.151,503.741 562.216,506.536 562.509,509.296C562.954,513.488 563.542,517.67 564.233,521.829C564.786,525.154 565.41,528.486 566.311,531.73C567.773,536.995 569.869,542.045 572.078,547.041C572.941,548.992 573.731,550.986 574.732,552.865C578.169,559.317 581.956,565.554 586.561,571.254C588.775,573.994 590.869,576.84 593.471,579.25C595.439,581.072 597.391,582.913 599.304,584.792C604.079,589.483 609.421,593.451 615.135,596.882C621.267,600.565 627.68,603.708 634.341,606.369C642.594,609.666 651.116,611.85 659.899,613.072C661.611,613.311 663.343,613.412 665.129,613.582Z" style="fill:url(#_Radial3);"/>
    </g>
    <defs>
        <radialGradient id="_Radial1" cx="0" cy="0" r="1" gradientUnits="userSpaceOnUse" gradientTransform="matrix(-915.25,1585.26,-1284.36,-741.524,991.25,-225.224)"><stop offset="0" style="stop-color:rgb(77,77,77);stop-opacity:1"/><stop offset="0.43" style="stop-color:rgb(53,53,53);stop-opacity:1"/><stop offset="1" style="stop-color:black;stop-opacity:1"/></radialGradient>
        <radialGradient id="_Radial2" cx="0" cy="0" r="1" gradientUnits="userSpaceOnUse" gradientTransform="matrix(-915.25,1585.26,-1284.36,-741.524,991.25,-225.224)"><stop offset="0" style="stop-color:rgb(255,230,107);stop-opacity:1"/><stop offset="0.43" style="stop-color:rgb(231,185,74);stop-opacity:1"/><stop offset="1" style="stop-color:rgb(179,86,0);stop-opacity:1"/></radialGradient>
        <radialGradient id="_Radial3" cx="0" cy="0" r="1" gradientUnits="userSpaceOnUse" gradientTransform="matrix(-915.25,1585.26,-1284.36,-741.524,991.25,-225.224)"><stop offset="0" style="stop-color:rgb(255,230,107);stop-opacity:1"/><stop offset="0.43" style="stop-color:rgb(231,185,74);stop-opacity:1"/><stop offset="1" style="stop-color:rgb(179,86,0);stop-opacity:1"/></radialGradient>
    </defs>
</svg>
