<?xml version="1.0" encoding="UTF-8" standalone="no"?>
<!DOCTYPE svg PUBLIC "-//W3C//DTD SVG 1.1//EN" "http://www.w3.org/Graphics/SVG/1.1/DTD/svg11.dtd">
<svg width="100%" height="100%" viewBox="0 0 3750 3750" version="1.1" xmlns="http://www.w3.org/2000/svg" xmlns:xlink="http://www.w3.org/1999/xlink" xml:space="preserve" xmlns:serif="http://www.serif.com/" style="fill-rule:evenodd;clip-rule:evenodd;stroke-linejoin:round;stroke-miterlimit:2;">
    <g transform="matrix(4.16667,0,0,4.16667,0,0)">
        <g transform="matrix(0.00948588,0,0,0.00948588,71.8614,71.8614)">
            <circle cx="39858.2" cy="39858.2" r="39866.8" style="fill:url(#_Radial1);"/>
        </g>
        <g transform="matrix(0.0109041,0.00292176,-0.00292176,0.0109041,131.788,-101.124)">
            <path d="M39858.2,1002.89C61303,1002.89 78713.5,18413.3 78713.5,39858.2C78713.5,61303 61303.1,78713.5 39858.2,78713.5C18413.4,78713.5 1002.9,61303.1 1002.9,39858.2C1002.9,18413.4 18413.3,1002.89 39858.2,1002.89ZM39858.2,6358.5C21369.2,6358.5 6358.46,21369.2 6358.46,39858.2C6358.46,58347.3 21369.2,73358 39858.2,73358C58347.2,73358 73357.9,58347.3 73357.9,39858.2C73357.9,21369.2 58347.2,6358.5 39858.2,6358.5Z" style="fill:url(#_Radial2);"/>
            <clipPath id="_clip3">
                <path d="M39858.2,1002.89C61303,1002.89 78713.5,18413.3 78713.5,39858.2C78713.5,61303 61303.1,78713.5 39858.2,78713.5C18413.4,78713.5 1002.9,61303.1 1002.9,39858.2C1002.9,18413.4 18413.3,1002.89 39858.2,1002.89ZM39858.2,6358.5C21369.2,6358.5 6358.46,21369.2 6358.46,39858.2C6358.46,58347.3 21369.2,73358 39858.2,73358C58347.2,73358 73357.9,58347.3 73357.9,39858.2C73357.9,21369.2 58347.2,6358.5 39858.2,6358.5Z"/>
            </clipPath>
            <g clip-path="url(#_clip3)">
                <g transform="matrix(1.78754,0.478969,-0.478969,1.78754,-12116.7,-18036.2)">
                    <circle cx="35228.7" cy="23523" r="21574" style="fill:url(#_Radial4);"/>
                </g>
                <g transform="matrix(-1.78754,-0.478969,0.478969,-1.78754,91294.8,99807.1)">
                    <circle cx="35228.7" cy="23523" r="21574" style="fill:url(#_Radial5);"/>
                </g>
            </g>
        </g>
        <g transform="matrix(-0.00912982,-0.00527111,0.00527111,-0.00912982,603.753,1023.95)">
            <path d="M39858.2,1002.89C61303,1002.89 78713.5,18413.3 78713.5,39858.2C78713.5,61303 61303.1,78713.5 39858.2,78713.5C18413.4,78713.5 1002.9,61303.1 1002.9,39858.2C1002.9,18413.4 18413.3,1002.89 39858.2,1002.89ZM39858.2,3986.07C20059.8,3986.07 3986.03,20059.8 3986.03,39858.2C3986.03,59656.7 20059.8,75730.4 39858.2,75730.4C59656.6,75730.4 75730.4,59656.7 75730.4,39858.2C75730.4,20059.8 59656.6,3986.07 39858.2,3986.07Z" style="fill:url(#_Radial6);"/>
        </g>
        <g transform="matrix(0.0112888,0,0,0.0112888,0,0)">
            <path d="M39858.2,77767.4C18935.5,77767.4 1949,60780.9 1949,39858.2C1949,18935.5 18935.5,1949 39858.2,1949C60780.9,1949 77767.4,18935.5 77767.4,39858.2C77767.4,60780.9 60780.9,77767.4 39858.2,77767.4ZM39862.5,5586.54C20945.1,5586.54 5586.47,20945.1 5586.47,39862.6C5586.47,58780.1 20945.1,74138.7 39862.5,74138.7C58780,74138.7 74138.6,58780.1 74138.6,39862.6C74138.6,20945.1 58780,5586.54 39862.5,5586.54Z" style="fill:url(#_Radial7);"/>
        </g>
        <g transform="matrix(0.0112888,0,0,0.0112888,0,0)">
            <path d="M22913.9,31743.7L22914,42604.9L33342.1,42604.7L43766.2,31697.3L51020.6,31697.2L63478.8,18702.9L35463.2,18703.4L22913.9,31743.9L22913.9,31743.9L22913.9,31743.8L22913.9,31743.7ZM56802.7,47972.7L56802.5,37111.5L46374.4,37111.7L35950.4,48019.1L28695.9,48019.1L16237.6,61013.4L44253.2,61013L56802.6,47972.6L56802.7,47972.6L56802.7,47972.6L56802.7,47972.7Z" style="fill:url(#_Radial8);"/>
        </g>
    </g>
    <defs>
        <radialGradient id="_Radial1" cx="0" cy="0" r="1" gradientUnits="userSpaceOnUse" gradientTransform="matrix(-64568.8,111836,-90608.8,-52312.8,70917,-14902.6)"><stop offset="0" style="stop-color:rgb(212,154,17);stop-opacity:1"/><stop offset="1" style="stop-color:rgb(65,27,2);stop-opacity:1"/></radialGradient>
        <radialGradient id="_Radial2" cx="0" cy="0" r="1" gradientUnits="userSpaceOnUse" gradientTransform="matrix(-74645.8,129290,-104750,-60477,75764.1,-23890.5)"><stop offset="0" style="stop-color:rgb(254,253,230);stop-opacity:1"/><stop offset="1" style="stop-color:rgb(153,83,0);stop-opacity:1"/></radialGradient>
        <radialGradient id="_Radial4" cx="0" cy="0" r="1" gradientUnits="userSpaceOnUse" gradientTransform="matrix(-34941.5,60520.2,-49033.1,-28309.1,52036.2,-6110.91)"><stop offset="0" style="stop-color:rgb(104,66,11);stop-opacity:0"/><stop offset="0.54" style="stop-color:rgb(89,56,9);stop-opacity:0.13"/><stop offset="0.73" style="stop-color:rgb(55,33,5);stop-opacity:0.44"/><stop offset="0.91" style="stop-color:rgb(20,10,0);stop-opacity:0.76"/><stop offset="1" style="stop-color:rgb(20,9,0);stop-opacity:1"/></radialGradient>
        <radialGradient id="_Radial5" cx="0" cy="0" r="1" gradientUnits="userSpaceOnUse" gradientTransform="matrix(-34941.5,60520.2,-49033.1,-28309.1,52036.2,-6110.91)"><stop offset="0" style="stop-color:rgb(104,66,11);stop-opacity:0"/><stop offset="0.81" style="stop-color:rgb(243,240,236);stop-opacity:1"/><stop offset="1" style="stop-color:white;stop-opacity:1"/></radialGradient>
        <radialGradient id="_Radial6" cx="0" cy="0" r="1" gradientUnits="userSpaceOnUse" gradientTransform="matrix(-74645.8,129290,-104750,-60477,75764.1,-23890.5)"><stop offset="0" style="stop-color:rgb(254,253,230);stop-opacity:1"/><stop offset="1" style="stop-color:rgb(102,55,0);stop-opacity:1"/></radialGradient>
        <radialGradient id="_Radial7" cx="0" cy="0" r="1" gradientUnits="userSpaceOnUse" gradientTransform="matrix(61398.2,-106345,86159.5,49744,10324.5,91930)"><stop offset="0" style="stop-color:rgb(217,143,38);stop-opacity:1"/><stop offset="1" style="stop-color:rgb(247,237,212);stop-opacity:1"/></radialGradient>
        <radialGradient id="_Radial8" cx="0" cy="0" r="1" gradientUnits="userSpaceOnUse" gradientTransform="matrix(-73928.5,128048,-103743,-59896.1,75419.2,-18802.1)"><stop offset="0" style="stop-color:white;stop-opacity:1"/><stop offset="1" style="stop-color:rgb(255,149,0);stop-opacity:1"/></radialGradient>
    </defs>
</svg>
