<?xml version="1.0" encoding="UTF-8" standalone="no"?>
<!DOCTYPE svg PUBLIC "-//W3C//DTD SVG 1.1//EN" "http://www.w3.org/Graphics/SVG/1.1/DTD/svg11.dtd">
<svg width="100%" height="100%" viewBox="0 0 900 900" version="1.1" xmlns="http://www.w3.org/2000/svg" xmlns:xlink="http://www.w3.org/1999/xlink" xml:space="preserve" xmlns:serif="http://www.serif.com/" style="fill-rule:evenodd;clip-rule:evenodd;stroke-linejoin:round;stroke-miterlimit:2;">
    <g transform="matrix(0.995344,-3.88578e-16,-4.44089e-16,0.995344,-17.8119,-13.8305)">
        <path d="M470,36L842.391,251L842.391,681L470,896L97.609,681L97.609,251L470,36Z" style="fill:url(#_Radial1);"/>
    </g>
    <g transform="matrix(1.04651,0,0,1.04651,-41.8605,-37.6744)">
        <path d="M470,36L842.391,251L842.391,681L470,896L97.609,681L97.609,251L470,36ZM470,138.034L185.973,302.017L185.973,629.983L470,793.966L754.027,629.983L754.027,302.017L470,138.034Z" style="fill:url(#_Radial2);"/>
    </g>
    <g transform="matrix(0.913621,0,0,0.913621,20.598,24.2525)">
        <path d="M409.8,466C409.8,499.248 436.752,526.2 470,526.2C503.225,526.2 530.2,499.225 530.2,466C530.2,432.775 503.225,405.8 470,405.8C452.205,405.8 435.322,413.673 423.884,427.304L470,466L409.8,466Z" style="fill:url(#_Radial3);"/>
    </g>
    <g transform="matrix(1.04651,0,0,1.04651,-41.8605,-37.6744)">
        <path d="M214.867,466C214.867,466 290.506,620.8 470,620.8C649.494,620.8 725.133,466 725.133,466C725.133,466 649.494,311.2 470,311.2C290.506,311.2 214.867,466 214.867,466ZM470,374.267C520.629,374.267 561.733,415.371 561.733,466C561.733,516.629 520.629,557.733 470,557.733C419.371,557.733 378.267,516.629 378.267,466C378.267,415.371 419.371,374.267 470,374.267Z" style="fill:url(#_Radial4);"/>
    </g>
    <defs>
        <radialGradient id="_Radial1" cx="0" cy="0" r="1" gradientUnits="userSpaceOnUse" gradientTransform="matrix(-696.433,1206.26,-977.298,-564.241,804.998,-124.645)"><stop offset="0" style="stop-color:rgb(214,184,92);stop-opacity:1"/><stop offset="1" style="stop-color:rgb(115,77,38);stop-opacity:1"/></radialGradient>
        <radialGradient id="_Radial2" cx="0" cy="0" r="1" gradientUnits="userSpaceOnUse" gradientTransform="matrix(-696.433,1206.26,-977.298,-564.241,804.998,-124.645)"><stop offset="0" style="stop-color:rgb(255,246,204);stop-opacity:1"/><stop offset="1" style="stop-color:rgb(255,166,71);stop-opacity:1"/></radialGradient>
        <radialGradient id="_Radial3" cx="0" cy="0" r="1" gradientUnits="userSpaceOnUse" gradientTransform="matrix(-696.433,1206.26,-977.298,-564.241,804.998,-124.645)"><stop offset="0" style="stop-color:rgb(255,246,204);stop-opacity:1"/><stop offset="1" style="stop-color:rgb(255,166,71);stop-opacity:1"/></radialGradient>
        <radialGradient id="_Radial4" cx="0" cy="0" r="1" gradientUnits="userSpaceOnUse" gradientTransform="matrix(-696.433,1206.26,-977.298,-564.241,804.998,-124.645)"><stop offset="0" style="stop-color:rgb(255,246,204);stop-opacity:1"/><stop offset="1" style="stop-color:rgb(255,166,71);stop-opacity:1"/></radialGradient>
    </defs>
</svg>
