<?xml version="1.0" encoding="UTF-8" standalone="no"?>
<!DOCTYPE svg PUBLIC "-//W3C//DTD SVG 1.1//EN" "http://www.w3.org/Graphics/SVG/1.1/DTD/svg11.dtd">
<svg width="100%" height="100%" viewBox="0 0 900 900" version="1.1" xmlns="http://www.w3.org/2000/svg" xmlns:xlink="http://www.w3.org/1999/xlink" xml:space="preserve" xmlns:serif="http://www.serif.com/" style="fill-rule:evenodd;clip-rule:evenodd;stroke-linejoin:round;stroke-miterlimit:2;">
    <g transform="matrix(0.995344,-3.88578e-16,-4.44089e-16,0.995344,-17.8119,-13.8305)">
        <path d="M470,36L842.391,251L842.391,681L470,896L97.609,681L97.609,251L470,36Z" style="fill:url(#_Radial1);"/>
    </g>
    <g transform="matrix(1.04651,0,0,1.04651,-41.8605,-37.6744)">
        <path d="M470,36L842.391,251L842.391,681L470,896L97.609,681L97.609,251L470,36ZM470,138.034L185.973,302.017L185.973,629.983L470,793.966L754.027,629.983L754.027,302.017L470,138.034Z" style="fill:url(#_Radial2);"/>
    </g>
    <g>
        <g transform="matrix(1.04651,0,0,1.04651,-41.8605,-37.6744)">
            <path d="M470,227.111C338.154,227.111 231.111,334.154 231.111,466C231.111,597.846 338.154,704.889 470,704.889C601.846,704.889 708.889,597.846 708.889,466C708.889,334.154 601.846,227.111 470,227.111ZM470,287.311C568.621,287.311 648.689,367.379 648.689,466C648.689,564.621 568.621,644.689 470,644.689C371.379,644.689 291.311,564.621 291.311,466C291.311,367.379 371.379,287.311 470,287.311ZM470,425.867C447.85,425.867 429.867,443.85 429.867,466C429.867,488.15 447.85,506.133 470,506.133C492.15,506.133 510.133,488.15 510.133,466C510.133,443.85 492.15,425.867 470,425.867Z" style="fill:url(#_Radial3);"/>
        </g>
        <g transform="matrix(1.04651,0,0,1.04651,-41.8605,-37.6744)">
            <path d="M426.703,436.217C430.347,430.933 434.933,426.347 440.217,422.703L358.728,341.214C353.972,345.459 349.459,349.972 345.214,354.728L426.703,436.217ZM303.047,456.444C302.868,459.607 302.778,462.793 302.778,466C302.778,469.207 302.868,472.393 303.047,475.556L418.313,475.556C417.742,472.457 417.444,469.263 417.444,466C417.444,462.737 417.742,459.543 418.313,456.444L303.047,456.444ZM499.783,422.703C505.067,426.347 509.653,430.933 513.297,436.217L594.786,354.728C590.541,349.972 586.028,345.459 581.272,341.214L499.783,422.703ZM460.444,414.313C463.543,413.742 466.737,413.444 470,413.444C473.263,413.444 476.457,413.742 479.556,414.313L479.556,299.047C476.393,298.868 473.207,298.778 470,298.778C466.793,298.778 463.607,298.868 460.444,299.047L460.444,414.313ZM521.687,456.444C522.258,459.543 522.556,462.737 522.556,466C522.556,469.263 522.258,472.457 521.687,475.556L636.953,475.556C637.132,472.393 637.222,469.207 637.222,466C637.222,462.793 637.132,459.607 636.953,456.444L521.687,456.444ZM479.556,517.687C476.457,518.258 473.263,518.556 470,518.556C466.737,518.556 463.543,518.258 460.444,517.687L460.444,632.953C463.607,633.132 466.793,633.222 470,633.222C473.207,633.222 476.393,633.132 479.556,632.953L479.556,517.687ZM440.217,509.297C434.933,505.653 430.347,501.067 426.703,495.783L345.214,577.272C349.459,582.028 353.972,586.541 358.728,590.786L440.217,509.297ZM513.297,495.783C509.653,501.067 505.067,505.653 499.783,509.297L581.272,590.786C586.028,586.541 590.541,582.028 594.786,577.272L513.297,495.783Z" style="fill:url(#_Radial4);"/>
        </g>
    </g>
    <defs>
        <radialGradient id="_Radial1" cx="0" cy="0" r="1" gradientUnits="userSpaceOnUse" gradientTransform="matrix(-696.433,1206.26,-977.298,-564.241,804.998,-124.645)"><stop offset="0" style="stop-color:rgb(214,184,92);stop-opacity:1"/><stop offset="1" style="stop-color:rgb(115,77,38);stop-opacity:1"/></radialGradient>
        <radialGradient id="_Radial2" cx="0" cy="0" r="1" gradientUnits="userSpaceOnUse" gradientTransform="matrix(-696.433,1206.26,-977.298,-564.241,804.998,-124.645)"><stop offset="0" style="stop-color:rgb(255,246,204);stop-opacity:1"/><stop offset="1" style="stop-color:rgb(255,166,71);stop-opacity:1"/></radialGradient>
        <radialGradient id="_Radial3" cx="0" cy="0" r="1" gradientUnits="userSpaceOnUse" gradientTransform="matrix(-696.433,1206.26,-977.298,-564.241,804.998,-124.645)"><stop offset="0" style="stop-color:rgb(255,246,204);stop-opacity:1"/><stop offset="1" style="stop-color:rgb(255,166,71);stop-opacity:1"/></radialGradient>
        <radialGradient id="_Radial4" cx="0" cy="0" r="1" gradientUnits="userSpaceOnUse" gradientTransform="matrix(-696.433,1206.26,-977.298,-564.241,804.998,-124.645)"><stop offset="0" style="stop-color:rgb(255,246,204);stop-opacity:1"/><stop offset="1" style="stop-color:rgb(255,166,71);stop-opacity:1"/></radialGradient>
    </defs>
</svg>
