<?xml version="1.0" encoding="UTF-8" standalone="no"?><!DOCTYPE svg PUBLIC "-//W3C//DTD SVG 1.1//EN" "http://www.w3.org/Graphics/SVG/1.1/DTD/svg11.dtd"><svg width="100%" height="100%" viewBox="0 0 4000 2250" version="1.1" xmlns="http://www.w3.org/2000/svg" xmlns:xlink="http://www.w3.org/1999/xlink" xml:space="preserve" xmlns:serif="http://www.serif.com/" style="fill-rule:evenodd;clip-rule:evenodd;stroke-linejoin:round;stroke-miterlimit:2;"><path d="M1396.6,837.141l445.904,-463.369l995.462,0l-442.669,461.714l-257.771,-0l-370.385,387.572l-370.541,0l0,-385.917Zm75,30.226l0,280.691l263.474,0l348.231,-364.389c14.15,-14.807 33.74,-23.183 54.221,-23.183l225.776,-0l298.856,-311.714l-787.741,0l-402.817,418.595Zm1129.14,546.421l-445.903,463.369l-995.462,0l442.669,-461.714l257.771,0l370.385,-387.572l370.54,0l0,385.917Zm-75,-30.225l0.001,-280.692l-263.474,0l-348.231,364.39c-14.15,14.807 -33.74,23.182 -54.221,23.182l-225.776,0.001l-298.856,311.713l787.74,0l402.817,-418.594Z" style="fill:#3b4048;fill-opacity:0.5;"/><path d="M3937.5,242.5l0,1765c0,99.345 -80.655,180 -180,180l-3515,0c-99.345,0 -180,-80.655 -180,-180l0,-1765c0,-99.345 80.655,-180 180,-180l3515,0c99.345,0 180,80.655 180,180Zm-62.5,20.625c0,-76.233 -61.892,-138.125 -138.125,-138.125l-3473.75,0c-76.233,0 -138.125,61.892 -138.125,138.125l-0,1723.75c-0,76.233 61.892,138.125 138.125,138.125l3473.75,0c76.233,0 138.125,-61.892 138.125,-138.125l0,-1723.75Z" style="fill:#3b4048;fill-opacity:0.5;"/></svg>
