<?xml version="1.0" encoding="UTF-8" standalone="no"?>
<!DOCTYPE svg PUBLIC "-//W3C//DTD SVG 1.1//EN" "http://www.w3.org/Graphics/SVG/1.1/DTD/svg11.dtd">
<svg width="100%" height="100%" viewBox="0 0 128 128" version="1.1" xmlns="http://www.w3.org/2000/svg" xmlns:xlink="http://www.w3.org/1999/xlink" xml:space="preserve" xmlns:serif="http://www.serif.com/" style="fill-rule:evenodd;clip-rule:evenodd;stroke-linejoin:round;stroke-miterlimit:2;">
    <g transform="matrix(0.906251,0,0,1.3501,5.9999,-44.8129)">
        <path d="M110.458,54.205L110.458,52.45L123.586,52.45C126.024,52.45 128,53.777 128,55.413L128,81.322L123.699,81.322L123.699,70.455C123.699,65.74 120.908,61.219 115.941,57.886L110.458,54.205ZM0,73.175L0,55.413C-0,53.776 1.976,52.45 4.414,52.45L6.508,52.45L6.508,73.175L0,73.175Z"/>
    </g>
    <g transform="matrix(0.953126,0,0,0.953267,2.9999,5.98173)">
        <path d="M85.166,128L4.197,128C1.879,128 0,126.121 0,123.804L0,55.597C0,54.762 0.332,53.962 0.922,53.372C1.512,52.782 2.313,52.45 3.148,52.45L26.887,52.45C30.341,52.45 33.711,53.515 36.537,55.501L44.279,60.939C47.105,62.924 50.475,63.989 53.929,63.989L124.852,63.989C126.591,63.989 128,65.398 128,67.136L128,79.831C126.215,78.938 124.202,78.435 122.072,78.435L94.847,78.435C87.522,78.435 81.576,84.381 81.576,91.705L81.576,118.926C81.576,122.434 82.94,125.626 85.166,128ZM72.416,100.178L67.707,95.47L52.404,95.47L52.404,119.703L59.121,119.703L59.121,113.333L63.282,113.333L66.087,119.703L73.628,119.703L69.459,111.36L72.416,108.403L72.416,100.178ZM59.121,108.071L59.121,100.732L65.699,100.732L65.699,108.071L59.121,108.071ZM8.294,119.703L22.905,119.703L27.337,115.272L27.337,105.564L14.665,104.422L14.665,101.286L26.991,101.286L26.991,95.47L12.38,95.47L7.948,99.901L7.948,109.262L20.62,110.404L20.62,113.887L8.294,113.887L8.294,119.703ZM30.453,119.703L45.064,119.703L49.495,115.272L49.495,105.564L36.823,104.422L36.823,101.286L49.149,101.286L49.149,95.47L34.538,95.47L30.107,99.901L30.107,109.262L42.779,110.404L42.779,113.887L30.453,113.887L30.453,119.703Z"/>
    </g>
    <g transform="matrix(1.17356,0,0,1,0.288215,-10.0248)">
        <path d="M16.709,64.005L11.597,64.005L11.597,14.025C11.597,12.964 11.956,11.946 12.595,11.196C13.234,10.446 14.101,10.025 15.005,10.025L85.052,10.025C85.956,10.025 86.823,10.446 87.462,11.196C88.102,11.946 88.461,12.964 88.461,14.025L88.461,36.394L71.126,16.05L16.709,16.05L16.709,64.005Z"/>
    </g>
    <g transform="matrix(1.21898,0,0,1.59426,-15.1096,-31.426)">
        <path d="M32,53.571L32,26L76.467,26L76.467,39.172L36.884,39.172L36.884,53.597C36.55,53.58 36.215,53.571 35.879,53.571L32,53.571ZM101.116,60.471L101.116,49.836C101.116,47.757 98.912,46.072 96.194,46.072L79.748,46.072L79.748,26L101.194,42.398C104.271,44.75 106,47.941 106,51.268L106,60.471L101.116,60.471Z"/>
    </g>
    <g transform="matrix(1,0,0,1,38.5438,2.84217e-14)">
        <path d="M89.456,93.401L89.456,119.35C89.456,124.124 85.58,128 80.806,128L54.857,128C50.083,128 46.208,124.124 46.208,119.35L46.208,93.401C46.208,88.627 50.083,84.751 54.857,84.751L80.806,84.751C85.58,84.751 89.456,88.627 89.456,93.401ZM57.072,101.223L57.072,108.12L63.694,108.12L70.313,101.193L74.92,101.193L82.832,92.941L65.041,92.941L57.072,101.223ZM78.592,111.529L78.592,104.631L71.97,104.631L65.35,111.558L60.743,111.558L52.832,119.81L70.623,119.81L78.592,111.529Z"/>
        <g transform="matrix(1.49286,0,0,0.667338,-76.3854,16.9891)">
            <path d="M54.075,64.452L93.674,64.452L93.674,70.445L58.341,70.445C57.658,69.842 57.006,69.057 56.398,68.102L54.075,64.452ZM93.674,47.987L93.674,53.981L49.463,53.981L49.463,47.987L93.674,47.987ZM77.63,31.466L77.63,37.571L49.463,37.571L49.463,31.466L77.63,31.466Z"/>
        </g>
    </g>
</svg>
