<?xml version="1.0" encoding="UTF-8" standalone="no"?>
<!DOCTYPE svg PUBLIC "-//W3C//DTD SVG 1.1//EN" "http://www.w3.org/Graphics/SVG/1.1/DTD/svg11.dtd">
<svg width="100%" height="100%" viewBox="0 0 512 426" version="1.1" xmlns="http://www.w3.org/2000/svg" xmlns:xlink="http://www.w3.org/1999/xlink" xml:space="preserve" xmlns:serif="http://www.serif.com/" style="fill-rule:evenodd;clip-rule:evenodd;stroke-linejoin:round;stroke-miterlimit:2;">
    <g transform="matrix(0.82183,0,0,0.82183,1.35003e-13,2.4354)">
        <g transform="matrix(-1,0,0,1,298.865,0.428696)">
            <g transform="matrix(0.537554,0,0,0.537677,-387.799,-266.874)">
                <path d="M1218.41,903.173C1229.96,918.362 1240.1,934.577 1248.69,951.614C1256.08,964.676 1260.13,977.198 1264.59,991.394C1279.29,1038.13 1282.09,1087.89 1268.98,1135.39C1253.39,1191.87 1216.73,1240.83 1165.43,1269.64C1138.46,1284.78 1102.13,1297.59 1070.82,1297.08C1051.44,1296.6 1031,1294.89 1011.99,1290.66C1003.67,1288.81 992.928,1283.52 985.119,1282.2C984.747,1282.1 984.376,1282 984.004,1281.9C857.886,1233.26 810.378,1061.19 921.65,970.424C932.688,961.421 940.788,956.762 952.416,950.42C965.498,973.763 981.053,1005.46 986.732,1031.65C931.047,1064.49 935.746,1131.7 978.428,1173.58C1065.75,1259.27 1200.05,1177.94 1188.53,1064.53C1188.02,1059.49 1187.21,1052.85 1187.15,1047.86L1187.15,1047.22C1183.27,1026.86 1177.34,1006.94 1169.45,987.765C1193.68,965.304 1209.8,934.768 1218.41,903.173Z" style="fill:rgb(199,203,207);fill-rule:nonzero;"/>
                <clipPath id="_clip1">
                    <path d="M1218.41,903.173C1229.96,918.362 1240.1,934.577 1248.69,951.614C1256.08,964.676 1260.13,977.198 1264.59,991.394C1279.29,1038.13 1282.09,1087.89 1268.98,1135.39C1253.39,1191.87 1216.73,1240.83 1165.43,1269.64C1138.46,1284.78 1102.13,1297.59 1070.82,1297.08C1051.44,1296.6 1031,1294.89 1011.99,1290.66C1003.67,1288.81 992.928,1283.52 985.119,1282.2C984.747,1282.1 984.376,1282 984.004,1281.9C857.886,1233.26 810.378,1061.19 921.65,970.424C932.688,961.421 940.788,956.762 952.416,950.42C965.498,973.763 981.053,1005.46 986.732,1031.65C931.047,1064.49 935.746,1131.7 978.428,1173.58C1065.75,1259.27 1200.05,1177.94 1188.53,1064.53C1188.02,1059.49 1187.21,1052.85 1187.15,1047.86L1187.15,1047.22C1183.27,1026.86 1177.34,1006.94 1169.45,987.765C1193.68,965.304 1209.8,934.768 1218.41,903.173Z" clip-rule="nonzero"/>
                </clipPath>
                <g clip-path="url(#_clip1)">
                    <g transform="matrix(1.75007,2.27178,-4.36044,7.43696,2338.23,-3104.73)">
                        <path d="M412.884,409L441.182,420.357C441.182,420.357 440.609,432.793 432,438.277L398,438.277L398,409L412.884,409Z" style="fill:url(#_Radial2);"/>
                    </g>
                </g>
            </g>
            <g transform="matrix(0.537554,0,0,0.537677,-387.799,-266.874)">
                <path d="M811.589,648.236C809.216,661.906 808.554,674.505 816.943,686.609C824.218,697.285 835.496,704.57 848.22,706.811C875.032,711.268 867.242,662.652 886.071,647.65C907.929,615.557 946.647,650.065 955.949,677.028C973.214,743.308 904.63,801.818 842.028,793.935C828.762,792.264 821.335,790.335 809.02,785.897L808.908,993.328C808.934,1022.57 807.12,1060.38 809.059,1088.41C765.901,1099.62 744.236,1120.69 722.067,1157.7L722.323,848.805L722.329,719.75C722.518,681.748 719.502,629.387 740.552,595.672C755.481,559.872 793.967,526.771 828.804,511.494C932.818,465.883 1063.02,528.208 1102.72,632.463C1122.53,684.503 1124.73,747.022 1102.61,799.242C1080.81,850.992 1039.2,891.865 987.077,912.743C959.566,923.857 931.129,927.901 901.599,928.889C901.953,900.078 902.083,871.265 901.989,842.452C940.301,839.415 978.693,827.641 1003.72,796.415C1047.73,741.518 1040.71,658.451 985.453,613.39C928.134,566.649 840.913,572.038 811.589,648.236Z" style="fill:rgb(199,203,207);"/>
            </g>
            <g transform="matrix(0.537554,0,0,0.537677,-387.799,-266.874)">
                <path d="M1055.2,1341.02C1054.75,1342.53 1055.06,1341.69 1054.3,1343.24C1032.89,1386.7 994.908,1423.41 948.274,1438.76C903.067,1453.66 853.795,1450.02 811.268,1428.64C771.8,1409.07 741.881,1374.43 728.268,1332.53C702.292,1252.41 753.066,1167.4 831.468,1142.12C841.056,1170.99 851.983,1195.8 864.148,1223.6C847.29,1229.86 831.218,1238.64 820.609,1253.61C811.166,1266.93 807.487,1283.49 810.404,1299.56C817.892,1340.99 870.241,1366.52 909.08,1359.39C940.476,1353.63 957.849,1331.84 974.303,1307.16C979.484,1297.99 982.119,1292.09 985.119,1282.2C992.928,1283.52 1003.67,1288.81 1011.99,1290.66C1031,1294.89 1051.44,1296.6 1070.82,1297.08C1066.78,1311.88 1062.21,1327.28 1055.2,1341.02Z" style="fill:rgb(199,203,207);fill-rule:nonzero;"/>
                <clipPath id="_clip3">
                    <path d="M1055.2,1341.02C1054.75,1342.53 1055.06,1341.69 1054.3,1343.24C1032.89,1386.7 994.908,1423.41 948.274,1438.76C903.067,1453.66 853.795,1450.02 811.268,1428.64C771.8,1409.07 741.881,1374.43 728.268,1332.53C702.292,1252.41 753.066,1167.4 831.468,1142.12C841.056,1170.99 851.983,1195.8 864.148,1223.6C847.29,1229.86 831.218,1238.64 820.609,1253.61C811.166,1266.93 807.487,1283.49 810.404,1299.56C817.892,1340.99 870.241,1366.52 909.08,1359.39C940.476,1353.63 957.849,1331.84 974.303,1307.16C979.484,1297.99 982.119,1292.09 985.119,1282.2C992.928,1283.52 1003.67,1288.81 1011.99,1290.66C1031,1294.89 1051.44,1296.6 1070.82,1297.08C1066.78,1311.88 1062.21,1327.28 1055.2,1341.02Z" clip-rule="nonzero"/>
                </clipPath>
                <g clip-path="url(#_clip3)">
                    <g transform="matrix(-0.771859,2.22325,-6.54197,-1.25312,4106.61,928.967)">
                        <path d="M432,409C446.926,419.293 447.867,429.085 432,438.277L398,438.277L398,409L432,409Z" style="fill:url(#_Radial4);"/>
                    </g>
                </g>
            </g>
            <g transform="matrix(0.537554,0,0,0.537677,-387.799,-266.874)">
                <path d="M1170.31,741.948C1171.77,743.133 1173.19,744.365 1174.57,745.642C1208.36,776.454 1223.24,824.478 1222.11,869.318C1221.86,879.082 1217.72,894.692 1218.41,903.173C1209.8,934.768 1193.68,965.304 1169.45,987.765C1163.83,991.915 1158.08,998.967 1152.51,1003.54C1111.1,1037.51 1079.35,1070.35 1130.31,1116.27C1128.93,1118 1127.5,1119.68 1126.02,1121.31C1107.04,1141.95 1068.08,1167.95 1043.51,1141.08C996.029,1089.16 1018.9,1005.73 1067.06,962.769C1107.09,927.062 1137.03,906.709 1135.82,847.236C1161.64,811.748 1166.43,784.392 1170.31,741.948Z" style="fill:rgb(199,203,207);fill-rule:nonzero;"/>
            </g>
        </g>
        <g transform="matrix(1,0,0,1,324.135,0.428696)">
            <g transform="matrix(3.25224,0.526963,-0.651041,4.018,733.925,-667.89)">
                <path d="M-168.983,208.712C-166.249,198.157 -152.342,195.612 -141.89,200.496C-131.814,205.204 -128.515,215.888 -134.17,223.975C-137.386,228.576 -143.262,230.922 -149.353,232.127C-148.586,235.882 -147.855,239.642 -147.16,243.406C-142.43,242.654 -137.955,241.526 -133.815,239.495C-125.965,235.672 -120.33,229.464 -118.17,222.255C-115.97,214.979 -117.956,206.873 -122.505,200.506C-131.621,187.75 -154.218,182.374 -169.779,190.518C-174.991,193.246 -180.326,198.375 -181.796,203.359C-184.306,208.2 -182.454,214.963 -181.492,219.923L-178.125,236.751L-170.103,277.034C-167.498,271.74 -164.559,268.535 -157.901,266.162C-158.945,262.548 -159.639,257.579 -160.407,253.767L-165.803,226.717C-163.704,227.035 -162.457,227.13 -160.277,227.067C-149.989,226.773 -140.47,217.695 -144.981,209.417C-147.183,206.098 -154.319,202.416 -157.002,207.062C-159.643,209.416 -157.119,215.591 -161.554,215.576C-163.662,215.553 -165.668,214.841 -167.119,213.603C-168.786,212.202 -169.008,210.545 -168.983,208.712Z" style="fill:url(#_Radial5);"/>
            </g>
            <g transform="matrix(0.174928,0.652842,-0.652842,0.174928,219.482,242.395)">
                <path d="M260.42,119.444C254.454,115.903 252.456,115.077 251.932,117.172C247.625,131.625 242.803,144.309 235.814,157.706C232.68,163.717 226.404,170.88 227.684,180.067C234.666,184.408 238.657,187.648 244.637,193.516C260.215,211.238 273.382,229.072 271.346,254.378C268.829,285.684 238.435,320.644 205.058,317.866C192.109,316.798 180.141,310.562 171.85,300.565C162.53,289.333 159.092,275.178 157.752,260.937C133.886,264.559 112.572,267.846 88.414,269.267C91.7,334.705 146.572,391.215 213.485,387.756C248.485,385.925 281.262,370.072 304.424,343.78C329.607,315.511 342.547,278.407 340.404,240.609C338.208,201.622 317.818,164.884 288.829,139.487C287.795,138.584 288.376,138.995 287.309,138.339C279.246,131.072 269.791,125.005 260.42,119.444Z" style="fill:url(#_Radial6);"/>
            </g>
            <g transform="matrix(-0.498454,1.43607,-3.88922,-0.745156,2012.7,162.609)">
                <path d="M436.383,436.1C446.189,435.004 455.386,432.466 444.819,420.824C437.601,419.118 429.241,418.025 420.539,417.598C419.944,417.57 420.26,417.572 419.699,417.582C415.016,417.325 410.004,417.374 405.125,417.487C402.019,417.559 401.049,417.635 401.248,417.985C402.337,420.465 402.872,422.742 402.67,425.331C402.58,426.493 401.445,428.123 403.763,429.31C407.436,429.254 409.685,429.33 413.252,429.589C423.023,430.611 431.841,431.882 435.975,435.692C436.119,435.825 436.256,435.961 436.383,436.1Z" style="fill:url(#_Radial7);"/>
            </g>
            <g transform="matrix(2.57181,6.56488,-7.4368,4.01422,2274.56,-4104.97)">
                <path d="M407.409,410.819C409.231,412.071 410.707,413.747 411.342,415.718C412.926,415.696 414.489,415.808 416.007,416.052L416.05,416.067C416.39,416.18 416.868,416.287 417.228,416.374C425.315,418.339 425.914,428.253 416.935,431.46C412.546,433.027 407.831,431.736 407.642,427.646C405.665,427.373 402.954,427.56 400.899,427.794C400.903,428.637 400.923,429.229 401.129,430.098C403.205,438.859 416.572,440.047 424.461,433.66L424.522,433.6C424.896,433.165 425.646,432.648 426.074,432.195C427.054,431.159 427.915,429.98 428.655,428.835C429.832,426.978 430.291,424.511 430.251,422.548C430.175,418.814 428.203,415.482 424.953,413.231C422.22,411.338 418.754,410.342 415.058,410.126C413.936,410.06 412.941,410.009 411.789,410.145C410.323,410.259 408.857,410.485 407.409,410.819Z" style="fill:url(#_Radial8);"/>
            </g>
            <g transform="matrix(0.804496,1.25417,-2.58864,3.65575,1026.87,-1806.69)">
                <path d="M432.319,434.163C453.179,429.871 450.537,423.202 440.682,419.474C438.229,419.09 435.669,418.752 433.013,418.461C428.404,417.955 424.301,417.52 419.015,417.413C412.455,417.157 405.587,417.129 398.502,417.325C393.082,422.456 393.468,426.624 401.981,428.573C408.8,429.054 415.164,429.801 420.976,430.801L421.12,430.846C422.262,431.188 424.013,431.564 425.308,431.861C428.14,432.509 430.468,433.285 432.319,434.163Z" style="fill:url(#_Radial9);"/>
            </g>
            <g transform="matrix(-0.213589,0.797123,-0.797123,-0.213589,462.693,119.236)">
                <path d="M84.437,255.108C111.802,250.392 129.826,248.793 156.513,259.054C193.738,248.264 211.594,263.67 240.815,282.835C275.971,305.893 332.332,306.214 357.003,267.584C369.771,247.594 346.84,227.465 330.65,219.003C329.375,218.347 328.077,217.731 326.755,217.154C306.447,256.961 280.427,242.522 252.067,222.196C248.25,219.462 242.843,217.033 239.283,214.197C221.063,202.739 199.128,197.746 177.792,197.657C172.571,199.521 162.049,199.548 155.862,201.038C127.452,207.888 99.738,225.349 86.043,251.805C85.472,252.889 84.936,253.99 84.437,255.108Z" style="fill:url(#_Radial10);"/>
            </g>
        </g>
    </g>
    <defs>
        <radialGradient id="_Radial2" cx="0" cy="0" r="1" gradientUnits="userSpaceOnUse" gradientTransform="matrix(34,0,0,29.2772,398,423.639)"><stop offset="0" style="stop-color:rgb(102,102,102);stop-opacity:1"/><stop offset="1" style="stop-color:rgb(199,203,207);stop-opacity:0"/></radialGradient>
        <radialGradient id="_Radial4" cx="0" cy="0" r="1" gradientUnits="userSpaceOnUse" gradientTransform="matrix(34,0,0,29.2772,398,423.639)"><stop offset="0" style="stop-color:rgb(102,102,102);stop-opacity:1"/><stop offset="1" style="stop-color:rgb(199,203,207);stop-opacity:0"/></radialGradient>
        <radialGradient id="_Radial5" cx="0" cy="0" r="1" gradientUnits="userSpaceOnUse" gradientTransform="matrix(65.2716,-94.4826,145.462,42.3962,-185.716,286.02)"><stop offset="0" style="stop-color:rgb(120,0,204);stop-opacity:1"/><stop offset="0.43" style="stop-color:rgb(161,47,220);stop-opacity:1"/><stop offset="1" style="stop-color:rgb(255,153,255);stop-opacity:1"/></radialGradient>
        <radialGradient id="_Radial6" cx="0" cy="0" r="1" gradientUnits="userSpaceOnUse" gradientTransform="matrix(290,0,0,290.648,76,259.324)"><stop offset="0" style="stop-color:rgb(102,202,255);stop-opacity:1"/><stop offset="0.44" style="stop-color:rgb(71,167,255);stop-opacity:1"/><stop offset="1" style="stop-color:rgb(0,85,255);stop-opacity:1"/></radialGradient>
        <radialGradient id="_Radial7" cx="0" cy="0" r="1" gradientUnits="userSpaceOnUse" gradientTransform="matrix(34,0,0,29.2772,398,423.639)"><stop offset="0" style="stop-color:rgb(0,46,102);stop-opacity:1"/><stop offset="1" style="stop-color:rgb(40,131,255);stop-opacity:0"/></radialGradient>
        <radialGradient id="_Radial8" cx="0" cy="0" r="1" gradientUnits="userSpaceOnUse" gradientTransform="matrix(34,0,0,29.2772,398,423.639)"><stop offset="0" style="stop-color:rgb(248,145,254);stop-opacity:1"/><stop offset="0.56" style="stop-color:rgb(158,43,219);stop-opacity:1"/><stop offset="1" style="stop-color:rgb(120,0,204);stop-opacity:1"/></radialGradient>
        <radialGradient id="_Radial9" cx="0" cy="0" r="1" gradientUnits="userSpaceOnUse" gradientTransform="matrix(34,0,0,29.2772,398,423.639)"><stop offset="0" style="stop-color:rgb(75,0,128);stop-opacity:1"/><stop offset="1" style="stop-color:rgb(144,27,213);stop-opacity:0"/></radialGradient>
        <radialGradient id="_Radial10" cx="0" cy="0" r="1" gradientUnits="userSpaceOnUse" gradientTransform="matrix(290,0,0,290.648,76,259.324)"><stop offset="0" style="stop-color:rgb(102,202,255);stop-opacity:1"/><stop offset="0.44" style="stop-color:rgb(71,167,255);stop-opacity:1"/><stop offset="1" style="stop-color:rgb(0,85,255);stop-opacity:1"/></radialGradient>
    </defs>
</svg>
