<?xml version="1.0" encoding="UTF-8" standalone="no"?>
<!DOCTYPE svg PUBLIC "-//W3C//DTD SVG 1.1//EN" "http://www.w3.org/Graphics/SVG/1.1/DTD/svg11.dtd">
<svg width="100%" height="100%" viewBox="0 0 840 705" version="1.1" xmlns="http://www.w3.org/2000/svg" xmlns:xlink="http://www.w3.org/1999/xlink" xml:space="preserve" xmlns:serif="http://www.serif.com/" style="fill-rule:evenodd;clip-rule:evenodd;stroke-linejoin:round;stroke-miterlimit:2;">
    <g transform="matrix(0.795972,0.795972,-0.774432,0.774432,383.638,-345.016)">
        <path d="M577.779,761.374L578.029,761.116C578.493,760.502 578.903,759.834 579.426,759.276C585.896,752.382 592.321,745.443 598.1,737.914C602.224,732.539 606.475,727.251 610.311,721.664C615.098,714.692 619.75,707.598 624.043,700.297C631.635,687.384 638.605,674.113 644.313,660.183C644.554,659.595 644.772,658.997 645.085,658.188C585.163,672.829 525.945,671.193 467.212,653.243C460.917,659.155 454.421,664.559 447.502,669.439C439.122,675.35 430.405,680.582 421.031,684.687C412.332,688.497 403.495,691.762 394.246,693.883C385.598,695.866 376.9,697.509 368.07,698.193C355.914,699.135 343.785,698.72 331.752,696.564C326.933,695.701 322.048,695.009 317.357,693.643C305.158,690.09 293.134,685.981 281.944,679.682C281.569,679.471 281.129,679.384 280.719,679.238L280.501,679.504L418.332,924.957L420.348,922.885C472.201,869.59 524.054,816.295 575.913,763.007C576.489,762.415 577.155,761.916 577.779,761.374ZM651.342,425.528C650.593,423.567 649.915,421.7 649.171,419.864C645.975,411.981 642.969,404.004 639.497,396.25C634.444,384.966 628.454,374.183 622.115,363.6C617.999,356.73 613.531,350.115 608.845,343.664C603.943,336.916 598.904,330.267 593.424,323.993C588.815,318.717 584.319,313.322 579.483,308.274C570.746,299.154 561.421,290.686 551.701,282.676C544.292,276.57 536.794,270.595 528.743,265.409C522.203,261.196 515.758,256.78 508.959,253.055C497.108,246.562 485.107,240.333 472.484,235.501C466.244,233.113 460.1,230.423 453.768,228.331C441.129,224.154 428.247,220.894 415.172,218.475C406.06,216.79 396.967,214.985 387.703,214.382C380.23,213.896 372.764,213.208 365.284,212.947C358.922,212.725 352.544,212.952 346.174,213.045C342.696,213.095 339.205,213.118 335.745,213.438C329.697,213.998 323.659,214.709 317.633,215.482C307.565,216.775 297.541,218.353 287.651,220.727C272.126,224.453 256.931,229.247 242.14,235.393C230.546,240.211 219.116,245.422 208.159,251.595C198.038,257.298 188.166,263.48 178.65,270.225C175.643,272.357 172.593,274.448 169.747,276.796C163.632,281.837 157.694,287.109 151.573,292.148C145.213,297.383 139.844,303.723 133.54,309.014L-21.148,468.004C-21.69,468.562 -22.248,469.104 -22.769,469.684C-23.025,469.97 -23.209,470.322 -23.48,470.723C56.157,517.96 135.669,565.12 215.18,612.283L215.455,612.017C215.228,611.492 215.009,610.962 214.767,610.442C213.12,606.892 211.277,603.42 209.858,599.772C207.431,593.534 204.901,587.296 203.074,580.859C199.699,568.966 197.543,556.796 196.972,544.385C196.572,535.663 196.339,526.945 197.401,518.237C198.626,508.19 199.817,498.142 202.852,488.453C205.129,481.188 207.421,473.933 210.575,466.994C214.569,458.205 218.697,449.511 224.255,441.609C227.846,436.502 231.261,431.259 235.437,426.622C239.121,422.531 242.708,418.326 246.629,414.488C252.696,408.55 259.234,403.153 266.189,398.337C270.778,395.159 275.348,391.894 280.19,389.161C288.619,384.405 297.455,380.545 306.642,377.525C319.165,373.41 331.905,370.579 345.052,369.682C354.846,369.013 364.637,368.947 374.386,369.995C386.565,371.305 398.42,374.242 410.003,378.356C420.064,381.928 429.674,386.449 438.755,392.183C450.147,399.377 460.88,407.42 470.333,417.2C472.657,419.605 475.06,421.963 477.622,424.092C481.517,427.326 485.52,430.427 489.593,433.419C492.848,435.811 496.171,438.149 499.65,440.17C505.297,443.452 511.299,446.002 517.349,448.407C519.711,449.345 522.048,450.384 524.466,451.142C532.768,453.743 541.184,455.857 549.838,456.803C553.997,457.258 558.144,457.905 562.353,457.741C565.534,457.614 568.719,457.519 571.903,457.489C579.851,457.417 587.667,456.23 595.345,454.26C603.587,452.147 611.61,449.325 619.436,445.873C629.135,441.597 638.123,436.127 646.524,429.602C648.162,428.33 649.701,426.924 651.342,425.528ZM641.082,174.079C595.317,92.423 549.55,10.766 503.78,-70.888C503.759,-70.928 503.682,-70.94 503.628,-70.954C503.572,-70.968 503.513,-70.967 503.268,-70.993L501.867,-69.553C458.979,-25.473 416.061,18.577 373.225,62.711C362.36,73.905 351.111,84.717 340.894,96.571C335.811,102.468 330.491,108.152 325.518,114.143C321.313,119.211 317.272,124.446 313.489,129.852C308.776,136.584 304.169,143.419 299.933,150.475C291.511,164.504 283.896,178.995 277.614,194.194C277.441,194.615 277.336,195.071 277.071,195.924C296.698,190.578 316.393,187.873 336.296,186.512C356.312,185.143 376.268,185.855 396.182,188.076C416.046,190.29 435.452,194.883 454.673,200.513C479.961,176.297 509.538,161.486 543.714,156.604C577.933,151.715 610.21,158.227 641.082,174.079ZM786.05,547.314L786.301,547.057C786.871,546.371 787.397,545.642 788.015,545.006C839.779,491.789 891.551,438.581 943.321,385.371C943.738,384.942 944.171,384.528 944.565,384.078C944.861,383.743 945.106,383.361 945.469,382.871L707.065,241.787L706.794,242.063C707.054,242.651 707.309,243.241 707.573,243.826C709.48,248.055 711.491,252.237 713.275,256.52C716.925,265.283 719.862,274.306 721.727,283.651C723.683,293.455 725.249,303.328 725.351,313.376C725.404,318.708 725.671,324.065 725.282,329.367C724.782,336.188 723.828,342.981 722.86,349.754C722.297,353.706 721.599,357.68 720.476,361.493C717.8,370.592 715.043,379.681 710.945,388.251C708.634,393.089 706.62,398.114 703.9,402.697C700.225,408.894 696.066,414.794 691.974,420.719C690.206,423.282 688.155,425.653 686.104,427.991C682.942,431.588 679.833,435.26 676.409,438.581C670.101,444.697 663.409,450.371 656.21,455.361C651.572,458.577 646.96,461.883 642.07,464.651C633.439,469.539 624.384,473.497 614.955,476.534C607.18,479.039 599.33,481.288 591.285,482.557C579.429,484.428 567.483,485.088 555.479,484.459C549.222,484.13 542.994,483.501 536.865,482.261C527.142,480.294 517.527,477.832 508.286,474.065C503.96,472.302 499.56,470.665 495.407,468.531C488.028,464.738 480.933,460.401 474.15,455.551C467.222,450.598 460.555,445.334 454.482,439.268C447.842,432.638 440.979,426.274 433.286,420.887C426.548,416.17 419.717,411.676 412.117,408.552C407.304,406.574 402.554,404.383 397.63,402.751C389.544,400.07 381.275,398.055 372.796,397.137C368.988,396.724 365.171,396.303 361.348,396.14C358.291,396.009 355.219,396.326 352.153,396.332C346.595,396.342 341.067,396.789 335.601,397.759C325.047,399.633 314.876,402.86 304.961,407.031C294.645,411.371 285.058,416.986 276.151,423.846C274.325,425.252 272.619,426.824 270.875,428.305C271.014,428.774 271.077,429.068 271.188,429.343C274.87,438.528 278.261,447.851 282.309,456.863C289.06,471.893 297.049,486.253 306.173,499.906C310.041,505.693 314.197,511.283 318.361,516.852C321.555,521.127 324.865,525.321 328.305,529.389C332.87,534.784 337.416,540.222 342.322,545.282C350.733,553.954 359.561,562.173 368.849,569.867C376.518,576.218 384.24,582.491 392.572,587.902C399.443,592.366 406.255,596.976 413.407,600.92C425.452,607.559 437.692,613.833 450.548,618.723C456.514,620.994 462.378,623.593 468.437,625.57C480.524,629.514 492.799,632.774 505.303,635.043C512.444,636.34 519.562,637.902 526.758,638.727C541.24,640.384 555.781,641.342 570.372,640.963C575.738,640.825 581.116,640.839 586.46,640.41C592.924,639.892 599.364,639.034 605.802,638.219C621.101,636.281 636.171,633.193 650.986,628.754C663.853,624.899 676.426,620.243 688.712,614.76C697.417,610.873 706.092,606.874 714.36,602.095C724.269,596.369 734.042,590.376 743.4,583.715C746.598,581.441 749.799,579.159 752.864,576.705C757.051,573.356 761.153,569.891 765.21,566.376C769.536,562.627 773.805,558.806 778.027,554.933C780.269,552.875 782.349,550.631 784.526,548.496C784.983,548.047 785.54,547.705 786.05,547.314Z" style="fill:url(#_Radial1);"/>
    </g>
    <defs>
        <radialGradient id="_Radial1" cx="0" cy="0" r="1" gradientUnits="userSpaceOnUse" gradientTransform="matrix(1040,0,0,1036,-55,434)"><stop offset="0" style="stop-color:rgb(255,187,118);stop-opacity:1"/><stop offset="1" style="stop-color:rgb(231,121,12);stop-opacity:1"/></radialGradient>
    </defs>
</svg>
