<?xml version="1.0" encoding="UTF-8" standalone="no"?>
<!DOCTYPE svg PUBLIC "-//W3C//DTD SVG 1.1//EN" "http://www.w3.org/Graphics/SVG/1.1/DTD/svg11.dtd">
<svg width="100%" height="100%" viewBox="0 0 512 512" version="1.1" xmlns="http://www.w3.org/2000/svg" xmlns:xlink="http://www.w3.org/1999/xlink" xml:space="preserve" xmlns:serif="http://www.serif.com/" style="fill-rule:evenodd;clip-rule:evenodd;stroke-linejoin:round;stroke-miterlimit:2;">
    <g transform="matrix(0.949219,0,0,0.951811,13.3304,11.673)">
        <path d="M512,72.879L512,440.515C512,479.969 479.881,512 440.32,512L70.984,512C31.423,512 -0.696,479.969 -0.696,440.515L-0.696,72.879C-0.696,33.425 31.423,1.394 70.984,1.394L440.32,1.394C479.881,1.394 512,33.425 512,72.879Z" style="fill:url(#_Radial1);"/>
    </g>
    <g transform="matrix(0.113655,0,0,0.113655,326.766,191.753)">
        <path d="M0,1890C-2.67,1889.61 -5.334,1888.94 -8.011,1888.88C-20.753,1888.58 -33.523,1888.89 -46.237,1888.17C-70.171,1886.81 -94.096,1885.16 -117.98,1883.13C-140.375,1881.22 -162.761,1879.03 -185.062,1876.25C-201.398,1874.22 -217.636,1871.28 -233.843,1868.33C-281.285,1859.71 -328.025,1847.9 -374.395,1834.91C-413.088,1824.07 -450.729,1809.74 -488.131,1794.99C-540.914,1774.17 -592.142,1750.08 -641.918,1722.77C-699.234,1691.33 -753.373,1655.19 -804.852,1615.01C-826.511,1598.1 -848.299,1581.31 -869.172,1563.46C-886.43,1548.7 -902.498,1532.55 -918.972,1516.88C-963.784,1474.28 -1004.55,1427.93 -1043.1,1379.72C-1062.25,1355.76 -1079.02,1329.89 -1096.63,1304.72C-1127.47,1260.65 -1154.74,1214.38 -1179.45,1166.68C-1191.84,1142.77 -1201.83,1117.63 -1213.08,1093.14C-1237.34,1040.38 -1255.72,985.431 -1272.45,930.005C-1282.38,897.088 -1289.35,863.246 -1296.92,829.655C-1306.11,788.928 -1310.96,747.516 -1315.42,706.035C-1320.82,655.791 -1323.31,605.391 -1323.23,554.924C-1323.18,525.484 -1320.95,496.018 -1318.9,466.62C-1317.35,444.46 -1315.04,422.324 -1312.15,400.297C-1308.39,371.593 -1304.55,342.853 -1299.27,314.403C-1286.81,247.283 -1268.89,181.503 -1245.31,117.477C-1231.17,79.088 -1214.16,41.758 -1198.42,3.96C-1197.95,2.829 -1197.28,1.783 -1196.33,0C-1186.79,0.908 -1177.1,1.437 -1167.53,2.808C-1120.86,9.493 -1075.78,21.849 -1032.23,40.102C-990.374,57.645 -950.503,78.704 -913.43,104.859C-894.228,118.405 -876.369,133.66 -859.688,150.279C-850.487,159.445 -840.361,167.725 -831.585,177.263C-820.609,189.191 -810.406,201.85 -800.199,214.461C-777.479,242.533 -758.583,273.175 -742.173,305.209C-732.181,324.716 -724.337,345.329 -715.685,365.513C-702.024,397.38 -694.66,430.938 -688.226,464.87C-680.879,503.611 -678.868,542.719 -678.304,581.929C-677.789,617.796 -673.16,653.112 -666.844,688.297C-660.66,722.749 -652.048,756.642 -640.996,789.8C-634.777,808.458 -626.367,826.407 -618.549,844.505C-601.846,883.166 -580.219,919.142 -556.828,953.998C-542.082,975.973 -525.258,996.458 -507.475,1016.16C-473.353,1053.95 -435.646,1087.81 -394.68,1117.87C-366.881,1138.27 -336.816,1155.23 -306.225,1171.22C-269.13,1190.61 -230.473,1206.2 -190.373,1217.81C-167.657,1224.39 -144.208,1228.57 -120.945,1233.09C-84.836,1240.11 -48.253,1243.62 -11.534,1244.69C8.4,1245.27 28.415,1243.88 48.367,1242.87C61.327,1242.2 74.379,1241.43 87.146,1239.26C116.67,1234.25 146.321,1229.51 175.391,1222.46C196.893,1217.25 217.572,1208.64 238.594,1201.46C275.847,1188.76 310.593,1170.53 345.127,1152.03C359.601,1144.28 373.274,1134.79 386.479,1124.96C409.118,1108.12 431.773,1091.18 453.148,1072.8C469.767,1058.51 484.578,1042.1 499.958,1026.4C528.938,996.813 553.019,963.346 575.73,928.916C597.38,896.096 614.879,861.003 629.484,824.528C636.621,806.704 642.788,788.491 649.4,770.457C650.316,767.959 651.271,765.475 652.206,762.984L653.821,762.99L956.771,1888.28C954.254,1888.62 952.407,1889 950.547,1889.09C948.054,1889.22 945.55,1889.13 943.051,1889.13C632.904,1889.13 322.759,1889.12 12.612,1889.16C8.908,1889.16 5.204,1889.71 1.499,1890L0,1890ZM-1247.71,1889.99C-1251.16,1889.7 -1254.61,1889.16 -1258.06,1889.16C-1568.7,1889.12 -1879.34,1889.12 -2189.98,1889.12L-2202.06,1889.12L-1899.58,760.916L-1898.15,760.796C-1897.35,762.446 -1896.29,764.021 -1895.78,765.759C-1880.62,817.635 -1856.58,865.626 -1830.39,912.524C-1820.32,930.555 -1807.7,947.203 -1795.78,964.155C-1766.02,1006.48 -1730.9,1044.02 -1691.74,1077.69C-1663.3,1102.14 -1632.46,1123.41 -1600.77,1143.54C-1566.89,1165.06 -1530.9,1182.01 -1493.74,1196.97C-1453.7,1213.09 -1412.34,1223.95 -1370.01,1231.82C-1335.06,1238.32 -1299.86,1242.04 -1263.77,1243.66C-1140.15,1471.9 -967.538,1654.05 -745.377,1790.88C-748.671,1792.3 -751.069,1793.39 -753.504,1794.38C-811.2,1817.88 -870.754,1835.68 -931.126,1850.57C-965.262,1858.99 -999.874,1865.73 -1034.53,1871.71C-1062.3,1876.5 -1090.45,1879.18 -1118.46,1882.49C-1157.72,1887.12 -1197.19,1888.1 -1236.66,1888.81C-1239.85,1888.87 -1243.03,1889.59 -1246.21,1889.99L-1247.71,1889.99ZM-48.58,1131.57C-57.565,1130.71 -66.274,1130.2 -74.888,1129.01C-119.065,1122.86 -161.929,1111.88 -203.445,1095.29C-236.947,1081.9 -269.205,1066.1 -300.05,1047.57C-328.79,1030.31 -355.662,1010.36 -379.68,986.755C-389.304,977.305 -399.122,968.045 -409.02,958.885C-422.108,946.755 -432.642,932.445 -443.775,918.665C-466.938,889.985 -485.989,858.615 -503.274,826.165C-508.309,816.715 -512.283,806.685 -516.624,796.875C-527.737,771.745 -538.282,746.335 -545.635,719.855C-550.165,703.545 -553.306,686.775 -556.085,670.055C-559.562,649.135 -562.518,628.105 -564.758,607.015C-566.231,593.135 -566.556,579.065 -566.51,565.095C-566.321,508.275 -575.031,452.685 -588.188,397.595C-598.678,353.685 -614.29,311.725 -634.017,271.175C-656.724,224.49 -683.673,180.419 -716.337,140.121C-742.484,107.865 -772.006,78.731 -803.293,51.34C-845.288,14.574 -891.699,-15.338 -941.205,-40.854C-977.522,-59.573 -1015.24,-74.791 -1054.35,-86.177C-1076.82,-92.717 -1100.02,-96.891 -1123.03,-101.377C-1157.9,-108.175 -1193.21,-112.028 -1228.69,-112.896C-1251.62,-113.457 -1274.62,-111.945 -1297.58,-111.058C-1323.6,-110.054 -1349.11,-105 -1374.75,-100.877C-1414.43,-94.495 -1452.13,-81.521 -1489.71,-67.873C-1519.38,-57.097 -1547.39,-42.818 -1575.38,-28.465C-1612.71,-9.319 -1645.56,16.398 -1678.51,42.009C-1707.07,64.205 -1731.78,90.31 -1756,116.926C-1790.46,154.805 -1819.47,196.735 -1844.02,241.505C-1857.31,265.735 -1867.91,291.495 -1878.82,316.945C-1885.2,331.825 -1889.8,347.465 -1895.21,362.745C-1896,364.985 -1896.89,367.185 -1897.74,369.395L-1899.34,369.345C-2000.06,-6.272 -2100.79,-381.886 -2201.67,-758.095C-2199.69,-758.454 -2198.11,-758.929 -2196.51,-758.994C-2193.26,-759.125 -2190.01,-759.034 -2186.76,-759.034L-1260.05,-759.034C-1225.75,-755.57 -1191.19,-757.966 -1156.88,-754.172C-1123.86,-750.521 -1090.71,-748.099 -1057.7,-744.475C-1042.33,-742.789 -1027.1,-739.748 -1011.88,-736.953C-963.721,-728.11 -916.131,-716.554 -869.195,-702.857C-818.386,-688.029 -768.96,-668.978 -720.191,-648.29C-657.972,-621.896 -598.486,-590.35 -541.124,-554.707C-504.581,-532 -469.953,-506.573 -436.031,-480.184C-415.724,-464.386 -395.569,-448.371 -375.819,-431.886C-364.521,-422.456 -354,-412.066 -343.434,-401.794C-324.083,-382.983 -304.317,-364.54 -285.908,-344.838C-264.262,-321.671 -243.905,-297.302 -222.935,-273.501C-196.94,-243.994 -174.964,-211.495 -152.583,-179.291C-120.466,-133.076 -91.382,-84.988 -65.695,-34.957C-52.827,-9.892 -42.26,16.35 -30.528,42.003C-6.799,93.895 10.994,147.996 27.571,202.419C37.081,233.639 43.516,265.815 50.827,297.685C59.83,336.915 64.877,376.785 69.274,416.775C75.045,469.235 78.298,521.845 77.892,574.595C77.667,603.795 75.411,632.985 73.84,662.165C71.972,696.865 67.687,731.335 62.705,765.685C57.941,798.525 52.046,831.185 44.352,863.535C32.498,913.365 19.015,962.735 1.266,1010.75C-10.931,1043.76 -25.177,1076.01 -38.577,1108.56C-41.699,1116.13 -45.107,1123.61 -48.58,1131.57ZM653.5,368.02C607.221,229.345 529.518,113.683 412.769,25.43C296.168,-62.711 164.411,-108.144 18.09,-113.317C-23.078,-187.298 -67.823,-258.813 -120.87,-324.769C-174.05,-390.89 -231.753,-452.742 -295.699,-508.71C-359.28,-564.36 -426.16,-615.474 -500.53,-658.685C-497.25,-660.377 -495.61,-661.39 -493.86,-662.099C-430.75,-687.576 -365.71,-706.998 -299.593,-722.656C-266.344,-730.531 -232.623,-736.649 -198.886,-742.155C-171.8,-746.576 -144.437,-749.73 -117.073,-751.901C-84.718,-754.467 -52.213,-755.096 -19.802,-757.057C45.348,-761 110.551,-758.813 175.723,-758.892C432.656,-759.204 689.59,-759.021 946.523,-759.021L954.917,-759.021C955.576,-758.211 955.754,-758.034 955.88,-757.826C956.002,-757.626 956.195,-757.36 956.146,-757.18C855.276,-382.11 754.389,-7.044 653.5,368.02Z" style="fill:rgb(232,122,12);"/>
        <clipPath id="_clip2">
            <path d="M0,1890C-2.67,1889.61 -5.334,1888.94 -8.011,1888.88C-20.753,1888.58 -33.523,1888.89 -46.237,1888.17C-70.171,1886.81 -94.096,1885.16 -117.98,1883.13C-140.375,1881.22 -162.761,1879.03 -185.062,1876.25C-201.398,1874.22 -217.636,1871.28 -233.843,1868.33C-281.285,1859.71 -328.025,1847.9 -374.395,1834.91C-413.088,1824.07 -450.729,1809.74 -488.131,1794.99C-540.914,1774.17 -592.142,1750.08 -641.918,1722.77C-699.234,1691.33 -753.373,1655.19 -804.852,1615.01C-826.511,1598.1 -848.299,1581.31 -869.172,1563.46C-886.43,1548.7 -902.498,1532.55 -918.972,1516.88C-963.784,1474.28 -1004.55,1427.93 -1043.1,1379.72C-1062.25,1355.76 -1079.02,1329.89 -1096.63,1304.72C-1127.47,1260.65 -1154.74,1214.38 -1179.45,1166.68C-1191.84,1142.77 -1201.83,1117.63 -1213.08,1093.14C-1237.34,1040.38 -1255.72,985.431 -1272.45,930.005C-1282.38,897.088 -1289.35,863.246 -1296.92,829.655C-1306.11,788.928 -1310.96,747.516 -1315.42,706.035C-1320.82,655.791 -1323.31,605.391 -1323.23,554.924C-1323.18,525.484 -1320.95,496.018 -1318.9,466.62C-1317.35,444.46 -1315.04,422.324 -1312.15,400.297C-1308.39,371.593 -1304.55,342.853 -1299.27,314.403C-1286.81,247.283 -1268.89,181.503 -1245.31,117.477C-1231.17,79.088 -1214.16,41.758 -1198.42,3.96C-1197.95,2.829 -1197.28,1.783 -1196.33,0C-1186.79,0.908 -1177.1,1.437 -1167.53,2.808C-1120.86,9.493 -1075.78,21.849 -1032.23,40.102C-990.374,57.645 -950.503,78.704 -913.43,104.859C-894.228,118.405 -876.369,133.66 -859.688,150.279C-850.487,159.445 -840.361,167.725 -831.585,177.263C-820.609,189.191 -810.406,201.85 -800.199,214.461C-777.479,242.533 -758.583,273.175 -742.173,305.209C-732.181,324.716 -724.337,345.329 -715.685,365.513C-702.024,397.38 -694.66,430.938 -688.226,464.87C-680.879,503.611 -678.868,542.719 -678.304,581.929C-677.789,617.796 -673.16,653.112 -666.844,688.297C-660.66,722.749 -652.048,756.642 -640.996,789.8C-634.777,808.458 -626.367,826.407 -618.549,844.505C-601.846,883.166 -580.219,919.142 -556.828,953.998C-542.082,975.973 -525.258,996.458 -507.475,1016.16C-473.353,1053.95 -435.646,1087.81 -394.68,1117.87C-366.881,1138.27 -336.816,1155.23 -306.225,1171.22C-269.13,1190.61 -230.473,1206.2 -190.373,1217.81C-167.657,1224.39 -144.208,1228.57 -120.945,1233.09C-84.836,1240.11 -48.253,1243.62 -11.534,1244.69C8.4,1245.27 28.415,1243.88 48.367,1242.87C61.327,1242.2 74.379,1241.43 87.146,1239.26C116.67,1234.25 146.321,1229.51 175.391,1222.46C196.893,1217.25 217.572,1208.64 238.594,1201.46C275.847,1188.76 310.593,1170.53 345.127,1152.03C359.601,1144.28 373.274,1134.79 386.479,1124.96C409.118,1108.12 431.773,1091.18 453.148,1072.8C469.767,1058.51 484.578,1042.1 499.958,1026.4C528.938,996.813 553.019,963.346 575.73,928.916C597.38,896.096 614.879,861.003 629.484,824.528C636.621,806.704 642.788,788.491 649.4,770.457C650.316,767.959 651.271,765.475 652.206,762.984L653.821,762.99L956.771,1888.28C954.254,1888.62 952.407,1889 950.547,1889.09C948.054,1889.22 945.55,1889.13 943.051,1889.13C632.904,1889.13 322.759,1889.12 12.612,1889.16C8.908,1889.16 5.204,1889.71 1.499,1890L0,1890ZM-1247.71,1889.99C-1251.16,1889.7 -1254.61,1889.16 -1258.06,1889.16C-1568.7,1889.12 -1879.34,1889.12 -2189.98,1889.12L-2202.06,1889.12L-1899.58,760.916L-1898.15,760.796C-1897.35,762.446 -1896.29,764.021 -1895.78,765.759C-1880.62,817.635 -1856.58,865.626 -1830.39,912.524C-1820.32,930.555 -1807.7,947.203 -1795.78,964.155C-1766.02,1006.48 -1730.9,1044.02 -1691.74,1077.69C-1663.3,1102.14 -1632.46,1123.41 -1600.77,1143.54C-1566.89,1165.06 -1530.9,1182.01 -1493.74,1196.97C-1453.7,1213.09 -1412.34,1223.95 -1370.01,1231.82C-1335.06,1238.32 -1299.86,1242.04 -1263.77,1243.66C-1140.15,1471.9 -967.538,1654.05 -745.377,1790.88C-748.671,1792.3 -751.069,1793.39 -753.504,1794.38C-811.2,1817.88 -870.754,1835.68 -931.126,1850.57C-965.262,1858.99 -999.874,1865.73 -1034.53,1871.71C-1062.3,1876.5 -1090.45,1879.18 -1118.46,1882.49C-1157.72,1887.12 -1197.19,1888.1 -1236.66,1888.81C-1239.85,1888.87 -1243.03,1889.59 -1246.21,1889.99L-1247.71,1889.99ZM-48.58,1131.57C-57.565,1130.71 -66.274,1130.2 -74.888,1129.01C-119.065,1122.86 -161.929,1111.88 -203.445,1095.29C-236.947,1081.9 -269.205,1066.1 -300.05,1047.57C-328.79,1030.31 -355.662,1010.36 -379.68,986.755C-389.304,977.305 -399.122,968.045 -409.02,958.885C-422.108,946.755 -432.642,932.445 -443.775,918.665C-466.938,889.985 -485.989,858.615 -503.274,826.165C-508.309,816.715 -512.283,806.685 -516.624,796.875C-527.737,771.745 -538.282,746.335 -545.635,719.855C-550.165,703.545 -553.306,686.775 -556.085,670.055C-559.562,649.135 -562.518,628.105 -564.758,607.015C-566.231,593.135 -566.556,579.065 -566.51,565.095C-566.321,508.275 -575.031,452.685 -588.188,397.595C-598.678,353.685 -614.29,311.725 -634.017,271.175C-656.724,224.49 -683.673,180.419 -716.337,140.121C-742.484,107.865 -772.006,78.731 -803.293,51.34C-845.288,14.574 -891.699,-15.338 -941.205,-40.854C-977.522,-59.573 -1015.24,-74.791 -1054.35,-86.177C-1076.82,-92.717 -1100.02,-96.891 -1123.03,-101.377C-1157.9,-108.175 -1193.21,-112.028 -1228.69,-112.896C-1251.62,-113.457 -1274.62,-111.945 -1297.58,-111.058C-1323.6,-110.054 -1349.11,-105 -1374.75,-100.877C-1414.43,-94.495 -1452.13,-81.521 -1489.71,-67.873C-1519.38,-57.097 -1547.39,-42.818 -1575.38,-28.465C-1612.71,-9.319 -1645.56,16.398 -1678.51,42.009C-1707.07,64.205 -1731.78,90.31 -1756,116.926C-1790.46,154.805 -1819.47,196.735 -1844.02,241.505C-1857.31,265.735 -1867.91,291.495 -1878.82,316.945C-1885.2,331.825 -1889.8,347.465 -1895.21,362.745C-1896,364.985 -1896.89,367.185 -1897.74,369.395L-1899.34,369.345C-2000.06,-6.272 -2100.79,-381.886 -2201.67,-758.095C-2199.69,-758.454 -2198.11,-758.929 -2196.51,-758.994C-2193.26,-759.125 -2190.01,-759.034 -2186.76,-759.034L-1260.05,-759.034C-1225.75,-755.57 -1191.19,-757.966 -1156.88,-754.172C-1123.86,-750.521 -1090.71,-748.099 -1057.7,-744.475C-1042.33,-742.789 -1027.1,-739.748 -1011.88,-736.953C-963.721,-728.11 -916.131,-716.554 -869.195,-702.857C-818.386,-688.029 -768.96,-668.978 -720.191,-648.29C-657.972,-621.896 -598.486,-590.35 -541.124,-554.707C-504.581,-532 -469.953,-506.573 -436.031,-480.184C-415.724,-464.386 -395.569,-448.371 -375.819,-431.886C-364.521,-422.456 -354,-412.066 -343.434,-401.794C-324.083,-382.983 -304.317,-364.54 -285.908,-344.838C-264.262,-321.671 -243.905,-297.302 -222.935,-273.501C-196.94,-243.994 -174.964,-211.495 -152.583,-179.291C-120.466,-133.076 -91.382,-84.988 -65.695,-34.957C-52.827,-9.892 -42.26,16.35 -30.528,42.003C-6.799,93.895 10.994,147.996 27.571,202.419C37.081,233.639 43.516,265.815 50.827,297.685C59.83,336.915 64.877,376.785 69.274,416.775C75.045,469.235 78.298,521.845 77.892,574.595C77.667,603.795 75.411,632.985 73.84,662.165C71.972,696.865 67.687,731.335 62.705,765.685C57.941,798.525 52.046,831.185 44.352,863.535C32.498,913.365 19.015,962.735 1.266,1010.75C-10.931,1043.76 -25.177,1076.01 -38.577,1108.56C-41.699,1116.13 -45.107,1123.61 -48.58,1131.57ZM653.5,368.02C607.221,229.345 529.518,113.683 412.769,25.43C296.168,-62.711 164.411,-108.144 18.09,-113.317C-23.078,-187.298 -67.823,-258.813 -120.87,-324.769C-174.05,-390.89 -231.753,-452.742 -295.699,-508.71C-359.28,-564.36 -426.16,-615.474 -500.53,-658.685C-497.25,-660.377 -495.61,-661.39 -493.86,-662.099C-430.75,-687.576 -365.71,-706.998 -299.593,-722.656C-266.344,-730.531 -232.623,-736.649 -198.886,-742.155C-171.8,-746.576 -144.437,-749.73 -117.073,-751.901C-84.718,-754.467 -52.213,-755.096 -19.802,-757.057C45.348,-761 110.551,-758.813 175.723,-758.892C432.656,-759.204 689.59,-759.021 946.523,-759.021L954.917,-759.021C955.576,-758.211 955.754,-758.034 955.88,-757.826C956.002,-757.626 956.195,-757.36 956.146,-757.18C855.276,-382.11 754.389,-7.044 653.5,368.02Z"/>
        </clipPath>
        <g clip-path="url(#_clip2)">
            <g transform="matrix(2.99542,2.99542,-2.91436,2.91436,-759.482,-2059.62)">
                <ellipse cx="465" cy="434" rx="520" ry="518" style="fill:url(#_Radial3);"/>
            </g>
        </g>
    </g>
    <path d="M512.348,81.92L512.348,430.08C512.348,475.293 475.641,512 430.428,512L81.572,512C36.359,512 -0.348,475.293 -0.348,430.08L-0.348,81.92C-0.348,36.707 36.359,0 81.572,0L430.428,0C475.641,0 512.348,36.707 512.348,81.92ZM489.317,88.24C489.317,52.233 460.084,23 424.077,23L87.923,23C51.916,23 22.683,52.233 22.683,88.24L22.683,423.76C22.683,459.767 51.916,489 87.923,489L424.077,489C460.084,489 489.317,459.767 489.317,423.76L489.317,88.24Z" style="fill:rgb(232,122,12);"/>
    <clipPath id="_clip4">
        <path d="M512.348,81.92L512.348,430.08C512.348,475.293 475.641,512 430.428,512L81.572,512C36.359,512 -0.348,475.293 -0.348,430.08L-0.348,81.92C-0.348,36.707 36.359,0 81.572,0L430.428,0C475.641,0 512.348,36.707 512.348,81.92ZM489.317,88.24C489.317,52.233 460.084,23 424.077,23L87.923,23C51.916,23 22.683,52.233 22.683,88.24L22.683,423.76C22.683,459.767 51.916,489 87.923,489L424.077,489C460.084,489 489.317,459.767 489.317,423.76L489.317,88.24Z"/>
    </clipPath>
    <g clip-path="url(#_clip4)">
        <g transform="matrix(0.4848,0.4848,-0.47168,0.47168,234.277,-170.414)">
            <ellipse cx="465" cy="434" rx="520" ry="518" style="fill:url(#_Radial5);"/>
        </g>
    </g>
    <defs>
        <radialGradient id="_Radial1" cx="0" cy="0" r="1" gradientUnits="userSpaceOnUse" gradientTransform="matrix(545.413,0,0,543.189,-17.0016,259.44)"><stop offset="0" style="stop-color:rgb(37,41,45);stop-opacity:1"/><stop offset="1" style="stop-color:rgb(11,13,14);stop-opacity:1"/></radialGradient>
        <radialGradient id="_Radial3" cx="0" cy="0" r="1" gradientUnits="userSpaceOnUse" gradientTransform="matrix(1040,0,0,1036,-55,434)"><stop offset="0" style="stop-color:rgb(255,187,118);stop-opacity:1"/><stop offset="1" style="stop-color:rgb(231,121,12);stop-opacity:1"/></radialGradient>
        <radialGradient id="_Radial5" cx="0" cy="0" r="1" gradientUnits="userSpaceOnUse" gradientTransform="matrix(1040,0,0,1036,-55,434)"><stop offset="0" style="stop-color:rgb(255,187,118);stop-opacity:1"/><stop offset="1" style="stop-color:rgb(231,121,12);stop-opacity:1"/></radialGradient>
    </defs>
</svg>
