<?xml version="1.0" encoding="UTF-8" standalone="no"?>
<!DOCTYPE svg PUBLIC "-//W3C//DTD SVG 1.1//EN" "http://www.w3.org/Graphics/SVG/1.1/DTD/svg11.dtd">
<svg width="100%" height="100%" viewBox="0 0 840 705" version="1.1" xmlns="http://www.w3.org/2000/svg" xmlns:xlink="http://www.w3.org/1999/xlink" xml:space="preserve" xmlns:serif="http://www.serif.com/" style="fill-rule:evenodd;clip-rule:evenodd;stroke-linejoin:round;stroke-miterlimit:2;">
    <g transform="matrix(0.26573,0,0,0.26573,585.153,201.802)">
        <path d="M0,1890C-2.67,1889.61 -5.334,1888.94 -8.011,1888.88C-20.753,1888.58 -33.523,1888.89 -46.237,1888.17C-70.171,1886.81 -94.096,1885.16 -117.98,1883.13C-140.375,1881.22 -162.761,1879.03 -185.062,1876.25C-201.398,1874.22 -217.636,1871.28 -233.843,1868.33C-281.285,1859.71 -328.025,1847.9 -374.395,1834.91C-413.088,1824.07 -450.729,1809.74 -488.131,1794.99C-540.914,1774.17 -592.142,1750.08 -641.918,1722.77C-699.234,1691.33 -753.373,1655.19 -804.852,1615.01C-826.511,1598.1 -848.299,1581.31 -869.172,1563.46C-886.43,1548.7 -902.498,1532.55 -918.972,1516.88C-963.784,1474.28 -1004.55,1427.93 -1043.1,1379.72C-1062.25,1355.76 -1079.02,1329.89 -1096.63,1304.72C-1127.47,1260.65 -1154.74,1214.38 -1179.45,1166.68C-1191.84,1142.77 -1201.83,1117.63 -1213.08,1093.14C-1237.34,1040.38 -1255.72,985.431 -1272.45,930.005C-1282.38,897.088 -1289.35,863.246 -1296.92,829.655C-1306.11,788.928 -1310.96,747.516 -1315.42,706.035C-1320.82,655.791 -1323.31,605.391 -1323.23,554.924C-1323.18,525.484 -1320.95,496.018 -1318.9,466.62C-1317.35,444.46 -1315.04,422.324 -1312.15,400.297C-1308.39,371.593 -1304.55,342.853 -1299.27,314.403C-1286.81,247.283 -1268.89,181.503 -1245.31,117.477C-1231.17,79.088 -1214.16,41.758 -1198.42,3.96C-1197.95,2.829 -1197.28,1.783 -1196.33,0C-1186.79,0.908 -1177.1,1.437 -1167.53,2.808C-1120.86,9.493 -1075.78,21.849 -1032.23,40.102C-990.374,57.645 -950.503,78.704 -913.43,104.859C-894.228,118.405 -876.369,133.66 -859.688,150.279C-850.487,159.445 -840.361,167.725 -831.585,177.263C-820.609,189.191 -810.406,201.85 -800.199,214.461C-777.479,242.533 -758.583,273.175 -742.173,305.209C-732.181,324.716 -724.337,345.329 -715.685,365.513C-702.024,397.38 -694.66,430.938 -688.226,464.87C-680.879,503.611 -678.868,542.719 -678.304,581.929C-677.789,617.796 -673.16,653.112 -666.844,688.297C-660.66,722.749 -652.048,756.642 -640.996,789.8C-634.777,808.458 -626.367,826.407 -618.549,844.505C-601.846,883.166 -580.219,919.142 -556.828,953.998C-542.082,975.973 -525.258,996.458 -507.475,1016.16C-473.353,1053.95 -435.646,1087.81 -394.68,1117.87C-366.881,1138.27 -336.816,1155.23 -306.225,1171.22C-269.13,1190.61 -230.473,1206.2 -190.373,1217.81C-167.657,1224.39 -144.208,1228.57 -120.945,1233.09C-84.836,1240.11 -48.253,1243.62 -11.534,1244.69C8.4,1245.27 28.415,1243.88 48.367,1242.87C61.327,1242.2 74.379,1241.43 87.146,1239.26C116.67,1234.25 146.321,1229.51 175.391,1222.46C196.893,1217.25 217.572,1208.64 238.594,1201.46C275.847,1188.76 310.593,1170.53 345.127,1152.03C359.601,1144.28 373.274,1134.79 386.479,1124.96C409.118,1108.12 431.773,1091.18 453.148,1072.8C469.767,1058.51 484.578,1042.1 499.958,1026.4C528.938,996.813 553.019,963.346 575.73,928.916C597.38,896.096 614.879,861.003 629.484,824.528C636.621,806.704 642.788,788.491 649.4,770.457C650.316,767.959 651.271,765.475 652.206,762.984L653.821,762.99L956.771,1888.28C954.254,1888.62 952.407,1889 950.547,1889.09C948.054,1889.22 945.55,1889.13 943.051,1889.13C632.904,1889.13 322.759,1889.12 12.612,1889.16C8.908,1889.16 5.204,1889.71 1.499,1890L0,1890ZM-1247.71,1889.99C-1251.16,1889.7 -1254.61,1889.16 -1258.06,1889.16C-1568.7,1889.12 -1879.34,1889.12 -2189.98,1889.12L-2202.06,1889.12L-1899.58,760.916L-1898.15,760.796C-1897.35,762.446 -1896.29,764.021 -1895.78,765.759C-1880.62,817.635 -1856.58,865.626 -1830.39,912.524C-1820.32,930.555 -1807.7,947.203 -1795.78,964.155C-1766.02,1006.48 -1730.9,1044.02 -1691.74,1077.69C-1663.3,1102.14 -1632.46,1123.41 -1600.77,1143.54C-1566.89,1165.06 -1530.9,1182.01 -1493.74,1196.97C-1453.7,1213.09 -1412.34,1223.95 -1370.01,1231.82C-1335.06,1238.32 -1299.86,1242.04 -1263.77,1243.66C-1140.15,1471.9 -967.538,1654.05 -745.377,1790.88C-748.671,1792.3 -751.069,1793.39 -753.504,1794.38C-811.2,1817.88 -870.754,1835.68 -931.126,1850.57C-965.262,1858.99 -999.874,1865.73 -1034.53,1871.71C-1062.3,1876.5 -1090.45,1879.18 -1118.46,1882.49C-1157.72,1887.12 -1197.19,1888.1 -1236.66,1888.81C-1239.85,1888.87 -1243.03,1889.59 -1246.21,1889.99L-1247.71,1889.99ZM-48.58,1131.57C-57.565,1130.71 -66.274,1130.2 -74.888,1129.01C-119.065,1122.86 -161.929,1111.88 -203.445,1095.29C-236.947,1081.9 -269.205,1066.1 -300.05,1047.57C-328.79,1030.31 -355.662,1010.36 -379.68,986.755C-389.304,977.305 -399.122,968.045 -409.02,958.885C-422.108,946.755 -432.642,932.445 -443.775,918.665C-466.938,889.985 -485.989,858.615 -503.274,826.165C-508.309,816.715 -512.283,806.685 -516.624,796.875C-527.737,771.745 -538.282,746.335 -545.635,719.855C-550.165,703.545 -553.306,686.775 -556.085,670.055C-559.562,649.135 -562.518,628.105 -564.758,607.015C-566.231,593.135 -566.556,579.065 -566.51,565.095C-566.321,508.275 -575.031,452.685 -588.188,397.595C-598.678,353.685 -614.29,311.725 -634.017,271.175C-656.724,224.49 -683.673,180.419 -716.337,140.121C-742.484,107.865 -772.006,78.731 -803.293,51.34C-845.288,14.574 -891.699,-15.338 -941.205,-40.854C-977.522,-59.573 -1015.24,-74.791 -1054.35,-86.177C-1076.82,-92.717 -1100.02,-96.891 -1123.03,-101.377C-1157.9,-108.175 -1193.21,-112.028 -1228.69,-112.896C-1251.62,-113.457 -1274.62,-111.945 -1297.58,-111.058C-1323.6,-110.054 -1349.11,-105 -1374.75,-100.877C-1414.43,-94.495 -1452.13,-81.521 -1489.71,-67.873C-1519.38,-57.097 -1547.39,-42.818 -1575.38,-28.465C-1612.71,-9.319 -1645.56,16.398 -1678.51,42.009C-1707.07,64.205 -1731.78,90.31 -1756,116.926C-1790.46,154.805 -1819.47,196.735 -1844.02,241.505C-1857.31,265.735 -1867.91,291.495 -1878.82,316.945C-1885.2,331.825 -1889.8,347.465 -1895.21,362.745C-1896,364.985 -1896.89,367.185 -1897.74,369.395L-1899.34,369.345C-2000.06,-6.272 -2100.79,-381.886 -2201.67,-758.095C-2199.69,-758.454 -2198.11,-758.929 -2196.51,-758.994C-2193.26,-759.125 -2190.01,-759.034 -2186.76,-759.034L-1260.05,-759.034C-1225.75,-755.57 -1191.19,-757.966 -1156.88,-754.172C-1123.86,-750.521 -1090.71,-748.099 -1057.7,-744.475C-1042.33,-742.789 -1027.1,-739.748 -1011.88,-736.953C-963.721,-728.11 -916.131,-716.554 -869.195,-702.857C-818.386,-688.029 -768.96,-668.978 -720.191,-648.29C-657.972,-621.896 -598.486,-590.35 -541.124,-554.707C-504.581,-532 -469.953,-506.573 -436.031,-480.184C-415.724,-464.386 -395.569,-448.371 -375.819,-431.886C-364.521,-422.456 -354,-412.066 -343.434,-401.794C-324.083,-382.983 -304.317,-364.54 -285.908,-344.838C-264.262,-321.671 -243.905,-297.302 -222.935,-273.501C-196.94,-243.994 -174.964,-211.495 -152.583,-179.291C-120.466,-133.076 -91.382,-84.988 -65.695,-34.957C-52.827,-9.892 -42.26,16.35 -30.528,42.003C-6.799,93.895 10.994,147.996 27.571,202.419C37.081,233.639 43.516,265.815 50.827,297.685C59.83,336.915 64.877,376.785 69.274,416.775C75.045,469.235 78.298,521.845 77.892,574.595C77.667,603.795 75.411,632.985 73.84,662.165C71.972,696.865 67.687,731.335 62.705,765.685C57.941,798.525 52.046,831.185 44.352,863.535C32.498,913.365 19.015,962.735 1.266,1010.75C-10.931,1043.76 -25.177,1076.01 -38.577,1108.56C-41.699,1116.13 -45.107,1123.61 -48.58,1131.57ZM653.5,368.02C607.221,229.345 529.518,113.683 412.769,25.43C296.168,-62.711 164.411,-108.144 18.09,-113.317C-23.078,-187.298 -67.823,-258.813 -120.87,-324.769C-174.05,-390.89 -231.753,-452.742 -295.699,-508.71C-359.28,-564.36 -426.16,-615.474 -500.53,-658.685C-497.25,-660.377 -495.61,-661.39 -493.86,-662.099C-430.75,-687.576 -365.71,-706.998 -299.593,-722.656C-266.344,-730.531 -232.623,-736.649 -198.886,-742.155C-171.8,-746.576 -144.437,-749.73 -117.073,-751.901C-84.718,-754.467 -52.213,-755.096 -19.802,-757.057C45.348,-761 110.551,-758.813 175.723,-758.892C432.656,-759.204 689.59,-759.021 946.523,-759.021L954.917,-759.021C955.576,-758.211 955.754,-758.034 955.88,-757.826C956.002,-757.626 956.195,-757.36 956.146,-757.18C855.276,-382.11 754.389,-7.044 653.5,368.02Z" style="fill:white;fill-opacity:0.35;"/>
        <path d="M-1881.02,808.71C-1866.91,844.569 -1849.21,878.829 -1830.39,912.524C-1820.32,930.555 -1807.7,947.203 -1795.78,964.155C-1766.02,1006.48 -1730.9,1044.02 -1691.74,1077.69C-1663.3,1102.14 -1632.46,1123.41 -1600.77,1143.54C-1566.89,1165.06 -1530.9,1182.01 -1493.74,1196.97C-1453.7,1213.09 -1412.34,1223.95 -1370.01,1231.82C-1335.06,1238.32 -1299.86,1242.04 -1263.77,1243.66C-1140.15,1471.9 -967.538,1654.05 -745.377,1790.88C-748.671,1792.3 -751.069,1793.39 -753.504,1794.38C-811.2,1817.88 -870.754,1835.68 -931.126,1850.57C-965.262,1858.99 -999.874,1865.73 -1034.53,1871.71C-1062.3,1876.5 -1090.45,1879.18 -1118.46,1882.49C-1157.72,1887.12 -1197.19,1888.1 -1236.66,1888.81C-1239.85,1888.87 -1243.03,1889.59 -1246.21,1889.99L-1247.71,1889.99C-1251.16,1889.7 -1254.61,1889.16 -1258.06,1889.16C-1568.7,1889.12 -1879.34,1889.12 -2189.98,1889.12L-2202.06,1889.12L-1916.62,824.487L-1899.46,835.241L-1899.35,834.365L-1898.6,835.429L-1896.97,834.179L-1881.02,808.71ZM668.816,818.688L956.771,1888.28C954.254,1888.62 952.407,1889 950.547,1889.09C948.054,1889.22 945.55,1889.13 943.051,1889.13C632.904,1889.13 322.759,1889.12 12.612,1889.16C8.908,1889.16 5.204,1889.71 1.499,1890L0,1890C-2.67,1889.61 -5.334,1888.94 -8.011,1888.88C-20.753,1888.58 -33.523,1888.89 -46.237,1888.17C-70.171,1886.81 -94.096,1885.16 -117.98,1883.13C-140.375,1881.22 -162.761,1879.03 -185.062,1876.25C-201.398,1874.22 -217.636,1871.28 -233.843,1868.33C-281.285,1859.71 -328.025,1847.9 -374.395,1834.91C-413.088,1824.07 -450.729,1809.74 -488.131,1794.99C-540.914,1774.17 -592.142,1750.08 -641.918,1722.77C-699.234,1691.33 -753.373,1655.19 -804.852,1615.01C-826.511,1598.1 -848.299,1581.31 -869.172,1563.46C-886.43,1548.7 -902.498,1532.55 -918.972,1516.88C-963.784,1474.28 -1004.55,1427.93 -1043.1,1379.72C-1062.25,1355.76 -1079.02,1329.89 -1096.63,1304.72C-1127.47,1260.65 -1154.74,1214.38 -1179.45,1166.68C-1191.84,1142.77 -1201.83,1117.63 -1213.08,1093.14C-1237.34,1040.38 -1255.72,985.431 -1272.45,930.005C-1282.38,897.088 -1289.35,863.246 -1296.92,829.655C-1306.11,788.928 -1310.96,747.516 -1315.42,706.035C-1320.82,655.791 -1323.31,605.391 -1323.23,554.924C-1323.18,525.484 -1320.95,496.018 -1318.9,466.62C-1317.35,444.46 -1315.04,422.324 -1312.15,400.297C-1308.39,371.593 -1304.55,342.853 -1299.27,314.403C-1286.81,247.283 -1268.89,181.503 -1245.31,117.477C-1231.17,79.088 -1214.16,41.758 -1198.42,3.96C-1197.95,2.829 -1197.28,1.783 -1196.33,0C-1186.79,0.908 -1177.1,1.437 -1167.53,2.808C-1120.86,9.493 -1075.78,21.849 -1032.23,40.102C-990.374,57.645 -950.503,78.704 -913.43,104.859C-894.228,118.405 -876.369,133.66 -859.688,150.279C-850.487,159.445 -840.361,167.725 -831.585,177.263C-820.609,189.191 -810.406,201.85 -800.199,214.461C-777.479,242.533 -758.583,273.175 -742.173,305.209C-732.181,324.716 -724.337,345.329 -715.685,365.513C-702.024,397.38 -694.66,430.938 -688.226,464.87C-680.879,503.611 -678.868,542.719 -678.304,581.929C-677.789,617.796 -673.16,653.112 -666.844,688.297C-660.66,722.749 -652.048,756.642 -640.996,789.8C-634.777,808.458 -626.367,826.407 -618.549,844.505C-601.846,883.166 -580.219,919.142 -556.828,953.998C-542.082,975.973 -525.258,996.458 -507.475,1016.16C-473.353,1053.95 -435.646,1087.81 -394.68,1117.87C-366.881,1138.27 -336.816,1155.23 -306.225,1171.22C-269.13,1190.61 -230.473,1206.2 -190.373,1217.81C-167.657,1224.39 -144.208,1228.57 -120.945,1233.09C-84.836,1240.11 -48.253,1243.62 -11.534,1244.69C8.4,1245.27 28.415,1243.88 48.367,1242.87C61.327,1242.2 74.379,1241.43 87.146,1239.26C116.67,1234.25 146.321,1229.51 175.391,1222.46C196.893,1217.25 217.572,1208.64 238.594,1201.46C275.847,1188.76 310.593,1170.53 345.127,1152.03C359.601,1144.28 373.274,1134.79 386.479,1124.96C409.118,1108.12 431.773,1091.18 453.148,1072.8C469.767,1058.51 484.578,1042.1 499.958,1026.4C528.938,996.813 553.019,963.346 575.73,928.916C597.38,896.096 614.879,861.003 629.484,824.528C629.988,823.27 630.486,822.011 630.981,820.75L652.209,837.019L652.368,762.985L653.176,762.988L653.811,837.136L655.659,835.856L668.816,818.688ZM-1899.35,834.365C-1901.66,831.051 -1907.07,823.105 -1913.41,812.512L-1899.58,760.916L-1898.15,760.796C-1897.35,762.446 -1896.29,764.021 -1895.78,765.759C-1895.02,768.347 -1894.25,770.925 -1893.45,773.493C-1895.35,801.674 -1898.47,827.442 -1899.35,834.365ZM-1248.34,1814.38C-1244.92,1813.96 -1241.49,1813.62 -1238.08,1813.56L-1238.01,1813.56C-1201.04,1812.89 -1164.06,1812.08 -1127.29,1807.75C-1100.61,1804.59 -1073.78,1802.1 -1047.33,1797.54C-1014.42,1791.86 -981.558,1785.49 -949.15,1777.5C-936.781,1774.44 -924.448,1771.27 -912.161,1767.94C-1074.51,1644.96 -1206.89,1494.42 -1309.58,1315.99C-1334.54,1313.71 -1359.21,1310.38 -1383.77,1305.82C-1431.02,1297.03 -1477.15,1284.78 -1521.85,1266.79C-1563.28,1250.11 -1603.35,1231.07 -1641.12,1207.07C-1675.87,1185 -1709.62,1161.57 -1740.81,1134.76C-1784.7,1097.02 -1823.99,1054.88 -1857.35,1007.45C-1864.68,997.019 -1872.19,986.654 -1879.35,976.085L-2103.96,1813.86C-1821.99,1813.86 -1540.02,1813.86 -1258.06,1813.9C-1254.83,1813.9 -1251.58,1814.11 -1248.34,1814.38ZM1.388,1814.48C5.13,1814.17 8.871,1813.9 12.602,1813.9C294.666,1813.86 576.729,1813.86 858.793,1813.87L633.681,977.701C609.714,1013.54 584.025,1048.13 553.725,1079.07C536.844,1096.3 520.459,1114.18 502.219,1129.87C479.502,1149.4 455.46,1167.45 431.422,1185.33C415.238,1197.38 398.396,1208.88 380.657,1218.38C342.518,1238.81 304.021,1258.67 262.921,1272.68C239.731,1280.61 216.839,1289.86 193.12,1295.61C162.353,1303.07 130.985,1308.16 99.758,1313.46C84.113,1316.12 68.134,1317.21 52.253,1318.03L52.172,1318.04C30.225,1319.15 8.203,1320.56 -13.725,1319.92C-54.53,1318.73 -95.18,1314.77 -135.3,1306.97C-160.778,1302.02 -186.43,1297.31 -211.309,1290.1C-256.229,1277.1 -299.536,1259.64 -341.091,1237.92C-375.053,1220.17 -408.345,1201.2 -439.207,1178.55C-484.293,1145.47 -525.783,1108.19 -563.337,1066.6L-563.346,1066.59C-583.542,1044.21 -602.578,1020.89 -619.325,995.937C-645.278,957.262 -669.109,917.25 -687.642,874.354C-696.315,854.275 -705.499,834.299 -712.398,813.599C-724.594,777.011 -734.1,739.611 -740.924,701.594C-747.965,662.373 -752.987,622.991 -753.561,583.011C-754.062,548.142 -755.639,513.345 -762.173,478.892C-767.587,450.339 -773.366,421.983 -784.861,395.167C-792.837,376.56 -799.949,357.505 -809.16,339.523C-823.201,312.114 -839.263,285.83 -858.702,261.812C-867.908,250.438 -877.071,238.984 -886.97,228.226C-895.01,219.488 -904.379,211.996 -912.808,203.599C-926.474,189.984 -941.085,177.457 -956.817,166.359C-989.413,143.363 -1024.52,124.941 -1061.32,109.516C-1090.08,97.463 -1119.62,88.393 -1149.94,82.209C-1158.59,102.486 -1167.07,122.827 -1174.68,143.489C-1196.79,203.523 -1213.59,265.204 -1225.27,328.138C-1230.31,355.275 -1233.94,382.693 -1237.52,410.073L-1237.53,410.088C-1240.22,430.608 -1242.38,451.228 -1243.82,471.856C-1245.75,499.553 -1247.92,527.311 -1247.97,555.048C-1248.04,602.787 -1245.69,650.463 -1240.59,697.991C-1236.43,736.605 -1232.06,775.176 -1223.5,813.088L-1223.5,813.109C-1216.32,844.953 -1209.81,877.058 -1200.39,908.263C-1184.66,960.377 -1167.51,1012.09 -1144.7,1061.7L-1144.69,1061.72C-1133.93,1085.13 -1124.47,1109.2 -1112.62,1132.05L-1112.62,1132.06C-1089.44,1176.81 -1063.89,1220.23 -1034.96,1261.57L-1034.96,1261.57C-1018.27,1285.43 -1002.46,1310.01 -984.311,1332.73C-947.897,1378.26 -909.444,1422.09 -867.115,1462.33L-867.099,1462.35C-851.587,1477.1 -836.505,1492.36 -820.254,1506.26C-800.232,1523.38 -779.311,1539.46 -758.543,1555.68C-710.254,1593.37 -659.485,1627.29 -605.721,1656.78L-605.715,1656.79C-558.718,1682.57 -510.351,1705.32 -460.515,1724.98C-425.507,1738.78 -390.308,1752.29 -354.092,1762.44C-309.977,1774.79 -265.522,1786.08 -220.388,1794.28L-220.365,1794.28C-205.55,1796.98 -190.713,1799.7 -175.781,1801.56L-175.752,1801.56C-154.424,1804.22 -133.014,1806.31 -111.596,1808.14C-88.42,1810.11 -65.203,1811.71 -41.978,1813.03C-30.12,1813.7 -18.209,1813.36 -6.324,1813.63L1.388,1814.48ZM653.5,368.02C607.221,229.345 529.518,113.683 412.769,25.43C296.168,-62.711 164.411,-108.144 18.09,-113.317C-23.078,-187.298 -67.823,-258.813 -120.87,-324.769C-174.05,-390.89 -231.753,-452.742 -295.699,-508.71C-359.28,-564.36 -426.16,-615.474 -500.53,-658.685C-497.25,-660.377 -495.61,-661.39 -493.86,-662.099C-430.75,-687.576 -365.71,-706.998 -299.593,-722.656C-266.344,-730.531 -232.623,-736.649 -198.886,-742.155C-171.8,-746.576 -144.437,-749.73 -117.073,-751.901C-84.718,-754.467 -52.213,-755.096 -19.802,-757.057C45.348,-761 110.551,-758.813 175.723,-758.892C432.656,-759.204 689.59,-759.021 946.523,-759.021L954.917,-759.021C955.576,-758.211 955.754,-758.034 955.88,-757.826C956.002,-757.626 956.195,-757.36 956.146,-757.18C855.276,-382.11 754.389,-7.044 653.5,368.02ZM-332.913,-636.543C-303.147,-613.838 -274.324,-590.023 -246.129,-565.345C-178.878,-506.485 -118.149,-441.477 -62.221,-371.939C-15.167,-313.434 25.753,-250.821 63.383,-185.962C208.611,-173.503 340.342,-123.667 458.155,-34.61C529.082,19.005 587.099,81.685 633.476,152.709C708.476,-126.114 783.474,-404.937 858.463,-683.763C630.913,-683.792 403.363,-683.904 175.814,-683.628C112.128,-683.55 48.409,-685.783 -15.256,-681.93C-47.198,-679.997 -79.235,-679.401 -111.121,-676.872C-136.42,-674.865 -161.72,-671.961 -186.762,-667.873C-218.748,-662.653 -250.725,-656.884 -282.248,-649.418C-299.216,-645.399 -316.111,-641.123 -332.913,-636.543ZM-48.58,1131.57C-57.565,1130.71 -66.274,1130.2 -74.888,1129.01C-119.065,1122.86 -161.929,1111.88 -203.445,1095.29C-236.947,1081.9 -269.205,1066.1 -300.05,1047.57C-328.79,1030.31 -355.662,1010.36 -379.68,986.755C-389.304,977.305 -399.122,968.045 -409.02,958.885C-422.108,946.755 -432.642,932.445 -443.775,918.665C-466.938,889.985 -485.989,858.615 -503.274,826.165C-508.309,816.715 -512.283,806.685 -516.624,796.875C-527.737,771.745 -538.282,746.335 -545.635,719.855C-550.165,703.545 -553.306,686.775 -556.085,670.055C-559.562,649.135 -562.518,628.105 -564.758,607.015C-566.231,593.135 -566.556,579.065 -566.51,565.095C-566.321,508.275 -575.031,452.685 -588.188,397.595C-598.678,353.685 -614.29,311.725 -634.017,271.175C-656.724,224.49 -683.673,180.419 -716.337,140.121C-742.484,107.865 -772.006,78.731 -803.293,51.34C-845.288,14.574 -891.699,-15.338 -941.205,-40.854C-977.522,-59.573 -1015.24,-74.791 -1054.35,-86.177C-1076.82,-92.717 -1100.02,-96.891 -1123.03,-101.377C-1157.9,-108.175 -1193.21,-112.028 -1228.69,-112.896C-1251.62,-113.457 -1274.62,-111.945 -1297.58,-111.058C-1323.6,-110.054 -1349.11,-105 -1374.75,-100.877C-1414.43,-94.495 -1452.13,-81.521 -1489.71,-67.873C-1519.38,-57.097 -1547.39,-42.818 -1575.38,-28.465C-1612.71,-9.319 -1645.56,16.398 -1678.51,42.009C-1707.07,64.205 -1731.78,90.31 -1756,116.926C-1790.46,154.805 -1819.47,196.735 -1844.02,241.505C-1857.31,265.735 -1867.91,291.495 -1878.82,316.945C-1885.2,331.825 -1889.8,347.465 -1895.21,362.745C-1896,364.985 -1896.89,367.185 -1897.74,369.395L-1899.34,369.345C-2000.06,-6.272 -2100.79,-381.886 -2201.67,-758.095C-2199.69,-758.454 -2198.11,-758.929 -2196.51,-758.994C-2193.26,-759.125 -2190.01,-759.034 -2186.76,-759.034L-1260.05,-759.034C-1225.75,-755.57 -1191.19,-757.966 -1156.88,-754.172C-1123.86,-750.521 -1090.71,-748.099 -1057.7,-744.475C-1042.33,-742.789 -1027.1,-739.748 -1011.88,-736.953C-963.721,-728.11 -916.131,-716.554 -869.195,-702.857C-818.386,-688.029 -768.96,-668.978 -720.191,-648.29C-657.972,-621.896 -598.486,-590.35 -541.124,-554.707C-504.581,-532 -469.953,-506.573 -436.031,-480.184C-415.724,-464.386 -395.569,-448.371 -375.819,-431.886C-364.521,-422.456 -354,-412.066 -343.434,-401.794C-324.083,-382.983 -304.317,-364.54 -285.908,-344.838C-264.262,-321.671 -243.905,-297.302 -222.935,-273.501C-196.94,-243.994 -174.964,-211.495 -152.583,-179.291C-120.466,-133.076 -91.382,-84.988 -65.695,-34.957C-52.827,-9.892 -42.26,16.35 -30.528,42.003C-6.799,93.895 10.994,147.996 27.571,202.419C37.081,233.639 43.516,265.815 50.827,297.685C59.83,336.915 64.877,376.785 69.274,416.775C75.045,469.235 78.298,521.845 77.892,574.595C77.667,603.795 75.411,632.985 73.84,662.165C71.972,696.865 67.687,731.335 62.705,765.685C57.941,798.525 52.046,831.185 44.352,863.535C32.498,913.365 19.015,962.735 1.266,1010.75C-10.931,1043.76 -25.177,1076.01 -38.577,1108.56C-41.699,1116.13 -45.107,1123.61 -48.58,1131.57ZM-1879.2,153.859C-1859.05,123.012 -1836.62,93.704 -1811.67,66.278L-1811.67,66.271C-1784.55,36.466 -1756.68,7.437 -1724.7,-17.418C-1688.05,-45.906 -1651.25,-74.138 -1609.73,-95.435L-1609.72,-95.437C-1578.93,-111.226 -1548.04,-126.762 -1515.4,-138.616C-1473.36,-153.884 -1431.09,-168.047 -1386.7,-175.187C-1358.07,-179.791 -1329.54,-185.145 -1300.49,-186.266C-1275.94,-187.214 -1251.36,-188.737 -1226.85,-188.138C-1187.15,-187.167 -1147.64,-182.857 -1108.63,-175.251C-1083.39,-170.33 -1057.96,-165.616 -1033.31,-158.442C-989.56,-145.704 -947.353,-128.697 -906.723,-107.755C-851.768,-79.43 -800.333,-46.101 -753.716,-5.289C-719.202,24.928 -686.712,57.144 -657.869,92.727C-621.584,137.492 -591.559,186.393 -566.335,238.252C-544.204,283.745 -526.752,330.846 -514.983,380.109C-500.435,441.022 -491.037,502.52 -491.246,565.343C-491.283,576.582 -491.099,587.904 -489.914,599.07C-487.83,618.69 -485.074,638.253 -481.839,657.715C-479.497,671.81 -476.934,685.966 -473.115,699.715C-466.74,722.675 -457.426,744.646 -447.797,766.419C-444.196,774.557 -441.026,782.935 -436.85,790.774L-436.846,790.781C-421.804,819.02 -405.379,846.418 -385.23,871.366C-376.36,882.344 -368.287,894.018 -357.86,903.682C-347.431,913.334 -337.088,923.094 -326.948,933.052L-326.924,933.076C-307.152,952.508 -284.96,968.838 -261.3,983.047L-261.291,983.053C-233.907,999.504 -205.258,1013.51 -175.515,1025.4C-149.407,1035.83 -122.675,1043.67 -95.34,1049.21C-86.338,1027.82 -77.37,1006.42 -69.333,984.664L-69.329,984.654C-52.63,939.477 -40.023,893.003 -28.869,846.118C-21.696,815.956 -16.222,785.5 -11.78,754.881C-7.123,722.771 -3.062,690.555 -1.316,658.119C0.193,630.093 2.414,602.06 2.63,574.015C3.013,524.209 -0.09,474.535 -5.539,425.003C-9.618,387.91 -14.18,350.908 -22.53,314.52L-22.532,314.514C-29.449,284.36 -35.429,253.889 -44.427,224.35C-60.031,173.123 -76.64,122.147 -98.974,73.306C-110.233,48.688 -120.302,23.472 -132.651,-0.582C-156.812,-47.642 -184.178,-92.869 -214.388,-136.338C-235.124,-166.177 -255.324,-196.409 -279.407,-223.746C-299.893,-246.997 -319.757,-270.822 -340.902,-293.454C-358.489,-312.275 -377.41,-329.857 -395.897,-347.827C-405.1,-356.775 -414.207,-365.89 -424.048,-374.104C-443.136,-390.037 -462.619,-405.51 -482.245,-420.779C-514.084,-445.547 -546.548,-469.466 -580.847,-490.779C-634.905,-524.369 -690.948,-554.128 -749.584,-579.002C-795.642,-598.54 -842.295,-616.603 -890.28,-630.606C-934.753,-643.585 -979.842,-654.548 -1025.47,-662.926C-1038.91,-665.394 -1052.34,-668.171 -1065.91,-669.659L-1065.91,-669.66C-1098.94,-673.286 -1132.11,-675.71 -1165.15,-679.364C-1197.89,-682.983 -1230.85,-680.891 -1263.58,-683.77L-2103.82,-683.77L-1879.2,153.859Z" style="fill:rgb(199,203,207);"/>
    </g>
</svg>
