<?xml version="1.0" encoding="UTF-8" standalone="no"?><!DOCTYPE svg PUBLIC "-//W3C//DTD SVG 1.1//EN" "http://www.w3.org/Graphics/SVG/1.1/DTD/svg11.dtd"><svg width="100%" height="100%" viewBox="0 0 529 529" version="1.1" xmlns="http://www.w3.org/2000/svg" xmlns:xlink="http://www.w3.org/1999/xlink" xml:space="preserve" xmlns:serif="http://www.serif.com/" style="fill-rule:evenodd;clip-rule:evenodd;stroke-linejoin:round;stroke-miterlimit:2;"><path d="M260.45,78.236c1.074,-0.035 2.144,-0.058 3.214,-0.07c35.783,-0.362 69.81,12.024 98.197,33.517c3.746,2.885 7.342,5.955 10.777,9.199c2.386,2.258 8.522,8.44 11.29,9.758c5.629,2.683 12.299,4.483 18.242,7.123c18.503,8.013 35.34,19.423 49.637,33.639c30.721,30.619 48.064,72.159 48.239,115.533c0.118,43.794 -17.254,85.823 -48.26,116.75c-10.98,10.915 -23.5,20.162 -37.163,27.446c-21.107,11.35 -44.44,17.953 -68.361,19.341c-9.328,0.542 -20.429,0.275 -29.875,0.275l-47.65,-0.018l-63.804,0.003c-11.71,0.007 -25.948,0.425 -37.401,-0.421c-33.483,-2.465 -63.28,-14.593 -88.447,-36.87c-29.85,-26.483 -47.832,-63.827 -49.923,-103.676c-2.67,-50.41 20.381,-98.739 61.235,-128.388c4.966,-3.676 10.204,-6.971 15.668,-9.855c8.234,-4.243 15.178,-5.204 19.983,-13.864c5.376,-9.692 12.128,-18.646 19.496,-26.905c24.787,-27.572 58.477,-45.555 95.18,-50.803c6.645,-1.002 13.017,-1.329 19.726,-1.714Zm-4.188,85.615c-40.022,5.214 -65.571,35.423 -67.83,75.085c-23.374,0.229 -38.821,1.346 -56.813,19.154c-11.975,11.851 -18.241,27.91 -18.019,44.84c0.098,16.923 7.089,33.071 19.36,44.722c7.925,7.719 17.783,13.159 28.537,15.752c11.86,2.861 33.985,2.023 46.942,2.019l63.216,-0.003l42.841,0.018c22.103,-0 38.116,1.505 58.577,-9.111c6.856,-3.528 13.134,-8.083 18.613,-13.505c14.69,-14.572 22.994,-34.384 23.084,-55.074c-0.011,-21.104 -8.558,-41.305 -23.697,-56.007c-16.349,-16.065 -35.201,-21.752 -57.589,-21.908c-9.995,-20.389 -23.639,-34.553 -45.563,-42.336c-11.04,-3.92 -20.097,-4.358 -31.659,-3.646Z" style="fill:#402074;"/></svg>