<?xml version="1.0" encoding="UTF-8" standalone="no"?>
<!DOCTYPE svg PUBLIC "-//W3C//DTD SVG 1.1//EN" "http://www.w3.org/Graphics/SVG/1.1/DTD/svg11.dtd">
<svg width="100%" height="100%" viewBox="0 0 512 512" version="1.1" xmlns="http://www.w3.org/2000/svg" xmlns:xlink="http://www.w3.org/1999/xlink" xml:space="preserve" xmlns:serif="http://www.serif.com/" style="fill-rule:evenodd;clip-rule:evenodd;stroke-linejoin:round;stroke-miterlimit:2;">
    <g transform="matrix(-0.442078,0,0,0.442179,564.704,-174.107)">
        <path d="M1055.2,1341.02C1054.75,1342.53 1055.06,1341.69 1054.3,1343.24C1032.89,1386.7 994.908,1423.41 948.274,1438.76C903.067,1453.66 853.795,1450.02 811.268,1428.64C771.8,1409.07 741.881,1374.43 728.268,1332.53C702.292,1252.41 753.066,1167.4 831.468,1142.12C841.056,1170.99 851.983,1195.8 864.148,1223.6C847.29,1229.86 831.218,1238.64 820.609,1253.61C811.166,1266.93 807.487,1283.49 810.404,1299.56C817.892,1340.99 870.241,1366.52 909.08,1359.39C940.476,1353.63 957.849,1331.84 974.303,1307.16C979.484,1297.99 982.119,1292.09 985.119,1282.2C992.928,1283.52 1003.67,1288.81 1011.99,1290.66C1031,1294.89 1051.44,1296.6 1070.82,1297.08C1066.78,1311.88 1062.21,1327.28 1055.2,1341.02Z" style="fill:rgb(199,203,207);fill-rule:nonzero;"/>
        <g transform="matrix(-1.09699,2.47482,-5.56169,-1.55307,3821.69,950.736)">
            <path d="M439.713,437.334C439.606,437.231 439.495,437.129 439.382,437.028C434.158,432.414 424.579,431.179 414.053,430.297C410.236,430.118 407.85,430.115 403.992,430.337C403.683,428.994 404.506,426.9 404.336,425.437C403.948,422.096 402.511,418.704 400.738,415.569C406.465,415.166 412.461,414.805 418.105,414.952C418.693,414.917 418.36,414.927 418.994,414.939C432.954,415.209 446.444,417.409 456.533,421.428C459.684,425.941 452.211,435.151 439.713,437.334Z" style="fill:url(#_Radial1);"/>
        </g>
    </g>
    <g transform="matrix(0.822388,0,0,0.822388,-1.84201e-14,45.0145)">
        <g transform="matrix(-1,0,0,1,298.865,0.428696)">
            <g transform="matrix(0.537554,0,0,0.537677,-387.799,-266.874)">
                <path d="M1218.41,903.173C1229.96,918.362 1240.1,934.577 1248.69,951.614C1256.08,964.676 1260.13,977.198 1264.59,991.394C1279.29,1038.13 1282.09,1087.89 1268.98,1135.39C1253.39,1191.87 1216.73,1240.83 1165.43,1269.64C1138.46,1284.78 1102.13,1297.59 1070.82,1297.08C1051.44,1296.6 1031,1294.89 1011.99,1290.66C1003.67,1288.81 992.928,1283.52 985.119,1282.2C984.747,1282.1 984.376,1282 984.004,1281.9C857.886,1233.26 810.378,1061.19 921.65,970.424C932.688,961.421 940.788,956.762 952.416,950.42C965.498,973.763 981.053,1005.46 986.732,1031.65C931.047,1064.49 935.746,1131.7 978.428,1173.58C1065.75,1259.27 1200.05,1177.94 1188.53,1064.53C1188.02,1059.49 1187.21,1052.85 1187.15,1047.86L1187.15,1047.22C1183.27,1026.86 1177.34,1006.94 1169.45,987.765C1193.68,965.304 1209.8,934.768 1218.41,903.173Z" style="fill:rgb(199,203,207);fill-rule:nonzero;"/>
                <g transform="matrix(0.951449,5.70174,-7.3526,4.50301,3941.89,-3287.32)">
                    <path d="M434.458,432.55C432.121,430.756 428.676,429.577 424.156,429.362C423.305,429.321 422.169,429.284 421.369,429.189L421.267,429.176C417.65,429.235 413.902,429.557 410.082,430.135C406.934,427.497 403.766,424.829 401.393,422.352C404.935,421.24 408.503,420.322 412.052,419.613C414.85,418.97 417.237,418.728 419.931,418.47C428.8,417.619 436.991,418.298 443.272,420.894C445.618,421.863 447.643,423.074 449.304,424.493C446.02,428.551 441.171,432.218 434.458,432.55Z" style="fill:url(#_Radial2);"/>
                </g>
            </g>
            <g transform="matrix(0.537554,0,0,0.537677,-387.799,-266.874)">
                <path d="M811.589,648.236C809.216,661.906 808.554,674.505 816.943,686.609C824.218,697.285 835.496,704.57 848.22,706.811C875.032,711.268 867.242,662.652 886.071,647.65C907.929,615.557 946.647,650.065 955.949,677.028C973.214,743.308 904.63,801.818 842.028,793.935C828.762,792.264 821.335,790.335 809.02,785.897L808.908,993.328C808.934,1022.57 807.12,1060.38 809.059,1088.41C765.901,1099.62 744.236,1120.69 722.067,1157.7L722.323,848.805L722.329,719.75C722.518,681.748 719.502,629.387 740.552,595.672C755.481,559.872 793.967,526.771 828.804,511.494C932.818,465.883 1063.02,528.208 1102.72,632.463C1122.53,684.503 1124.73,747.022 1102.61,799.242C1080.81,850.992 1039.2,891.865 987.077,912.743C959.566,923.857 931.129,927.901 901.599,928.889C901.953,900.078 902.083,871.265 901.989,842.452C940.301,839.415 978.693,827.641 1003.72,796.415C1047.73,741.518 1040.71,658.451 985.453,613.39C928.134,566.649 840.913,572.038 811.589,648.236Z" style="fill:rgb(199,203,207);"/>
            </g>
            <g transform="matrix(0.537554,0,0,0.537677,-387.799,-266.874)">
                <path d="M1170.31,741.948C1171.77,743.133 1173.19,744.365 1174.57,745.642C1208.36,776.454 1223.24,824.478 1222.11,869.318C1221.86,879.082 1217.72,894.692 1218.41,903.173C1209.8,934.768 1193.68,965.304 1169.45,987.765C1163.83,991.915 1158.08,998.967 1152.51,1003.54C1111.1,1037.51 1079.35,1070.35 1130.31,1116.27C1128.93,1118 1127.5,1119.68 1126.02,1121.31C1107.04,1141.95 1068.08,1167.95 1043.51,1141.08C996.029,1089.16 1018.9,1005.73 1067.06,962.769C1107.09,927.062 1137.03,906.709 1135.82,847.236C1161.64,811.748 1166.43,784.392 1170.31,741.948Z" style="fill:rgb(199,203,207);fill-rule:nonzero;"/>
            </g>
        </g>
        <g transform="matrix(1,0,0,1,324.135,0.428696)">
            <g transform="matrix(0.537554,0,0,0.537677,-387.799,-266.874)">
                <path d="M1218.41,903.173C1229.96,918.362 1240.1,934.577 1248.69,951.614C1256.08,964.676 1260.13,977.198 1264.59,991.394C1279.29,1038.13 1282.09,1087.89 1268.98,1135.39C1253.39,1191.87 1216.73,1240.83 1165.43,1269.64C1138.46,1284.78 1102.13,1297.59 1070.82,1297.08C1051.44,1296.6 1031,1294.89 1011.99,1290.66C1003.67,1288.81 992.928,1283.52 985.119,1282.2C984.747,1282.1 984.376,1282 984.004,1281.9C857.886,1233.26 810.378,1061.19 921.65,970.424C932.688,961.421 940.788,956.762 952.416,950.42C965.498,973.763 981.053,1005.46 986.732,1031.65C931.047,1064.49 935.746,1131.7 978.428,1173.58C1065.75,1259.27 1200.05,1177.94 1188.53,1064.53C1188.02,1059.49 1187.21,1052.85 1187.15,1047.86L1187.15,1047.22C1183.27,1026.86 1177.34,1006.94 1169.45,987.765C1193.68,965.304 1209.8,934.768 1218.41,903.173Z" style="fill:rgb(116,123,132);fill-rule:nonzero;"/>
                <g>
                    <clipPath id="_clip3">
                        <path d="M1218.41,903.173C1229.96,918.362 1240.1,934.577 1248.69,951.614C1256.08,964.676 1260.13,977.198 1264.59,991.394C1279.29,1038.13 1282.09,1087.89 1268.98,1135.39C1253.39,1191.87 1216.73,1240.83 1165.43,1269.64C1138.46,1284.78 1102.13,1297.59 1070.82,1297.08C1051.44,1296.6 1031,1294.89 1011.99,1290.66C1003.67,1288.81 992.928,1283.52 985.119,1282.2C984.747,1282.1 984.376,1282 984.004,1281.9C857.886,1233.26 810.378,1061.19 921.65,970.424C932.688,961.421 940.788,956.762 952.416,950.42C965.498,973.763 981.053,1005.46 986.732,1031.65C931.047,1064.49 935.746,1131.7 978.428,1173.58C1065.75,1259.27 1200.05,1177.94 1188.53,1064.53C1188.02,1059.49 1187.21,1052.85 1187.15,1047.86L1187.15,1047.22C1183.27,1026.86 1177.34,1006.94 1169.45,987.765C1193.68,965.304 1209.8,934.768 1218.41,903.173Z"/>
                    </clipPath>
                    <g clip-path="url(#_clip3)">
                        <g transform="matrix(4.78428,12.2097,-13.8345,7.46587,4952.73,-7138.3)">
                            <path d="M431.33,414.829L430.114,437.625L398,438.277L398,409L414.164,409L431.33,414.829Z" style="fill:url(#_Radial4);"/>
                        </g>
                        <g transform="matrix(1.16381,1.51075,-2.89971,4.94562,1952.74,-1744.55)">
                            <rect x="398" y="409" width="34" height="29.277" style="fill:url(#_Linear5);"/>
                        </g>
                    </g>
                </g>
            </g>
            <g transform="matrix(0.537554,0,0,0.537677,-387.799,-266.874)">
                <path d="M811.589,648.236C809.216,661.906 808.554,674.505 816.943,686.609C824.218,697.285 835.496,704.57 848.22,706.811C875.032,711.268 867.242,662.652 886.071,647.65C907.929,615.557 946.647,650.065 955.949,677.028C973.214,743.308 904.63,801.818 842.028,793.935C828.762,792.264 821.335,790.335 809.02,785.897L808.908,993.328C808.934,1022.57 807.12,1060.38 809.059,1088.41C765.901,1099.62 744.236,1120.69 722.067,1157.7L722.323,848.805L722.329,719.75C722.518,681.748 719.502,629.387 740.552,595.672C755.481,559.872 793.967,526.771 828.804,511.494C932.818,465.883 1063.02,528.208 1102.72,632.463C1122.53,684.503 1124.73,747.022 1102.61,799.242C1080.81,850.992 1039.2,891.865 987.077,912.743C959.566,923.857 931.129,927.901 901.599,928.889C901.953,900.078 902.083,871.265 901.989,842.452C940.301,839.415 978.693,827.641 1003.72,796.415C1047.73,741.518 1040.71,658.451 985.453,613.39C928.134,566.649 840.913,572.038 811.589,648.236Z" style="fill:url(#_Linear6);"/>
            </g>
            <g transform="matrix(0.537554,0,0,0.537677,-387.799,-266.874)">
                <path d="M1055.2,1341.02C1054.75,1342.53 1055.06,1341.69 1054.3,1343.24C1032.89,1386.7 994.908,1423.41 948.274,1438.76C903.067,1453.66 853.795,1450.02 811.268,1428.64C771.8,1409.07 741.881,1374.43 728.268,1332.53C702.292,1252.41 753.066,1167.4 831.468,1142.12C841.056,1170.99 851.983,1195.8 864.148,1223.6C847.29,1229.86 831.218,1238.64 820.609,1253.61C811.166,1266.93 807.487,1283.49 810.404,1299.56C817.892,1340.99 870.241,1366.52 909.08,1359.39C940.476,1353.63 957.849,1331.84 974.303,1307.16C979.484,1297.99 982.119,1292.09 985.119,1282.2C992.928,1283.52 1003.67,1288.81 1011.99,1290.66C1031,1294.89 1051.44,1296.6 1070.82,1297.08C1066.78,1311.88 1062.21,1327.28 1055.2,1341.02Z" style="fill:rgb(25,171,249);fill-rule:nonzero;"/>
                <g>
                    <clipPath id="_clip7">
                        <path d="M1055.2,1341.02C1054.75,1342.53 1055.06,1341.69 1054.3,1343.24C1032.89,1386.7 994.908,1423.41 948.274,1438.76C903.067,1453.66 853.795,1450.02 811.268,1428.64C771.8,1409.07 741.881,1374.43 728.268,1332.53C702.292,1252.41 753.066,1167.4 831.468,1142.12C841.056,1170.99 851.983,1195.8 864.148,1223.6C847.29,1229.86 831.218,1238.64 820.609,1253.61C811.166,1266.93 807.487,1283.49 810.404,1299.56C817.892,1340.99 870.241,1366.52 909.08,1359.39C940.476,1353.63 957.849,1331.84 974.303,1307.16C979.484,1297.99 982.119,1292.09 985.119,1282.2C992.928,1283.52 1003.67,1288.81 1011.99,1290.66C1031,1294.89 1051.44,1296.6 1070.82,1297.08C1066.78,1311.88 1062.21,1327.28 1055.2,1341.02Z"/>
                    </clipPath>
                    <g clip-path="url(#_clip7)">
                        <g transform="matrix(0.325416,1.21419,-1.21447,0.325341,1129.71,947.166)">
                            <ellipse cx="221" cy="259.324" rx="145" ry="145.324" style="fill:url(#_Radial8);"/>
                        </g>
                        <g transform="matrix(-0.725892,2.09085,-6.15238,-1.1785,3923.27,951.907)">
                            <path d="M432,409C449.602,419.852 451.189,429.71 432,438.277L398,438.277L398,409L432,409Z" style="fill:url(#_Radial9);"/>
                        </g>
                    </g>
                </g>
            </g>
            <g transform="matrix(0.537554,0,0,0.537677,-387.799,-266.874)">
                <path d="M1170.31,741.948C1171.77,743.133 1173.19,744.365 1174.57,745.642C1208.36,776.454 1223.24,824.478 1222.11,869.318C1221.86,879.082 1217.72,894.692 1218.41,903.173C1209.8,934.768 1193.68,965.304 1169.45,987.765C1163.83,991.915 1158.08,998.967 1152.51,1003.54C1111.1,1037.51 1079.35,1070.35 1130.31,1116.27C1128.93,1118 1127.5,1119.68 1126.02,1121.31C1107.04,1141.95 1068.08,1167.95 1043.51,1141.08C996.029,1089.16 1018.9,1005.73 1067.06,962.769C1107.09,927.062 1137.03,906.709 1135.82,847.236C1161.64,811.748 1166.43,784.392 1170.31,741.948Z" style="fill:rgb(25,171,249);fill-rule:nonzero;"/>
                <g>
                    <clipPath id="_clip10">
                        <path d="M1170.31,741.948C1171.77,743.133 1173.19,744.365 1174.57,745.642C1208.36,776.454 1223.24,824.478 1222.11,869.318C1221.86,879.082 1217.72,894.692 1218.41,903.173C1209.8,934.768 1193.68,965.304 1169.45,987.765C1163.83,991.915 1158.08,998.967 1152.51,1003.54C1111.1,1037.51 1079.35,1070.35 1130.31,1116.27C1128.93,1118 1127.5,1119.68 1126.02,1121.31C1107.04,1141.95 1068.08,1167.95 1043.51,1141.08C996.029,1089.16 1018.9,1005.73 1067.06,962.769C1107.09,927.062 1137.03,906.709 1135.82,847.236C1161.64,811.748 1166.43,784.392 1170.31,741.948Z"/>
                    </clipPath>
                    <g clip-path="url(#_clip10)">
                        <g transform="matrix(-0.397334,1.48253,-1.48287,-0.397243,1582.15,718.108)">
                            <ellipse cx="221" cy="259.324" rx="145" ry="145.324" style="fill:url(#_Radial11);"/>
                        </g>
                    </g>
                </g>
            </g>
        </g>
    </g>
    <defs>
        <radialGradient id="_Radial1" cx="0" cy="0" r="1" gradientUnits="userSpaceOnUse" gradientTransform="matrix(34,0,0,29.2772,398,423.639)"><stop offset="0" style="stop-color:rgb(153,153,153);stop-opacity:1"/><stop offset="0.56" style="stop-color:rgb(185,188,191);stop-opacity:1"/><stop offset="1" style="stop-color:rgb(199,203,207);stop-opacity:1"/></radialGradient>
        <radialGradient id="_Radial2" cx="0" cy="0" r="1" gradientUnits="userSpaceOnUse" gradientTransform="matrix(34,0,0,29.2772,398,423.639)"><stop offset="0" style="stop-color:rgb(153,153,153);stop-opacity:1"/><stop offset="1" style="stop-color:rgb(199,203,207);stop-opacity:1"/></radialGradient>
        <radialGradient id="_Radial4" cx="0" cy="0" r="1" gradientUnits="userSpaceOnUse" gradientTransform="matrix(34,0,0,29.2772,398,423.639)"><stop offset="0" style="stop-color:rgb(248,145,254);stop-opacity:1"/><stop offset="0.56" style="stop-color:rgb(158,43,219);stop-opacity:1"/><stop offset="1" style="stop-color:rgb(120,0,204);stop-opacity:1"/></radialGradient>
        <linearGradient id="_Linear5" x1="0" y1="0" x2="1" y2="-0.0114825" gradientUnits="userSpaceOnUse" gradientTransform="matrix(34,-4.24013,4.24013,34,398,423.639)"><stop offset="0" style="stop-color:rgb(45,0,77);stop-opacity:1"/><stop offset="1" style="stop-color:rgb(149,32,215);stop-opacity:0"/></linearGradient>
        <linearGradient id="_Linear6" x1="0" y1="0" x2="1" y2="0.000170989" gradientUnits="userSpaceOnUse" gradientTransform="matrix(166.962,-371.914,371.914,166.962,832.744,894.026)"><stop offset="0" style="stop-color:rgb(120,0,204);stop-opacity:1"/><stop offset="1" style="stop-color:rgb(255,153,255);stop-opacity:1"/></linearGradient>
        <radialGradient id="_Radial8" cx="0" cy="0" r="1" gradientUnits="userSpaceOnUse" gradientTransform="matrix(290,0,0,290.648,76,259.324)"><stop offset="0" style="stop-color:rgb(102,202,255);stop-opacity:1"/><stop offset="0.44" style="stop-color:rgb(71,167,255);stop-opacity:1"/><stop offset="1" style="stop-color:rgb(0,85,255);stop-opacity:1"/></radialGradient>
        <radialGradient id="_Radial9" cx="0" cy="0" r="1" gradientUnits="userSpaceOnUse" gradientTransform="matrix(34,0,0,29.2772,398,423.639)"><stop offset="0" style="stop-color:rgb(0,46,102);stop-opacity:1"/><stop offset="1" style="stop-color:rgb(25,171,249);stop-opacity:0"/></radialGradient>
        <radialGradient id="_Radial11" cx="0" cy="0" r="1" gradientUnits="userSpaceOnUse" gradientTransform="matrix(290,0,0,290.648,76,259.324)"><stop offset="0" style="stop-color:rgb(102,202,255);stop-opacity:1"/><stop offset="0.44" style="stop-color:rgb(71,167,255);stop-opacity:1"/><stop offset="1" style="stop-color:rgb(0,85,255);stop-opacity:1"/></radialGradient>
    </defs>
</svg>
