<?xml version="1.0" encoding="UTF-8" standalone="no"?>
<!DOCTYPE svg PUBLIC "-//W3C//DTD SVG 1.1//EN" "http://www.w3.org/Graphics/SVG/1.1/DTD/svg11.dtd">
<svg width="100%" height="100%" viewBox="0 0 3392 4167" version="1.1" xmlns="http://www.w3.org/2000/svg" xmlns:xlink="http://www.w3.org/1999/xlink" xml:space="preserve" xmlns:serif="http://www.serif.com/" style="fill-rule:evenodd;clip-rule:evenodd;stroke-linejoin:round;stroke-miterlimit:2;">
    <path d="M3283.75,1420.42C3002.92,1017.92 2576.25,1007.09 2457.5,1007.09C2144.17,1007.09 1887.5,1198.75 1722.92,1198.75C1550,1198.75 1320.42,1017.92 1045,1017.92C526.667,1017.92 0,1447.5 0,2257.5C0,2762.5 194.583,3294.58 435.417,3637.08C643.333,3928.75 824.167,4166.25 1083.33,4166.25C1342.5,4166.25 1455.83,3996.25 1774.58,3996.25C2101.67,3996.25 2174.58,4160.83 2457.92,4160.83C2741.25,4160.83 2927.5,3904.58 3105.83,3647.91C3305.83,3356.25 3389.58,3070 3392.08,3056.66C3375.83,3051.25 2832.92,2832.5 2832.92,2214.16C2832.92,1679.58 3259.58,1439.16 3283.75,1420.41L3283.75,1420.42ZM2308.75,664.17C2438.33,510.42 2530,297.086 2530,83.753C2530,54.17 2527.5,24.17 2522.08,0.003C2311.25,7.92 2060.42,140.42 1909.17,315.836C1790.42,450.836 1679.58,664.17 1679.58,880.42C1679.58,912.92 1685,945.42 1687.5,955.836C1700.83,958.336 1722.5,961.253 1744.17,961.253C1933.33,961.253 2171.25,834.586 2308.75,664.17Z" style="fill:url(#_Radial1);"/>
    <defs>
        <radialGradient id="_Radial1" cx="0" cy="0" r="1" gradientUnits="userSpaceOnUse" gradientTransform="matrix(3587.65,-4243.67,3145.3,2659.07,-132.113,4583.57)"><stop offset="0" style="stop-color:rgb(167,167,167);stop-opacity:1"/><stop offset="1" style="stop-color:white;stop-opacity:1"/></radialGradient>
    </defs>
</svg>
