<?xml version="1.0" encoding="UTF-8" standalone="no"?>
<!DOCTYPE svg PUBLIC "-//W3C//DTD SVG 1.1//EN" "http://www.w3.org/Graphics/SVG/1.1/DTD/svg11.dtd">
<svg width="100%" height="100%" viewBox="0 0 14063 9896" version="1.1" xmlns="http://www.w3.org/2000/svg" xmlns:xlink="http://www.w3.org/1999/xlink" xml:space="preserve" xmlns:serif="http://www.serif.com/" style="fill-rule:evenodd;clip-rule:evenodd;stroke-linejoin:round;stroke-miterlimit:2;">
    <g transform="matrix(4.16667,0,0,4.16667,0,0)">
        <g transform="matrix(4.16667,0,0,4.16667,0,0)">
            <g transform="matrix(0.0460763,0,0,0.0460763,5,6)">
                <path d="M-108.516,10157.1L-108.516,1953.28C-108.516,803.371 825.069,-130.219 1974.98,-130.219L15387.5,-130.219C16537.4,-130.219 17471,803.366 17471,1953.28L17471,10157.1C17471,11307 16537.4,12240.6 15387.5,12240.6L1974.98,12240.6C825.074,12240.6 -108.516,11307 -108.516,10157.1Z" style="fill:white;"/>
            </g>
            <g transform="matrix(0.0460763,0,0,0.0460763,5,6)">
                <path d="M-108.516,10157.1L-108.516,1953.28C-108.516,803.371 825.069,-130.219 1974.98,-130.219L15387.5,-130.219C16537.4,-130.219 17471,803.366 17471,1953.28L17471,10157.1C17471,11307 16537.4,12240.6 15387.5,12240.6L1974.98,12240.6C825.074,12240.6 -108.516,11307 -108.516,10157.1ZM108.516,10157.1C108.516,11187.2 944.857,12023.5 1974.98,12023.5L15387.5,12023.5C16417.6,12023.5 17254,11187.2 17254,10157.1L17254,1953.28C17254,923.149 16417.6,86.812 15387.5,86.812L1974.98,86.812C944.852,86.812 108.516,923.154 108.516,1953.28L108.516,10157.1Z" style="fill:rgb(230,230,230);"/>
            </g>
            <g transform="matrix(16.1282,0,0,16.1282,-62.6826,-38.5785)">
                <path d="M17.577,14.927C17.155,15.431 16.48,15.829 15.805,15.773C15.721,15.09 16.051,14.365 16.438,13.917C16.86,13.398 17.598,13.028 18.196,13C18.266,13.711 17.992,14.408 17.577,14.927ZM18.189,15.908C17.594,15.873 17.052,16.088 16.613,16.262C16.331,16.374 16.092,16.469 15.911,16.469C15.707,16.469 15.458,16.369 15.179,16.257C14.813,16.11 14.395,15.942 13.956,15.95C12.951,15.964 12.015,16.54 11.502,17.457C10.447,19.292 11.228,22.007 12.247,23.5C12.747,24.239 13.344,25.05 14.132,25.021C14.478,25.008 14.727,24.901 14.985,24.791C15.282,24.663 15.591,24.531 16.072,24.531C16.537,24.531 16.832,24.66 17.116,24.783C17.385,24.901 17.643,25.014 18.027,25.007C18.843,24.993 19.356,24.268 19.855,23.528C20.394,22.735 20.631,21.961 20.667,21.843L20.671,21.829C20.67,21.828 20.663,21.825 20.652,21.82C20.472,21.737 19.095,21.1 19.082,19.391C19.069,17.957 20.174,17.23 20.348,17.116C20.358,17.109 20.365,17.104 20.369,17.102C19.665,16.05 18.569,15.936 18.189,15.908ZM23.835,24.929L23.835,13.846L27.948,13.846C30.072,13.846 31.555,15.325 31.555,17.486C31.555,19.647 30.044,21.14 27.892,21.14L25.537,21.14L25.537,24.929L23.835,24.929ZM25.537,15.296L27.498,15.296C28.975,15.296 29.819,16.092 29.819,17.493C29.819,18.893 28.975,19.697 27.491,19.697L25.537,19.697L25.537,15.296ZM37.173,23.6C36.723,24.467 35.732,25.014 34.663,25.014C33.081,25.014 31.977,24.062 31.977,22.626C31.977,21.204 33.046,20.386 35.022,20.265L37.145,20.137L37.145,19.526C37.145,18.623 36.562,18.133 35.521,18.133C34.663,18.133 34.037,18.581 33.911,19.263L32.378,19.263C32.427,17.827 33.763,16.782 35.57,16.782C37.518,16.782 38.783,17.813 38.783,19.412L38.783,24.929L37.208,24.929L37.208,23.6L37.173,23.6ZM35.12,23.699C34.213,23.699 33.637,23.258 33.637,22.583C33.637,21.886 34.192,21.481 35.254,21.417L37.145,21.296L37.145,21.922C37.145,22.96 36.273,23.699 35.12,23.699ZM44.008,25.363C43.326,27.303 42.545,27.943 40.886,27.943C40.759,27.943 40.337,27.929 40.239,27.901L40.239,26.571C40.344,26.585 40.605,26.6 40.738,26.6C41.49,26.6 41.912,26.28 42.172,25.448L42.327,24.957L39.444,16.889L41.223,16.889L43.227,23.436L43.262,23.436L45.266,16.889L46.996,16.889L44.008,25.363Z"/>
            </g>
        </g>
    </g>
</svg>
