<?xml version="1.0" encoding="UTF-8" standalone="no"?><!DOCTYPE svg PUBLIC "-//W3C//DTD SVG 1.1//EN" "http://www.w3.org/Graphics/SVG/1.1/DTD/svg11.dtd"><svg width="100%" height="100%" viewBox="0 0 3392 4167" version="1.1" xmlns="http://www.w3.org/2000/svg" xmlns:xlink="http://www.w3.org/1999/xlink" xml:space="preserve" xmlns:serif="http://www.serif.com/" style="fill-rule:evenodd;clip-rule:evenodd;stroke-linejoin:round;stroke-miterlimit:2;"><path d="M3283.75,1420.42c-24.167,18.75 -450.833,259.166 -450.833,793.75c-0,618.333 542.916,837.083 559.166,842.5c-2.5,13.333 -86.25,299.583 -286.25,591.25c-178.333,256.666 -364.583,512.916 -647.916,512.916c-283.334,0 -356.25,-164.583 -683.334,-164.583c-318.75,0 -432.083,170 -691.25,170c-259.166,0 -440,-237.5 -647.916,-529.167c-240.834,-342.5 -435.417,-874.583 -435.417,-1379.58c0,-810 526.667,-1239.58 1045,-1239.58c275.417,-0 505,180.833 677.917,180.833c164.583,-0 421.25,-191.667 734.583,-191.667c118.75,0 545.417,10.834 826.25,413.334Zm-975,-756.25c129.583,-153.75 221.25,-367.084 221.25,-580.417c0,-29.583 -2.5,-59.583 -7.917,-83.75c-210.833,7.917 -461.666,140.417 -612.916,315.833c-118.75,135 -229.584,348.334 -229.584,564.584c0,32.5 5.417,65 7.917,75.416c13.333,2.5 35,5.417 56.667,5.417c189.166,0 427.083,-126.667 564.583,-297.083Z" style="fill-rule:nonzero;"/></svg>