<?xml version="1.0" encoding="UTF-8" standalone="no"?><!DOCTYPE svg PUBLIC "-//W3C//DTD SVG 1.1//EN" "http://www.w3.org/Graphics/SVG/1.1/DTD/svg11.dtd"><svg width="100%" height="100%" viewBox="0 0 100 100" version="1.1" xmlns="http://www.w3.org/2000/svg" xmlns:xlink="http://www.w3.org/1999/xlink" xml:space="preserve" xmlns:serif="http://www.serif.com/" style="fill-rule:evenodd;clip-rule:evenodd;stroke-linejoin:round;stroke-miterlimit:2;"><path d="M90.875,29.562l0,40.876c0,11.279 -9.158,20.437 -20.438,20.437l-40.875,0c-11.279,0 -20.437,-9.158 -20.437,-20.438l-0,-40.875c-0,-11.279 9.158,-20.437 20.437,-20.437l40.876,-0c11.279,-0 20.437,9.158 20.437,20.437Z" style="fill:#fff;"/><path d="M22.25,0l-0.05,-0c-12.179,-0 -22.2,10.021 -22.2,22.2l0,0.05l-0,55.5l-0,0.05c-0,12.179 10.021,22.2 22.2,22.2l0.05,0l55.5,-0l0.05,0c12.179,0 22.2,-10.021 22.2,-22.2l0,-0.05l0,-55.5l0,-0.05c0,-12.179 -10.021,-22.2 -22.2,-22.2l-0.05,0l-55.5,0Zm27.163,54.567c4.114,-0.016 7.104,1.455 8.204,4.041c0.825,1.934 0.516,8.05 -0.909,17.925c-0.966,6.9 -1.5,8.642 -2.833,9.817c-1.833,1.625 -4.433,2.075 -6.9,1.2l-0.013,0c-2.983,-1.071 -3.625,-2.521 -4.849,-11.017c-1.421,-9.875 -1.734,-15.991 -0.909,-17.925c1.091,-2.565 4.057,-4.024 8.204,-4.041l0.005,-0Zm0.583,-32.159c1.704,0.017 3.346,0.167 4.608,0.442c11.6,2.583 19.833,14.2 18.233,25.725c-0.633,4.642 -2.233,8.458 -5.066,12c-1.4,1.792 -4.8,4.792 -5.4,4.792c-0.096,-0 -0.2,-1.134 -0.2,-2.513l-0,-2.521l1.733,-2.066c6.533,-7.825 6.067,-18.759 -1.067,-25.934c-2.766,-2.791 -5.966,-4.433 -10.099,-5.191c-2.667,-0.492 -3.234,-0.492 -6.034,-0.034c-4.25,0.696 -7.542,2.342 -10.467,5.234c-7.166,7.1 -7.633,18.091 -1.1,25.925l1.721,2.066l0,2.534c0,1.4 -0.112,2.533 -0.25,2.533c-0.125,0 -1.1,-0.667 -2.133,-1.5l-0.142,-0.046c-3.466,-2.766 -6.533,-7.675 -7.8,-12.487c-0.766,-2.909 -0.766,-8.434 0.034,-11.334c2.1,-7.825 7.866,-13.895 15.866,-16.745c1.709,-0.605 4.721,-0.917 7.559,-0.88l0.004,0Zm-0.558,-11.708c9.733,0 18.533,3.758 25.233,10.779c5.1,5.3 7.966,10.913 9.433,18.3c0.5,2.459 0.5,9.167 0.029,11.934c-1.558,8.79 -6.382,16.676 -13.5,22.066c-2.533,1.917 -8.733,5.254 -9.733,5.254c-0.367,0 -0.4,-0.379 -0.233,-1.916c0.3,-2.467 0.6,-2.979 2,-3.567c2.233,-0.933 6.033,-3.642 8.366,-5.979c4.068,-4.065 6.96,-9.158 8.367,-14.733c0.867,-3.434 0.767,-11.067 -0.2,-14.6c-3.033,-11.234 -12.2,-19.967 -23.433,-22.3c-3.267,-0.667 -9.2,-0.667 -12.5,-0c-11.367,2.333 -20.767,11.5 -23.634,23.033c-0.766,3.133 -0.766,10.767 0,13.9c1.9,7.633 6.834,14.633 13.3,18.8c1.267,0.833 2.8,1.7 3.434,1.967c1.4,0.6 1.7,1.1 1.966,3.566c0.167,1.5 0.125,1.934 -0.233,1.934c-0.233,-0 -1.933,-0.734 -3.733,-1.6l-0.167,-0.126c-10.3,-5.066 -16.9,-13.641 -19.3,-25.049c-0.6,-2.942 -0.7,-9.967 -0.125,-12.667c1.5,-7.25 4.367,-12.917 9.133,-17.933c6.867,-7.238 15.7,-11.067 25.534,-11.067l-0.004,0.004Zm0.02,24.167c1.291,0 2.581,0.25 3.513,0.741c2.033,1.055 3.7,3.105 4.333,5.246c1.933,6.575 -5.033,12.334 -11.333,9.392l-0.063,-0c-2.966,-1.379 -4.566,-3.983 -4.6,-7.375c0,-3.054 1.7,-5.713 4.634,-7.271c0.932,-0.487 2.222,-0.733 3.512,-0.733l0.004,-0Z" style="fill:url(#_Radial1);"/><defs><radialGradient id="_Radial1" cx="0" cy="0" r="1" gradientUnits="userSpaceOnUse" gradientTransform="matrix(-182.465,182.465,-181.704,-181.704,179.741,-82.2236)"><stop offset="0" style="stop-color:#e69dce;stop-opacity:1"/><stop offset="0.44" style="stop-color:#cf7dcd;stop-opacity:1"/><stop offset="1" style="stop-color:#93c;stop-opacity:1"/></radialGradient></defs></svg>