<?xml version="1.0" encoding="UTF-8" standalone="no"?><!DOCTYPE svg PUBLIC "-//W3C//DTD SVG 1.1//EN" "http://www.w3.org/Graphics/SVG/1.1/DTD/svg11.dtd"><svg width="100%" height="100%" viewBox="0 0 1667 1667" version="1.1" xmlns="http://www.w3.org/2000/svg" xmlns:xlink="http://www.w3.org/1999/xlink" xml:space="preserve" xmlns:serif="http://www.serif.com/" style="fill-rule:evenodd;clip-rule:evenodd;stroke-linejoin:round;stroke-miterlimit:2;"><path d="M1280.09,213.723c28.351,30.321 58.619,59.787 86.995,90.183c15.498,16.599 35.34,35.366 48.423,53.64c30.65,42.801 40.744,95.447 39.006,147.163c-1.303,38.542 -8.918,70.8 -14.297,107.45c-13.121,89.383 -27.827,170.83 -97.509,235.65c-17.415,16.207 -36.439,29.902 -58.734,39.401c17.772,20.717 38.202,39.351 55.258,59.189c38.164,44.38 54.607,112.564 49.266,170.577c-4.701,46.672 -12.712,92.821 -19.829,139.263c-18.487,120.661 -35.786,264.434 -133.092,349.998c-72.915,64.099 -169.993,60.024 -260.739,59.985l-149.497,-0.025l-234.946,-0c-38.119,-0.013 -83.096,1.175 -120.679,-0.179c-40.009,-38.368 -77.323,-81.169 -116.797,-120.214c-8.449,-8.356 -16.598,-17.516 -24.435,-26.473c3.161,-1.367 83.654,-0.472 95.411,-0.459l342.87,0.089l101.28,0.038c30.555,0.064 60.39,0.396 90.526,-2.223c120.38,-10.413 194.176,-94.213 229.248,-204.678c21.234,-66.898 31.621,-131.713 41.038,-201.523c8.177,-60.502 24.237,-123.573 19.765,-184.988c-5.111,-61.915 -31.456,-111.339 -75.56,-153.648c-9.812,-9.406 -18.947,-19.788 -29.654,-28.659c34.611,-15.95 67.715,-44.75 90.317,-75.146c16.724,-22.586 30.063,-47.503 39.581,-73.955c15.217,-42.857 20.506,-87.662 28.07,-132.303c8.675,-51.18 18.756,-105.121 10.706,-157.1c-2.734,-17.27 -7.32,-34.195 -13.67,-50.483c-2.811,-7.033 -18.066,-37.074 -18.322,-40.57Z" style="fill-rule:nonzero;"/><path d="M426.091,0c44.181,0.971 90.993,0.241 135.41,0.247l246.519,-0.011l94.787,-0.072c27.296,-0.023 51.51,-0.676 78.653,2.814c82.894,10.663 151.032,57.658 169.328,143.411c14.705,63.407 -1.917,126.168 -10.515,188.225c-12.279,88.472 -34.535,171.682 -110.674,226.761c-30.745,22.242 -56.189,30.964 -92.782,39.235c22.884,8.682 44.472,16.786 65.174,30.102c43.208,27.809 73.433,71.812 83.88,122.122c4.407,20.224 6.196,40.927 5.327,61.604c-1.328,35.742 -10.706,87.782 -16.333,124.145c-11.286,72.872 -20.368,147.397 -42.659,217.706c-10.441,34.062 -25.47,66.539 -44.673,96.551c-75.481,111.028 -175.868,103.63 -294.597,103.656l-188.507,-0.051l-188.684,0.115c-31.191,0.025 -73.665,1.316 -103.776,-0.831c4.825,-42.635 14.476,-94.354 21.277,-137.564l42.07,-265.636l97.284,-612.971c17.838,-112.466 37.192,-227.058 53.491,-339.558Zm299.761,245.154c-13.069,91.822 -30.441,185.894 -42.105,277.303c26.284,-0.548 53.011,4.994 74.259,-9.705c23.632,-22.539 24.288,-50.372 28.975,-81.403c7.308,-48.374 16.446,-96.873 21.416,-145.471c0.897,-9.466 -3.676,-23.641 -10.44,-30.321c-16.943,-15.974 -50.237,-9.6 -72.105,-10.403Zm-81.005,516.339c-5.452,40.175 -12.683,81.855 -19.104,122.086l-35.155,219.125c26.55,0.665 62.86,4.408 85.744,-6.784c7.649,-6.324 16.096,-15.664 18.287,-25.582c14.865,-67.262 22.564,-138.681 34.531,-206.461c6.942,-39.329 19.545,-98.832 -37.037,-102.163c-15.859,-1.07 -31.575,0.303 -47.266,-0.221Z"/></svg>