<svg version="1.1" xmlns="http://www.w3.org/2000/svg" style="display: block;" viewBox="0 0 1600 1600" width="400" height="400" preserveAspectRatio="none">
<defs>
	<linearGradient id="Gradient1" gradientUnits="userSpaceOnUse" x1="1172.4" y1="1077.62" x2="266.304" y2="449.273">
		<stop class="stop0" offset="0" stop-opacity="1" stop-color="rgb(69,52,0)"/>
		<stop class="stop1" offset="1" stop-opacity="1" stop-color="rgb(39,33,18)"/>
	</linearGradient>
</defs>
<path transform="translate(0,0)" fill="rgb(27,21,2)" d="M 0 0 L 1600 0 L 1600 1600 L 0 1600 L 0 0 z"/>
<path transform="translate(0,0)" fill="url(#Gradient1)" d="M 477.832 141.671 C 488.974 138.898 532.09 140.718 546.554 140.836 L 652.322 140.958 L 812.911 141.111 C 862.251 141.143 913.806 139.464 961.767 152.426 C 1025.95 169.773 1065.2 228.181 1109.89 273.218 C 1117.79 281.182 1154.17 315.618 1158.16 323.203 C 1180.35 346.935 1204.04 369.998 1226.25 393.788 C 1238.38 406.78 1253.91 421.469 1264.15 435.772 C 1288.14 469.272 1296.04 510.477 1294.68 550.955 C 1293.66 581.121 1287.7 606.369 1283.49 635.055 C 1273.22 705.014 1261.71 768.762 1207.17 819.496 C 1193.54 832.181 1178.65 842.9 1161.2 850.335 C 1175.11 866.55 1191.1 881.134 1204.45 896.661 C 1234.32 931.397 1247.19 984.764 1243.01 1030.17 C 1239.33 1066.7 1233.06 1102.82 1227.49 1139.17 C 1213.02 1233.61 1199.48 1346.14 1123.32 1413.11 C 1066.25 1463.28 990.268 1460.09 919.242 1460.06 L 802.232 1460.04 L 618.342 1460.04 C 588.507 1460.03 553.304 1460.96 523.888 1459.9 C 492.573 1429.87 463.368 1396.37 432.472 1365.81 C 425.859 1359.27 419.481 1352.1 413.347 1345.09 C 410.392 1343.1 393.918 1325.27 390.335 1321.53 C 377.246 1307.83 361.878 1291.77 348.629 1278.53 C 340.319 1270.22 313.091 1237.81 304.832 1234.07 C 305.932 1211.96 312.209 1181.61 316.074 1159.43 L 337.131 1038.26 C 341.358 1013.37 343.087 988.088 347.04 963.392 C 358.211 893.619 368.578 823.69 380.318 754.007 C 383.033 737.894 386.324 721.511 388.746 705.452 L 452.328 299.77 L 468.227 198.76 C 470.444 184.157 474.03 154.449 477.832 141.671 z"/>
<path transform="translate(0,0)" fill="rgb(180,135,7)" d="M 1158.16 323.203 C 1180.35 346.935 1204.04 369.998 1226.25 393.788 C 1238.38 406.78 1253.91 421.469 1264.15 435.772 C 1288.14 469.272 1296.04 510.477 1294.68 550.955 C 1293.66 581.121 1287.7 606.369 1283.49 635.055 C 1273.22 705.014 1261.71 768.762 1207.17 819.496 C 1193.54 832.181 1178.65 842.9 1161.2 850.335 C 1175.11 866.55 1191.1 881.134 1204.45 896.661 C 1234.32 931.397 1247.19 984.764 1243.01 1030.17 C 1239.33 1066.7 1233.06 1102.82 1227.49 1139.17 C 1213.02 1233.61 1199.48 1346.14 1123.32 1413.11 C 1066.25 1463.28 990.268 1460.09 919.242 1460.06 L 802.232 1460.04 L 618.342 1460.04 C 588.507 1460.03 553.304 1460.96 523.888 1459.9 C 492.573 1429.87 463.368 1396.37 432.472 1365.81 C 425.859 1359.27 419.481 1352.1 413.347 1345.09 C 415.821 1344.02 478.822 1344.72 488.024 1344.73 L 756.385 1344.8 L 835.656 1344.83 C 859.571 1344.88 882.923 1345.14 906.51 1343.09 C 1000.73 1334.94 1058.49 1269.35 1085.94 1182.89 C 1102.56 1130.53 1110.69 1079.8 1118.06 1025.16 C 1124.46 977.806 1137.03 928.441 1133.53 880.372 C 1129.53 831.912 1108.91 793.228 1074.39 760.113 C 1066.71 752.751 1059.56 744.625 1051.18 737.682 C 1078.27 725.198 1104.18 702.657 1121.87 678.866 C 1134.96 661.188 1145.4 641.686 1152.85 620.982 C 1164.76 587.438 1168.9 552.37 1174.82 517.43 C 1181.61 477.372 1189.5 435.153 1183.2 394.469 C 1181.06 380.952 1177.47 367.705 1172.5 354.957 C 1170.3 349.452 1158.36 325.939 1158.16 323.203 z"/>
<path transform="translate(0,0)" fill="rgb(232,177,42)" d="M 489.747 155.924 C 524.327 156.684 560.966 156.113 595.731 156.117 L 788.679 156.109 L 862.868 156.052 C 884.232 156.034 903.184 155.523 924.429 158.255 C 989.309 166.601 1042.64 203.383 1056.96 270.501 C 1068.47 320.129 1055.46 369.252 1048.73 417.823 C 1039.12 487.069 1021.7 552.197 962.107 595.307 C 938.043 612.715 918.128 619.542 889.487 626.016 C 907.398 632.811 924.295 639.154 940.498 649.576 C 974.317 671.342 997.974 705.783 1006.15 745.16 C 1009.6 760.989 1011 777.193 1010.32 793.377 C 1009.28 821.352 1001.94 862.083 997.536 890.544 C 988.703 947.58 981.594 1005.91 964.147 1060.94 C 955.975 1087.6 944.212 1113.02 929.182 1136.51 C 870.104 1223.41 791.532 1217.62 698.604 1217.64 L 551.061 1217.6 L 403.38 1217.69 C 378.967 1217.71 345.723 1218.72 322.156 1217.04 C 325.932 1183.67 333.486 1143.19 338.809 1109.37 L 371.737 901.459 L 447.88 421.693 C 461.842 333.667 476.99 243.977 489.747 155.924 z"/>
<path transform="translate(0,0)" fill="rgb(27,21,2)" d="M 660.965 751.937 C 673.246 752.347 685.547 751.273 697.96 752.11 C 742.246 754.717 732.382 801.29 726.948 832.072 C 717.582 885.123 711.556 941.022 699.921 993.667 C 698.206 1001.43 691.595 1008.74 685.608 1013.69 C 667.697 1022.45 639.278 1019.52 618.497 1019 L 646.013 847.493 C 651.038 816.004 656.698 783.382 660.965 751.937 z"/>
<path transform="translate(0,0)" fill="rgb(58,44,5)" d="M 698.075 766.414 C 701.254 766.171 706.651 766.88 709.413 768.626 C 718.756 774.531 717.155 792.478 716.171 802.346 C 712.118 839.512 706.035 873.036 699.273 910.138 C 694.35 937.153 693.407 972.731 681.664 998.203 C 679.172 1003.61 660.61 1004.66 654.23 1005.31 C 649.028 1006.25 640.294 1007.34 636.597 1002.89 C 635.648 993.489 643.242 959.226 644.948 947.928 L 661.546 841.347 C 665.025 818.127 668.161 790.101 673.01 767.418 C 680.668 766.839 690.27 766.709 698.075 766.414 z"/>
<path transform="translate(0,0)" fill="rgb(58,44,5)" d="M 724.367 347.804 C 741.483 348.432 767.542 343.443 780.803 355.946 C 786.097 361.174 789.676 372.269 788.974 379.678 C 785.084 417.715 777.932 455.675 772.212 493.537 C 768.544 517.824 768.03 539.609 749.534 557.25 C 732.903 568.755 711.984 564.417 691.412 564.846 C 700.541 493.301 714.138 419.672 724.367 347.804 z"/>
</svg>