<?xml version="1.0" encoding="UTF-8" standalone="no"?><!DOCTYPE svg PUBLIC "-//W3C//DTD SVG 1.1//EN" "http://www.w3.org/Graphics/SVG/1.1/DTD/svg11.dtd"><svg width="100%" height="100%" viewBox="0 0 1667 1667" version="1.1" xmlns="http://www.w3.org/2000/svg" xmlns:xlink="http://www.w3.org/1999/xlink" xml:space="preserve" xmlns:serif="http://www.serif.com/" style="fill-rule:evenodd;clip-rule:evenodd;stroke-linejoin:round;stroke-miterlimit:2;"><path d="M426.536,1.932c14.07,-3.502 68.517,-1.203 86.782,-1.054l133.565,0.154l202.792,0.193c62.307,0.04 127.411,-2.08 187.976,14.289c81.051,21.905 130.616,95.663 187.05,152.536c9.977,10.057 55.917,53.543 60.956,63.121c28.022,29.969 57.937,59.093 85.984,89.135c15.318,16.407 34.929,34.956 47.861,53.018c30.294,42.304 40.27,94.338 38.553,145.454c-1.288,38.093 -8.814,69.977 -14.131,106.201c-12.969,88.345 -27.504,168.846 -96.377,232.913c-17.212,16.019 -36.015,29.555 -58.051,38.944c17.565,20.476 37.758,38.893 54.616,58.501c37.72,43.864 53.972,111.256 48.694,168.595c-4.647,46.131 -12.565,91.743 -19.599,137.646c-18.273,119.259 -35.371,261.362 -131.546,345.932c-72.068,63.355 -168.019,59.327 -257.711,59.289l-147.76,-0.025l-232.217,-0c-37.676,-0.013 -82.131,1.162 -119.277,-0.177c-39.545,-37.922 -76.425,-80.226 -115.441,-118.817c-8.351,-8.259 -16.405,-17.313 -24.151,-26.165c-3.732,-2.513 -24.535,-25.029 -29.06,-29.752c-16.528,-17.301 -35.935,-37.581 -52.666,-54.301c-10.494,-10.494 -44.878,-51.421 -55.307,-56.144c1.389,-27.921 9.316,-66.247 14.196,-94.256l26.591,-153.014c5.338,-31.431 7.521,-63.357 12.513,-94.543c14.107,-88.11 27.199,-176.417 42.024,-264.412c3.428,-20.348 7.584,-41.037 10.643,-61.316l80.291,-512.297l20.078,-127.556c2.799,-18.44 7.328,-55.956 12.129,-72.092Z" style="fill:url(#_Linear1);fill-rule:nonzero;"/><path d="M1285.66,231.171c28.022,29.969 57.937,59.093 85.984,89.135c15.318,16.407 34.929,34.956 47.861,53.018c30.294,42.304 40.27,94.338 38.553,145.454c-1.288,38.093 -8.814,69.977 -14.131,106.201c-12.969,88.345 -27.504,168.846 -96.377,232.913c-17.212,16.019 -36.015,29.555 -58.051,38.944c17.565,20.476 37.758,38.893 54.616,58.501c37.72,43.864 53.972,111.256 48.694,168.595c-4.647,46.131 -12.565,91.743 -19.599,137.646c-18.273,119.259 -35.371,261.362 -131.546,345.932c-72.068,63.355 -168.019,59.327 -257.711,59.289l-147.76,-0.025l-232.217,-0c-37.676,-0.013 -82.131,1.162 -119.277,-0.177c-39.545,-37.922 -76.425,-80.226 -115.441,-118.817c-8.351,-8.259 -16.405,-17.313 -24.151,-26.165c3.124,-1.352 82.682,-0.468 94.302,-0.455l338.888,0.088l100.104,0.038c30.2,0.063 59.689,0.392 89.474,-2.197c118.982,-10.292 191.921,-93.119 226.585,-202.301c20.988,-66.121 31.255,-130.183 40.561,-199.182c8.082,-59.799 23.956,-122.138 19.536,-182.839c-5.051,-61.196 -31.09,-110.046 -74.682,-151.864c-9.699,-9.297 -18.728,-19.558 -29.31,-28.326c34.21,-15.765 66.929,-44.229 89.268,-74.273c16.53,-22.324 29.714,-46.951 39.121,-73.096c15.04,-42.36 20.268,-86.644 27.744,-130.766c8.575,-50.585 18.538,-103.9 10.583,-155.276c-2.703,-17.069 -7.236,-33.797 -13.512,-49.895c-2.779,-6.952 -17.857,-36.645 -18.109,-40.1Z" style="fill:#b48707;fill-rule:nonzero;"/><path d="M441.582,19.931c43.668,0.96 89.936,0.239 133.837,0.244l243.656,-0.011l93.686,-0.072c26.979,-0.022 50.911,-0.668 77.739,2.782c81.931,10.54 149.278,56.988 167.361,141.745c14.535,62.671 -1.894,124.703 -10.393,186.039c-12.135,87.444 -34.133,169.688 -109.388,224.127c-30.388,21.983 -55.536,30.605 -91.704,38.78c22.618,8.581 43.955,16.591 64.416,29.752c42.707,27.486 72.581,70.978 82.906,120.703c4.357,19.989 6.125,40.452 5.266,60.889c-1.313,35.327 -10.582,86.762 -16.144,122.703c-11.154,72.025 -20.131,145.685 -42.163,215.177c-10.32,33.666 -25.174,65.767 -44.154,95.43c-74.604,109.738 -173.825,102.426 -291.175,102.451l-186.318,-0.05l-186.492,0.113c-30.829,0.026 -72.81,1.301 -102.57,-0.821c4.768,-42.139 14.307,-93.258 21.029,-135.966l41.582,-262.551l96.153,-605.85c17.632,-111.16 36.761,-224.42 52.87,-335.614Z" style="fill:#e8b12a;fill-rule:nonzero;"/><path d="M657.797,772.578c15.509,0.518 31.042,-0.838 46.717,0.219c55.925,3.292 43.469,62.105 36.607,100.976c-11.828,66.993 -19.437,137.583 -34.13,204.063c-2.166,9.803 -10.514,19.034 -18.075,25.285c-22.618,11.062 -58.505,7.362 -84.748,6.706l34.748,-216.58c6.345,-39.764 13.493,-80.96 18.881,-120.669Z" style="fill:#1b1502;fill-rule:nonzero;"/><path d="M704.66,790.86c4.014,-0.307 10.83,0.589 14.317,2.793c11.799,7.457 9.777,30.121 8.534,42.582c-5.118,46.934 -12.799,89.268 -21.338,136.12c-6.217,34.115 -7.408,79.043 -22.237,111.209c-3.147,6.828 -26.587,8.154 -34.644,8.975c-6.569,1.187 -17.598,2.563 -22.267,-3.056c-1.198,-11.872 8.391,-55.139 10.546,-69.406l20.96,-134.591c4.393,-29.323 8.353,-64.714 14.477,-93.358c9.67,-0.731 21.796,-0.895 31.652,-1.268Z" style="fill:#3a2c05;fill-rule:nonzero;"/><path d="M737.861,262.238c21.615,0.793 54.522,-5.507 71.268,10.281c6.685,6.602 11.205,20.613 10.318,29.969c-4.912,48.034 -13.944,95.97 -21.167,143.782c-4.632,30.67 -5.281,58.18 -28.638,80.457c-21.001,14.529 -47.418,9.05 -73.396,9.592c11.528,-90.347 28.698,-183.326 41.615,-274.081Z" style="fill:#3a2c05;fill-rule:nonzero;"/><defs><linearGradient id="_Linear1" x1="0" y1="0" x2="1" y2="0" gradientUnits="userSpaceOnUse" gradientTransform="matrix(-1144.22,-793.479,793.479,-1144.22,1303.64,1183.85)"><stop offset="0" style="stop-color:#453400;stop-opacity:1"/><stop offset="1" style="stop-color:#272112;stop-opacity:1"/></linearGradient></defs></svg>