<?xml version="1.0" encoding="UTF-8" standalone="no"?>
<!DOCTYPE svg PUBLIC "-//W3C//DTD SVG 1.1//EN" "http://www.w3.org/Graphics/SVG/1.1/DTD/svg11.dtd">
<svg width="100%" height="100%" viewBox="0 0 2057 1337" version="1.1" xmlns="http://www.w3.org/2000/svg" xmlns:xlink="http://www.w3.org/1999/xlink" xml:space="preserve" xmlns:serif="http://www.serif.com/" style="fill-rule:evenodd;clip-rule:evenodd;stroke-linejoin:round;stroke-miterlimit:2;">
    <g transform="matrix(4.16667,0,0,4.16667,0,0)">
        <g transform="matrix(1,0,0,1,-9.253,-95.614)">
            <path d="M465.735,416.386L46.265,416.386C25.908,416.386 9.253,399.731 9.253,379.374L9.253,132.627C9.253,112.27 25.908,95.615 46.265,95.615L465.735,95.615C486.092,95.615 502.747,112.27 502.747,132.627L502.747,379.374C502.747,399.73 486.092,416.386 465.735,416.386Z" style="fill:rgb(251,242,223);fill-rule:nonzero;"/>
        </g>
        <g transform="matrix(1,0,0,1,-9.253,-95.614)">
            <path d="M465.735,95.614L404.048,95.614C424.405,95.614 441.06,112.269 441.06,132.626L441.06,379.373C441.06,399.73 424.405,416.385 404.048,416.385L465.735,416.385C486.092,416.385 502.747,399.73 502.747,379.373L502.747,132.627C502.747,112.27 486.092,95.614 465.735,95.614Z" style="fill:rgb(238,221,186);fill-rule:nonzero;"/>
        </g>
        <g transform="matrix(1,0,0,1,-9.253,-95.614)">
            <rect x="9.253" y="169.639" width="493.494" height="74.024" style="fill:rgb(136,136,143);"/>
        </g>
        <g transform="matrix(1,0,0,1,-9.253,-95.614)">
            <rect x="441.06" y="169.639" width="61.687" height="74.024" style="fill:rgb(121,119,129);"/>
        </g>
        <g transform="matrix(1,0,0,1,-9.253,-95.614)">
            <circle cx="95.614" cy="330.024" r="37.012" style="fill:rgb(224,113,136);"/>
        </g>
        <g transform="matrix(1,0,0,1,-9.253,-95.614)">
            <circle cx="144.964" cy="330.024" r="37.012" style="fill:rgb(248,233,155);"/>
        </g>
        <g transform="matrix(1,0,0,1,-9.253,-95.614)">
            <path d="M431.807,314.602L234.41,314.602C229.3,314.602 225.157,310.46 225.157,305.349C225.157,300.238 229.3,296.096 234.41,296.096L431.808,296.096C436.919,296.096 441.061,300.238 441.061,305.349C441.06,310.461 436.919,314.602 431.807,314.602Z" style="fill:rgb(136,136,143);fill-rule:nonzero;"/>
            <path d="M407.133,351.614L234.41,351.614C229.3,351.614 225.157,347.472 225.157,342.361C225.157,337.25 229.3,333.108 234.41,333.108L407.133,333.108C412.244,333.108 416.386,337.25 416.386,342.361C416.386,347.472 412.244,351.614 407.133,351.614Z" style="fill:rgb(136,136,143);fill-rule:nonzero;"/>
        </g>
    </g>
</svg>
