<?xml version="1.0" encoding="UTF-8" standalone="no"?><!DOCTYPE svg PUBLIC "-//W3C//DTD SVG 1.1//EN" "http://www.w3.org/Graphics/SVG/1.1/DTD/svg11.dtd"><svg width="100%" height="100%" viewBox="0 0 3334 3334" version="1.1" xmlns="http://www.w3.org/2000/svg" xmlns:xlink="http://www.w3.org/1999/xlink" xml:space="preserve" xmlns:serif="http://www.serif.com/" style="fill-rule:evenodd;clip-rule:evenodd;stroke-linejoin:round;stroke-miterlimit:2;"><path d="M1578.51,3335.45l-414.746,-427.179l-613.446,-0l-131.629,-124.175l0.008,-601.021l-419.725,-427.175l0,-176.325l419.717,-427.183l0.004,-603.5l131.625,-124.179l613.446,-0l414.754,-424.684l176.333,-0.004l427.167,424.688l603.512,-0.005l124.175,121.696l-0.004,605.992l424.696,427.175l-0.004,176.329l-432.142,427.171l0,601.017l-124.179,124.187l-596.054,-0.004l-427.171,427.175l-176.337,0.004Zm-46.421,-863.697l483.996,-1544.07l-212.486,-66.107l-486.357,1541.7l214.847,68.468Zm-432.055,-306.924l158.184,-158.185l-337.617,-339.977l337.617,-339.978l-158.184,-158.184l-498.162,498.162l498.162,498.162Zm1133.26,-0l498.162,-498.162l-498.162,-498.162l-158.184,158.184l337.617,339.978l-337.617,339.977l158.184,158.185Z" style="fill:url(#_Radial1);"/><defs><radialGradient id="_Radial1" cx="0" cy="0" r="1" gradientUnits="userSpaceOnUse" gradientTransform="matrix(-1388.59,-3751.59,3488.05,-1552.67,2344.52,3408.18)"><stop offset="0" style="stop-color:#f30000;stop-opacity:1"/><stop offset="1" style="stop-color:#ff8da8;stop-opacity:1"/></radialGradient></defs></svg>