<?xml version="1.0" encoding="UTF-8" standalone="no"?><!DOCTYPE svg PUBLIC "-//W3C//DTD SVG 1.1//EN" "http://www.w3.org/Graphics/SVG/1.1/DTD/svg11.dtd"><svg width="100%" height="100%" viewBox="0 0 3334 3334" version="1.1" xmlns="http://www.w3.org/2000/svg" xmlns:xlink="http://www.w3.org/1999/xlink" xml:space="preserve" xmlns:serif="http://www.serif.com/" style="fill-rule:evenodd;clip-rule:evenodd;stroke-linejoin:round;stroke-miterlimit:2;"><path d="M1583.8,3235.45l165.764,-0.004l401.556,-401.56l560.314,0.003l116.733,-116.74l-0,-564.979l406.229,-401.556l0.004,-165.756l-399.23,-401.561l0.004,-569.655l-116.729,-114.399l-567.325,0.004l-401.553,-399.222l-165.759,0.004l-389.885,399.218l-576.662,0l-123.733,116.733l-0.004,567.313l-394.549,401.568l0,165.753l394.557,401.56l-0.008,564.982l123.737,116.73l576.662,-0l389.877,401.564Z" style="fill:url(#_Radial1);"/><g><path d="M1578.51,3335.45l-414.746,-427.179l-613.446,-0l-131.629,-124.175l0.008,-601.021l-419.725,-427.175l0,-176.325l419.717,-427.183l0.004,-603.5l131.625,-124.179l613.446,-0l414.754,-424.684l176.333,-0.004l427.167,424.688l603.512,-0.005l124.175,121.696l-0.004,605.992l424.696,427.175l-0.004,176.329l-432.142,427.171l0,601.017l-124.179,124.187l-596.054,-0.004l-427.171,427.175l-176.337,0.004Zm14.98,-283.333l146.379,-0.004l354.597,-354.601l494.789,0.004l103.082,-103.089l-0,-498.908l358.723,-354.597l0.004,-146.372l-352.543,-354.601l0.003,-503.038l-103.078,-101.02l-500.98,0.003l-354.594,-352.536l-146.375,0.004l-344.29,352.532l-509.226,0l-109.263,103.082l-0.003,500.97l-348.41,354.607l0,146.369l348.417,354.601l-0.007,498.911l109.266,103.078l509.226,0l344.283,354.605Z" style="fill:url(#_Radial2);"/><path d="M1388.98,2427.26c85.561,32.005 177.918,48.008 277.068,48.008c99.151,-0 191.507,-16.003 277.069,-48.008c85.561,-32.018 160.174,-75.138 223.839,-129.36c63.677,-54.211 113.37,-117.4 149.078,-189.569c35.708,-72.182 53.563,-148.387 53.563,-228.617l-0,-224.024l-358.569,268.459l119.732,119.122c-36.621,57.185 -89.184,107.377 -157.687,150.578c-68.503,43.2 -137.932,68.09 -208.287,74.668l-0,-607.884l234.522,0l0,-196.253l-234.522,0l-0,-85.777c55.704,-24.229 98.33,-57.851 127.879,-100.867c29.537,-43.015 44.305,-91.27 44.305,-144.764c0,-76.427 -26.099,-140.993 -78.297,-193.698c-52.199,-52.717 -116.357,-79.075 -192.476,-79.075c-75.305,0 -138.896,26.358 -190.773,79.075c-51.89,52.705 -77.835,117.271 -77.835,193.698c0,53.494 14.3,101.737 42.898,144.727c28.586,42.991 71.268,76.625 128.046,100.904l-0,85.777l-234.504,0l0,196.253l234.504,0l-0,607.884c-71.169,-6.578 -141.006,-31.468 -209.509,-74.668c-68.504,-43.201 -121.066,-93.393 -157.688,-150.578l119.733,-119.122l-357.328,-268.459l-0,224.024c-0,80.23 17.644,156.435 52.933,228.617c35.3,72.169 84.789,135.358 148.467,189.569c63.665,54.222 138.278,97.342 223.839,129.36Zm277.198,-1222.08c-21.896,0 -39.423,-6.541 -52.581,-19.625c-13.17,-13.071 -19.755,-30.555 -19.755,-52.451c0,-21.897 6.542,-39.942 19.625,-54.136c13.072,-14.195 30.555,-21.292 52.452,-21.292c21.896,-0 39.633,7.054 53.21,21.162c13.578,14.108 20.366,32.11 20.366,54.007c0,21.896 -6.745,39.423 -20.236,52.58c-13.491,13.17 -31.185,19.755 -53.081,19.755Z" style="fill:url(#_Radial3);"/></g><defs><radialGradient id="_Radial1" cx="0" cy="0" r="1" gradientUnits="userSpaceOnUse" gradientTransform="matrix(-3179.16,4770.8,-4461.27,-2231.6,3212.63,-658.799)"><stop offset="0" style="stop-color:#4d4d4d;stop-opacity:1"/><stop offset="0.43" style="stop-color:#353535;stop-opacity:1"/><stop offset="1" style="stop-color:#000;stop-opacity:1"/></radialGradient><radialGradient id="_Radial2" cx="0" cy="0" r="1" gradientUnits="userSpaceOnUse" gradientTransform="matrix(-1388.59,-3751.59,3488.05,-1552.67,2344.52,3408.18)"><stop offset="0" style="stop-color:#cc7d00;stop-opacity:1"/><stop offset="1" style="stop-color:#ffdd49;stop-opacity:1"/></radialGradient><radialGradient id="_Radial3" cx="0" cy="0" r="1" gradientUnits="userSpaceOnUse" gradientTransform="matrix(-1241.28,-3353.61,3118.02,-1387.95,2272.61,3223.55)"><stop offset="0" style="stop-color:#cc7d00;stop-opacity:1"/><stop offset="1" style="stop-color:#ffdd49;stop-opacity:1"/></radialGradient></defs></svg>