<?xml version="1.0" encoding="UTF-8" standalone="no"?><!DOCTYPE svg PUBLIC "-//W3C//DTD SVG 1.1//EN" "http://www.w3.org/Graphics/SVG/1.1/DTD/svg11.dtd"><svg width="100%" height="100%" viewBox="0 0 3334 3334" version="1.1" xmlns="http://www.w3.org/2000/svg" xmlns:xlink="http://www.w3.org/1999/xlink" xml:space="preserve" xmlns:serif="http://www.serif.com/" style="fill-rule:evenodd;clip-rule:evenodd;stroke-linejoin:round;stroke-miterlimit:2;"><path d="M1141.82,3102.21c161.716,60.492 336.274,90.738 523.674,90.738c187.401,0 361.959,-30.246 523.675,-90.738c161.715,-60.515 302.738,-142.014 423.069,-244.498c120.353,-102.46 214.275,-221.892 281.765,-358.296c67.491,-136.427 101.236,-280.459 101.236,-432.097l0,-423.418l-677.715,507.402l226.302,225.147c-69.217,108.082 -168.563,202.949 -298.038,284.6c-129.475,81.651 -260.7,128.694 -393.674,141.128l-0,-1148.93l443.259,-0l0,-370.929l-443.259,-0l-0,-162.124c105.283,-45.794 185.849,-109.342 241.698,-190.643c55.826,-81.301 83.739,-172.505 83.739,-273.613c0,-144.452 -49.329,-266.485 -147.987,-366.099c-98.657,-99.638 -219.921,-149.457 -363.79,-149.457c-142.329,0 -262.519,49.819 -360.57,149.457c-98.075,99.614 -147.112,221.647 -147.112,366.099c-0,101.108 27.026,192.288 81.079,273.543c54.03,81.254 134.701,144.825 242.014,190.713l-0,162.124l-443.225,-0l-0,370.929l443.225,-0l-0,1148.93c-134.514,-12.434 -266.509,-59.477 -395.984,-141.128c-129.475,-81.651 -228.821,-176.518 -298.038,-284.6l226.302,-225.147l-675.371,-507.402l0,423.418c0,151.638 33.349,295.67 100.046,432.097c66.721,136.404 160.258,255.836 280.611,358.296c120.33,102.484 261.353,183.983 423.069,244.498Zm523.919,-2309.8c-41.385,0 -74.512,-12.364 -99.381,-37.093c-24.891,-24.705 -37.337,-57.75 -37.337,-99.136c-0,-41.385 12.364,-75.492 37.092,-102.32c24.706,-26.828 57.751,-40.242 99.136,-40.242c41.386,-0 74.909,13.332 100.571,39.997c25.662,26.665 38.493,60.69 38.493,102.075c-0,41.386 -12.749,74.513 -38.248,99.381c-25.498,24.892 -58.94,37.338 -100.326,37.338Z" style="fill:url(#_Radial1);"/><defs><radialGradient id="_Radial1" cx="0" cy="0" r="1" gradientUnits="userSpaceOnUse" gradientTransform="matrix(-2866.18,4795.1,-4022.07,-2242.96,3045.34,-681.258)"><stop offset="0" style="stop-color:#ffe66b;stop-opacity:1"/><stop offset="0.43" style="stop-color:#e7b94a;stop-opacity:1"/><stop offset="1" style="stop-color:#b35600;stop-opacity:1"/></radialGradient></defs></svg>