<?xml version="1.0" encoding="UTF-8" standalone="no"?><!DOCTYPE svg PUBLIC "-//W3C//DTD SVG 1.1//EN" "http://www.w3.org/Graphics/SVG/1.1/DTD/svg11.dtd"><svg width="100%" height="100%" viewBox="0 0 551 550" version="1.1" xmlns="http://www.w3.org/2000/svg" xmlns:xlink="http://www.w3.org/1999/xlink" xml:space="preserve" xmlns:serif="http://www.serif.com/" style="fill-rule:evenodd;clip-rule:evenodd;stroke-linejoin:round;stroke-miterlimit:2;"><path d="M275.142,4.167l88.166,-0c64.75,0.112 67.271,0.654 79.925,2.483c26.117,3.767 48.034,14.183 65.955,31.3c10.041,9.662 16.958,19.112 23.187,31.767c7.592,15.458 11.321,30.083 13.029,51.833c0.367,4.667 0.533,78.933 0.533,153.25c0,74.304 -0.154,148.708 -0.52,153.375c-1.688,21.404 -5.417,36.154 -12.771,51.321c-14.625,30.167 -41.5,52.167 -73.959,60.542c-11.77,3.041 -22.416,4.47 -40.75,5.333c-6.541,0.333 -74.958,0.417 -143.375,0.417c-68.416,-0 -136.791,-0.209 -143.5,-0.5c-15.833,-0.75 -28.166,-2.334 -39.333,-5.209c-32.25,-8.333 -59.625,-30.666 -73.958,-60.416c-7.5,-15.542 -11.042,-29.751 -12.917,-52.334c-0.542,-6.417 -0.667,-39.458 -0.667,-152.458c0,-38.071 -0.041,-66.454 0,-88.021c0.109,-64.7 0.642,-67.283 2.475,-79.95c3.771,-26.092 14.188,-48.042 31.375,-65.883c9.438,-9.784 19,-16.763 31.125,-22.784c15.734,-7.833 30.175,-11.487 53.384,-13.416c6.429,-0.534 39.504,-0.65 152.596,-0.65Zm-0.188,70.833c-54.259,0 -61.079,0.238 -82.404,1.208c-21.292,0.975 -35.825,4.346 -48.542,9.292c-13.154,5.108 -24.312,11.942 -35.429,23.062c-11.125,11.117 -17.958,22.275 -23.083,35.425c-4.959,12.721 -8.334,27.259 -9.292,48.542c-0.954,21.333 -1.204,28.154 -1.204,82.471c-0,54.317 0.242,61.112 1.208,82.446c0.979,21.291 4.35,35.825 9.292,48.541c5.112,13.155 11.946,24.313 23.067,35.43c11.112,11.125 22.27,17.975 35.416,23.083c12.725,4.946 27.263,8.317 48.55,9.292c21.334,0.971 28.146,1.208 82.459,1.208c54.32,0 61.116,-0.238 82.45,-1.208c21.291,-0.975 35.841,-4.346 48.566,-9.292c13.15,-5.108 24.292,-11.958 35.404,-23.083c11.125,-11.117 17.959,-22.275 23.084,-35.425c4.916,-12.721 8.291,-27.259 9.291,-48.542c0.959,-21.333 1.209,-28.133 1.209,-82.45c-0,-54.317 -0.25,-61.133 -1.209,-82.467c-0.999,-21.291 -4.375,-35.825 -9.291,-48.541c-5.125,-13.155 -11.959,-24.313 -23.084,-35.43c-11.125,-11.125 -22.25,-17.958 -35.416,-23.062c-12.75,-4.946 -27.292,-8.317 -48.584,-9.292c-21.325,-0.97 -28.119,-1.208 -82.395,-1.208l-0.063,0Zm-17.879,36.042c5.325,-0.009 11.267,-0 17.942,-0c53.4,-0 59.729,0.191 80.816,1.15c19.5,0.891 30.084,4.15 37.134,6.887c9.333,3.625 15.987,7.958 22.983,14.958c7,7 11.333,13.667 14.967,23c2.737,7.042 6,17.625 6.887,37.125c0.959,21.084 1.167,27.417 1.167,80.792c-0,53.375 -0.208,59.708 -1.167,80.792c-0.891,19.5 -4.15,30.083 -6.887,37.125c-3.625,9.333 -7.967,15.979 -14.967,22.975c-7,7 -13.646,11.333 -22.983,14.958c-7.042,2.75 -17.634,6 -37.134,6.892c-21.083,0.958 -27.416,1.166 -80.816,1.166c-53.405,0 -59.734,-0.208 -80.817,-1.166c-19.5,-0.9 -30.083,-4.159 -37.137,-6.896c-9.334,-3.625 -16.001,-7.958 -23,-14.958c-7,-7 -11.334,-13.65 -14.967,-22.988c-2.738,-7.042 -6,-17.625 -6.888,-37.125c-0.958,-21.083 -1.15,-27.417 -1.15,-80.825c0,-53.408 0.192,-59.708 1.15,-80.792c0.892,-19.5 4.15,-30.083 6.888,-37.133c3.625,-9.333 7.967,-16 14.967,-23c7,-7 13.666,-11.333 23,-14.967c7.05,-2.75 17.637,-6 37.137,-6.895c18.45,-0.834 25.6,-1.084 62.875,-1.125l0,0.05Zm124.7,33.208c-13.25,-0 -24,10.737 -24,23.992c0,13.25 10.75,24 24,24c13.25,-0 24,-10.75 24,-24c0,-13.25 -10.75,-24 -24,-24l0,0.008Zm-106.76,28.042c-56.721,-0 -102.707,45.987 -102.707,102.708c0,56.721 45.988,102.687 102.709,102.687c56.72,0 102.691,-45.966 102.691,-102.687c0,-56.721 -45.973,-102.708 -102.693,-102.708Zm0.002,36.041c36.816,0 66.666,29.846 66.666,66.667c0,36.817 -29.85,66.667 -66.666,66.667c-36.821,-0 -66.667,-29.85 -66.667,-66.667c-0,-36.821 29.846,-66.667 66.667,-66.667Z" style="fill:url(#_Radial1);"/><path d="M275.142,4.167l88.166,-0c64.75,0.112 67.271,0.654 79.925,2.483c26.117,3.767 48.034,14.183 65.955,31.3c10.041,9.662 16.958,19.112 23.187,31.767c7.592,15.458 11.321,30.083 13.029,51.833c0.367,4.667 0.533,78.933 0.533,153.25c0,74.304 -0.154,148.708 -0.52,153.375c-1.688,21.404 -5.417,36.154 -12.771,51.321c-14.625,30.167 -41.5,52.167 -73.959,60.542c-11.77,3.041 -22.416,4.47 -40.75,5.333c-6.541,0.333 -74.958,0.417 -143.375,0.417c-68.416,-0 -136.791,-0.209 -143.5,-0.5c-15.833,-0.75 -28.166,-2.334 -39.333,-5.209c-32.25,-8.333 -59.625,-30.666 -73.958,-60.416c-7.5,-15.542 -11.042,-29.751 -12.917,-52.334c-0.542,-6.417 -0.667,-39.458 -0.667,-152.458c0,-38.071 -0.041,-66.454 0,-88.021c0.109,-64.7 0.642,-67.283 2.475,-79.95c3.771,-26.092 14.188,-48.042 31.375,-65.883c9.438,-9.784 19,-16.763 31.125,-22.784c15.734,-7.833 30.175,-11.487 53.384,-13.416c6.429,-0.534 39.504,-0.65 152.596,-0.65Zm-0.188,70.833c-54.259,0 -61.079,0.238 -82.404,1.208c-21.292,0.975 -35.825,4.346 -48.542,9.292c-13.154,5.108 -24.312,11.942 -35.429,23.062c-11.125,11.117 -17.958,22.275 -23.083,35.425c-4.959,12.721 -8.334,27.259 -9.292,48.542c-0.954,21.333 -1.204,28.154 -1.204,82.471c-0,54.317 0.242,61.112 1.208,82.446c0.979,21.291 4.35,35.825 9.292,48.541c5.112,13.155 11.946,24.313 23.067,35.43c11.112,11.125 22.27,17.975 35.416,23.083c12.725,4.946 27.263,8.317 48.55,9.292c21.334,0.971 28.146,1.208 82.459,1.208c54.32,0 61.116,-0.238 82.45,-1.208c21.291,-0.975 35.841,-4.346 48.566,-9.292c13.15,-5.108 24.292,-11.958 35.404,-23.083c11.125,-11.117 17.959,-22.275 23.084,-35.425c4.916,-12.721 8.291,-27.259 9.291,-48.542c0.959,-21.333 1.209,-28.133 1.209,-82.45c-0,-54.317 -0.25,-61.133 -1.209,-82.467c-0.999,-21.291 -4.375,-35.825 -9.291,-48.541c-5.125,-13.155 -11.959,-24.313 -23.084,-35.43c-11.125,-11.125 -22.25,-17.958 -35.416,-23.062c-12.75,-4.946 -27.292,-8.317 -48.584,-9.292c-21.325,-0.97 -28.119,-1.208 -82.395,-1.208l-0.063,0Zm-17.879,36.042c5.325,-0.009 11.267,-0 17.942,-0c53.4,-0 59.729,0.191 80.816,1.15c19.5,0.891 30.084,4.15 37.134,6.887c9.333,3.625 15.987,7.958 22.983,14.958c7,7 11.333,13.667 14.967,23c2.737,7.042 6,17.625 6.887,37.125c0.959,21.084 1.167,27.417 1.167,80.792c-0,53.375 -0.208,59.708 -1.167,80.792c-0.891,19.5 -4.15,30.083 -6.887,37.125c-3.625,9.333 -7.967,15.979 -14.967,22.975c-7,7 -13.646,11.333 -22.983,14.958c-7.042,2.75 -17.634,6 -37.134,6.892c-21.083,0.958 -27.416,1.166 -80.816,1.166c-53.405,0 -59.734,-0.208 -80.817,-1.166c-19.5,-0.9 -30.083,-4.159 -37.137,-6.896c-9.334,-3.625 -16.001,-7.958 -23,-14.958c-7,-7 -11.334,-13.65 -14.967,-22.988c-2.738,-7.042 -6,-17.625 -6.888,-37.125c-0.958,-21.083 -1.15,-27.417 -1.15,-80.825c0,-53.408 0.192,-59.708 1.15,-80.792c0.892,-19.5 4.15,-30.083 6.888,-37.133c3.625,-9.333 7.967,-16 14.967,-23c7,-7 13.666,-11.333 23,-14.967c7.05,-2.75 17.637,-6 37.137,-6.895c18.45,-0.834 25.6,-1.084 62.875,-1.125l0,0.05Zm17.94,61.25c-56.721,-0 -102.707,45.987 -102.707,102.708c0,56.721 45.988,102.687 102.709,102.687c56.72,0 102.691,-45.966 102.691,-102.687c0,-56.721 -45.973,-102.708 -102.693,-102.708Zm0.002,36.041c36.816,0 66.666,29.846 66.666,66.667c0,36.817 -29.85,66.667 -66.666,66.667c-36.821,-0 -66.667,-29.85 -66.667,-66.667c-0,-36.821 29.846,-66.667 66.667,-66.667Zm106.758,-64.083c-13.25,-0 -24,10.737 -24,23.992c-0,13.25 10.75,24 24,24c13.25,-0 24,-10.75 24,-24c-0,-13.25 -10.75,-24 -24,-24l-0,0.008Z" style="fill:url(#_Radial2);"/><defs><radialGradient id="_Radial1" cx="0" cy="0" r="1" gradientUnits="userSpaceOnUse" gradientTransform="matrix(0,-536.786,499.39,0,148.077,587.504)"><stop offset="0" style="stop-color:#fd5;stop-opacity:1"/><stop offset="0.1" style="stop-color:#fd5;stop-opacity:1"/><stop offset="0.5" style="stop-color:#ff543e;stop-opacity:1"/><stop offset="1" style="stop-color:#c837ab;stop-opacity:1"/></radialGradient><radialGradient id="_Radial2" cx="0" cy="0" r="1" gradientUnits="userSpaceOnUse" gradientTransform="matrix(47.1088,235.278,-970.071,194.236,-86.5801,43.1841)"><stop offset="0" style="stop-color:#3771c8;stop-opacity:1"/><stop offset="0.13" style="stop-color:#3771c8;stop-opacity:1"/><stop offset="1" style="stop-color:#60f;stop-opacity:0"/></radialGradient></defs></svg>