<?xml version="1.0" encoding="UTF-8" standalone="no"?><!DOCTYPE svg PUBLIC "-//W3C//DTD SVG 1.1//EN" "http://www.w3.org/Graphics/SVG/1.1/DTD/svg11.dtd"><svg width="100%" height="100%" viewBox="0 0 100 100" version="1.1" xmlns="http://www.w3.org/2000/svg" xmlns:xlink="http://www.w3.org/1999/xlink" xml:space="preserve" xmlns:serif="http://www.serif.com/" style="fill-rule:evenodd;clip-rule:evenodd;stroke-linejoin:round;stroke-miterlimit:2;"><path d="M47.296,11.313c17.529,-0 22.079,0.216 28.571,0.866c15.258,1.513 24.133,10.929 24.133,24.458l0,1.73c0,12.55 -9.2,22.833 -21.646,23.912c-1.065,3.439 -2.594,6.716 -4.546,9.742c-4.762,7.358 -14.283,16.667 -31.82,16.667l-3.459,-0c-14.287,-0 -25.325,-6.171 -31.925,-17.426c-5.846,-9.845 -6.604,-20.779 -6.604,-35.387c0,-14.4 8.658,-22.188 18.838,-23.479c7.683,-0.979 17.208,-1.084 28.458,-1.084Zm-0,8.113c-11.796,-0 -20.238,0.112 -26.625,1.083c-8.979,1.3 -12.55,6.388 -12.55,15.475c-0,13.963 0.866,22.942 5.408,31.275c5.196,9.634 14.613,13.313 25.325,13.313l3.354,-0c14.071,-0 20.888,-6.817 24.675,-12.767c1.842,-3.033 3.463,-6.387 4.329,-10.608l0.65,-2.704l3.896,-0c8.659,-0 16.125,-7.034 16.125,-16.017l0,-1.625c0,-10.067 -6.275,-15.371 -17.208,-16.667c-6.171,-0.541 -9.846,-0.758 -27.379,-0.758Zm27.275,9.529l0.004,0c5.518,0.002 8.546,3.251 8.546,8.442c-0,5.192 -3.029,8.333 -8.546,8.333c-1.733,0 -2.708,-0.975 -2.708,-2.271l-0,-12.229c-0,-1.299 0.973,-2.273 2.704,-2.275Zm-43.292,0.759c4.442,-0.001 7.579,2.27 9.633,5.408c2.275,-3.138 5.305,-5.409 9.742,-5.409c7.467,0.001 12.663,6.167 12.663,13.092c-0,6.388 -3.571,11.909 -8.225,16.238c-2.921,2.921 -7.68,5.954 -10.93,7.9c-1.931,1.153 -4.347,1.153 -6.279,-0c-3.246,-1.946 -8.008,-4.979 -11.037,-7.9c-4.546,-4.334 -8.121,-9.85 -8.121,-16.238c-0,-6.925 4.979,-13.091 12.554,-13.091Z"/></svg>