<?xml version="1.0" encoding="UTF-8" standalone="no"?><!DOCTYPE svg PUBLIC "-//W3C//DTD SVG 1.1//EN" "http://www.w3.org/Graphics/SVG/1.1/DTD/svg11.dtd"><svg width="100%" height="100%" viewBox="0 0 100 100" version="1.1" xmlns="http://www.w3.org/2000/svg" xmlns:xlink="http://www.w3.org/1999/xlink" xml:space="preserve" xmlns:serif="http://www.serif.com/" style="fill-rule:evenodd;clip-rule:evenodd;stroke-linejoin:round;stroke-miterlimit:2;"><path d="M47.296,11.313c-11.25,-0.001 -20.775,0.104 -28.458,1.083c-10.18,1.291 -18.838,9.079 -18.838,23.479c0,14.608 0.758,25.542 6.604,35.388c6.6,11.254 17.638,17.425 31.925,17.425l3.459,-0c17.537,-0 27.058,-9.309 31.82,-16.667c1.952,-3.026 3.481,-6.303 4.546,-9.742c12.446,-1.079 21.646,-11.362 21.646,-23.912l0,-1.73c0,-13.529 -8.875,-22.945 -24.133,-24.458c-6.492,-0.65 -11.042,-0.866 -28.571,-0.866Zm-0,8.112c17.533,0 21.208,0.217 27.379,0.758c10.933,1.296 17.208,6.6 17.208,16.667l0,1.625c0,8.983 -7.466,16.017 -16.125,16.017l-3.896,-0l-0.65,2.704c-0.866,4.221 -2.487,7.575 -4.329,10.608c-3.787,5.95 -10.604,12.767 -24.675,12.767l-3.354,-0c-10.712,-0 -20.129,-3.679 -25.325,-13.313c-4.542,-8.333 -5.408,-17.312 -5.408,-31.275c-0,-9.087 3.571,-14.175 12.55,-15.475c6.387,-0.97 14.829,-1.083 26.625,-1.083Z" style="fill:#fff;"/><path d="M74.571,28.954c-1.731,0.002 -2.704,0.976 -2.704,2.275l-0,12.229c-0,1.296 0.975,2.271 2.708,2.271c5.517,0 8.546,-3.142 8.546,-8.333c-0,-5.191 -3.028,-8.44 -8.546,-8.442l-0.004,0Z" style="fill:#fff;"/><path d="M31.279,29.713c-7.575,-0 -12.554,6.166 -12.554,13.091c-0,6.388 3.575,11.904 8.121,16.238c3.029,2.92 7.791,5.954 11.037,7.9c1.932,1.153 4.348,1.153 6.279,-0c3.25,-1.946 8.009,-4.98 10.93,-7.9c4.654,-4.33 8.225,-9.85 8.225,-16.238c-0,-6.925 -5.196,-13.092 -12.663,-13.092c-4.437,0 -7.467,2.271 -9.742,5.409c-2.054,-3.138 -5.191,-5.409 -9.633,-5.409Z" style="fill:url(#_Radial1);"/><defs><radialGradient id="_Radial1" cx="0" cy="0" r="1" gradientUnits="userSpaceOnUse" gradientTransform="matrix(-65.5822,46.9057,-42.767,-59.7955,82.1604,21.992)"><stop offset="0" style="stop-color:#ff8666;stop-opacity:1"/><stop offset="1" style="stop-color:#ff5578;stop-opacity:1"/></radialGradient></defs></svg>