<?xml version="1.0" encoding="UTF-8" standalone="no"?><!DOCTYPE svg PUBLIC "-//W3C//DTD SVG 1.1//EN" "http://www.w3.org/Graphics/SVG/1.1/DTD/svg11.dtd"><svg width="100%" height="100%" viewBox="0 0 3334 3334" version="1.1" xmlns="http://www.w3.org/2000/svg" xmlns:xlink="http://www.w3.org/1999/xlink" xml:space="preserve" xmlns:serif="http://www.serif.com/" style="fill-rule:evenodd;clip-rule:evenodd;stroke-linejoin:round;stroke-miterlimit:2;"><g><path d="M1666.67,3193.06c-719.548,-0 -1079.32,-0 -1302.85,-223.54c-223.535,-223.524 -223.535,-583.31 -223.535,-1302.85c-0,-719.548 -0,-1079.32 223.535,-1302.85c223.533,-223.535 583.306,-223.535 1302.85,-223.535c719.539,-0 1079.33,-0 1302.85,223.535c223.54,223.533 223.54,583.306 223.54,1302.85c-0,719.539 -0,1079.33 -223.54,1302.85c-223.524,223.54 -583.31,223.54 -1302.85,223.54Z" style="fill:#1c274c;fill-opacity:0.5;fill-rule:nonzero;"/><path d="M1238.97,941.632l15.887,-0c137.137,-0.005 251.494,-0.008 342.284,12.197c95.826,12.885 182.342,41.225 251.854,110.747c69.527,69.523 97.872,156.039 110.755,251.864c12.211,90.786 12.195,205.143 12.195,342.289l0,7.938c0,63.223 -51.256,114.479 -114.479,114.479c-63.223,-0 -114.479,-51.256 -114.479,-114.479c0,-147.144 -0.244,-245.993 -10.15,-319.718c-9.479,-70.438 -25.842,-100.583 -45.731,-120.475c-19.889,-19.891 -50.035,-36.257 -120.478,-45.727c-73.724,-9.913 -172.573,-10.157 -319.717,-10.157c-147.146,0 -245.989,0.244 -319.718,10.157c-70.438,9.47 -100.583,25.836 -120.475,45.727c-19.891,19.892 -36.257,50.037 -45.727,120.475c-9.912,73.725 -10.157,172.574 -10.157,319.718c0,147.144 0.245,245.992 10.157,319.717c9.47,70.443 25.836,100.589 45.727,120.478c19.892,19.889 50.037,36.252 120.475,45.731c73.729,9.906 172.572,10.15 319.718,10.15c63.226,0 114.479,51.256 114.479,114.479c-0,63.223 -51.253,114.479 -114.479,114.479l-7.941,0c-137.141,0 -251.5,0.016 -342.286,-12.195c-95.825,-12.883 -182.341,-41.228 -251.863,-110.755c-69.523,-69.512 -97.863,-156.028 -110.748,-251.854c-12.205,-90.79 -12.202,-205.147 -12.197,-342.293l0,-15.89c-0.005,-137.131 -0.008,-251.488 12.197,-342.274c12.885,-95.825 41.225,-182.341 110.748,-251.864c69.522,-69.522 156.038,-97.862 251.863,-110.747c90.785,-12.205 205.148,-12.202 342.286,-12.197Z" style="fill:#f7f7f8;fill-rule:nonzero;"/><path d="M2406.14,1180.75c-73.725,-9.913 -172.573,-10.157 -319.717,-10.157c-63.223,0 -114.48,-51.253 -114.48,-114.479c0,-63.224 51.257,-114.479 114.48,-114.479l7.952,-0c137.131,-0.005 251.488,-0.008 342.278,12.197c95.826,12.885 182.342,41.225 251.854,110.747c69.527,69.523 97.872,156.039 110.754,251.864c12.212,90.786 12.196,205.143 12.196,342.274l0,15.905c0,137.131 0.016,251.488 -12.196,342.278c-12.882,95.826 -41.227,182.342 -110.754,251.854c-69.512,69.527 -156.028,97.872 -251.854,110.755c-90.79,12.211 -205.147,12.195 -342.293,12.195l-15.875,0c-137.146,0 -251.503,0.016 -342.292,-12.195c-95.827,-12.883 -182.343,-41.228 -251.854,-110.755c-69.528,-69.512 -97.873,-156.028 -110.755,-251.854c-12.204,-90.79 -12.201,-205.147 -12.196,-342.293l-0,-7.937c-0,-63.223 51.256,-114.479 114.479,-114.479c63.223,-0 114.479,51.256 114.479,114.479c0,147.144 0.244,245.992 10.151,319.717c9.479,70.443 25.841,100.589 45.73,120.478c19.889,19.889 50.035,36.252 120.478,45.731c73.725,9.906 172.574,10.15 319.718,10.15c147.143,0 245.992,-0.244 319.717,-10.15c70.443,-9.479 100.589,-25.842 120.478,-45.731c19.889,-19.889 36.252,-50.035 45.731,-120.478c9.906,-73.725 10.15,-172.573 10.15,-319.717c-0,-147.144 -0.244,-245.993 -10.15,-319.718c-9.479,-70.438 -25.842,-100.583 -45.731,-120.475c-19.889,-19.891 -50.035,-36.257 -120.478,-45.727Z" style="fill:#f7f7f8;fill-rule:nonzero;"/></g></svg>