<?xml version="1.0" encoding="UTF-8" standalone="no"?><!DOCTYPE svg PUBLIC "-//W3C//DTD SVG 1.1//EN" "http://www.w3.org/Graphics/SVG/1.1/DTD/svg11.dtd"><svg width="100%" height="100%" viewBox="0 0 10417 10417" version="1.1" xmlns="http://www.w3.org/2000/svg" xmlns:xlink="http://www.w3.org/1999/xlink" xml:space="preserve" xmlns:serif="http://www.serif.com/" style="fill-rule:evenodd;clip-rule:evenodd;stroke-linejoin:round;stroke-miterlimit:2;"><path d="M6376.29,4228.83c223.237,-15.766 429.229,95.005 575.766,256.625c-1.12,-66.037 -1.016,-132.1 0.305,-198.133l472.258,-0.525l-1.017,1842.65l-471.396,0.204c-1.37,-65.458 -0.608,-133.821 -0.812,-199.533c-43.792,54.37 -97.146,97.808 -154.063,137.483c-95.366,64.033 -204.875,103.963 -319.062,116.475c-221.708,23.296 -476.379,-76.854 -645.7,-216.675c-202.434,-165.712 -329.896,-405.733 -353.75,-666.25c-25.075,-260.958 55.237,-521.113 223.133,-722.483c173.038,-207.429 406.138,-326.017 674.338,-349.834Zm-2.238,478.046c-275.979,38.967 -468.342,293.946 -430.042,570.008c38.296,276.084 292.813,469.055 568.946,431.417c277.1,-37.737 470.938,-293.325 432.488,-570.321c-38.404,-277.029 -294.446,-470.204 -571.392,-431.104Z" style="fill:#fff;"/><path d="M3940.48,1756.74c541.363,-17.392 994.467,407.079 1012.4,948.429c17.925,541.346 -406.1,994.866 -947.429,1013.33c-542.083,18.487 -996.375,-406.258 -1014.33,-948.363c-17.954,-542.1 407.242,-995.975 949.358,-1013.39Zm-36.987,478.325c-276.746,37.758 -470.454,292.762 -432.6,569.495c37.85,276.734 292.921,470.359 569.646,432.413c276.591,-37.929 470.095,-292.85 432.262,-569.454c-37.833,-276.6 -292.692,-470.196 -569.308,-432.454Z" style="fill:#fff;"/><path d="M1393,6706.54c538.704,-59.663 1023.53,329.337 1082.08,868.125c58.55,538.837 -331.421,1022.85 -870.371,1080.32c-537.375,57.221 -1019.68,-331.316 -1078.05,-868.579c-58.375,-537.262 329.208,-1020.35 866.346,-1079.87Z" style="fill:#e83249;fill-rule:nonzero;"/><path d="M8899.75,1756.71c541.533,-8.875 987.496,423.355 995.583,964.9c8.088,541.55 -424.804,986.892 -966.391,994.171c-540.413,7.267 -984.596,-424.521 -992.684,-964.942c-8.087,-540.42 423.075,-985.266 963.488,-994.129l0.004,0Z" style="fill:#e83249;fill-rule:nonzero;"/><path d="M8877.58,6700.71c202.384,-12.512 432.18,30.263 622.1,102.13c56.713,21.466 104.779,47.05 159.609,68.766c-44.096,137.838 -93.538,293.529 -132.192,432.129c-145.925,-78.379 -296.479,-133.108 -463.767,-150.25c-85.55,-8.796 -440.925,-27.462 -452.421,104.625c-10.783,123.242 325.571,153.046 410.513,168.204c72.987,12.359 145.312,28.738 216.521,48.98c289.966,84.383 525.054,232.391 508.425,566.154c-6.717,160.471 -77.771,311.483 -197.146,418.904c-211.692,191.496 -494.538,208.792 -763.804,195.262c-286.613,-30.212 -465.496,-108.337 -702.617,-261.637c52.188,-144.5 101.013,-299.887 149.538,-446.321c195.92,170.288 447.895,262.196 707.445,258.079c79.346,-2.037 245.771,-18.616 298.059,-85.4c146.837,-187.733 -278.067,-220.946 -382.792,-240.579c-71.158,-12.871 -141.654,-29.096 -211.233,-48.575c-271.913,-77.921 -492.096,-202.637 -505.829,-506.95c-6.563,-144.704 21.412,-257.721 120.9,-367.275c159.15,-175.375 389.454,-242.821 618.691,-256.246Z" style="fill:#fff;fill-rule:nonzero;"/><path d="M4079.63,4228.88c261.525,-25.762 522.621,53.046 726.217,219.196c-67.367,138.396 -132.746,285.129 -196.675,425.533c-113.413,-101.387 -216.896,-152.754 -370.163,-170.696c-158.391,-18.537 -304.637,5.671 -431.295,109.384c-104.388,85.691 -170.38,209.404 -183.413,343.812c-12.533,135.654 29.479,270.742 116.75,375.367c87.767,104.271 213.892,168.662 349.8,178.683c204.358,15.867 364.808,-32.504 518.671,-165.458c24.033,55.337 49.133,110.171 75.283,164.491c39.417,86.975 79.825,173.492 121.213,259.55c-163.404,129.038 -332.271,201.163 -541.046,217.338c-286.258,22.175 -555.208,-39.775 -776.996,-230.254c-199.85,-169.934 -322.992,-413.109 -341.733,-674.796c-19.813,-262.538 66.796,-522.008 240.329,-720.008c183.312,-208.704 418.092,-314.98 693.058,-332.142Z" style="fill:#fff;fill-rule:nonzero;"/><path d="M8844.67,4508.17c386.404,-39.288 731.354,242.391 770.112,628.846c38.759,386.454 -243.379,730.995 -629.883,769.245c-385.742,38.196 -729.521,-243.275 -768.229,-629.016c-38.705,-385.705 242.362,-729.867 628,-769.075Z" style="fill:#e83249;fill-rule:nonzero;"/><path d="M1426.46,4508.54c386.067,-41.171 732.334,238.608 773.167,624.7c40.833,386.1 -239.262,732.116 -625.4,772.604c-385.65,40.437 -731.146,-239.204 -771.925,-624.846c-40.779,-385.596 238.579,-731.333 624.158,-772.458Z" style="fill:#e83249;fill-rule:nonzero;"/><path d="M3914.96,6980.17c386.371,-31.484 725.234,255.941 757.217,642.296c31.979,386.3 -255.004,725.554 -641.3,758.004c-386.983,32.55 -726.962,-255.075 -759,-642.092c-32.037,-387.063 256.013,-726.675 643.083,-758.208Z" style="fill:#e83249;fill-rule:nonzero;"/><path d="M6390.04,2036.07c386.504,-30.208 724.383,258.546 754.8,645.066c30.416,386.521 -258.18,724.551 -644.684,755.146c-386.758,30.629 -725.095,-258.208 -755.512,-645.008c-30.417,-386.8 258.583,-724.979 645.396,-755.204Z" style="fill:#e83249;fill-rule:nonzero;"/><path d="M5655.58,6759.83c159.967,1.884 323.234,0.154 483.4,0.104l0.409,1364.8l1092.88,-0.408l-0.15,471.092l-1576.8,0.1l0.254,-1835.68Z" style="fill:#fff;fill-rule:nonzero;"/><path d="M722.492,1814.68l464.325,0.567l-0.017,1373.32c361.971,6.362 740.513,0.662 1103.81,0.646l-0.555,473.054c-175.358,3.725 -363.558,0.525 -539.85,0.537l-1028.23,0.067c-4.213,-248.017 -0.363,-507.958 -0.367,-756.779l0.884,-1091.41Z" style="fill:#fff;fill-rule:nonzero;"/></svg>