<?xml version="1.0" encoding="UTF-8" standalone="no"?><!DOCTYPE svg PUBLIC "-//W3C//DTD SVG 1.1//EN" "http://www.w3.org/Graphics/SVG/1.1/DTD/svg11.dtd"><svg width="100%" height="100%" viewBox="0 0 889 155" version="1.1" xmlns="http://www.w3.org/2000/svg" xmlns:xlink="http://www.w3.org/1999/xlink" xml:space="preserve" xmlns:serif="http://www.serif.com/" style="fill-rule:evenodd;clip-rule:evenodd;stroke-linejoin:round;stroke-miterlimit:2;"><g id="g16480"><g id="g13802"><path id="path13804" d="M351.116,150.943l3.687,-25.062c-2.015,-0 -4.978,0.872 -7.597,0.872c-10.262,-0 -11.543,-5.485 -10.737,-9.491l10.112,-50.406l15.6,-0l3.216,-28.447l-14.703,0l2.993,-17.237l-30.756,-0c-0.65,0.65 -17.4,96.943 -17.4,108.675c0,17.359 9.744,25.084 23.488,24.962c10.756,-0.091 19.14,-3.069 22.097,-3.866Z" style="fill:#006;fill-rule:nonzero;"/><path id="path13806" d="M360.45,103.168c-0,41.663 27.497,51.56 50.928,51.56c21.628,-0 32.969,-5.013 32.969,-5.013l5.194,-28.437c-0,-0 -18.275,7.431 -33.128,7.431c-31.66,0 -26.11,-23.606 -26.11,-23.606l60.822,0.184c0,0 3.872,-19.097 3.872,-26.881c-0,-19.428 -10.584,-43.278 -42.953,-43.278c-29.644,0.006 -51.594,31.947 -51.594,68.04Zm51.706,-41.64c16.638,-0 13.569,18.7 13.569,20.215l-32.731,0c-0,-1.937 3.09,-20.215 19.162,-20.215Z" style="fill:#006;fill-rule:nonzero;"/><path id="path13808" d="M598.838,150.934l5.278,-32.137c-0,-0 -14.475,7.253 -24.397,7.253c-20.916,-0 -29.306,-15.969 -29.306,-33.128c-0,-34.804 17.993,-53.954 38.025,-53.954c15.025,0 27.078,8.435 27.078,8.435l4.812,-31.228c0,-0 -14.231,-10.278 -29.55,-10.338c-46.078,-0.181 -72.444,31.9 -72.444,87.36c0,36.759 19.525,61.775 54.707,61.775c9.947,-0 25.797,-4.038 25.797,-4.038Z" style="fill:#006;fill-rule:nonzero;"/><path id="path13810" d="M188.963,35.587c-20.216,0 -35.71,6.497 -35.71,6.497l-4.281,25.397c-0,-0 12.791,-5.197 32.128,-5.197c10.978,0 19.009,1.234 19.009,10.156c0,5.419 -0.981,7.419 -0.981,7.419c0,0 -8.662,-0.722 -12.675,-0.722c-28.781,0 -52.278,10.881 -52.278,43.688c0,25.853 17.572,31.781 28.463,31.781c20.803,-0 29.037,-13.134 29.512,-13.172l-0.241,10.9l25.96,0l11.581,-81.187c0,-34.454 -30.05,-35.56 -40.487,-35.56Zm4.493,65.925c0.566,4.956 -1.281,28.394 -19.037,28.394c-9.156,-0 -11.535,-7 -11.535,-11.131c0,-8.075 4.385,-17.76 25.985,-17.76c5.031,0 3.74,0.363 4.587,0.497Z" style="fill:#006;fill-rule:nonzero;"/><path id="path13812" d="M257.041,154.006c6.64,-0 44.6,1.691 44.6,-37.481c-0,-36.628 -35.138,-29.388 -35.138,-44.107c0,-7.318 5.728,-9.625 16.2,-9.625c4.153,0 20.147,1.322 20.147,1.322l3.716,-26.031c-0,0.003 -10.35,-2.316 -27.2,-2.316c-21.81,0 -43.947,8.707 -43.947,38.494c-0,33.756 36.912,30.366 36.912,44.585c0,9.49 -10.312,10.271 -18.262,10.271c-13.753,0 -26.135,-4.721 -26.178,-4.493l-3.935,25.765c0.716,0.219 8.357,3.616 33.085,3.616Z" style="fill:#006;fill-rule:nonzero;"/><path id="path13814" d="M842.016,11.972l-5.328,39.715c-0,0 -11.104,-15.328 -28.476,-15.328c-32.684,0 -49.528,32.572 -49.528,69.988c0,24.156 12.013,47.834 36.56,47.834c17.659,-0 27.45,-12.316 27.45,-12.316l-1.297,10.516l28.681,-0l22.522,-140.194l-30.584,-0.215Zm-12.663,77.19c0,15.572 -7.712,36.375 -23.691,36.375c-10.612,0 -15.587,-8.909 -15.587,-22.887c-0,-22.86 10.266,-37.938 23.225,-37.938c10.606,0 16.053,7.281 16.053,24.45Z" style="fill:#006;fill-rule:nonzero;"/><path id="path13816" d="M29.334,152.497l17.947,-105.844l2.638,105.844l20.309,-0l37.891,-105.844l-16.785,105.844l30.182,-0l23.24,-140.382l-47.944,-0.365l-28.518,85.95l-0.781,-85.585l-43.938,0l-23.575,140.382l29.334,-0Z" style="fill:#006;fill-rule:nonzero;"/><path id="path13818" d="M483.559,152.697c8.582,-48.797 11.638,-87.335 36.663,-79.354c3.594,-18.887 12.159,-35.312 16.072,-43.306c-0,0 -1.238,-1.84 -8.972,-1.84c-13.203,-0 -30.831,26.793 -30.831,26.793l2.634,-16.565l-27.456,-0l-18.388,114.268l30.278,0l0,0.004Z" style="fill:#006;fill-rule:nonzero;"/><g id="use14699"><path id="path13810_1_" d="M660.588,35.587c-20.225,0 -35.719,6.497 -35.719,6.497l-4.278,25.397c-0,-0 12.797,-5.197 32.125,-5.197c10.981,0 19.009,1.234 19.009,10.156c0,5.419 -0.978,7.419 -0.978,7.419c0,0 -8.659,-0.722 -12.672,-0.722c-28.784,0 -52.278,10.881 -52.278,43.688c0,25.853 17.569,31.781 28.46,31.781c20.796,-0 29.037,-13.134 29.509,-13.172l-0.244,10.9l25.966,0l11.578,-81.187c0.003,-34.454 -30.047,-35.56 -40.478,-35.56Zm4.487,65.925c0.563,4.956 -1.284,28.394 -19.037,28.394c-9.163,-0 -11.538,-7 -11.538,-11.131c0,-8.075 4.382,-17.76 25.985,-17.76c5.034,0 3.747,0.363 4.59,0.497Z" style="fill:#006;fill-rule:nonzero;"/></g><path id="use14701" d="M730.95,152.697c4.712,-35.9 13.434,-86.3 36.659,-79.354c3.591,-18.887 0.129,-18.837 -7.603,-18.837c-13.212,-0 -16.137,0.481 -16.137,0.481l2.637,-16.565l-27.453,-0l-18.387,114.271l30.284,0l-0,0.004Z" style="fill:#006;fill-rule:nonzero;"/></g><g id="g10289"><path id="path4157" d="M358.8,142.003l3.691,-25.059c-2.016,-0 -4.981,0.862 -7.597,0.862c-10.263,0 -11.394,-5.456 -10.741,-9.49l8.291,-51.132l15.597,0l3.765,-27.718l-14.706,-0l2.994,-17.238l-29.481,0c-0.65,0.65 -17.403,96.947 -17.403,108.672c-0,17.359 9.746,25.091 23.49,24.966c10.763,-0.091 19.144,-3.069 22.1,-3.863Z" style="fill:#fff;fill-rule:nonzero;"/><path id="path4155" d="M368.141,94.225c-0,41.662 27.5,51.562 50.928,51.562c21.625,0 31.141,-4.834 31.141,-4.834l5.193,-28.434c0,-0 -16.45,7.247 -31.306,7.247c-31.656,-0 -26.112,-23.604 -26.112,-23.604l59.912,0c0,0 3.869,-19.103 3.869,-26.887c-0,-19.425 -9.669,-43.094 -42.038,-43.094c-29.643,0.006 -51.587,31.947 -51.587,68.044Zm51.7,-41.641c16.637,0 13.569,18.697 13.569,20.21l-32.732,-0c0,-1.932 3.094,-20.21 19.163,-20.21Z" style="fill:#fff;fill-rule:nonzero;"/><path id="path4151" d="M606.528,141.991l5.275,-32.141c0,-0 -14.465,7.253 -24.393,7.253c-20.913,0 -29.3,-15.969 -29.3,-33.125c-0,-34.803 17.993,-53.95 38.025,-53.95c15.021,0 27.078,8.434 27.078,8.434l4.812,-31.228c0,0 -17.878,-7.234 -33.203,-7.234c-34.034,-0 -67.144,29.525 -67.144,84.975c0,36.769 17.878,61.053 53.06,61.053c9.947,0.003 25.79,-4.037 25.79,-4.037Z" style="fill:#fff;fill-rule:nonzero;"/><path id="path4149" d="M196.653,26.641c-20.215,-0 -35.712,6.496 -35.712,6.496l-4.278,25.397c-0,0 12.79,-5.197 32.125,-5.197c10.978,0 19.009,1.235 19.009,10.157c0,5.418 -0.984,7.418 -0.984,7.418c-0,0 -8.66,-0.725 -12.669,-0.725c-25.497,0 -52.281,10.882 -52.281,43.688c-0,25.85 17.572,31.781 28.462,31.781c20.8,0 29.766,-13.497 30.244,-13.537l-0.972,11.265l25.959,0l11.582,-81.19c-0,-34.444 -30.047,-35.553 -40.485,-35.553Zm6.316,66.106c0.562,4.959 -3.109,28.206 -20.859,28.206c-9.157,0 -11.538,-6.994 -11.538,-11.131c0,-8.069 4.384,-17.756 25.988,-17.756c5.025,0.006 5.562,0.543 6.409,0.681Z" style="fill:#fff;fill-rule:nonzero;"/><path id="path4145" d="M264.728,145.062c6.641,0 44.603,1.688 44.603,-37.484c0,-36.622 -35.14,-29.387 -35.14,-44.1c-0,-7.325 5.728,-9.631 16.197,-9.631c4.156,-0 20.147,1.322 20.147,1.322l3.718,-26.032c0,0.004 -10.35,-2.315 -27.2,-2.315c-21.809,-0 -43.947,8.706 -43.947,38.494c0,33.753 36.913,30.365 36.913,44.584c-0,9.491 -10.313,10.262 -18.259,10.262c-13.754,0 -26.138,-4.718 -26.182,-4.493l-3.931,25.768c0.713,0.219 8.35,3.625 33.081,3.625Z" style="fill:#fff;fill-rule:nonzero;"/><path id="path4139" d="M850.731,3.281l-6.359,39.46c0,-0 -11.097,-15.329 -28.469,-15.329c-27.012,0 -49.528,32.569 -49.528,69.991c0,24.156 12.01,47.825 36.56,47.825c17.659,0 27.45,-12.312 27.45,-12.312l-1.297,10.515l28.675,0l22.522,-140.197l-29.554,0.047Zm-13.69,76.938c-0,15.572 -7.71,36.372 -23.694,36.372c-10.609,-0 -15.581,-8.907 -15.581,-22.885c-0,-22.856 10.265,-37.937 23.219,-37.937c10.612,-0.003 16.056,7.287 16.056,24.45Z" style="fill:#fff;fill-rule:nonzero;"/><path id="path4133" d="M37.025,143.553l17.947,-105.844l2.634,105.844l20.313,0l37.891,-105.844l-16.785,105.844l30.181,0l23.244,-140.384l-46.672,-0l-29.065,86.134l-1.513,-86.134l-43.022,-0l-23.578,140.384l28.425,0Z" style="fill:#fff;fill-rule:nonzero;"/><path id="path4131" d="M491.25,143.747c8.581,-48.8 10.172,-88.425 30.65,-81.172c3.585,-18.888 7.044,-26.194 10.956,-34.188c0,0 -1.834,-0.384 -5.684,-0.384c-13.203,0 -22.984,18.038 -22.984,18.038l2.628,-16.566l-27.45,-0l-18.391,114.272l30.275,-0Z" style="fill:#fff;fill-rule:nonzero;"/><g id="use8523"><path id="path4149_1_" d="M674.554,26.641c-20.216,-0 -35.713,6.496 -35.713,6.496l-4.275,25.397c0,0 12.791,-5.197 32.125,-5.197c10.979,0 19.004,1.235 19.004,10.157c-0,5.418 -0.979,7.418 -0.979,7.418c0,0 -8.659,-0.725 -12.671,-0.725c-25.494,0 -52.279,10.882 -52.279,43.688c0,25.85 17.569,31.781 28.46,31.781c20.8,0 29.765,-13.497 30.24,-13.537l-0.965,11.265l25.959,0l11.578,-81.19c0.003,-34.444 -30.047,-35.553 -40.484,-35.553Zm6.325,66.106c0.562,4.959 -3.113,28.206 -20.869,28.206c-9.156,0 -11.531,-6.994 -11.531,-11.131c-0,-8.069 4.384,-17.756 25.984,-17.756c5.025,0.006 5.56,0.543 6.416,0.681Z" style="fill:#fff;fill-rule:nonzero;"/></g><g id="use8525"><path id="path4131_1_" d="M738.765,143.747c8.584,-48.8 10.175,-88.425 30.647,-81.172c3.59,-18.888 7.053,-26.194 10.962,-34.188c0,0 -1.834,-0.384 -5.684,-0.384c-13.203,0 -22.985,18.038 -22.985,18.038l2.629,-16.566l-27.45,-0l-18.391,114.272l30.272,-0Z" style="fill:#fff;fill-rule:nonzero;"/></g><path id="text9407" d="M879.647,126.116c1.497,-0 2.972,0.384 4.394,1.165c1.434,0.756 2.55,1.869 3.35,3.31c0.803,1.431 1.197,2.921 1.197,4.481c-0,1.54 -0.394,3.028 -1.185,4.45c-0.784,1.422 -1.887,2.537 -3.309,3.322c-1.419,0.781 -2.906,1.175 -4.45,1.175c-1.556,-0 -3.044,-0.394 -4.466,-1.175c-1.418,-0.791 -2.518,-1.9 -3.306,-3.322c-0.8,-1.422 -1.191,-2.91 -1.191,-4.45c0,-1.56 0.397,-3.05 1.2,-4.481c0.807,-1.441 1.925,-2.547 3.354,-3.31c1.44,-0.781 2.915,-1.165 4.412,-1.165m0,1.475c-1.253,-0 -2.478,0.325 -3.675,0.978c-1.194,0.637 -2.122,1.559 -2.794,2.765c-0.668,1.191 -1.006,2.438 -1.006,3.732c0,1.293 0.325,2.531 0.978,3.712c0.666,1.178 1.591,2.103 2.785,2.769c1.181,0.65 2.415,0.978 3.712,0.978c1.288,0 2.531,-0.328 3.713,-0.978c1.181,-0.666 2.106,-1.591 2.762,-2.769c0.659,-1.19 0.981,-2.419 0.981,-3.712c0,-1.294 -0.334,-2.541 -1.003,-3.732c-0.665,-1.206 -1.594,-2.128 -2.794,-2.765c-1.187,-0.65 -2.403,-0.978 -3.659,-0.978m-3.922,12.425l0,-9.635l3.316,0c1.128,0 1.953,0.091 2.453,0.275c0.506,0.172 0.903,0.481 1.212,0.928c0.304,0.444 0.457,0.91 0.457,1.41c-0,0.703 -0.257,1.318 -0.763,1.837c-0.494,0.519 -1.159,0.819 -1.99,0.875c0.331,0.144 0.606,0.316 0.818,0.51c0.385,0.381 0.86,1.018 1.422,1.909l1.178,1.887l-1.903,0l-0.847,-1.515c-0.675,-1.197 -1.215,-1.941 -1.628,-2.244c-0.284,-0.222 -0.7,-0.331 -1.247,-0.331l-0.909,-0l-0,4.097l-1.569,-0.003m1.556,-5.422l1.888,-0c0.903,-0 1.512,-0.135 1.837,-0.403c0.329,-0.263 0.5,-0.622 0.5,-1.069c0,-0.285 -0.078,-0.541 -0.234,-0.756c-0.159,-0.232 -0.381,-0.397 -0.666,-0.513c-0.284,-0.109 -0.793,-0.166 -1.556,-0.166l-1.765,0l-0,2.907" style="fill:#fff;fill-rule:nonzero;"/></g></g></svg>