<?xml version="1.0" encoding="UTF-8" standalone="no"?><!DOCTYPE svg PUBLIC "-//W3C//DTD SVG 1.1//EN" "http://www.w3.org/Graphics/SVG/1.1/DTD/svg11.dtd"><svg width="100%" height="100%" viewBox="0 0 9498 5623" version="1.1" xmlns="http://www.w3.org/2000/svg" xmlns:xlink="http://www.w3.org/1999/xlink" xml:space="preserve" xmlns:serif="http://www.serif.com/" style="fill-rule:evenodd;clip-rule:evenodd;stroke-linejoin:round;stroke-miterlimit:2;"><g><path d="M9497.6,2811.3c-0,1552.48 -1258.66,2811.14 -2811.2,2811.09c-673.725,0 -1286.76,-235.833 -1770.91,-630.979c369.314,-356.506 651.244,-802.991 802.504,-1307.62l-233.564,-0c-146.396,448.699 -403.468,844.493 -737.763,1162.2c-336.446,-320.418 -588.296,-719.278 -732.954,-1160.79l-233.618,-0c150.611,501.767 427.732,948.792 794.182,1304.27c-482.962,391.146 -1093.13,632.978 -1763.02,632.978c-1552.59,0 -2811.25,-1258.66 -2811.25,-2811.2c0,-1552.59 1258.72,-2811.25 2811.25,-2811.25c669.942,0 1280.06,241.832 1763.02,632.979c-371.59,359.92 -645.013,808.977 -794.182,1304.33l233.618,-0c144.646,-441.523 396.498,-840.386 732.954,-1160.79c334.241,317.651 591.367,713.499 737.763,1162.14l233.564,-0c-151.26,-504.632 -433.19,-951.062 -802.504,-1307.62c484.15,-395.199 1097.19,-630.979 1770.91,-630.979c1552.54,0 2811.2,1258.66 2811.2,2811.25Zm-3035.36,-305.222l184.982,-184.873c-72.523,-79.818 -156.016,-158.177 -388.012,-166.824c-195.79,-7.241 -531.329,135.642 -638.275,525.762c-145.045,529.491 174.011,790.507 467.776,790.507c155.908,0 250.263,-21.724 344.51,-65.227l-83.385,-253.829c-290.145,97.813 -496.796,-50.798 -449.619,-351.751c39.774,-254.424 250.155,-344.509 344.402,-344.509c94.355,-0 144.991,7.187 217.621,50.744Zm-3060.49,166.877l65.227,-210.38c-134.183,-50.744 -239.292,-39.828 -279.228,-39.828c-39.936,0 -379.474,-4.161 -431.515,246.588c-39.882,192.222 30.479,271.716 97.922,300.952c108.838,47.178 170.498,90.681 228.538,119.7c71.766,35.883 58.58,155.908 -36.315,155.908c-43.557,-0 -232.051,21.724 -373.476,-25.453l-39.882,213.947c130.563,36.315 235.618,36.315 333.648,36.315c68.847,0 406.115,18.158 453.185,-293.765c23.021,-152.071 -43.503,-221.243 -97.922,-253.721c-54.365,-36.315 -145.045,-87.06 -203.031,-112.513c-58.039,-25.345 -101.542,-123.213 3.621,-152.232c65.227,-7.296 199.356,-7.296 279.228,14.482Zm1502.06,797.695l0,0.054l282.903,0l86.952,-471.505c83.384,-308.086 217.675,-286.362 286.469,-286.362l72.523,-271.986c-141.317,-0 -224.701,50.744 -268.312,101.542l-25.345,-101.542l-242.967,-0l-192.223,1029.8Zm-3336.96,0l235.671,-1254.66l-464.101,0l-344.564,761.542l-54.419,-761.542l-453.239,0l-242.967,1254.66l282.795,0l174.065,-906.532l76.197,906.532l268.312,0l395.308,-884.754l-166.823,884.754l293.765,0Zm5098.47,-1011.64l-43.611,224.81c69.01,-7.188 253.83,-36.208 351.805,-32.641c97.922,3.621 206.76,-10.862 174.065,145.045c-72.522,7.296 -580.18,-72.522 -659.89,362.559c-32.695,214.055 152.178,322.785 297.223,315.598c145.154,-7.296 184.928,-25.453 235.78,-61.769l36.315,58.04l264.583,0l112.513,-565.644c29.02,-141.424 76.089,-482.313 -398.982,-482.313c-86.952,3.675 -184.873,0 -369.801,36.315Zm435.19,547.541l-21.832,112.296c-18.158,94.463 -152.071,154.665 -242.859,119.808c-94.355,-36.423 -68.956,-145.099 21.724,-206.759c90.68,-61.661 195.789,-32.749 242.967,-25.345Zm-5221.9,-547.541l-43.502,224.81c68.956,-7.188 253.883,-36.208 351.75,-32.641c97.976,3.621 206.706,-10.862 174.066,145.045c-72.523,7.296 -580.181,-72.522 -659.891,362.559c-32.641,214.055 152.232,322.785 297.278,315.598c145.045,-7.296 184.927,-25.453 235.725,-61.769l36.261,58.04l264.638,0l112.458,-565.644c29.02,-141.424 76.09,-482.313 -398.874,-482.313c-87.006,3.675 -184.873,0 -369.909,36.315Zm435.244,547.541l-21.778,112.296c-18.266,94.463 -152.233,154.665 -242.967,119.808c-94.301,-36.423 -68.956,-145.099 21.724,-206.759c90.68,-61.661 195.844,-32.749 243.021,-25.345Zm5117.65,463.236l285.767,0l87.925,-476.152c84.195,-311.274 216.054,-293.063 285.713,-293.063l76.845,-270.96c-142.829,0 -227.078,51.177 -271.068,102.515l-25.669,-102.515l-245.399,0l-194.114,1040.17Zm-3761.5,-1304.54l-195.843,986.351c-54.473,282.795 159.528,322.785 224.755,322.785c65.335,-0 148.72,-10.97 210.38,-50.852l18.158,-210.273c-163.203,25.399 -170.498,-47.177 -155.961,-126.995l79.818,-420.599l145.045,-0l50.69,-224.809l-152.233,-0l58.04,-275.608l-282.849,0Zm1225.7,841.306c32.641,-166.878 108.838,-580.181 -387.958,-580.181c-456.968,-0 -514.954,453.239 -525.816,518.466c-10.862,65.335 -18.104,525.816 471.397,525.816c119.7,3.675 293.765,-10.862 362.721,-47.177l43.503,-213.839c-43.503,10.754 -206.76,25.345 -319.219,25.345c-112.35,-0 -293.657,7.295 -261.07,-228.43l616.442,-0Zm-598.339,-188.548c32.641,-130.563 112.405,-188.602 224.864,-188.602c112.404,-0 145.045,87.059 126.887,188.602l-351.751,-0Zm4576.33,-268.42c-54.473,-39.828 -86.951,-123.213 -221.243,-123.213c-155.907,-0 -398.874,-29.02 -536.624,442.377c-92.139,315.057 94.247,601.959 297.224,601.959c94.355,-3.567 188.602,-43.503 246.534,-83.385l36.423,83.385l304.519,0l246.642,-1319.89l-297.44,0l-76.035,398.767Zm-101.542,424.273c-50.745,126.942 -115.972,210.326 -221.189,210.38c-97.868,0 -184.927,-112.404 -145.045,-261.016c61.012,-227.403 261.124,-319.11 348.076,-203.085c31.343,41.773 47.177,159.474 18.158,253.721Z"/></g></svg>