<?xml version="1.0" encoding="UTF-8" standalone="no"?><!DOCTYPE svg PUBLIC "-//W3C//DTD SVG 1.1//EN" "http://www.w3.org/Graphics/SVG/1.1/DTD/svg11.dtd"><svg width="100%" height="100%" viewBox="0 0 486 378" version="1.1" xmlns="http://www.w3.org/2000/svg" xmlns:xlink="http://www.w3.org/1999/xlink" xml:space="preserve" xmlns:serif="http://www.serif.com/" style="fill-rule:evenodd;clip-rule:evenodd;stroke-linejoin:round;stroke-miterlimit:2;"><g id="surface1"><path d="M242.708,32.129c-1.937,1.514 -3.825,3.076 -5.68,4.687c-31.608,27.507 -51.611,67.985 -51.611,113.184c-0,45.182 20.003,85.661 51.611,113.167c1.855,1.612 3.743,3.174 5.68,4.704c1.921,-1.53 3.825,-3.092 5.681,-4.704c31.591,-27.506 51.611,-67.985 51.611,-113.167c0,-45.199 -20.02,-85.677 -51.611,-113.184c-1.856,-1.611 -3.76,-3.173 -5.681,-4.687m92.692,-32.129c-30.696,-0 -59.261,9.229 -83.024,25.065c1.205,0.993 2.442,1.97 3.614,2.995c35.351,30.745 55.615,75.195 55.615,121.94c-0,46.729 -20.264,91.178 -55.599,121.924c-1.188,1.009 -2.425,2.002 -3.63,2.995c23.763,15.836 52.328,25.081 83.024,25.081c82.845,-0 150,-67.171 150,-150c0,-82.845 -67.155,-150 -150,-150Zm-105.989,271.924c1.172,1.009 2.409,2.002 3.629,2.995c-23.779,15.836 -52.327,25.081 -83.04,25.081c-82.845,-0 -150,-67.171 -150,-150c0,-82.845 67.155,-150 150,-150c30.713,-0 59.261,9.229 83.04,25.065c-1.22,0.993 -2.457,1.97 -3.629,2.995c-35.335,30.745 -55.599,75.195 -55.599,121.94c-0,46.745 20.264,91.178 55.599,121.924Zm246.354,100.521l-0,0.976l0.911,0c0.196,0 0.375,-0.032 0.489,-0.114c0.13,-0.081 0.179,-0.211 0.179,-0.374c-0,-0.163 -0.049,-0.293 -0.179,-0.374c-0.114,-0.066 -0.293,-0.114 -0.489,-0.114l-0.911,-0Zm0.911,-0.684c0.472,0 0.847,0.098 1.091,0.309c0.26,0.212 0.391,0.489 0.391,0.863c-0,0.293 -0.098,0.553 -0.31,0.749c-0.211,0.195 -0.488,0.309 -0.862,0.358l1.204,1.399l-0.944,0l-1.123,-1.383l-0.358,-0l-0,1.383l-0.781,0l-0,-3.678l1.692,0Zm-0.227,4.932c0.423,-0 0.83,-0.082 1.188,-0.244c0.374,-0.163 0.7,-0.375 0.976,-0.651c0.277,-0.277 0.489,-0.619 0.651,-0.993c0.163,-0.375 0.244,-0.765 0.244,-1.205c0,-0.423 -0.081,-0.814 -0.244,-1.188c-0.162,-0.374 -0.374,-0.716 -0.651,-0.993c-0.276,-0.276 -0.602,-0.488 -0.976,-0.651c-0.358,-0.163 -0.765,-0.244 -1.188,-0.244c-0.44,0 -0.847,0.081 -1.221,0.244c-0.374,0.163 -0.7,0.375 -0.977,0.651c-0.276,0.277 -0.504,0.619 -0.667,0.993c-0.147,0.374 -0.228,0.765 -0.228,1.188c0,0.44 0.081,0.83 0.228,1.205c0.163,0.374 0.391,0.716 0.667,0.993c0.277,0.276 0.603,0.488 0.977,0.651c0.374,0.162 0.781,0.244 1.221,0.244Zm-0,-7.048c0.553,0 1.074,0.114 1.562,0.309c0.488,0.212 0.928,0.489 1.286,0.863c0.358,0.358 0.651,0.765 0.863,1.253c0.211,0.489 0.309,0.993 0.309,1.53c-0,0.554 -0.098,1.058 -0.309,1.546c-0.212,0.472 -0.505,0.896 -0.863,1.254c-0.358,0.358 -0.798,0.635 -1.286,0.846c-0.488,0.212 -1.009,0.326 -1.562,0.326c-0.57,-0 -1.107,-0.114 -1.595,-0.326c-0.505,-0.211 -0.928,-0.488 -1.286,-0.846c-0.358,-0.358 -0.651,-0.782 -0.863,-1.254c-0.212,-0.488 -0.309,-0.992 -0.309,-1.546c-0,-0.537 0.097,-1.041 0.309,-1.53c0.212,-0.488 0.505,-0.895 0.863,-1.253c0.358,-0.374 0.781,-0.651 1.286,-0.863c0.488,-0.195 1.025,-0.309 1.595,-0.309Zm-371.566,-14.144c-0,-6.998 4.59,-12.744 12.077,-12.744c7.177,0 12.011,5.501 12.011,12.744c0,7.259 -4.834,12.761 -12.011,12.761c-7.487,-0 -12.077,-5.762 -12.077,-12.761Zm32.243,19.922l-0,-39.827l-8.659,-0l-0,4.834c-2.751,-3.581 -6.918,-5.843 -12.582,-5.843c-11.165,-0 -19.921,8.756 -19.921,20.914c-0,12.175 8.756,20.915 19.921,20.915c5.664,0 9.831,-2.246 12.582,-5.827l-0,4.834l8.659,0Zm292.627,-19.922c-0,-6.998 4.589,-12.744 12.093,-12.744c7.161,0 11.995,5.501 11.995,12.744c0,7.259 -4.834,12.761 -11.995,12.761c-7.504,-0 -12.093,-5.762 -12.093,-12.761Zm32.242,19.922l0,-55.827l-8.658,0l-0,20.834c-2.751,-3.581 -6.918,-5.843 -12.582,-5.843c-11.165,-0 -19.922,8.756 -19.922,20.914c0,12.175 8.757,20.915 19.922,20.915c5.664,0 9.831,-2.246 12.582,-5.827l-0,4.834l8.658,0Zm-217.382,-33.073c5.582,0 9.163,3.5 10.091,9.652l-20.671,-0c0.912,-5.745 4.411,-9.652 10.58,-9.652Zm0.179,-7.763c-11.67,-0 -19.841,8.512 -19.841,20.914c0,12.679 8.496,20.915 20.41,20.915c6.006,0 11.507,-1.497 16.341,-5.583l-4.248,-6.412c-3.336,2.669 -7.584,4.166 -11.588,4.166c-5.583,0 -10.661,-2.588 -11.914,-9.749l29.573,-0c0.082,-1.074 0.179,-2.165 0.179,-3.337c-0.097,-12.402 -7.763,-20.914 -18.912,-20.914Zm104.557,20.914c-0,-6.998 4.59,-12.744 12.077,-12.744c7.178,0 12.012,5.501 12.012,12.744c-0,7.259 -4.834,12.761 -12.012,12.761c-7.487,-0 -12.077,-5.762 -12.077,-12.761Zm32.243,19.922l-0,-39.827l-8.659,-0l-0,4.834c-2.751,-3.581 -6.917,-5.843 -12.581,-5.843c-11.166,-0 -19.922,8.756 -19.922,20.914c-0,12.175 8.756,20.915 19.922,20.915c5.664,0 9.83,-2.246 12.581,-5.827l-0,4.834l8.659,0Zm-81.153,-19.922c0,12.093 8.415,20.915 21.257,20.915c5.99,0 9.993,-1.318 14.323,-4.736l-4.167,-6.999c-3.239,2.327 -6.657,3.581 -10.416,3.581c-6.918,-0.082 -11.996,-5.095 -11.996,-12.761c0,-7.666 5.078,-12.662 11.996,-12.744c3.759,0 7.177,1.253 10.416,3.581l4.167,-6.999c-4.33,-3.418 -8.333,-4.752 -14.323,-4.752c-12.842,-0 -21.257,8.837 -21.257,20.914Zm111.654,-20.914c-4.997,-0 -8.252,2.343 -10.498,5.843l0,-4.834l-8.577,-0l-0,39.827l8.658,0l0,-22.331c0,-6.575 2.832,-10.253 8.497,-10.253c1.757,-0 3.58,0.26 5.419,1.009l2.67,-8.171c-1.921,-0.749 -4.427,-1.09 -6.169,-1.09Zm-232.129,4.166c-4.166,-2.75 -9.928,-4.166 -16.26,-4.166c-10.074,-0 -16.569,4.834 -16.569,12.76c0,6.494 4.818,10.498 13.737,11.735l4.086,0.586c4.752,0.667 6.998,1.921 6.998,4.167c0,3.092 -3.157,4.834 -9.082,4.834c-5.989,-0 -10.335,-1.905 -13.248,-4.167l-4.086,6.755c4.753,3.499 10.759,5.159 17.253,5.159c11.491,0 18.164,-5.404 18.164,-12.988c0,-6.999 -5.241,-10.677 -13.916,-11.914l-4.085,-0.586c-3.744,-0.505 -6.739,-1.254 -6.739,-3.923c0,-2.913 2.832,-4.655 7.585,-4.655c5.078,0 9.994,1.905 12.402,3.402l3.76,-6.999Zm111.735,-4.166c-4.997,-0 -8.252,2.343 -10.498,5.843l0,-4.834l-8.594,-0l0,39.827l8.676,0l-0,-22.331c-0,-6.575 2.832,-10.253 8.496,-10.253c1.741,-0 3.58,0.26 5.42,1.009l2.653,-8.171c-1.905,-0.749 -4.411,-1.09 -6.153,-1.09Zm-73.909,1.009l-14.16,-0l-0,-12.077l-8.757,-0l0,12.077l-8.089,-0l-0,7.91l8.089,-0l0,18.164c0,9.261 3.581,14.746 13.835,14.746c3.743,0 8.073,-1.156 10.823,-3.076l-2.49,-7.422c-2.588,1.497 -5.42,2.262 -7.666,2.262c-4.346,0 -5.745,-2.669 -5.745,-6.673l-0,-18.001l14.16,-0l-0,-7.91Zm-129.492,39.827l-0,-25c-0,-9.407 -5.99,-15.739 -15.658,-15.836c-5.078,-0.082 -10.335,1.513 -13.997,7.096c-2.751,-4.427 -7.081,-7.096 -13.168,-7.096c-4.248,-0 -8.414,1.253 -11.67,5.924l0,-4.915l-8.659,-0l0,39.827l8.741,0l-0,-22.086c-0,-6.918 3.841,-10.58 9.749,-10.58c5.762,0 8.675,3.76 8.675,10.498l0,22.168l8.74,0l0,-22.086c0,-6.918 4.004,-10.58 9.75,-10.58c5.924,0 8.756,3.76 8.756,10.498l0,22.168l8.741,0" style="fill-rule:nonzero;"/></g></svg>