<?xml version="1.0" encoding="UTF-8" standalone="no"?>
<!DOCTYPE svg PUBLIC "-//W3C//DTD SVG 1.1//EN" "http://www.w3.org/Graphics/SVG/1.1/DTD/svg11.dtd">
<svg width="100%" height="100%" viewBox="0 0 3375 2375" version="1.1" xmlns="http://www.w3.org/2000/svg" xmlns:xlink="http://www.w3.org/1999/xlink" xml:space="preserve" xmlns:serif="http://www.serif.com/" style="fill-rule:evenodd;clip-rule:evenodd;stroke-linejoin:round;stroke-miterlimit:2;">
    <g transform="matrix(4.16667,0,0,4.16667,0,0)">
        <g transform="matrix(1,0,0,1,-0.499511,-0.000774035)">
            <g transform="matrix(0.0460763,0,0,0.0460763,5,6)">
                <path d="M-108.516,10157.1L-108.516,1953.28C-108.516,803.371 825.069,-130.219 1974.98,-130.219L15387.5,-130.219C16537.4,-130.219 17471,803.366 17471,1953.28L17471,10157.1C17471,11307 16537.4,12240.6 15387.5,12240.6L1974.98,12240.6C825.074,12240.6 -108.516,11307 -108.516,10157.1Z" style="fill:white;"/>
            </g>
            <g transform="matrix(0.0460763,0,0,0.0460763,5,6)">
                <path d="M-108.516,10157.1L-108.516,1953.28C-108.516,803.371 825.069,-130.219 1974.98,-130.219L15387.5,-130.219C16537.4,-130.219 17471,803.366 17471,1953.28L17471,10157.1C17471,11307 16537.4,12240.6 15387.5,12240.6L1974.98,12240.6C825.074,12240.6 -108.516,11307 -108.516,10157.1ZM108.516,10157.1C108.516,11187.2 944.857,12023.5 1974.98,12023.5L15387.5,12023.5C16417.6,12023.5 17254,11187.2 17254,10157.1L17254,1953.28C17254,923.149 16417.6,86.812 15387.5,86.812L1974.98,86.812C944.852,86.812 108.516,923.154 108.516,1953.28L108.516,10157.1Z" style="fill:rgb(230,230,230);"/>
            </g>
        </g>
        <g transform="matrix(1,0,0,1,-0.963237,-1.49947)">
            <g transform="matrix(0.805969,0,0,0.805969,-0.499527,46.3372)">
                <path d="M329.47,538.42C462.198,538.42 569.856,430.653 569.856,297.925C569.856,165.196 462.2,57.539 329.47,57.539C196.631,57.539 88.975,165.196 88.975,297.925C88.975,430.653 196.631,538.42 329.47,538.42Z" style="fill:rgb(226,0,26);fill-rule:nonzero;"/>
                <path d="M679.271,538.42C811.999,538.42 919.656,430.653 919.656,297.925C919.656,165.196 812.001,57.539 679.271,57.539C546.431,57.539 438.886,165.196 438.886,297.925C438.886,430.653 546.431,538.42 679.271,538.42Z" style="fill:rgb(246,168,0);fill-rule:nonzero;"/>
                <path d="M504.205,462.873C463.738,419.767 438.886,361.705 438.886,297.925C438.886,234.804 463.298,177.292 502.996,134.405L508.054,137.045C546.432,179.711 569.856,236.124 569.856,297.925C569.856,360.055 546.214,416.578 507.616,459.354L504.205,462.873Z" style="fill:rgb(235,105,10);fill-rule:nonzero;"/>
            </g>
            <g transform="matrix(0.805969,0,0,0.805969,-0.499527,46.3372)">
                <path d="M136.15,237.663L157.153,237.663L184.095,304.852L208.177,237.663L230.39,237.663L230.39,327.175L213.126,327.175L213.126,260.756L190.033,327.175L176.947,327.175L153.854,261.636L153.854,327.175L136.15,327.175L136.15,237.663Z" style="fill:white;fill-rule:nonzero;"/>
                <rect x="304.068" y="258.667" width="14.735" height="68.509" style="fill:white;"/>
                <g>
                    <rect x="401.827" y="238.873" width="15.505" height="88.303" style="fill:white;"/>
                    <rect x="392.92" y="258.667" width="34.529" height="16.385" style="fill:white;"/>
                </g>
                <rect x="728.205" y="258.667" width="14.734" height="68.509" style="fill:white;"/>
                <rect x="861.264" y="241.512" width="14.735" height="85.663" style="fill:white;"/>
                <path d="M542.253,258.667L526.968,258.667L526.968,327.175L542.472,327.175L542.472,281.868C546.101,274.5 556.987,272.961 558.747,272.961L558.747,258.225C555.118,258.225 542.692,260.974 542.252,267.682L542.252,258.667L542.253,258.667Z" style="fill:white;fill-rule:nonzero;"/>
                <path d="M776.59,258.667L761.195,258.667L761.195,327.175L776.812,327.175L776.812,281.868C780.331,274.5 791.327,272.961 792.977,272.961L792.977,258.225C789.456,258.225 777.032,260.974 776.59,267.682L776.59,258.667Z" style="fill:white;fill-rule:nonzero;"/>
                <path d="M364.989,278.241L380.054,278.241C380.054,266.254 372.356,258.887 359.71,258.887C347.064,258.887 337.057,265.485 337.057,280.22C337.057,294.954 352.562,297.045 355.092,297.705C358.171,298.583 366.638,299.574 366.638,308.921C366.638,312.44 362.459,313.32 358.83,313.32C355.312,313.32 351.683,310.571 351.683,306.502L334.858,306.502C334.858,321.897 346.844,328.055 358.83,328.055C370.817,328.055 382.253,318.377 382.253,306.72C382.253,295.285 371.037,288.576 362.239,287.256C348.934,285.387 350.253,273.84 357.951,273.84C365.209,273.842 364.769,277.031 364.989,278.241Z" style="fill:white;fill-rule:nonzero;"/>
                <path d="M641.113,302.652C635.614,309.579 627.147,313.978 617.69,313.978C601.195,313.978 587.889,300.672 587.889,284.397C587.889,267.902 601.195,254.596 617.69,254.596C627.037,254.596 635.504,258.885 640.893,265.703L660.247,265.703C653.099,248.768 636.494,237.662 617.69,237.662C591.848,237.662 570.954,258.555 570.954,284.397C570.954,310.019 591.848,331.023 617.69,331.023C636.824,331.023 653.319,319.148 660.577,302.652L641.113,302.652Z" style="fill:white;fill-rule:nonzero;"/>
                <path d="M840.59,328.825C860.274,328.825 876.329,312.768 876.329,293.194C876.329,273.401 860.273,257.456 840.59,257.456L840.59,272.631C851.917,272.631 861.154,281.868 861.154,293.194C861.154,304.411 851.917,313.648 840.59,313.648L840.59,328.825ZM840.59,328.825L840.59,313.648C829.264,313.648 820.027,304.411 820.027,293.194C820.027,281.868 829.264,272.631 840.59,272.631L840.59,257.456C820.907,257.456 804.852,273.401 804.852,293.194C804.852,312.768 820.907,328.825 840.59,328.825Z" style="fill:white;fill-rule:nonzero;"/>
                <path d="M707.532,328.825C727.326,328.825 743.271,312.768 743.271,293.194C743.271,273.401 727.326,257.456 707.532,257.456L707.532,272.631C718.858,272.631 728.096,281.868 728.096,293.194C728.096,304.411 718.858,313.648 707.532,313.648L707.532,328.825ZM707.532,257.457C687.848,257.457 671.793,273.402 671.793,293.196C671.793,312.77 687.85,328.826 707.532,328.826L707.532,313.65C696.205,313.65 686.968,304.412 686.968,293.196C686.968,281.87 696.205,272.632 707.532,272.632L707.532,257.457Z" style="fill:white;fill-rule:nonzero;"/>
                <path d="M474.844,300.232L509.704,300.232C509.813,299.244 509.925,298.143 509.925,297.153L509.925,294.184C509.375,278.239 499.368,258.665 474.846,258.445L474.846,275.05C483.203,275.05 491.451,278.899 491.451,286.487L474.846,286.487L474.846,300.232L474.844,300.232ZM474.844,329.045C488.7,328.825 508.164,319.808 508.164,308.261L489.58,308.261C489.58,311.012 482.432,313.54 474.844,313.431L474.844,329.045ZM457.8,300.232L474.844,300.232L474.844,286.487L458.24,286.487C458.24,278.899 466.487,275.05 474.844,275.05L474.844,258.447L474.405,258.447C452.191,258.447 440.095,276.921 439.985,294.955L439.985,295.615C440.315,312.661 451.202,329.046 474.185,329.046L474.844,329.046L474.844,313.43C466.487,313.32 457.8,309.909 457.8,300.232Z" style="fill:white;fill-rule:nonzero;"/>
                <path d="M283.504,328.825C303.188,328.825 319.243,312.768 319.243,293.194C319.243,273.401 303.188,257.456 283.504,257.456L283.504,272.631C294.83,272.631 304.068,281.868 304.068,293.194C304.068,304.411 294.83,313.648 283.504,313.648L283.504,328.825ZM283.504,328.825L283.504,313.648C272.177,313.648 262.94,304.411 262.94,293.194C262.94,281.868 272.177,272.631 283.504,272.631L283.504,257.456C263.71,257.456 247.765,273.401 247.765,293.194C247.765,312.768 263.71,328.825 283.504,328.825Z" style="fill:white;fill-rule:nonzero;"/>
            </g>
        </g>
    </g>
</svg>
