<?xml version="1.0" encoding="UTF-8" standalone="no"?><!DOCTYPE svg PUBLIC "-//W3C//DTD SVG 1.1//EN" "http://www.w3.org/Graphics/SVG/1.1/DTD/svg11.dtd"><svg width="100%" height="100%" viewBox="0 0 4164 2575" version="1.1" xmlns="http://www.w3.org/2000/svg" xmlns:xlink="http://www.w3.org/1999/xlink" xml:space="preserve" xmlns:serif="http://www.serif.com/" style="fill-rule:evenodd;clip-rule:evenodd;stroke-linejoin:round;stroke-miterlimit:2;"><g><g><rect id="rect19" x="1516.67" y="275.417" width="1126.67" height="2024.17" style="fill:#ff5a00;"/><path id="XMLID_330_" d="M1591.67,1287.5c-0,-411.25 193.333,-776.25 490,-1012.08c-218.334,-171.667 -493.75,-275.417 -794.167,-275.417c-711.667,0 -1287.5,575.833 -1287.5,1287.5c-0,711.667 575.833,1287.5 1287.5,1287.5c300.417,0 575.833,-103.75 794.167,-275.417c-297.084,-232.5 -490,-600.833 -490,-1012.08Z" style="fill:#eb001b;fill-rule:nonzero;"/><path id="path22" d="M4163.33,1287.5c0,711.667 -575.833,1287.5 -1287.5,1287.5c-300.416,0 -575.833,-103.75 -794.166,-275.417c300.416,-236.25 490,-600.833 490,-1012.08c-0,-411.25 -193.334,-776.25 -490,-1012.08c217.916,-171.667 493.333,-275.417 793.75,-275.417c712.083,0 1287.92,579.583 1287.92,1287.5Z" style="fill:#f79e1b;fill-rule:nonzero;"/></g></g><path id="XMLID_1775_" d="M751.042,1523.54l-0,-214.584c-0,-82.083 -50,-135.833 -135.834,-135.833c-42.916,-0 -89.583,14.167 -121.666,60.833c-25,-39.166 -60.834,-60.833 -114.584,-60.833c-35.833,-0 -71.666,10.833 -100,50l0,-42.917l-75,0l0,343.334l75,-0l0,-189.584c0,-60.833 32.084,-89.583 82.084,-89.583c50,0 75,32.083 75,89.583l-0,189.584l75,-0l-0,-189.584c-0,-60.833 35.833,-89.583 82.083,-89.583c50,0 75,32.083 75,89.583l-0,189.584l82.917,-0Zm1112.5,-343.334l-121.667,0l0,-103.75l-75,0l0,103.75l-67.917,0l0,67.917l67.917,0l0,157.5c0,78.75 32.083,125 117.917,125c32.083,-0 67.916,-10.833 92.916,-25l-21.666,-64.583c-21.667,14.166 -46.667,17.916 -64.584,17.916c-35.833,0 -50,-21.666 -50,-57.083l0,-153.75l121.667,-0l0,-67.917l0.417,0Zm636.666,-7.5c-42.916,0 -71.666,21.667 -89.583,50l0,-42.916l-75,-0l-0,343.333l75,0l0,-193.333c0,-57.084 25,-89.584 71.667,-89.584c14.166,0 32.083,3.75 46.666,7.084l21.667,-71.667c-15,-2.917 -36.25,-2.917 -50.417,-2.917Zm-962.083,35.834c-35.833,-25 -85.833,-35.834 -139.583,-35.834c-85.834,0 -142.917,42.917 -142.917,110.834c0,57.083 42.917,89.583 117.917,100l35.833,3.75c39.167,7.083 60.833,17.916 60.833,35.833c0,25 -28.75,42.917 -78.75,42.917c-50,-0 -89.583,-17.917 -114.583,-35.834l-35.833,57.084c39.166,28.75 92.916,42.916 146.666,42.916c100,0 157.5,-46.666 157.5,-110.833c0,-60.833 -46.666,-92.917 -117.916,-103.75l-35.834,-3.75c-32.083,-3.75 -57.083,-10.833 -57.083,-32.083c0,-25 25,-39.167 64.583,-39.167c42.917,0 85.834,17.917 107.5,28.75l31.667,-60.833Zm1995.42,-35.834c-42.917,0 -71.667,21.667 -89.584,50l0,-42.916l-75,-0l0,343.333l75,0l0,-193.333c0,-57.084 25,-89.584 71.667,-89.584c14.167,0 32.083,3.75 46.667,7.084l21.666,-70.834c-14.583,-3.75 -35.833,-3.75 -50.416,-3.75Zm-958.334,179.167c0,103.75 71.667,178.75 182.5,178.75c50,0 85.834,-10.833 121.667,-39.167l-35.833,-60.833c-28.75,21.667 -57.084,32.083 -89.584,32.083c-60.833,0 -103.75,-42.916 -103.75,-110.833c0,-64.583 42.917,-107.5 103.75,-110.833c32.084,-0 60.834,10.833 89.584,32.083l35.833,-60.833c-35.833,-28.75 -71.667,-39.167 -121.667,-39.167c-110.833,-0.417 -182.5,75 -182.5,178.75Zm693.75,171.667l0,-343.334l-75,0l0,42.917c-25,-32.083 -60.833,-50 -107.5,-50c-96.666,0 -171.666,75 -171.666,178.75c-0,103.75 75,178.75 171.666,178.75c50,0 85.834,-17.917 107.5,-50l0,42.917l75,-0Zm-275.416,-171.667c-0,-60.833 39.166,-110.833 103.75,-110.833c60.833,-0 103.75,46.666 103.75,110.833c-0,60.833 -42.917,110.833 -103.75,110.833c-64.167,-3.75 -103.75,-50.416 -103.75,-110.833Zm-897.5,-179.167c-100,0 -171.667,71.667 -171.667,178.75c0,107.5 71.667,178.75 175.417,178.75c50,0 100,-14.166 139.583,-46.666l-35.833,-53.75c-28.75,21.666 -64.584,35.833 -100,35.833c-46.667,0 -92.917,-21.667 -103.75,-82.083l253.75,-0l-0,-28.75c3.333,-110.417 -61.25,-182.084 -157.5,-182.084Zm-0,64.584c46.666,-0 78.75,28.75 85.833,82.083l-178.75,0c7.083,-46.25 39.167,-82.083 92.917,-82.083Zm1863.33,286.25l0,-479.167l-75,0l0,178.75c-25,-32.083 -60.833,-50 -107.5,-50c-96.667,0 -171.667,75 -171.667,178.75c0,103.75 75,178.75 171.667,178.75c50,0 85.833,-17.917 107.5,-50l0,42.917l75,-0Zm-275.417,-171.667c0,-60.833 39.167,-110.833 103.75,-110.833c60.834,-0 103.75,46.666 103.75,110.833c0,60.833 -42.916,110.833 -103.75,110.833c-64.583,-3.75 -103.75,-50.416 -103.75,-110.833Zm-2510.83,171.667l0,-343.334l-75,0l0,42.917c-25,-32.083 -60.833,-50 -107.5,-50c-96.667,0 -171.667,75 -171.667,178.75c0,103.75 75,178.75 171.667,178.75c50,0 85.833,-17.917 107.5,-50l0,42.917l75,-0Zm-278.75,-171.667c0,-60.833 39.167,-110.833 103.75,-110.833c60.833,-0 103.75,46.666 103.75,110.833c0,60.833 -42.917,110.833 -103.75,110.833c-64.583,-3.75 -103.75,-50.416 -103.75,-110.833Z" style="fill:#fff;fill-rule:nonzero;"/></svg>