<?xml version="1.0" encoding="UTF-8" standalone="no"?>
<!DOCTYPE svg PUBLIC "-//W3C//DTD SVG 1.1//EN" "http://www.w3.org/Graphics/SVG/1.1/DTD/svg11.dtd">
<svg width="100%" height="100%" viewBox="0 0 810 571" version="1.1" xmlns="http://www.w3.org/2000/svg" xmlns:xlink="http://www.w3.org/1999/xlink" xml:space="preserve" xmlns:serif="http://www.serif.com/" style="fill-rule:evenodd;clip-rule:evenodd;stroke-linejoin:round;stroke-miterlimit:2;">
    <g transform="matrix(0.0460764,0,0,0.0460764,5.00002,6.00002)">
        <path d="M-108.516,10157.1L-108.516,1953.28C-108.516,803.371 825.069,-130.219 1974.98,-130.219L15387.5,-130.219C16537.4,-130.219 17471,803.366 17471,1953.28L17471,10157.1C17471,11307 16537.4,12240.6 15387.5,12240.6L1974.98,12240.6C825.074,12240.6 -108.516,11307 -108.516,10157.1Z" style="fill:white;"/>
    </g>
    <g transform="matrix(0.0460764,0,0,0.0460764,5.00002,6.00002)">
        <path d="M-108.516,10157.1L-108.516,1953.28C-108.516,803.371 825.069,-130.219 1974.98,-130.219L15387.5,-130.219C16537.4,-130.219 17471,803.366 17471,1953.28L17471,10157.1C17471,11307 16537.4,12240.6 15387.5,12240.6L1974.98,12240.6C825.074,12240.6 -108.516,11307 -108.516,10157.1ZM108.516,10157.1C108.516,11187.2 944.857,12023.5 1974.98,12023.5L15387.5,12023.5C16417.6,12023.5 17254,11187.2 17254,10157.1L17254,1953.28C17254,923.149 16417.6,86.812 15387.5,86.812L1974.98,86.812C944.852,86.812 108.516,923.154 108.516,1953.28L108.516,10157.1Z" style="fill:rgb(230,230,230);"/>
    </g>
    <g transform="matrix(0.262795,0,0,0.262795,-33.0792,2.55166e-06)">
        <path d="M1685.45,1596.76C1571.97,1694.69 1424.76,1753.81 1263.91,1753.81C904.984,1753.81 614.022,1459.47 614.022,1096.38C614.022,733.293 904.984,438.955 1263.91,438.955C1424.76,438.955 1571.97,498.074 1685.45,596.008C1798.94,498.074 1946.14,438.955 2107,438.955C2465.92,438.955 2756.88,733.293 2756.88,1096.38C2756.88,1459.47 2465.92,1753.81 2107,1753.81C1946.14,1753.81 1798.94,1694.69 1685.45,1596.76Z" style="fill:rgb(237,0,6);"/>
    </g>
    <g transform="matrix(0.262795,0,0,0.262795,-33.0792,2.55166e-06)">
        <path d="M1685.45,1596.76C1825.18,1476.17 1913.79,1296.75 1913.79,1096.38C1913.79,896.017 1825.18,716.589 1685.45,596.008C1798.94,498.074 1946.14,438.955 2107,438.955C2465.92,438.955 2756.88,733.293 2756.88,1096.38C2756.88,1459.47 2465.92,1753.81 2107,1753.81C1946.14,1753.81 1798.94,1694.69 1685.45,1596.76Z" style="fill:rgb(249,160,0);"/>
    </g>
    <g transform="matrix(0.262795,0,0,0.262795,-33.0792,2.55166e-06)">
        <path d="M1685.46,596.003C1825.19,716.588 1913.8,896.012 1913.8,1096.38C1913.8,1296.74 1825.19,1476.16 1685.46,1596.75C1545.73,1476.16 1457.13,1296.74 1457.13,1096.38C1457.13,896.012 1545.73,716.588 1685.46,596.003Z" style="fill:rgb(255,94,0);"/>
    </g>
</svg>
