<?xml version="1.0" encoding="UTF-8" standalone="no"?><!DOCTYPE svg PUBLIC "-//W3C//DTD SVG 1.1//EN" "http://www.w3.org/Graphics/SVG/1.1/DTD/svg11.dtd"><svg width="100%" height="100%" viewBox="0 0 1720 2778" version="1.1" xmlns="http://www.w3.org/2000/svg" xmlns:xlink="http://www.w3.org/1999/xlink" xml:space="preserve" xmlns:serif="http://www.serif.com/" style="fill-rule:evenodd;clip-rule:evenodd;stroke-linecap:round;stroke-linejoin:round;"><g><path d="M1249.14,2120.36l-0,473.896l-389.583,148.799l-389.584,-148.799l0,-473.896l779.167,0Z"/><path d="M540.632,34.722l637.847,0l462.757,492.653l43.146,780.264l-341.431,540.139l-93.812,272.583l-0,473.896l-389.583,148.799l-389.584,-148.799l0,-473.896l-93.805,-272.583l-341.438,-540.139l43.146,-780.236l462.757,-492.681Z" style="fill:none;fill-rule:nonzero;stroke:#000;stroke-width:69.44px;"/><path d="M540.632,34.722l-0,573.299" style="fill:none;fill-rule:nonzero;stroke:#000;stroke-width:69.44px;"/><path d="M77.868,527.375l462.757,80.646" style="fill:none;fill-rule:nonzero;stroke:#000;stroke-width:69.44px;"/><path d="M34.722,1307.64l505.903,-699.59" style="fill:none;fill-rule:nonzero;stroke:#000;stroke-width:69.44px;"/><path d="M1178.48,34.722l-637.847,573.299" style="fill:none;fill-rule:nonzero;stroke:#000;stroke-width:69.44px;"/><path d="M1178.48,34.722l191.986,927.778" style="fill:none;fill-rule:nonzero;stroke:#000;stroke-width:69.44px;"/><path d="M1641.24,527.375l-270.771,435.125" style="fill:none;fill-rule:nonzero;stroke:#000;stroke-width:69.44px;"/><path d="M1684.39,1307.64l-313.924,-345.139" style="fill:none;fill-rule:nonzero;stroke:#000;stroke-width:69.44px;"/><path d="M1342.94,1847.78l27.514,-885.278" style="fill:none;fill-rule:nonzero;stroke:#000;stroke-width:69.44px;"/><path d="M540.632,608.028l829.826,354.472" style="fill:none;fill-rule:nonzero;stroke:#000;stroke-width:69.44px;"/><path d="M34.722,1307.64l752.917,126.285l555.305,413.889" style="fill:none;fill-rule:nonzero;stroke:#000;stroke-width:69.44px;"/><path d="M1370.46,962.5l-582.826,471.396" style="fill:none;fill-rule:nonzero;stroke:#000;stroke-width:69.44px;"/><path d="M540.632,608.028l247.014,825.875" style="fill:none;fill-rule:nonzero;stroke:#000;stroke-width:69.44px;"/><path d="M376.167,1847.78l411.479,-413.889" style="fill:none;fill-rule:nonzero;stroke:#000;stroke-width:69.44px;"/><path d="M787.639,1433.9l-317.667,686.465l872.986,-272.583" style="fill:none;fill-rule:nonzero;stroke:#000;stroke-width:69.44px;"/><path d="M469.972,2120.37l779.167,0" style="fill:none;fill-rule:nonzero;stroke:#000;stroke-width:69.44px;"/></g></svg>