<?xml version="1.0" encoding="UTF-8" standalone="no"?><!DOCTYPE svg PUBLIC "-//W3C//DTD SVG 1.1//EN" "http://www.w3.org/Graphics/SVG/1.1/DTD/svg11.dtd"><svg width="100%" height="100%" viewBox="0 0 884 1438" version="1.1" xmlns="http://www.w3.org/2000/svg" xmlns:xlink="http://www.w3.org/1999/xlink" xml:space="preserve" xmlns:serif="http://www.serif.com/" style="fill-rule:evenodd;clip-rule:evenodd;stroke-linejoin:round;stroke-miterlimit:2;"><g id="Page-1"><g id="bulb"><g id="Group-5"><path id="Triangle-3" d="M336.469,1275l-8.251,120.833l8.251,-120.833Z" style="fill:#656565;"/><path id="Triangle-31" serif:id="Triangle-3" d="M233.333,1354.17l104.167,-87.5l104.167,170.833l-208.334,-83.333Z" style="fill:#656565;"/><path id="Triangle-32" serif:id="Triangle-3" d="M233.333,1095.83l0,258.334l104.167,-87.5l-104.167,-170.834Z" style="fill:#787778;"/><path id="Triangle-33" serif:id="Triangle-3" d="M545.833,1266.67l-104.166,170.833l208.333,-83.333l-104.167,-87.5Z" style="fill:#5c5c5c;"/><path id="Triangle-34" serif:id="Triangle-3" d="M650,1354.17l-104.167,-87.5l104.167,-170.834l0,258.334Z" style="fill:#787778;"/><path id="Triangle-35" serif:id="Triangle-3" d="M233.333,1095.83l416.667,0l-208.333,341.667l-208.334,-341.667Z" style="fill:#4a4a4a;"/></g><g id="Group"><path id="Triangle-36" serif:id="Triangle-3" d="M275,308.333l441.667,183.334l-316.667,254.166l-125,-437.5Z" style="fill:#fed12f;"/><path id="Triangle-37" serif:id="Triangle-3" d="M608.333,0l250,258.333l-141.666,233.334l-108.334,-491.667Z" style="fill:#fed12f;"/><path id="Triangle-38" serif:id="Triangle-3" d="M233.333,1095.83l458.334,-133.333l-41.667,133.333l-416.667,0Z" style="fill:#fed12f;"/><path id="Triangle-39" serif:id="Triangle-3" d="M191.667,962.5l208.333,-216.667l-166.667,350l-41.666,-133.333Z" style="fill:#fed12f;"/><path id="Triangle-310" serif:id="Triangle-3" d="M25,258.333l250,-258.333l0,308.333l-250,-50Z" style="fill:#fed12f;"/><path id="Triangle-311" serif:id="Triangle-3" d="M400,745.833l291.667,216.667l25,-470.833l-316.667,254.166Z" style="fill:#fff3cb;"/><path id="Triangle-312" serif:id="Triangle-3" d="M400,745.833l-400,-70.833l191.667,287.5l208.333,-216.667Z" style="fill:#fff3cb;"/><path id="Triangle-313" serif:id="Triangle-3" d="M275,308.333l333.333,-308.333l108.334,491.667l-441.667,-183.334Z" style="fill:#ffdd63;"/><path id="Triangle-314" serif:id="Triangle-3" d="M0,675l275,-366.667l125,437.5l-400,-70.833Z" style="fill:#ffedac;"/><path id="Triangle-315" serif:id="Triangle-3" d="M233.333,1095.83l166.667,-350l291.667,216.667l-458.334,133.333Z" style="fill:#ffdd63;"/><path id="Triangle-316" serif:id="Triangle-3" d="M691.667,962.5l25,-470.833l166.666,183.333l-191.666,287.5Z" style="fill:#ffdd63;"/><path id="Triangle-317" serif:id="Triangle-3" d="M-0,675l25,-416.667l250,50l-275,366.667Z" style="fill:#ffdd63;"/><path id="Triangle-318" serif:id="Triangle-3" d="M716.667,491.667l141.666,-233.334l25,416.667l-166.666,-183.333Z" style="fill:#fee382;"/><path id="Triangle-319" serif:id="Triangle-3" d="M608.333,0l-333.333,308.333l0,-308.333l333.333,0Z" style="fill:#fef1c0;"/></g></g></g></svg>