<?xml version="1.0" encoding="UTF-8" standalone="no"?>
<!DOCTYPE svg PUBLIC "-//W3C//DTD SVG 1.1//EN" "http://www.w3.org/Graphics/SVG/1.1/DTD/svg11.dtd">
<svg width="100%" height="100%" viewBox="0 0 800 800" version="1.1" xmlns="http://www.w3.org/2000/svg" xmlns:xlink="http://www.w3.org/1999/xlink" xml:space="preserve" xmlns:serif="http://www.serif.com/" style="fill-rule:evenodd;clip-rule:evenodd;stroke-linejoin:round;stroke-miterlimit:2;">
    <g transform="matrix(1.17072,0,0,1.17072,39.6633,-16.4599)">
        <path d="M307.792,71.378C574.583,71.378 574.583,163.923 574.583,311.17C574.583,458.416 455.038,651.961 307.792,651.961C160.545,651.961 41,458.416 41,311.17C41,163.923 41,71.378 307.792,71.378Z" style="fill-opacity:0.9;"/>
    </g>
    <g id="_01" serif:id="01" transform="matrix(19.512,0,0,19.512,-68.2869,-58.5359)">
        <path d="M6,8.256L24.009,3L42,8.256L42,19.034C42,30.362 34.75,40.419 24.003,44.001C13.252,40.419 6,30.36 6,19.029L6,8.256ZM19.225,11.751C16.216,11.751 13.766,14.205 13.766,17.214C13.766,20.226 16.216,22.673 19.225,22.673L20.474,22.532L22.163,24.218L26.128,24.218L26.128,27.308L29.218,27.308L29.218,31.276L29.89,31.945L33.957,31.945L33.957,27.878L24.553,18.469L24.658,17.482C24.685,14.205 22.234,11.751 19.225,11.751ZM19.357,15.058C20.594,15.058 21.598,16.062 21.598,17.299C21.598,18.536 20.594,19.54 19.357,19.54C18.12,19.54 17.116,18.536 17.116,17.299C17.116,16.062 18.12,15.058 19.357,15.058Z" style="fill:rgb(60,142,242);"/>
        <clipPath id="_clip1">
            <path d="M6,8.256L24.009,3L42,8.256L42,19.034C42,30.362 34.75,40.419 24.003,44.001C13.252,40.419 6,30.36 6,19.029L6,8.256ZM19.225,11.751C16.216,11.751 13.766,14.205 13.766,17.214C13.766,20.226 16.216,22.673 19.225,22.673L20.474,22.532L22.163,24.218L26.128,24.218L26.128,27.308L29.218,27.308L29.218,31.276L29.89,31.945L33.957,31.945L33.957,27.878L24.553,18.469L24.658,17.482C24.685,14.205 22.234,11.751 19.225,11.751ZM19.357,15.058C20.594,15.058 21.598,16.062 21.598,17.299C21.598,18.536 20.594,19.54 19.357,19.54C18.12,19.54 17.116,18.536 17.116,17.299C17.116,16.062 18.12,15.058 19.357,15.058Z"/>
        </clipPath>
        <g clip-path="url(#_clip1)">
            <g transform="matrix(-0.0537101,-0.14511,0.109447,-0.0487191,27.7266,142.159)">
                <ellipse cx="722" cy="319" rx="159" ry="196" style="fill:url(#_Radial2);"/>
            </g>
        </g>
    </g>
    <defs>
        <radialGradient id="_Radial2" cx="0" cy="0" r="1" gradientUnits="userSpaceOnUse" gradientTransform="matrix(318,0,0,392,563,319)"><stop offset="0" style="stop-color:rgb(0,31,182);stop-opacity:1"/><stop offset="1" style="stop-color:rgb(73,167,255);stop-opacity:1"/></radialGradient>
    </defs>
</svg>
