<?xml version="1.0" encoding="UTF-8" standalone="no"?><!DOCTYPE svg PUBLIC "-//W3C//DTD SVG 1.1//EN" "http://www.w3.org/Graphics/SVG/1.1/DTD/svg11.dtd"><svg width="100%" height="100%" viewBox="0 0 3334 3334" version="1.1" xmlns="http://www.w3.org/2000/svg" xmlns:xlink="http://www.w3.org/1999/xlink" xml:space="preserve" xmlns:serif="http://www.serif.com/" style="fill-rule:evenodd;clip-rule:evenodd;stroke-linejoin:round;stroke-miterlimit:2;"><path d="M1578.51,3335.45l-414.746,-427.179l-613.446,-0l-131.629,-124.175l0.008,-601.021l-419.725,-427.175l0,-176.325l419.717,-427.183l0.004,-603.5l131.625,-124.179l613.446,-0l414.754,-424.684l176.333,-0.004l427.167,424.688l603.512,-0.005l124.175,121.696l-0.004,605.992l424.696,427.175l-0.004,176.329l-432.142,427.171l0,601.017l-124.179,124.187l-596.054,-0.004l-427.171,427.175l-176.337,0.004Zm-249.401,-1247.95l301.476,-301.476l-573.384,-568.76l-296.852,301.477l568.76,568.759Zm-547.473,399.86l1160.6,0l0,-166.466l-1160.6,-0l-0,166.466Zm1131.51,-983.891l301.476,-301.477l-573.384,-568.76l-296.852,301.477l568.76,568.76Zm507.247,944.708l152.594,-152.594l-1294.74,-1297.05l-152.594,154.906l1294.74,1294.74Z" style="fill:url(#_Radial1);"/><defs><radialGradient id="_Radial1" cx="0" cy="0" r="1" gradientUnits="userSpaceOnUse" gradientTransform="matrix(-1388.59,-3751.59,3488.05,-1552.67,2344.52,3408.18)"><stop offset="0" style="stop-color:#2962ff;stop-opacity:1"/><stop offset="1" style="stop-color:#b2fcff;stop-opacity:1"/></radialGradient></defs></svg>