<?xml version="1.0" encoding="UTF-8" standalone="no"?>
<!DOCTYPE svg PUBLIC "-//W3C//DTD SVG 1.1//EN" "http://www.w3.org/Graphics/SVG/1.1/DTD/svg11.dtd">
<svg width="100%" height="100%" viewBox="0 0 1204 1204" version="1.1" xmlns="http://www.w3.org/2000/svg" xmlns:xlink="http://www.w3.org/1999/xlink" xml:space="preserve" xmlns:serif="http://www.serif.com/" style="fill-rule:evenodd;clip-rule:evenodd;stroke-linejoin:round;stroke-miterlimit:2;">
    <g transform="matrix(46.2895,0,0,46.2895,-138.868,-138.868)">
        <path d="M16,3C8.82,3 3,8.82 3,16C3,23.18 8.82,29 16,29C23.18,29 29,23.18 29,16C29,8.82 23.18,3 16,3ZM16,5C22.065,5 27,9.935 27,16C27,16.508 26.954,17.004 26.887,17.494C26.52,15.461 25.274,13.592 23.346,12.514C22.377,11.971 21.337,11.692 20.293,11.639C19.861,12.44 19.22,13.107 18.438,13.559C17.667,14.004 16.773,14.236 15.811,14.195C15.432,14.179 15.048,14.141 14.693,14.055C12.637,13.472 11.129,11.588 11.152,9.35C11.169,7.709 12.015,6.246 13.277,5.355C14.15,5.132 15.059,5 16,5ZM11.707,5.873C9.959,7.198 8.831,9.317 8.863,11.662C8.877,12.773 9.157,13.814 9.633,14.744C10.542,14.718 11.443,14.939 12.225,15.391C12.996,15.836 13.644,16.495 14.09,17.348C14.265,17.683 14.415,18.006 14.516,18.344C15.061,20.427 14.183,22.697 12.221,23.803C11.17,24.396 9.975,24.56 8.857,24.348C6.501,22.329 5,19.339 5,16C5,11.457 7.769,7.549 11.707,5.873ZM21.887,14.984C22.678,15.005 23.475,15.221 24.205,15.652C25.488,16.41 26.31,17.685 26.557,19.064C25.225,23.642 21.001,27 16,27C14.009,27 12.144,26.461 10.531,25.531C12.147,25.802 13.866,25.525 15.369,24.629C16.324,24.061 17.084,23.301 17.652,22.424C17.175,21.65 16.918,20.759 16.918,19.855C16.918,18.965 17.164,18.074 17.68,17.262C17.882,16.943 18.072,16.662 18.309,16.412C19.265,15.456 20.568,14.95 21.887,14.984Z" style="fill-rule:nonzero;"/>
    </g>
</svg>
