<?xml version="1.0" encoding="UTF-8" standalone="no"?><!DOCTYPE svg PUBLIC "-//W3C//DTD SVG 1.1//EN" "http://www.w3.org/Graphics/SVG/1.1/DTD/svg11.dtd"><svg width="100%" height="100%" viewBox="0 0 742 742" version="1.1" xmlns="http://www.w3.org/2000/svg" xmlns:xlink="http://www.w3.org/1999/xlink" xml:space="preserve" xmlns:serif="http://www.serif.com/" style="fill-rule:evenodd;clip-rule:evenodd;stroke-linejoin:round;stroke-miterlimit:2;"><g id="spaceman"><path d="M370.555,-0.454c204.664,-0 370.825,166.161 370.825,370.825c-0,204.664 -166.161,370.825 -370.825,370.825c-204.664,-0 -370.826,-166.161 -370.826,-370.825c0,-204.664 166.162,-370.825 370.826,-370.825Zm242.925,593.394c-8.565,-37.685 -20.07,-70.254 -39.144,-119.629c-13.055,-33.774 -56.69,-75.093 -84.815,-96.042c-10.463,-7.847 -11.134,-22.246 -1.967,-31.389c27.477,-26.158 76.527,-77.199 92.245,-104.005c10.347,-18.912 30.695,-54.745 31.597,-85.81c2.037,-23.079 -1.134,-49.815 -31.736,-62.06c-27.754,-11.135 -46.227,5.926 -46.227,5.926c-19.236,13.402 -25.532,49.884 -39.236,86.25c-15.787,41.921 -40.671,47.176 -53.75,47.176c-12.43,-0 -4.537,-13.843 -34.63,-100.834c-30.092,-87.014 -109.953,-71.204 -170.139,-35.231c-76.527,45.787 -42.523,143.264 -23.541,206.065c-10.463,10.463 -51.019,18.333 -87.639,37.94c-22.801,12.222 -42.269,20.138 -61.25,35.393c-26.459,21.273 -37.894,45.301 -28.773,78.033c2.013,7.152 9.097,18.912 23.194,26.435c21.597,9.815 53.449,-4.445 102.153,-41.088c35.301,-24.19 77.176,-35.972 77.176,-35.972c-0,-0 29.444,45.138 56.921,98.773c27.454,53.657 -29.444,71.319 -35.324,71.319c-6.551,0 -95.509,-8.495 -75.231,67.361c19.629,75.232 128.865,48.426 184.467,11.783c55.602,-36.621 41.875,-156.343 41.875,-156.343c54.306,-8.495 71.297,49.051 76.528,78.496c5.232,29.444 -6.551,80.463 48.403,81.782c7.87,0 15.718,-1.319 22.917,-3.287c29.583,-6.852 46.759,-21.736 53.796,-37.639c3.241,-7.338 3.912,-15.579 2.13,-23.403Zm-273.774,-355.648c-55.602,20.926 -82.43,-6.551 -85.694,-56.921c-3.935,-56.899 49.051,-71.297 49.051,-71.297c58.889,-19.629 74.583,8.496 88.31,50.371c13.75,41.851 3.287,56.921 -51.667,77.847Zm28.797,-73.912c-3.936,1.296 -5.255,5.208 -3.936,9.143c3.264,7.848 3.264,11.783 1.968,19.63c-0.671,3.912 1.968,7.847 5.88,8.495l1.296,0c3.287,0 6.551,-2.615 6.551,-5.879c2.616,-10.463 1.319,-17.662 -2.616,-27.477c-1.296,-3.912 -5.231,-5.232 -9.143,-3.912Zm-3.287,-28.148c-3.264,-6.528 -5.88,-9.167 -6.551,-9.815c-2.593,-2.616 -7.176,-2.616 -9.792,-0c-2.616,2.616 -2.616,7.199 -0,9.815c-0,-0 1.296,1.296 3.912,6.551c1.319,2.615 3.935,3.912 6.551,3.912c0.648,-0 1.968,-0 3.264,-0.649c3.264,-1.967 4.583,-6.551 2.616,-9.814Z"/></g></svg>