<?xml version="1.0" encoding="UTF-8" standalone="no"?><!DOCTYPE svg PUBLIC "-//W3C//DTD SVG 1.1//EN" "http://www.w3.org/Graphics/SVG/1.1/DTD/svg11.dtd"><svg width="100%" height="100%" viewBox="0 0 512 345" version="1.1" xmlns="http://www.w3.org/2000/svg" xmlns:xlink="http://www.w3.org/1999/xlink" xml:space="preserve" xmlns:serif="http://www.serif.com/" style="fill-rule:evenodd;clip-rule:evenodd;stroke-linejoin:round;stroke-miterlimit:2;"><path d="M170.667,2c-94.208,-0 -170.667,76.458 -170.667,170.666c-0,94.208 76.457,170.667 170.666,170.667c94.208,0.001 170.666,-76.457 170.667,-170.666c0,-94.208 -76.458,-170.666 -170.666,-170.667Zm-0.001,221.867c-28.33,-0.001 -51.2,-22.872 -51.2,-51.201c0.001,-28.331 22.871,-51.199 51.201,-51.199c28.33,-0 51.199,22.869 51.199,51.2c0,28.329 -22.87,51.2 -51.2,51.2Z" style="fill:#00aeef;fill-rule:nonzero;"/><path d="M362.496,130c43.357,12.475 94.549,0.001 94.549,0.001c-14.849,64.854 -61.952,105.471 -129.878,110.42c-26.111,60.588 -86.357,102.913 -156.5,102.912l51.2,-162.728c52.632,-167.276 79.607,-178.606 204.429,-178.605l85.704,0c-14.337,63.146 -63.744,111.39 -149.504,128Z" style="fill:#008ccf;fill-rule:nonzero;"/></svg>