<?xml version="1.0" encoding="UTF-8" standalone="no"?><!DOCTYPE svg PUBLIC "-//W3C//DTD SVG 1.1//EN" "http://www.w3.org/Graphics/SVG/1.1/DTD/svg11.dtd"><svg width="100%" height="100%" viewBox="0 0 3334 3334" version="1.1" xmlns="http://www.w3.org/2000/svg" xmlns:xlink="http://www.w3.org/1999/xlink" xml:space="preserve" xmlns:serif="http://www.serif.com/" style="fill-rule:evenodd;clip-rule:evenodd;stroke-linejoin:round;stroke-miterlimit:2;"><path d="M1666.67,0c919.858,0 1666.67,746.808 1666.67,1666.67c0,919.858 -746.808,1666.67 -1666.67,1666.67c-919.859,0 -1666.67,-746.808 -1666.67,-1666.67c0,-919.859 746.808,-1666.67 1666.67,-1666.67Zm-0,818.685c-460.515,-0 -833.789,379.655 -833.789,847.982c-0,468.326 373.307,847.981 833.789,847.981c460.481,0 833.789,-379.655 833.789,-847.981c-0,-468.327 -373.308,-847.982 -833.789,-847.982Zm-0,1607.49c-412.435,-0 -746.81,-340.039 -746.81,-759.505c-0,-419.466 334.375,-759.506 746.81,-759.506c412.435,0 746.744,340.04 746.744,759.506c0,419.466 -334.309,759.505 -746.744,759.505Zm345.8,-814.193l0,-69.336c-0.478,-170.349 -140.426,-310.413 -310.774,-311.035l-55.697,0c-170.318,0.657 -310.216,140.716 -310.677,311.035l0,69.336l-38.411,70.768l-0,102.084c0.159,189.789 156.141,345.977 345.931,346.386l62.076,0c189.671,-0.693 345.458,-156.715 345.866,-346.386l0,-102.116l-38.314,-70.736Zm-302.278,313.151l-0,81.706c0.033,12.105 -6.03,23.446 -16.113,30.143l-0.456,0.456l-0.228,-0l-0.228,0.228l-0.228,-0l-0.26,0.228l-0.228,0.227l-0.228,0l-0.456,0.228l-0.455,0.456l-0.456,0l-0.228,0.228l-0.228,-0l-0.456,0.456l-0.488,-0l-0.456,0.228l-0.293,-0l-0.455,0.455l-0.456,0l-0.228,0.228l-0.423,0l-0.228,0.228l-0.228,0l-0.228,0.228l-0.26,-0l-0.26,0.228l-0.163,-0l-0.228,0.228l-0.716,-0l-0.228,0.227l-0.456,0l-0.228,0.228l-0.976,0l-0.228,0.228l-0.944,0l-0,0.228l-0.716,0l-0.716,0.228l-0.944,-0c-1.795,0.394 -3.634,0.547 -5.469,0.456l-0.228,-0c-1.187,0.044 -2.376,-0.033 -3.548,-0.228c-1.537,0.003 -3.064,-0.239 -4.525,-0.716l-0.228,-0l-0.456,-0.228l-0.293,-0l-0.716,-0.228l-0.944,-0.228l-0.455,0l-0.261,-0.228l-0.228,0l-0.488,-0.228l-0.228,0c-0.517,-0.27 -1.049,-0.509 -1.595,-0.716l-0.716,-0.228l-0,-0.228l-0.488,0l-0.228,-0.227l-0.228,-0l-0.228,-0.228l-0.488,-0.228l-0.228,-0l-0.488,-0.228l-0.228,-0.228l-0.489,-0.228l-0.227,-0.228l-0.489,-0.227l-0.228,-0l0,-0.066l-0.227,0l-0.456,-0.227c-10.355,-6.718 -16.615,-18.257 -16.602,-30.599l0,-81.804c-36.655,-14.969 -60.735,-50.813 -60.735,-90.408c0,-53.029 43.194,-96.863 96.217,-97.645l1.888,-0c52.963,0.866 96.06,44.673 96.06,97.643c0,39.596 -24.083,75.442 -60.741,90.41l-0.195,0Zm163.639,-311.035l-399.805,0l0,-71.615c0.267,-94.227 77.681,-171.7 171.908,-172.037l55.762,-0c94.362,0.195 171.954,77.773 172.168,172.135l-0.033,71.517Z"/></svg>