<?xml version="1.0" encoding="UTF-8" standalone="no"?>
<!DOCTYPE svg PUBLIC "-//W3C//DTD SVG 1.1//EN" "http://www.w3.org/Graphics/SVG/1.1/DTD/svg11.dtd">
<svg width="100%" height="100%" viewBox="0 0 2134 1438" version="1.1" xmlns="http://www.w3.org/2000/svg" xmlns:xlink="http://www.w3.org/1999/xlink" xml:space="preserve" xmlns:serif="http://www.serif.com/" style="fill-rule:evenodd;clip-rule:evenodd;stroke-linejoin:round;stroke-miterlimit:2;">
    <g transform="matrix(4.16667,0,0,4.16667,0,0)">
        <path d="M155.746,342.689C68.515,335.123 0,261.847 0,172.666C0,78.458 76.459,2 170.667,2C207.957,2 242.466,13.98 270.553,34.298C251.308,58.069 234.822,94.169 216.296,149.377C207.836,132.792 190.604,121.467 170.667,121.467C142.337,121.467 119.467,144.335 119.466,172.666C119.466,200.995 142.336,223.866 170.666,223.867C179.249,223.867 187.331,221.768 194.428,218.053L156.42,338.851C156.024,340.109 155.801,341.4 155.746,342.689Z"/>
        <path d="M362.496,130C405.853,142.475 457.045,130.001 457.045,130.001C442.196,194.855 395.093,235.472 327.167,240.421C301.056,301.009 240.81,343.334 170.667,343.333L221.867,180.605C274.499,13.329 301.474,1.999 426.296,2L512,2C497.663,65.146 448.256,113.39 362.496,130Z" style="fill-rule:nonzero;"/>
    </g>
</svg>
