<?xml version="1.0" encoding="UTF-8" standalone="no"?>
<!DOCTYPE svg PUBLIC "-//W3C//DTD SVG 1.1//EN" "http://www.w3.org/Graphics/SVG/1.1/DTD/svg11.dtd">
<svg width="100%" height="100%" viewBox="0 0 2134 2134" version="1.1" xmlns="http://www.w3.org/2000/svg" xmlns:xlink="http://www.w3.org/1999/xlink" xml:space="preserve" xmlns:serif="http://www.serif.com/" style="fill-rule:evenodd;clip-rule:evenodd;stroke-linejoin:round;stroke-miterlimit:2;">
    <g transform="matrix(4.16667,0,0,4.16667,0,0)">
        <g transform="matrix(3.77952,0,0,3.77952,3394.74,1043.42)">
            <g transform="matrix(0.00780225,0,0,0.00780225,-898.192,-276.071)">
                <path d="M17362.5,2083.5L17362.5,15279C17362.5,16428.9 16428.9,17362.5 15279,17362.5L2083.5,17362.5C933.59,17362.5 0,16428.9 0,15279L0,2083.5C0,933.59 933.585,0 2083.5,0L15279,0C16428.9,0 17362.5,933.585 17362.5,2083.5Z" style="fill:white;"/>
            </g>
            <g transform="matrix(0.00780225,0,0,0.00780225,-898.192,-276.071)">
                <path d="M17362.5,2083.5L17362.5,15279C17362.5,16428.9 16428.9,17362.5 15279,17362.5L2083.5,17362.5C933.59,17362.5 0,16428.9 0,15279L0,2083.5C0,933.59 933.585,0 2083.5,0L15279,0C16428.9,0 17362.5,933.585 17362.5,2083.5ZM17023.4,2083.5C17023.4,1120.75 16241.7,339.112 15279,339.112L2083.5,339.112C1120.75,339.112 339.112,1120.75 339.112,2083.5L339.112,15279C339.112,16241.8 1120.75,17023.4 2083.5,17023.4L15279,17023.4C16241.8,17023.4 17023.4,16241.8 17023.4,15279L17023.4,2083.5Z" style="fill:rgb(230,230,230);"/>
            </g>
        </g>
        <g transform="matrix(1.937,0,0,1.937,1845.94,606.25)">
            <path d="M-837.663,-237.968C-840.353,-237.968 -842.666,-235.992 -843.086,-233.335L-852.099,-176.185L-860.38,-123.671L-860.385,-123.627L-860.375,-123.671L-852.094,-176.185C-851.673,-178.854 -849.375,-180.818 -846.674,-180.818L-820.27,-180.818C-793.697,-180.818 -771.143,-200.205 -767.024,-226.476C-766.71,-228.472 -766.542,-230.449 -766.504,-232.4L-766.504,-232.403L-766.507,-232.403C-773.26,-235.946 -781.19,-237.968 -789.879,-237.968L-837.663,-237.968Z" style="fill:rgb(0,28,100);fill-rule:nonzero;"/>
            <path d="M-766.506,-232.402C-766.543,-230.451 -766.713,-228.472 -767.026,-226.476C-771.145,-200.205 -793.699,-180.818 -820.272,-180.818L-846.676,-180.818C-849.377,-180.818 -851.675,-178.854 -852.096,-176.185L-860.377,-123.671L-865.574,-90.724C-865.61,-90.495 -865.628,-90.263 -865.628,-90.031C-865.628,-87.585 -863.615,-85.571 -861.169,-85.571L-832.509,-85.571C-829.819,-85.571 -827.506,-87.547 -827.086,-90.204L-819.536,-138.085C-819.113,-140.754 -816.814,-142.721 -814.113,-142.721L-797.237,-142.721C-770.664,-142.721 -748.113,-162.107 -743.994,-188.376C-741.07,-207.025 -750.454,-223.99 -766.505,-232.402L-766.506,-232.402Z" style="fill:rgb(0,112,224);fill-rule:nonzero;"/>
            <path d="M-870.225,-276.071C-872.916,-276.071 -875.229,-274.093 -875.648,-271.435L-898.137,-128.827C-898.173,-128.597 -898.192,-128.364 -898.192,-128.131C-898.192,-125.684 -896.179,-123.671 -893.732,-123.671L-860.381,-123.671L-852.1,-176.185L-843.087,-233.335C-842.667,-235.992 -840.354,-237.968 -837.664,-237.968L-789.882,-237.968C-781.191,-237.968 -773.261,-235.943 -766.507,-232.405C-766.047,-256.322 -785.782,-276.071 -812.919,-276.071L-870.225,-276.071Z" style="fill:rgb(0,48,135);fill-rule:nonzero;"/>
        </g>
    </g>
</svg>
