<?xml version="1.0" encoding="UTF-8" standalone="no"?>
<!DOCTYPE svg PUBLIC "-//W3C//DTD SVG 1.1//EN" "http://www.w3.org/Graphics/SVG/1.1/DTD/svg11.dtd">
<svg width="100%" height="100%" viewBox="0 0 2134 2134" version="1.1" xmlns="http://www.w3.org/2000/svg" xmlns:xlink="http://www.w3.org/1999/xlink" xml:space="preserve" xmlns:serif="http://www.serif.com/" style="fill-rule:evenodd;clip-rule:evenodd;stroke-linejoin:round;stroke-miterlimit:2;">
    <g transform="matrix(4.16667,0,0,4.16667,0,0)">
        <g transform="matrix(-1.69193,1.24016,-1.84352,-2.51509,1108.2,270.82)">
            <path d="M170.216,167.181C160.66,175.951 163.487,188.291 176.524,194.719L326.131,268.489C339.168,274.917 357.512,273.016 367.068,264.245L476.727,163.603C486.283,154.833 483.457,142.493 470.42,136.065L320.813,62.295C307.775,55.867 289.432,57.768 279.876,66.539L170.216,167.181Z" style="fill:url(#_Radial1);"/>
        </g>
        <g transform="matrix(1.78189,0,0,1.78189,1718.63,578.203)">
            <path d="M-837.663,-237.968C-840.353,-237.968 -842.666,-235.992 -843.086,-233.335L-852.099,-176.185L-852.094,-176.185C-851.673,-178.854 -849.375,-180.818 -846.674,-180.818L-820.27,-180.818C-793.697,-180.818 -771.143,-200.205 -767.024,-226.476C-766.71,-228.472 -766.542,-230.449 -766.504,-232.4L-766.504,-232.403L-766.507,-232.403C-773.26,-235.946 -781.19,-237.968 -789.879,-237.968L-837.663,-237.968Z" style="fill:rgb(231,240,247);fill-rule:nonzero;"/>
            <path d="M-766.506,-232.402C-766.543,-230.451 -766.713,-228.472 -767.026,-226.476C-771.145,-200.205 -793.699,-180.818 -820.272,-180.818L-846.676,-180.818C-849.377,-180.818 -851.675,-178.854 -852.096,-176.185L-860.377,-123.671L-865.574,-90.724C-865.61,-90.495 -865.628,-90.263 -865.628,-90.031C-865.628,-87.585 -863.615,-85.571 -861.169,-85.571L-832.509,-85.571C-829.819,-85.571 -827.506,-87.547 -827.086,-90.204L-819.536,-138.085C-819.113,-140.754 -816.814,-142.721 -814.113,-142.721L-797.237,-142.721C-770.664,-142.721 -748.113,-162.107 -743.994,-188.376C-741.07,-207.025 -750.454,-223.99 -766.505,-232.402L-766.506,-232.402Z" style="fill:rgb(173,208,229);fill-rule:nonzero;"/>
            <path d="M-870.225,-276.071C-872.916,-276.071 -875.229,-274.093 -875.648,-271.435L-898.137,-128.827C-898.173,-128.597 -898.192,-128.364 -898.192,-128.131C-898.192,-125.684 -896.179,-123.671 -893.732,-123.671L-860.381,-123.671L-852.1,-176.185L-843.087,-233.335C-842.667,-235.992 -840.354,-237.968 -837.664,-237.968L-789.882,-237.968C-781.191,-237.968 -773.261,-235.943 -766.507,-232.405C-766.047,-256.322 -785.782,-276.071 -812.919,-276.071L-870.225,-276.071Z" style="fill:white;fill-rule:nonzero;"/>
        </g>
    </g>
    <defs>
        <radialGradient id="_Radial1" cx="0" cy="0" r="1" gradientUnits="userSpaceOnUse" gradientTransform="matrix(344,0,0,234,156,166)"><stop offset="0" style="stop-color:rgb(7,140,207);stop-opacity:1"/><stop offset="1" style="stop-color:rgb(0,56,123);stop-opacity:1"/></radialGradient>
    </defs>
</svg>
