<?xml version="1.0" encoding="UTF-8" standalone="no"?><!DOCTYPE svg PUBLIC "-//W3C//DTD SVG 1.1//EN" "http://www.w3.org/Graphics/SVG/1.1/DTD/svg11.dtd"><svg width="100%" height="100%" viewBox="0 0 650 165" version="1.1" xmlns="http://www.w3.org/2000/svg" xmlns:xlink="http://www.w3.org/1999/xlink" xml:space="preserve" xmlns:serif="http://www.serif.com/" style="fill-rule:evenodd;clip-rule:evenodd;stroke-linejoin:round;stroke-miterlimit:2;"><path d="M228.306,36.782l-37.273,0c-2.55,0 -4.72,1.853 -5.117,4.371l-15.075,95.576c-0.3,1.886 1.161,3.587 3.074,3.587l17.794,-0c2.551,-0 4.72,-1.853 5.117,-4.377l4.066,-25.778c0.393,-2.524 2.567,-4.377 5.112,-4.377l11.8,0c24.552,0 38.722,-11.881 42.422,-35.425c1.668,-10.3 0.071,-18.393 -4.752,-24.061c-5.298,-6.224 -14.693,-9.516 -27.168,-9.516Zm4.3,34.907c-2.039,13.375 -12.257,13.375 -22.138,13.375l-5.625,-0l3.946,-24.978c0.235,-1.509 1.543,-2.621 3.069,-2.621l2.577,-0c6.731,-0 13.08,-0 16.361,3.837c1.957,2.289 2.556,5.689 1.81,10.387Z" style="fill-rule:nonzero;"/><path d="M339.72,71.259l-17.849,-0c-1.52,-0 -2.834,1.111 -3.068,2.621l-0.79,4.992l-1.248,-1.809c-3.865,-5.608 -12.481,-7.483 -21.081,-7.483c-19.724,0 -36.57,14.939 -39.85,35.894c-1.706,10.453 0.719,20.448 6.649,27.419c5.439,6.409 13.221,9.079 22.481,9.079c15.892,0 24.705,-10.218 24.705,-10.218l-0.796,4.959c-0.3,1.897 1.161,3.597 3.063,3.597l16.077,0c2.556,0 4.715,-1.853 5.118,-4.376l9.646,-61.089c0.306,-1.88 -1.15,-3.586 -3.057,-3.586Zm-24.879,34.738c-1.723,10.197 -9.816,17.042 -20.138,17.042c-5.183,0 -9.325,-1.662 -11.985,-4.812c-2.637,-3.129 -3.64,-7.581 -2.801,-12.541c1.608,-10.109 9.837,-17.178 20.002,-17.178c5.068,-0 9.188,1.684 11.902,4.861c2.72,3.21 3.799,7.69 3.02,12.628Z" style="fill-rule:nonzero;"/><path d="M434.779,71.259l-17.936,-0c-1.712,-0 -3.319,0.85 -4.289,2.272l-24.738,36.439l-10.486,-35.016c-0.659,-2.191 -2.681,-3.695 -4.97,-3.695l-17.625,-0c-2.142,-0 -3.63,2.092 -2.949,4.109l19.756,57.977l-18.573,26.22c-1.461,2.065 0.011,4.905 2.534,4.905l17.914,-0c1.701,-0 3.292,-0.828 4.257,-2.224l59.655,-86.11c1.428,-2.06 -0.038,-4.877 -2.55,-4.877Z" style="fill-rule:nonzero;"/><path d="M494.162,36.782l-37.278,0c-2.545,0 -4.714,1.853 -5.112,4.371l-15.075,95.576c-0.3,1.886 1.161,3.587 3.063,3.587l19.129,-0c1.777,-0 3.298,-1.298 3.576,-3.063l4.278,-27.092c0.392,-2.524 2.567,-4.377 5.112,-4.377l11.794,0c24.558,0 38.722,-11.881 42.428,-35.425c1.673,-10.3 0.065,-18.393 -4.758,-24.061c-5.292,-6.224 -14.682,-9.516 -27.157,-9.516Zm4.3,34.907c-2.033,13.375 -12.252,13.375 -22.138,13.375l-5.619,-0l3.951,-24.978c0.235,-1.509 1.532,-2.621 3.063,-2.621l2.578,-0c6.725,-0 13.08,-0 16.361,3.837c1.957,2.289 2.551,5.689 1.804,10.387Z" style="fill-rule:nonzero;"/><path d="M605.571,71.259l-17.838,-0c-1.532,-0 -2.834,1.111 -3.063,2.621l-0.79,4.992l-1.254,-1.809c-3.864,-5.608 -12.475,-7.483 -21.075,-7.483c-19.723,0 -36.564,14.939 -39.845,35.894c-1.7,10.453 0.714,20.448 6.644,27.419c5.45,6.409 13.221,9.079 22.481,9.079c15.892,0 24.705,-10.218 24.705,-10.218l-0.796,4.959c-0.3,1.897 1.161,3.597 3.074,3.597l16.072,0c2.545,0 4.714,-1.853 5.112,-4.376l9.652,-61.089c0.294,-1.88 -1.166,-3.586 -3.079,-3.586Zm-24.88,34.738c-1.711,10.197 -9.815,17.042 -20.137,17.042c-5.172,0 -9.325,-1.662 -11.985,-4.812c-2.638,-3.129 -3.63,-7.581 -2.801,-12.541c1.619,-10.109 9.837,-17.178 20.001,-17.178c5.069,-0 9.189,1.684 11.903,4.861c2.731,3.21 3.81,7.69 3.019,12.628Z" style="fill-rule:nonzero;"/><path d="M626.613,39.403l-15.298,97.326c-0.3,1.886 1.161,3.587 3.063,3.587l15.38,-0c2.556,-0 4.725,-1.853 5.117,-4.377l15.086,-95.571c0.3,-1.886 -1.161,-3.591 -3.063,-3.591l-17.222,-0c-1.521,0.005 -2.829,1.117 -3.063,2.626Z" style="fill-rule:nonzero;"/><path d="M44.984,85.075l7.598,-48.178c0.362,-2.294 2.36,-4 4.682,-4l41.254,-0c7.502,-0 14.349,1.745 20.179,4.804l0.002,0l0,0.003c-0.008,0.461 -0.026,0.924 -0.052,1.389c-0.069,1.231 -0.199,2.473 -0.396,3.724l-0,0.002c-3.556,22.681 -23.029,39.419 -45.971,39.419l-19.686,-0c-2.888,-0 -5.558,1.06 -7.61,2.837Z"/><path d="M121.384,39.246c12.203,7.672 19.107,21.436 16.75,36.466c-3.557,22.68 -23.026,39.417 -45.968,39.417l-14.57,-0c-2.332,-0 -4.317,1.698 -4.682,4.003l-6.518,41.338c-0.363,2.294 -2.36,4 -4.683,4l-24.743,-0c-2.112,-0.001 -3.85,-1.739 -3.85,-3.851c-0,-0.2 0.015,-0.4 0.047,-0.598l4.486,-28.445c0,-0 4.088,-25.922 6.166,-39.097c0.681,-4.319 4.403,-7.5 8.775,-7.5l19.686,-0c24.292,-0 44.913,-17.72 48.679,-41.736c0.211,-1.342 0.35,-2.675 0.425,-3.997Z"/><path d="M49.874,36.47l-14.928,94.679l-0.068,0.427l-26.022,-0c-2.112,-0.001 -3.85,-1.738 -3.85,-3.851c0,-0.201 0.016,-0.402 0.047,-0.601l19.416,-123.121c0.362,-2.295 2.359,-4.003 4.682,-4.003l0,0l49.476,0c22.245,0 38.729,15.371 39.998,34.598c-5.897,-2.834 -12.701,-4.443 -20.107,-4.443l-41.254,0c-3.665,0 -6.818,2.694 -7.39,6.314l0,0.001Z"/></svg>