<?xml version="1.0" encoding="UTF-8" standalone="no"?>
<!DOCTYPE svg PUBLIC "-//W3C//DTD SVG 1.1//EN" "http://www.w3.org/Graphics/SVG/1.1/DTD/svg11.dtd">
<svg width="100%" height="100%" viewBox="0 0 2437 3000" version="1.1" xmlns="http://www.w3.org/2000/svg" xmlns:xlink="http://www.w3.org/1999/xlink" xml:space="preserve" xmlns:serif="http://www.serif.com/" style="fill-rule:evenodd;clip-rule:evenodd;stroke-linejoin:round;stroke-miterlimit:2;">
    <path d="M729.218,1551.8L867.81,673.009C874.422,631.171 910.855,600.046 953.211,600.048L1705.71,600.048C1842.55,600.048 1967.43,631.891 2073.78,687.686L2073.82,687.686L2073.82,687.733C2073.66,696.147 2073.34,704.591 2072.87,713.064C2071.61,735.525 2069.23,758.186 2065.64,781.004L2065.64,781.028C2000.77,1194.74 1645.59,1500.05 1227.12,1500.05L868.027,1500.05C815.36,1500.05 766.645,1519.39 729.218,1551.8Z"/>
    <path d="M2122.79,715.869C2345.37,855.805 2471.3,1106.86 2428.31,1381.02C2363.44,1794.71 2008.31,2100 1589.84,2100L1324.07,2100C1281.54,2100 1245.33,2130.98 1238.67,2173.01L1119.78,2927.04C1113.16,2968.88 1076.73,3000 1034.37,3000L583.036,3000C544.51,2999.99 512.813,2968.29 512.813,2929.76C512.813,2926.11 513.098,2922.46 513.666,2918.85L595.508,2400C595.508,2400 670.067,1927.18 707.966,1686.85C720.388,1608.07 788.28,1550.05 868.027,1550.05L1227.12,1550.05C1670.21,1550.05 2046.35,1226.83 2115.03,788.773C2118.88,764.288 2121.43,739.971 2122.79,715.869Z"/>
    <path d="M818.42,665.22L546.118,2392.21L544.89,2400L70.236,2400C31.708,2399.99 0.006,2368.29 0.006,2329.76C0.006,2326.09 0.293,2322.43 0.866,2318.8L355.023,73.01C361.614,31.154 398.053,0.003 440.425,0.002L440.425,-0L1342.88,-0C1748.64,-0 2049.31,280.365 2072.46,631.081C1964.9,579.395 1840.8,550.048 1705.71,550.048L953.211,550.048C886.361,550.046 828.859,599.171 818.423,665.204L818.42,665.22Z"/>
</svg>
