<?xml version="1.0" encoding="UTF-8" standalone="no"?><!DOCTYPE svg PUBLIC "-//W3C//DTD SVG 1.1//EN" "http://www.w3.org/Graphics/SVG/1.1/DTD/svg11.dtd"><svg width="100%" height="100%" viewBox="0 0 650 165" version="1.1" xmlns="http://www.w3.org/2000/svg" xmlns:xlink="http://www.w3.org/1999/xlink" xml:space="preserve" xmlns:serif="http://www.serif.com/" style="fill-rule:evenodd;clip-rule:evenodd;stroke-linejoin:round;stroke-miterlimit:2;"><path d="M228.306,36.782l-37.273,0c-2.55,0 -4.72,1.853 -5.117,4.371l-15.075,95.576c-0.3,1.886 1.161,3.587 3.074,3.587l17.794,-0c2.551,-0 4.72,-1.853 5.117,-4.377l4.066,-25.778c0.393,-2.524 2.567,-4.377 5.112,-4.377l11.8,0c24.552,0 38.722,-11.881 42.422,-35.425c1.668,-10.3 0.071,-18.393 -4.752,-24.061c-5.298,-6.224 -14.693,-9.516 -27.168,-9.516Zm4.3,34.907c-2.039,13.375 -12.257,13.375 -22.138,13.375l-5.625,-0l3.946,-24.978c0.235,-1.509 1.543,-2.621 3.069,-2.621l2.577,-0c6.731,-0 13.08,-0 16.361,3.837c1.957,2.289 2.556,5.689 1.81,10.387Z" style="fill:#253b80;fill-rule:nonzero;"/><path d="M339.72,71.259l-17.849,-0c-1.52,-0 -2.834,1.111 -3.068,2.621l-0.79,4.992l-1.248,-1.809c-3.865,-5.608 -12.481,-7.483 -21.081,-7.483c-19.724,0 -36.57,14.939 -39.85,35.894c-1.706,10.453 0.719,20.448 6.649,27.419c5.439,6.409 13.221,9.079 22.481,9.079c15.892,0 24.705,-10.218 24.705,-10.218l-0.796,4.959c-0.3,1.897 1.161,3.597 3.063,3.597l16.077,0c2.556,0 4.715,-1.853 5.118,-4.376l9.646,-61.089c0.306,-1.88 -1.15,-3.586 -3.057,-3.586Zm-24.879,34.738c-1.723,10.197 -9.816,17.042 -20.138,17.042c-5.183,0 -9.325,-1.662 -11.985,-4.812c-2.637,-3.129 -3.64,-7.581 -2.801,-12.541c1.608,-10.109 9.837,-17.178 20.002,-17.178c5.068,-0 9.188,1.684 11.902,4.861c2.72,3.21 3.799,7.69 3.02,12.628Z" style="fill:#253b80;fill-rule:nonzero;"/><path d="M434.779,71.259l-17.936,-0c-1.712,-0 -3.319,0.85 -4.289,2.272l-24.738,36.439l-10.486,-35.016c-0.659,-2.191 -2.681,-3.695 -4.97,-3.695l-17.625,-0c-2.142,-0 -3.63,2.092 -2.949,4.109l19.756,57.977l-18.573,26.22c-1.461,2.065 0.011,4.905 2.534,4.905l17.914,-0c1.701,-0 3.292,-0.828 4.257,-2.224l59.655,-86.11c1.428,-2.06 -0.038,-4.877 -2.55,-4.877Z" style="fill:#253b80;fill-rule:nonzero;"/><path d="M494.162,36.782l-37.278,0c-2.545,0 -4.714,1.853 -5.112,4.371l-15.075,95.576c-0.3,1.886 1.161,3.587 3.063,3.587l19.129,-0c1.777,-0 3.298,-1.298 3.576,-3.063l4.278,-27.092c0.392,-2.524 2.567,-4.377 5.112,-4.377l11.794,0c24.558,0 38.722,-11.881 42.428,-35.425c1.673,-10.3 0.065,-18.393 -4.758,-24.061c-5.292,-6.224 -14.682,-9.516 -27.157,-9.516Zm4.3,34.907c-2.033,13.375 -12.252,13.375 -22.138,13.375l-5.619,-0l3.951,-24.978c0.235,-1.509 1.532,-2.621 3.063,-2.621l2.578,-0c6.725,-0 13.08,-0 16.361,3.837c1.957,2.289 2.551,5.689 1.804,10.387Z" style="fill:#179bd7;fill-rule:nonzero;"/><path d="M605.571,71.259l-17.838,-0c-1.532,-0 -2.834,1.111 -3.063,2.621l-0.79,4.992l-1.254,-1.809c-3.864,-5.608 -12.475,-7.483 -21.075,-7.483c-19.723,0 -36.564,14.939 -39.845,35.894c-1.7,10.453 0.714,20.448 6.644,27.419c5.45,6.409 13.221,9.079 22.481,9.079c15.892,0 24.705,-10.218 24.705,-10.218l-0.796,4.959c-0.3,1.897 1.161,3.597 3.074,3.597l16.072,0c2.545,0 4.714,-1.853 5.112,-4.376l9.652,-61.089c0.294,-1.88 -1.166,-3.586 -3.079,-3.586Zm-24.88,34.738c-1.711,10.197 -9.815,17.042 -20.137,17.042c-5.172,0 -9.325,-1.662 -11.985,-4.812c-2.638,-3.129 -3.63,-7.581 -2.801,-12.541c1.619,-10.109 9.837,-17.178 20.001,-17.178c5.069,-0 9.189,1.684 11.903,4.861c2.731,3.21 3.81,7.69 3.019,12.628Z" style="fill:#179bd7;fill-rule:nonzero;"/><path d="M626.613,39.403l-15.298,97.326c-0.3,1.886 1.161,3.587 3.063,3.587l15.38,-0c2.556,-0 4.725,-1.853 5.117,-4.377l15.086,-95.571c0.3,-1.886 -1.161,-3.591 -3.063,-3.591l-17.222,-0c-1.521,0.005 -2.829,1.117 -3.063,2.626Z" style="fill:#179bd7;fill-rule:nonzero;"/><path d="M39.6,158.889l2.85,-18.105l-6.349,-0.147l-30.319,0l21.07,-133.596c0.065,-0.403 0.278,-0.779 0.589,-1.046c0.31,-0.267 0.708,-0.414 1.122,-0.414l51.121,-0c16.972,-0 28.684,3.531 34.799,10.502c2.866,3.27 4.692,6.687 5.575,10.448c0.926,3.945 0.943,8.66 0.038,14.409l-0.065,0.42l-0,3.684l2.866,1.624c2.415,1.281 4.333,2.747 5.805,4.426c2.452,2.796 4.038,6.349 4.708,10.562c0.693,4.333 0.464,9.488 -0.67,15.325c-1.308,6.715 -3.423,12.562 -6.278,17.348c-2.627,4.409 -5.974,8.066 -9.947,10.899c-3.793,2.693 -8.3,4.737 -13.396,6.045c-4.937,1.286 -10.567,1.934 -16.742,1.934l-3.979,0c-2.844,0 -5.608,1.025 -7.777,2.862c-2.174,1.874 -3.613,4.436 -4.055,7.237l-0.299,1.63l-5.036,31.909l-0.229,1.172c-0.06,0.371 -0.163,0.556 -0.316,0.681c-0.136,0.115 -0.333,0.191 -0.523,0.191l-24.563,0Z" style="fill:#253b80;fill-rule:nonzero;"/><path d="M125.611,41.785c-0.152,0.976 -0.327,1.973 -0.523,2.998c-6.741,34.613 -29.806,46.57 -59.263,46.57l-14.998,-0c-3.603,-0 -6.639,2.616 -7.2,6.169l-7.679,48.701l-2.174,13.805c-0.366,2.333 1.433,4.436 3.787,4.436l26.602,0c3.15,0 5.826,-2.289 6.322,-5.395l0.261,-1.352l5.009,-31.784l0.321,-1.744c0.491,-3.117 3.172,-5.406 6.322,-5.406l3.979,-0c25.773,-0 45.949,-10.464 51.846,-40.745c2.463,-12.649 1.188,-23.211 -5.33,-30.639c-1.973,-2.24 -4.42,-4.099 -7.282,-5.614Z" style="fill:#179bd7;fill-rule:nonzero;"/><path d="M118.559,38.973c-1.03,-0.3 -2.093,-0.572 -3.183,-0.818c-1.095,-0.239 -2.218,-0.452 -3.373,-0.637c-4.044,-0.654 -8.475,-0.965 -13.222,-0.965l-40.068,0c-0.987,0 -1.924,0.224 -2.763,0.627c-1.848,0.888 -3.221,2.638 -3.554,4.78l-8.524,53.987l-0.245,1.575c0.561,-3.553 3.597,-6.169 7.2,-6.169l14.998,-0c29.457,-0 52.522,-11.963 59.263,-46.57c0.202,-1.025 0.371,-2.022 0.523,-2.998c-1.705,-0.905 -3.553,-1.678 -5.542,-2.338c-0.491,-0.163 -0.998,-0.321 -1.51,-0.474Z" style="fill:#222d65;fill-rule:nonzero;"/><path d="M52.396,41.96c0.333,-2.142 1.706,-3.892 3.554,-4.775c0.844,-0.403 1.776,-0.626 2.763,-0.626l40.068,-0c4.747,-0 9.178,0.31 13.222,0.964c1.155,0.186 2.278,0.398 3.373,0.638c1.09,0.245 2.153,0.518 3.183,0.817c0.512,0.153 1.019,0.311 1.515,0.469c1.989,0.66 3.837,1.439 5.543,2.338c2.005,-12.791 -0.016,-21.5 -6.933,-29.386c-7.624,-8.682 -21.385,-12.399 -38.994,-12.399l-51.121,-0c-3.597,-0 -6.666,2.616 -7.221,6.175l-21.294,134.969c-0.419,2.67 1.641,5.079 4.333,5.079l31.561,0l7.924,-50.276l8.524,-53.987Z" style="fill:#253b80;fill-rule:nonzero;"/></svg>