<?xml version="1.0" encoding="UTF-8" standalone="no"?><!DOCTYPE svg PUBLIC "-//W3C//DTD SVG 1.1//EN" "http://www.w3.org/Graphics/SVG/1.1/DTD/svg11.dtd"><svg width="100%" height="100%" viewBox="0 0 3221 3000" version="1.1" xmlns="http://www.w3.org/2000/svg" xmlns:xlink="http://www.w3.org/1999/xlink" xml:space="preserve" xmlns:serif="http://www.serif.com/" style="fill-rule:evenodd;clip-rule:evenodd;stroke-linejoin:round;stroke-miterlimit:2;"><g><path d="M127.309,2132.72c-9.317,0.023 -17.32,6.871 -18.783,16.071l-108.308,686.917c-0.143,0.906 -0.215,1.822 -0.215,2.739c0,9.638 7.923,17.573 17.561,17.588l128.474,-0c9.308,-0.02 17.308,-6.854 18.783,-16.044l31.793,-201.727c1.475,-9.19 9.475,-16.024 18.783,-16.044l116.766,0c136.476,0 252.302,-99.554 273.462,-234.485c21.347,-136.046 -84.92,-254.733 -235.587,-255.015l-242.729,0Zm124.875,153.353l93.445,-0c76.932,-0 101.958,45.38 94.036,95.58c-7.921,50.307 -46.789,87.363 -121.223,87.363l-95.11,-0l28.852,-182.943Zm614.738,46.722c-32.437,0.121 -69.775,6.754 -111.678,24.207c-96.103,40.05 -142.275,122.862 -161.864,183.226c0,-0 -62.391,184.164 78.569,285.357c0,-0 130.716,97.379 277.892,-6.029l-2.524,16.152c-0.143,0.906 -0.214,1.822 -0.214,2.739c-0,9.638 7.922,17.573 17.561,17.588l121.948,-0c9.345,-0 17.293,-6.821 18.757,-16.071l74.192,-470.408c0.143,-0.906 0.214,-1.822 0.214,-2.739c0,-9.638 -7.922,-17.573 -17.561,-17.588l-121.948,-0c-9.372,-0 -17.32,6.82 -18.783,16.044l-3.974,25.308l-0.027,-0c-0,-0 -53.248,-58.148 -150.573,-57.786l0.013,0Zm3.988,148.586c14.003,0 26.811,1.907 38.291,5.612c52.603,16.904 82.462,67.412 73.816,122.218c-10.647,67.479 -65.975,117.182 -136.919,117.182c-14.003,-0 -26.838,-1.92 -38.318,-5.612c-52.603,-16.903 -82.637,-67.439 -73.977,-122.244c10.647,-67.453 66.164,-117.156 137.107,-117.156Z" style="fill-rule:nonzero;"/><path d="M1883.41,2132.72c-9.344,0 -17.292,6.821 -18.756,16.071l-108.334,686.917c-0.143,0.906 -0.215,1.822 -0.215,2.739c-0,9.648 7.939,17.588 17.588,17.588l128.474,-0c9.344,-0 17.292,-6.807 18.756,-16.044l31.819,-201.727c1.475,-9.19 9.476,-16.024 18.784,-16.044l116.766,0c136.475,0 252.302,-99.554 273.461,-234.485c21.348,-136.046 -84.946,-254.733 -235.613,-255.015l-242.73,0Zm124.876,153.353l93.445,-0c76.931,-0 101.984,45.38 94.063,95.58c-7.921,50.307 -46.803,87.363 -121.251,87.363l-95.11,-0l28.853,-182.943Zm614.765,46.722c-32.437,0.121 -69.775,6.754 -111.678,24.207c-96.104,40.05 -142.303,122.862 -161.891,183.226c-0,-0 -62.377,184.164 78.596,285.357c-0,-0 130.716,97.379 277.892,-6.029l-2.551,16.152c-0.143,0.906 -0.215,1.822 -0.215,2.739c0,9.648 7.94,17.588 17.588,17.588l121.922,-0c9.317,-0.022 17.32,-6.87 18.783,-16.071l74.193,-470.408c0.142,-0.906 0.214,-1.822 0.214,-2.739c0,-9.649 -7.939,-17.588 -17.588,-17.588l-121.922,-0c-9.371,-0 -17.319,6.82 -18.783,16.044l-3.987,25.308c-0,-0 -53.248,-58.148 -150.573,-57.786Zm3.96,148.586c14.004,0 26.839,1.907 38.318,5.612c52.604,16.904 82.436,67.412 73.803,122.218c-10.647,67.479 -65.975,117.182 -136.918,117.182c-14.004,-0 -26.812,-1.92 -38.291,-5.612c-52.604,-16.903 -82.638,-67.439 -73.978,-122.244c10.633,-67.453 66.137,-117.156 137.08,-117.156l-0.014,0Z" style="fill-rule:nonzero;"/><path d="M1237.41,2349.23c-0.008,-0 -0.016,-0 -0.023,-0c-7.807,-0 -14.232,6.424 -14.232,14.231c0,1.491 0.234,2.973 0.694,4.391l133.67,414.864l-120.888,195.537c-5.854,9.492 0.953,21.723 12.124,21.723l142.839,0c8.308,0.005 16.037,-4.346 20.341,-11.452l373.338,-617.692c5.746,-9.492 -1.088,-21.629 -12.178,-21.629l-142.839,-0c-8.384,-0.003 -16.171,4.43 -20.448,11.64l-146.962,248.154l-74.608,-246.301c-2.444,-8.015 -9.815,-13.48 -18.206,-13.48l-132.622,0.014Z" style="fill-rule:nonzero;"/><path d="M3074.26,2132.72c-9.345,0 -17.293,6.821 -18.757,16.071l-108.334,686.917c-0.143,0.906 -0.215,1.822 -0.215,2.739c0,9.648 7.94,17.588 17.588,17.588l128.447,-0c9.344,-0 17.293,-6.807 18.756,-16.044l108.362,-686.944c0.142,-0.905 0.214,-1.821 0.214,-2.738c0,-9.649 -7.939,-17.589 -17.588,-17.589c-0.009,0 -0.018,0 -0.026,0l-128.447,0Z" style="fill-rule:nonzero;"/><g><path d="M1315.67,934.282l83.441,-529.088c3.981,-25.189 25.916,-43.928 51.417,-43.927l453.052,0c82.386,0 157.572,19.172 221.601,52.764l0.025,-0l-0,0.028c-0.097,5.066 -0.289,10.15 -0.572,15.251c-0.759,13.523 -2.192,27.166 -4.353,40.904l-0,0.015c-39.056,249.08 -252.897,432.897 -504.843,432.897l-216.197,-0c-31.708,-0 -61.038,11.643 -83.571,31.156Z"/><path d="M2154.69,430.999c134.007,84.25 209.825,235.401 183.942,400.463c-39.056,249.068 -252.867,432.872 -504.812,432.872l-160.011,-0c-25.605,-0 -47.406,18.652 -51.416,43.956l-71.579,453.974c-3.986,25.191 -25.919,43.927 -51.422,43.927l-271.732,-0c-23.195,-0.006 -42.279,-19.092 -42.279,-42.289c0,-2.198 0.172,-4.395 0.514,-6.569l49.274,-312.38c-0,-0 44.889,-284.668 67.707,-429.362c7.478,-47.431 48.354,-82.362 96.366,-82.362l216.197,-0c266.769,-0 493.229,-194.599 534.579,-458.337c2.318,-14.742 3.853,-29.382 4.672,-43.893Z"/><path d="M1369.38,400.505l-163.943,1039.76l-0.74,4.69l-285.771,-0c-23.197,-0.006 -42.283,-19.092 -42.283,-42.289c-0,-2.21 0.172,-4.413 0.517,-6.599l213.225,-1352.11c3.969,-25.2 25.907,-43.955 51.418,-43.956l-0,-0.001l543.335,0c244.293,0 425.316,168.798 439.254,379.951c-64.758,-31.118 -139.474,-48.787 -220.807,-48.787l-453.052,-0c-40.248,-0.001 -74.868,29.575 -81.151,69.331l-0.002,0.01Z"/></g></g></svg>