<?xml version="1.0" encoding="UTF-8" standalone="no"?>
<!DOCTYPE svg PUBLIC "-//W3C//DTD SVG 1.1//EN" "http://www.w3.org/Graphics/SVG/1.1/DTD/svg11.dtd">
<svg width="100%" height="100%" viewBox="0 0 512 512" version="1.1" xmlns="http://www.w3.org/2000/svg" xmlns:xlink="http://www.w3.org/1999/xlink" xml:space="preserve" xmlns:serif="http://www.serif.com/" style="fill-rule:evenodd;clip-rule:evenodd;stroke-linejoin:round;stroke-miterlimit:2;">
    <g transform="matrix(-5.12028,2.55078,-2.00939,-4.03353,898.619,551.513)">
        <path d="M96.588,188.976C86.846,181.566 78.45,171.622 71.953,159.798C70.878,157.825 69.178,154.577 68.349,152.457C69.758,151.502 71.149,150.087 72.514,149.006C73.201,148.461 74.093,147.724 74.41,146.764C74.579,146.234 74.092,145.579 74.184,145.075C77.695,142.612 81.322,139.587 84.761,136.933L104.394,121.87L119.609,110.392L125.75,105.879C128.115,104.119 130.831,103.063 128.66,99.078C127.641,97.158 126.615,95.199 125.472,93.396C125.277,93.087 124.741,92.773 124.434,92.678C123.629,92.429 122.928,92.909 122.272,93.466C120.61,94.875 118.967,96.331 117.307,97.748L105.127,108.093L85.311,124.822L74.684,133.744C73.706,134.56 70.813,137.112 69.987,137.555C69.643,137.411 69.561,136.832 69.047,136.803C68.682,136.781 68.39,136.87 68.048,137.053C66.127,138.191 64.272,139.696 62.411,141C62.398,141.009 62.327,141.111 62.315,141.128C62.218,141.127 62.013,141.12 61.952,141.046C61.015,139.901 59.622,137.687 58.829,136.473C52.675,126.953 47.84,116.173 44.534,104.594C43.534,101.181 42.835,98.124 41.938,94.706C40.086,109.142 43.107,125.84 48.175,138.776C49.287,141.615 50.432,144.451 51.805,147.109C52.033,147.627 52.268,148.105 52.515,148.607C51.877,149.009 51.04,149.5 50.501,150.069C51.031,153.158 53.315,156.668 54.77,159.184C56.522,162.212 56.63,161.855 58.917,159.913C67.282,172.133 77.12,181.659 89.329,186.744C91.535,187.662 94.28,188.861 96.588,188.976Z" style="fill:url(#_Radial1);"/>
    </g>
    <defs>
        <radialGradient id="_Radial1" cx="0" cy="0" r="1" gradientUnits="userSpaceOnUse" gradientTransform="matrix(104.821,0,0,134.538,32,126.269)"><stop offset="0" style="stop-color:rgb(113,255,231);stop-opacity:1"/><stop offset="1" style="stop-color:rgb(79,156,242);stop-opacity:1"/></radialGradient>
    </defs>
</svg>
