<?xml version="1.0" encoding="UTF-8" standalone="no"?>
<!DOCTYPE svg PUBLIC "-//W3C//DTD SVG 1.1//EN" "http://www.w3.org/Graphics/SVG/1.1/DTD/svg11.dtd">
<svg width="100%" height="100%" viewBox="0 0 651 650" version="1.1" xmlns="http://www.w3.org/2000/svg" xmlns:xlink="http://www.w3.org/1999/xlink" xml:space="preserve" xmlns:serif="http://www.serif.com/" style="fill-rule:evenodd;clip-rule:evenodd;stroke-linejoin:round;stroke-miterlimit:2;">
    <g transform="matrix(3.77128,0,0,3.77128,-0.0547119,-0.405359)">
        <g transform="matrix(0.361701,-0.361701,0.375261,0.375261,-5.9573,56.3566)">
            <path d="M283,159.758L283,164C283,212.017 246.66,251 201.899,251L110,251L110,77L205.853,77C248.432,77 283,114.083 283,159.758Z" style="fill:white;"/>
            <g>
                <clipPath id="_clip1">
                    <path d="M283,159.758L283,164C283,212.017 246.66,251 201.899,251L110,251L110,77L205.853,77C248.432,77 283,114.083 283,159.758Z"/>
                </clipPath>
                <g clip-path="url(#_clip1)">
                    <g transform="matrix(-0.663996,2.34943,-2.07409,-0.237805,591.604,-137.777)">
                        <ellipse cx="135" cy="165" rx="53" ry="74" style="fill:url(#_Radial2);"/>
                    </g>
                    <g transform="matrix(-1.87989,9.84964e-16,-3.46572e-07,-1.89755,229.35,482.729)">
                        <rect x="14.603" y="122.12" width="48.885" height="45.849" style="fill:url(#_Linear3);"/>
                    </g>
                </g>
            </g>
        </g>
        <g transform="matrix(-0.361701,0.361701,0.375261,0.375261,56.2636,-5.98955)">
            <path d="M283,159.758L283,164C283,212.017 246.66,251 201.899,251L110,251L110,77L205.853,77C248.432,77 283,114.083 283,159.758Z" style="fill:white;"/>
            <g>
                <clipPath id="_clip4">
                    <path d="M283,159.758L283,164C283,212.017 246.66,251 201.899,251L110,251L110,77L205.853,77C248.432,77 283,114.083 283,159.758Z"/>
                </clipPath>
                <g clip-path="url(#_clip4)">
                    <g transform="matrix(-0.663996,2.34943,-2.07409,-0.237805,591.604,-137.777)">
                        <ellipse cx="135" cy="165" rx="53" ry="74" style="fill:url(#_Radial5);"/>
                    </g>
                    <g transform="matrix(-1.87989,9.78431e-16,-3.46572e-07,-1.89755,229.35,482.729)">
                        <rect x="14.603" y="122.12" width="48.885" height="45.849" style="fill:url(#_Linear6);"/>
                    </g>
                </g>
            </g>
        </g>
    </g>
    <defs>
        <radialGradient id="_Radial2" cx="0" cy="0" r="1" gradientUnits="userSpaceOnUse" gradientTransform="matrix(106,0,0,148,82,165)"><stop offset="0" style="stop-color:rgb(255,234,235);stop-opacity:1"/><stop offset="1" style="stop-color:rgb(211,0,24);stop-opacity:1"/></radialGradient>
        <linearGradient id="_Linear3" x1="0" y1="0" x2="1" y2="0" gradientUnits="userSpaceOnUse" gradientTransform="matrix(48.8854,0,0,48.8854,14.6027,145.044)"><stop offset="0" style="stop-color:rgb(255,0,0);stop-opacity:0"/><stop offset="1" style="stop-color:rgb(162,33,48);stop-opacity:1"/></linearGradient>
        <radialGradient id="_Radial5" cx="0" cy="0" r="1" gradientUnits="userSpaceOnUse" gradientTransform="matrix(106,0,0,148,82,165)"><stop offset="0" style="stop-color:rgb(151,255,255);stop-opacity:1"/><stop offset="1" style="stop-color:rgb(0,162,211);stop-opacity:1"/></radialGradient>
        <linearGradient id="_Linear6" x1="0" y1="0" x2="1" y2="0" gradientUnits="userSpaceOnUse" gradientTransform="matrix(48.8854,0,0,48.8854,14.6027,145.044)"><stop offset="0" style="stop-color:rgb(0,108,140);stop-opacity:0"/><stop offset="1" style="stop-color:rgb(0,108,140);stop-opacity:1"/></linearGradient>
    </defs>
</svg>
