<?xml version="1.0" encoding="UTF-8" standalone="no"?>
<!DOCTYPE svg PUBLIC "-//W3C//DTD SVG 1.1//EN" "http://www.w3.org/Graphics/SVG/1.1/DTD/svg11.dtd">
<svg width="100%" height="100%" viewBox="0 0 800 800" version="1.1" xmlns="http://www.w3.org/2000/svg" xmlns:xlink="http://www.w3.org/1999/xlink" xml:space="preserve" xmlns:serif="http://www.serif.com/" style="fill-rule:evenodd;clip-rule:evenodd;stroke-linejoin:round;stroke-miterlimit:2;">
    <g transform="matrix(59.6054,0,0,59.6054,-77.083,-76.8909)">
        <path d="M7.67,14.72L6,13L3.53,13L3,12.5L3,10.08L1.31,8.36L1.31,7.65L3,5.93L3,3.5L3.53,3L6,3L7.67,1.29L8.38,1.29L10.1,3L12.53,3L13.03,3.49L13.03,5.93L14.74,7.65L14.74,8.36L13,10.08L13,12.5L12.5,13L10.1,13L8.38,14.72L7.67,14.72ZM6.73,10.48L7.44,10.48L11.21,6.71L10.5,6L7.09,9.42L5.71,8.04L5,8.75L6.73,10.48Z"/>
        <clipPath id="_clip1">
            <path d="M7.67,14.72L6,13L3.53,13L3,12.5L3,10.08L1.31,8.36L1.31,7.65L3,5.93L3,3.5L3.53,3L6,3L7.67,1.29L8.38,1.29L10.1,3L12.53,3L13.03,3.49L13.03,5.93L14.74,7.65L14.74,8.36L13,10.08L13,12.5L12.5,13L10.1,13L8.38,14.72L7.67,14.72ZM6.73,10.48L7.44,10.48L11.21,6.71L10.5,6L7.09,9.42L5.71,8.04L5,8.75L6.73,10.48Z"/>
        </clipPath>
        <g clip-path="url(#_clip1)">
            <g transform="matrix(-0.0175822,-0.0475023,0.0358279,-0.0159484,9.22398,46.8442)">
                <ellipse cx="722" cy="319" rx="159" ry="196" style="fill:url(#_Radial2);"/>
            </g>
        </g>
    </g>
    <defs>
        <radialGradient id="_Radial2" cx="0" cy="0" r="1" gradientUnits="userSpaceOnUse" gradientTransform="matrix(318,0,0,392,563,319)"><stop offset="0" style="stop-color:rgb(204,125,0);stop-opacity:1"/><stop offset="1" style="stop-color:rgb(255,221,73);stop-opacity:1"/></radialGradient>
    </defs>
</svg>
