<?xml version="1.0" encoding="UTF-8" standalone="no"?><!DOCTYPE svg PUBLIC "-//W3C//DTD SVG 1.1//EN" "http://www.w3.org/Graphics/SVG/1.1/DTD/svg11.dtd"><svg width="100%" height="100%" viewBox="0 0 310 291" version="1.1" xmlns="http://www.w3.org/2000/svg" xmlns:xlink="http://www.w3.org/1999/xlink" xml:space="preserve" xmlns:serif="http://www.serif.com/" style="fill-rule:evenodd;clip-rule:evenodd;stroke-linecap:round;stroke-linejoin:round;stroke-miterlimit:1.5;"><path d="M157.573,5.013l0,-0.013l-0.75,0l-5.237,0.188c-12.35,-0 -54.188,3.375 -73.425,47.462c-6.65,14.825 -5.063,40.138 -3.838,60.463l0.575,7.112c-1.012,0.562 -2.887,1.312 -5.812,1.312c-3.938,0 -8.55,-1.324 -13.8,-3.75c-1.413,-0.562 -2.963,-0.924 -4.788,-0.924c-6.175,-0 -13.475,3.924 -14.6,9.912c-0.75,4.287 1.125,10.475 14.963,15.912c1.325,0.563 2.812,1.125 4.325,1.488c5.6,1.888 14.212,4.688 16.65,10.112c1.312,2.8 0.762,6.55 -1.488,10.863l-0.2,0.363c-0.762,1.762 -19.087,43.499 -59.887,50.25c-3.188,0.549 -5.438,3.324 -5.25,6.362c0.037,0.937 0.3,2.025 0.687,2.812c2.988,7.3 15.888,12.551 39.863,15.326c0.762,0.949 1.5,4.862 2.075,7.125c0.562,2.225 0.925,4.687 1.687,7.087c0.75,2.45 2.613,5.25 7.288,5.25c1.862,0 4.112,-0.388 6.75,-0.925c3.925,-0.75 9.15,-1.863 15.9,-1.863c3.737,0 7.675,0.363 11.6,0.925c7.5,1.313 13.85,5.8 21.337,11.051c10.65,7.662 22.638,16.099 40.988,16.099l1.862,0c0.763,0 1.5,0.188 2.25,0.188c18.35,0 30.513,-8.612 41.175,-16.1c7.5,-5.25 14.038,-9.75 21.538,-11.05c3.925,-0.737 7.662,-0.925 11.412,-0.925c6.35,0 11.413,0.75 15.913,1.688c2.812,0.537 5.037,0.925 6.725,0.925l0.375,-0c3.562,-0 5.987,-1.675 6.937,-5.063c0.75,-2.412 1.313,-4.675 1.675,-6.912c0.55,-2.438 1.313,-5.988 2.05,-7.125c23.413,-3.538 36.325,-8.775 39.325,-15.888c0.375,-0.95 0.563,-1.875 0.563,-2.812c0.187,-2.988 -2.063,-5.813 -5.25,-6.363c-40.813,-6.737 -59.138,-48.475 -59.888,-50.175l-0.187,-0.187c-2.263,-4.3 -2.625,-8.05 -1.5,-10.85c2.425,-5.625 11.037,-8.438 16.662,-10.125c1.688,-0.55 3.188,-1.125 4.3,-1.488c10.288,-4.112 15.35,-8.987 15.163,-14.6c-0,-4.487 -3.55,-8.612 -9.175,-10.475c-1.875,-0.762 -4.088,-1.125 -6.363,-1.125c-1.5,0 -3.737,0.2 -5.8,1.3c-4.675,2.263 -9.162,3.563 -12.912,3.763c-2.475,-0 -4.075,-0.563 -5.013,-1.125c0.1,-2.063 0.225,-4.125 0.375,-6.375l0.038,-0.75c1.3,-20.35 2.875,-45.675 -3.738,-60.588c-19.787,-44.312 -61.75,-47.762 -74.125,-47.762Z" style="fill:none;stroke:#000;stroke-width:10px;"/></svg>