<?xml version="1.0" encoding="UTF-8" standalone="no"?><!DOCTYPE svg PUBLIC "-//W3C//DTD SVG 1.1//EN" "http://www.w3.org/Graphics/SVG/1.1/DTD/svg11.dtd"><svg width="100%" height="100%" viewBox="0 0 8892 8892" version="1.1" xmlns="http://www.w3.org/2000/svg" xmlns:xlink="http://www.w3.org/1999/xlink" xml:space="preserve" xmlns:serif="http://www.serif.com/" style="fill-rule:evenodd;clip-rule:evenodd;stroke-linejoin:round;stroke-miterlimit:2;"><path d="M8715.29,1540.28c-0,-754.283 -612.384,-1366.67 -1366.67,-1366.67l-5808.33,0c-754.284,0 -1366.67,612.384 -1366.67,1366.67l0,5808.33c0,754.283 612.383,1366.67 1366.67,1366.67l5808.33,0c754.283,0 1366.67,-612.383 1366.67,-1366.67l-0,-5808.33Zm-640.059,217.388l0,5373.54c0,521.009 -422.991,944 -944,944l-5373.54,0c-521.009,0 -944,-422.991 -944,-944l-0,-5373.54c-0,-521.009 422.991,-944 944,-944l5373.54,-0c521.009,-0 944,422.991 944,944Zm-3423.23,2686.79l-2729.08,2704.42l2313.96,0l2729.08,-2704.42l-2729.08,-2704.42l-2313.96,-0l2729.08,2704.42Z" style="fill:url(#_Radial1);"/><defs><radialGradient id="_Radial1" cx="0" cy="0" r="1" gradientUnits="userSpaceOnUse" gradientTransform="matrix(-7803.92,9891.79,-10032.1,-7347.99,8685.37,-568.101)"><stop offset="0" style="stop-color:#b9e764;stop-opacity:1"/><stop offset="1" style="stop-color:#69a329;stop-opacity:1"/></radialGradient></defs></svg>