<?xml version="1.0" encoding="UTF-8" standalone="no"?><!DOCTYPE svg PUBLIC "-//W3C//DTD SVG 1.1//EN" "http://www.w3.org/Graphics/SVG/1.1/DTD/svg11.dtd"><svg width="100%" height="100%" viewBox="0 0 37050 37050" version="1.1" xmlns="http://www.w3.org/2000/svg" xmlns:xlink="http://www.w3.org/1999/xlink" xml:space="preserve" xmlns:serif="http://www.serif.com/" style="fill-rule:evenodd;clip-rule:evenodd;stroke-linejoin:round;stroke-miterlimit:2;"><path d="M36313.7,6417.83c0,-3142.85 -2551.6,-5694.46 -5694.46,-5694.46l-24201.4,-0c-3142.85,-0 -5694.46,2551.6 -5694.46,5694.46l-0,24201.4c-0,3142.85 2551.6,5694.46 5694.46,5694.46l24201.4,-0c3142.85,-0 5694.46,-2551.6 5694.46,-5694.46l0,-24201.4Zm-2666.91,905.784l-0,22389.8c-0,2170.87 -1762.46,3933.33 -3933.33,3933.33l-22389.8,0c-2170.87,0 -3933.33,-1762.46 -3933.33,-3933.33l0,-22389.8c0,-2170.87 1762.46,-3933.33 3933.33,-3933.33l22389.8,0c2170.87,0 3933.33,1762.46 3933.33,3933.33Zm-14263.5,11195l-11371.2,11268.4l9641.5,-0l11371.2,-11268.4l-11371.2,-11268.4l-9641.5,0l11371.2,11268.4Z" style="fill:url(#_Radial1);"/><defs><radialGradient id="_Radial1" cx="0" cy="0" r="1" gradientUnits="userSpaceOnUse" gradientTransform="matrix(-32516.3,41215.8,-41800.4,-30616.6,36189,-2367.09)"><stop offset="0" style="stop-color:#ffe666;stop-opacity:1"/><stop offset="1" style="stop-color:#c60;stop-opacity:1"/></radialGradient></defs></svg>