<?xml version="1.0" encoding="UTF-8" standalone="no"?><!DOCTYPE svg PUBLIC "-//W3C//DTD SVG 1.1//EN" "http://www.w3.org/Graphics/SVG/1.1/DTD/svg11.dtd"><svg width="100%" height="100%" viewBox="0 0 1667 1667" version="1.1" xmlns="http://www.w3.org/2000/svg" xmlns:xlink="http://www.w3.org/1999/xlink" xml:space="preserve" xmlns:serif="http://www.serif.com/" style="fill-rule:evenodd;clip-rule:evenodd;stroke-linejoin:round;stroke-miterlimit:2;"><path d="M1666.67,200l-0,1266.67c-0,110.383 -89.617,200 -200,200l-1266.67,-0c-110.383,-0 -200,-89.617 -200,-200l-0,-1266.67c-0,-110.383 89.617,-200 200,-200l1266.67,-0c110.383,-0 200,89.617 200,200Z" style="fill:#635bff;"/><path d="M768.333,647.917c0,-39.167 32.084,-54.584 85.417,-54.584c76.667,0 173.333,23.334 250,64.584l0,-236.667c-83.75,-33.333 -166.25,-46.25 -249.583,-46.25c-204.584,-0 -340.417,106.667 -340.417,285c0,277.917 382.917,233.75 382.917,353.75c-0,46.25 -40.417,61.25 -96.667,61.25c-83.75,0 -190.417,-34.167 -275,-80.417l0,239.584c93.75,40.416 188.333,57.5 275,57.5c209.583,-0 353.75,-103.75 353.75,-284.167c-1.667,-300 -385.417,-246.667 -385.417,-359.583Z" style="fill:#fff;"/></svg>