<?xml version="1.0" encoding="UTF-8" standalone="no"?><!DOCTYPE svg PUBLIC "-//W3C//DTD SVG 1.1//EN" "http://www.w3.org/Graphics/SVG/1.1/DTD/svg11.dtd"><svg width="100%" height="100%" viewBox="0 0 1501 625" version="1.1" xmlns="http://www.w3.org/2000/svg" xmlns:xlink="http://www.w3.org/1999/xlink" xml:space="preserve" xmlns:serif="http://www.serif.com/" style="fill-rule:evenodd;clip-rule:evenodd;stroke-linejoin:round;stroke-miterlimit:2;"><g><path d="M1500,322.5c0,-106.667 -51.667,-190.833 -150.417,-190.833c-99.166,-0 -159.166,84.166 -159.166,190c-0,125.416 70.833,188.75 172.5,188.75c49.583,-0 87.083,-11.25 115.416,-27.084l0,-83.333c-28.333,14.167 -60.833,22.917 -102.083,22.917c-40.417,-0 -76.25,-14.167 -80.833,-63.334l203.75,0c-0,-5.416 0.833,-27.083 0.833,-37.083Zm-205.833,-39.583c-0,-47.084 28.75,-66.667 55,-66.667c25.416,0 52.5,19.583 52.5,66.667l-107.5,-0Z" style="fill:#635bff;"/><path d="M1029.58,131.667c-40.833,-0 -67.083,19.166 -81.666,32.5l-5.417,-25.834l-91.667,0l0,485.834l104.167,-22.084l0.417,-117.916c15,10.833 37.083,26.25 73.75,26.25c74.583,-0 142.5,-60 142.5,-192.084c-0.417,-120.833 -69.167,-186.666 -142.084,-186.666Zm-25,287.083c-24.583,-0 -39.166,-8.75 -49.166,-19.583l-0.417,-154.584c10.833,-12.083 25.833,-20.416 49.583,-20.416c37.917,-0 64.167,42.5 64.167,97.083c0,55.833 -25.833,97.5 -64.167,97.5Z" style="fill:#635bff;"/><path d="M707.5,107.083l104.583,-22.5l0,-84.583l-104.583,22.083l0,85Z" style="fill:#635bff;"/><rect x="707.5" y="138.75" width="104.583" height="364.583" style="fill:#635bff;"/><path d="M595.417,169.583l-6.667,-30.833l-90,0l0,364.583l104.167,0l-0,-247.083c24.583,-32.083 66.25,-26.25 79.166,-21.667l0,-95.833c-13.333,-5 -62.083,-14.167 -86.666,30.833Z" style="fill:#635bff;"/><path d="M387.083,48.333l-101.666,21.667l-0.417,333.75c-0,61.667 46.25,107.083 107.917,107.083c34.166,0 59.166,-6.25 72.916,-13.75l0,-84.583c-13.333,5.417 -79.166,24.583 -79.166,-37.083l-0,-147.917l79.166,-0l0,-88.75l-79.166,-0l0.416,-90.417Z" style="fill:#635bff;"/><path d="M105.417,244.583c-0,-16.25 13.333,-22.5 35.416,-22.5c31.667,0 71.667,9.584 103.334,26.667l-0,-97.917c-34.584,-13.75 -68.75,-19.166 -103.334,-19.166c-84.583,-0 -140.833,44.166 -140.833,117.916c0,115 158.333,96.667 158.333,146.25c0,19.167 -16.666,25.417 -40,25.417c-34.583,0 -78.75,-14.167 -113.75,-33.333l0,99.166c38.75,16.667 77.917,23.75 113.75,23.75c86.667,0 146.25,-42.916 146.25,-117.5c-0.416,-124.166 -159.166,-102.083 -159.166,-148.75Z" style="fill:#635bff;"/></g></svg>