<?xml version="1.0" encoding="UTF-8" standalone="no"?><!DOCTYPE svg PUBLIC "-//W3C//DTD SVG 1.1//EN" "http://www.w3.org/Graphics/SVG/1.1/DTD/svg11.dtd"><svg width="100%" height="100%" viewBox="0 0 2223 2223" version="1.1" xmlns="http://www.w3.org/2000/svg" xmlns:xlink="http://www.w3.org/1999/xlink" xml:space="preserve" xmlns:serif="http://www.serif.com/" style="fill-rule:evenodd;clip-rule:evenodd;stroke-linejoin:round;stroke-miterlimit:2;"><path d="M1111.11,0c-219.75,0 -434.579,65.165 -617.3,187.256c-182.721,122.09 -325.135,295.622 -409.232,498.651c-84.097,203.024 -106.101,426.44 -63.229,641.968c42.872,215.542 148.696,413.514 304.087,568.917c155.392,155.389 353.373,261.208 568.91,304.083c215.528,42.875 438.945,20.861 641.972,-63.236c203.028,-84.097 376.556,-226.5 498.653,-409.222c122.083,-182.723 187.25,-397.542 187.25,-617.306c0,-294.685 -117.069,-577.3 -325.43,-785.674c-208.375,-208.375 -491,-325.437 -785.681,-325.437Zm545.833,761.111l-181.944,859.722c-13.889,61.111 -50,75 -101.389,47.223l-277.778,-205.556l-138.889,129.167c-6.541,8.541 -14.944,15.486 -24.569,20.305c-9.625,4.806 -20.222,7.361 -30.986,7.472l19.444,-277.777l513.889,-465.278c23.611,-19.445 0,-30.556 -33.333,-11.111l-630.556,395.833l-277.778,-86.111c-59.722,-18.056 -61.111,-59.722 12.5,-87.5l1070.83,-416.667c52.778,-15.277 97.222,15.278 80.555,90.278Z" style="fill-rule:nonzero;"/></svg>