<?xml version="1.0" encoding="UTF-8" standalone="no"?><!DOCTYPE svg PUBLIC "-//W3C//DTD SVG 1.1//EN" "http://www.w3.org/Graphics/SVG/1.1/DTD/svg11.dtd"><svg width="100%" height="100%" viewBox="0 0 800 800" version="1.1" xmlns="http://www.w3.org/2000/svg" xmlns:xlink="http://www.w3.org/1999/xlink" xml:space="preserve" xmlns:serif="http://www.serif.com/" style="fill-rule:evenodd;clip-rule:evenodd;stroke-linejoin:round;stroke-miterlimit:2;"><g><path d="M378.843,800.508l-99.539,-102.523l-147.227,0l-31.591,-29.802l0.002,-144.245l-100.734,-102.522l0,-42.318l100.732,-102.524l0.001,-144.84l31.59,-29.803l147.227,0l99.541,-101.924l42.32,-0.001l102.52,101.925l144.843,-0.001l29.802,29.207l-0.001,145.438l101.927,102.522l-0.001,42.319l-103.714,102.521l0,144.244l-29.803,29.805l-143.053,-0.001l-102.521,102.522l-42.321,0.001Zm166.06,-331.112l-0.002,-92.878l-89.175,0.002l-89.139,93.273l-62.035,0.001l-106.536,111.119l239.573,-0.003l107.314,-111.514Zm-289.796,-138.78l0.001,92.878l89.175,-0.002l89.14,-93.273l62.035,-0.001l106.535,-111.119l-239.572,0.003l-107.314,111.514Z" style="fill:url(#_Radial1);"/></g><defs><radialGradient id="_Radial1" cx="0" cy="0" r="1" gradientUnits="userSpaceOnUse" gradientTransform="matrix(-333.261,-900.382,837.132,-372.64,562.685,817.963)"><stop offset="0" style="stop-color:#a724ff;stop-opacity:1"/><stop offset="1" style="stop-color:#fc99ff;stop-opacity:1"/></radialGradient></defs></svg>