<?xml version="1.0" encoding="UTF-8" standalone="no"?><!DOCTYPE svg PUBLIC "-//W3C//DTD SVG 1.1//EN" "http://www.w3.org/Graphics/SVG/1.1/DTD/svg11.dtd"><svg width="100%" height="100%" viewBox="0 0 9080 10417" version="1.1" xmlns="http://www.w3.org/2000/svg" xmlns:xlink="http://www.w3.org/1999/xlink" xml:space="preserve" xmlns:serif="http://www.serif.com/" style="fill-rule:evenodd;clip-rule:evenodd;stroke-linejoin:round;stroke-miterlimit:2;"><g><g><path d="M3901.47,4378.57l-0,-316.079c-117.28,-15.512 -235.428,-23.541 -353.727,-24.035c-1446.82,-0 -2624.13,1101.81 -2624.13,2456.1c-0,830.61 443.701,1566.14 1120.31,2010.69c-453.06,-453.485 -705.115,-1051.18 -704.689,-1672.07c-0,-1334.93 1143.71,-2423.55 2562.24,-2454.61" style="fill:#00f2ea;fill-rule:nonzero;"/><path d="M3971.03,7867.14c611.737,0 1110.53,-483.476 1133.29,-1086.28l2.127,-5379.72l989.075,0c-21.173,-112.281 -31.925,-226.279 -32.119,-340.539l-1350.67,-0l-2.34,5379.93c-22.547,602.379 -521.764,1085.86 -1133.29,1085.86c-183.456,0.009 -364.2,-44.52 -526.656,-129.749c213.391,295.251 556.292,470.504 920.584,470.501m3971.61,-4639.93l0,-299.062c-363.063,0.404 -718.551,-104.616 -1023.11,-302.253c267.293,305.493 626.361,516.486 1023.32,601.315" style="fill:#00f2ea;fill-rule:nonzero;"/><path d="M6879.33,2702.25c-296.933,-335.445 -461.034,-768.256 -461.143,-1216.24l-360.959,-0c95.42,500.856 392.921,940.988 822.102,1216.24m-3334.14,2626.26c-625.35,0.85 -1132.01,502.194 -1132.65,1120.95c1.328,417.507 235.94,800.991 607.058,992.265c-139.106,-189.521 -214.231,-418.546 -214.406,-653.64c0.638,-618.969 507.3,-1120.53 1132.65,-1121.16c116.987,0 228.657,19.143 334.371,51.9l0,-1361.31c-110.786,-15.577 -222.496,-23.678 -334.371,-24.248c-19.569,-0 -38.925,1.276 -58.281,1.489l0,1045.65c-108.2,-34.069 -220.935,-51.567 -334.371,-51.9" style="fill:#ff004f;fill-rule:nonzero;"/><path d="M7762.69,3400.35l0,1038.85c-671.808,1 -1327.4,-208.109 -1874.56,-597.911l0,2715.6c0,1356.41 -1112.44,2459.92 -2479.71,2459.92c-528.57,-0 -1018.64,-165.484 -1421.29,-446.041c469.641,501.375 1126.96,785.947 1813.94,785.304c1367.48,0 2479.92,-1103.51 2479.92,-2459.71l-0,-2715.81c547.183,389.727 1202.78,598.761 1874.56,597.699l0,-1336.42c-132.045,-0.039 -263.722,-13.942 -392.865,-41.477" style="fill:#ff004f;fill-rule:nonzero;"/><path d="M6024.05,6467.54l0,-2720.06c563.079,391.42 1233.05,600.557 1918.81,598.975l-0,-1040.12c-403.234,-83.457 -769.415,-293.683 -1044.8,-599.826c-440.723,-278.005 -744.89,-718.94 -841.458,-1220.5l-1009.71,-0l-2.127,5363.34c-23.398,600.677 -532.824,1082.66 -1157.11,1082.66c-373.083,-0.425 -722.769,-174.843 -940.153,-468.8c-381.591,-194.199 -620.883,-577.704 -621.096,-995.881c0.638,-621.096 518.998,-1124.14 1159.24,-1124.99c119.114,0 233.549,19.144 342.028,52.113l0,-1049.27c-1372.15,31.268 -2478.64,1123.08 -2478.64,2461.84c0,647.684 259.287,1237.09 681.717,1677.17c428.904,291.861 936.11,447.508 1454.9,446.467c1399.59,-0 2538.41,-1105 2538.41,-2463.12" style="fill:#fff;fill-rule:nonzero;"/></g></g></svg>