<?xml version="1.0" encoding="UTF-8" standalone="no"?><!DOCTYPE svg PUBLIC "-//W3C//DTD SVG 1.1//EN" "http://www.w3.org/Graphics/SVG/1.1/DTD/svg11.dtd"><svg width="100%" height="100%" viewBox="0 0 8892 8892" version="1.1" xmlns="http://www.w3.org/2000/svg" xmlns:xlink="http://www.w3.org/1999/xlink" xml:space="preserve" xmlns:serif="http://www.serif.com/" style="fill-rule:evenodd;clip-rule:evenodd;stroke-linejoin:round;stroke-miterlimit:2;"><path d="M6053.38,95.571l-2668.27,-0c-119.479,-0 -278.783,79.654 -318.608,238.962l-278.787,1234.56c-39.809,119.479 -119.463,159.308 -199.113,199.117l-1712.47,-0c-159.304,-0 -278.766,79.65 -318.591,238.958l-557.555,2429.32l0,39.829c0,119.479 79.655,238.937 199.134,238.937l1792.1,0c79.654,39.83 119.479,119.48 119.479,199.134c-79.654,238.941 -119.479,517.725 -119.479,756.666c-39.825,756.667 159.304,1593.01 756.683,2230.19c1035.45,1115.09 2907.22,1154.91 4022.31,557.55c915.975,-477.896 1314.22,-1393.87 1115.09,-2150.54c-119.462,-597.374 -597.362,-995.624 -1234.57,-995.624c-637.187,-0.001 -995.608,398.249 -1035.43,836.32c-39.825,358.421 79.654,597.38 278.767,716.842c318.596,199.129 557.554,-159.287 438.075,-278.767c-79.654,-79.654 -119.479,-159.308 -119.479,-278.77c-0,-119.48 79.65,-238.959 318.608,-238.959c238.942,0 398.25,119.479 438.075,517.729c39.825,358.417 -199.133,796.492 -637.204,876.142c-557.554,119.483 -1115.09,-159.304 -1314.22,-677.012c-199.113,-517.725 -159.288,-1234.57 318.596,-1712.47c358.437,-398.246 836.316,-517.725 1274.39,-517.725l1393.87,79.654c119.479,0 199.134,-39.825 238.959,-159.304l597.362,-2508.97c36.771,-159.308 -79.654,-238.942 -199.117,-238.942l-2588.61,0c-39.829,0 -79.654,-79.654 -79.654,-119.479l278.767,-1274.4l-0,-39.825c-0,-119.479 -79.655,-199.133 -199.113,-199.133Z" style="fill:url(#_Radial1);"/><defs><radialGradient id="_Radial1" cx="0" cy="0" r="1" gradientUnits="userSpaceOnUse" gradientTransform="matrix(7.57963e-13,12378.5,-10474.7,6.41392e-13,4444.46,-3064.24)"><stop offset="0" style="stop-color:#bfff80;stop-opacity:1"/><stop offset="1" style="stop-color:#19d66b;stop-opacity:1"/></radialGradient></defs></svg>