<?xml version="1.0" encoding="UTF-8" standalone="no"?>
<!DOCTYPE svg PUBLIC "-//W3C//DTD SVG 1.1//EN" "http://www.w3.org/Graphics/SVG/1.1/DTD/svg11.dtd">
<svg width="100%" height="100%" viewBox="0 0 600 701" version="1.1" xmlns="http://www.w3.org/2000/svg" xmlns:xlink="http://www.w3.org/1999/xlink" xml:space="preserve" xmlns:serif="http://www.serif.com/" style="fill-rule:evenodd;clip-rule:evenodd;stroke-linejoin:round;stroke-miterlimit:2;">
    <g transform="matrix(1.36674,0,0,1.36674,0,0)">
        <path d="M91.46,0L439,0L439,256.08L274.38,420.71L201.21,420.71L109.75,512.17L109.75,420.71L0,420.71L0,91.46L91.46,0ZM402.42,237.79L402.42,36.59L109.75,36.59L109.75,310.96L192.06,310.96L192.06,374.98L256.08,310.96L329.25,310.96L402.42,237.79ZM310.96,210.35L310.96,100.6L347.54,100.6L347.54,210.35L310.96,210.35ZM210.35,210.35L210.35,100.6L246.94,100.6L246.94,210.35L210.35,210.35Z" style="fill:white;"/>
    </g>
</svg>
