<?xml version="1.0" encoding="UTF-8" standalone="no"?><!DOCTYPE svg PUBLIC "-//W3C//DTD SVG 1.1//EN" "http://www.w3.org/Graphics/SVG/1.1/DTD/svg11.dtd"><svg width="100%" height="100%" viewBox="0 0 600 701" version="1.1" xmlns="http://www.w3.org/2000/svg" xmlns:xlink="http://www.w3.org/1999/xlink" xml:space="preserve" xmlns:serif="http://www.serif.com/" style="fill-rule:evenodd;clip-rule:evenodd;stroke-linejoin:round;stroke-miterlimit:2;"><g><path d="M125.002,0l474.997,0l-0,349.995l-224.993,225.006l-100.004,0l-125.002,125.002l-0,-125.002l-150,0l0,-449.999l125.002,-125.002Zm425.002,324.997l-0,-274.988l-400.004,0l-0,374.992l112.496,0l0,87.499l87.499,-87.499l100.004,0l100.005,-100.004Zm-125.003,-37.503l0,-150l49.996,0l-0,150l-49.996,-0Zm-137.507,-0l-0,-150l50.009,0l-0,150l-50.009,-0Z" style="fill:#6e737c;"/></g></svg>