<?xml version="1.0" encoding="UTF-8" standalone="no"?>
<!DOCTYPE svg PUBLIC "-//W3C//DTD SVG 1.1//EN" "http://www.w3.org/Graphics/SVG/1.1/DTD/svg11.dtd">
<svg width="100%" height="100%" viewBox="0 0 1000 1000" version="1.1" xmlns="http://www.w3.org/2000/svg" xmlns:xlink="http://www.w3.org/1999/xlink" xml:space="preserve" xmlns:serif="http://www.serif.com/" style="fill-rule:evenodd;clip-rule:evenodd;stroke-linejoin:round;stroke-miterlimit:2;">
    <path d="M287.32,257.49L656.96,740.3L713.43,740.3L348,257.49L287.32,257.49Z" style="fill:white;"/>
    <path d="M750,0L250,0C112,0 0,112 0,250L0,750C0,888 112,1000 250,1000L750,1000C888,1000 1000,888 1000,750L1000,250C1000,112 888,0 750,0ZM627.06,800.1L466.49,590.1L282.67,800.1L180.79,800.1L417.79,527.68L167.5,199.9L377.68,199.9L522.74,391.7L692.61,199.9L794.49,199.9L570.8,454.6L832.14,800.1L627.06,800.1Z" style="fill:white;"/>
</svg>
