<?xml version="1.0" encoding="UTF-8" standalone="no"?>
<!DOCTYPE svg PUBLIC "-//W3C//DTD SVG 1.1//EN" "http://www.w3.org/Graphics/SVG/1.1/DTD/svg11.dtd">
<svg width="100%" height="100%" viewBox="0 0 3375 2375" version="1.1" xmlns="http://www.w3.org/2000/svg" xmlns:xlink="http://www.w3.org/1999/xlink" xml:space="preserve" xmlns:serif="http://www.serif.com/" style="fill-rule:evenodd;clip-rule:evenodd;stroke-linejoin:round;stroke-miterlimit:2;">
    <g transform="matrix(4.16667,0,0,4.16667,0,0)">
        <g>
            <g transform="matrix(0.0460763,0,0,0.0460763,5.00049,5.99923)">
                <path d="M-108.516,10157.1L-108.516,1953.28C-108.516,803.371 825.069,-130.219 1974.98,-130.219L15387.5,-130.219C16537.4,-130.219 17471,803.366 17471,1953.28L17471,10157.1C17471,11307 16537.4,12240.6 15387.5,12240.6L1974.98,12240.6C825.074,12240.6 -108.516,11307 -108.516,10157.1Z" style="fill:white;"/>
            </g>
            <g transform="matrix(0.0460763,0,0,0.0460763,5.00049,5.99923)">
                <path d="M-108.516,10157.1L-108.516,1953.28C-108.516,803.371 825.069,-130.219 1974.98,-130.219L15387.5,-130.219C16537.4,-130.219 17471,803.366 17471,1953.28L17471,10157.1C17471,11307 16537.4,12240.6 15387.5,12240.6L1974.98,12240.6C825.074,12240.6 -108.516,11307 -108.516,10157.1ZM108.516,10157.1C108.516,11187.2 944.857,12023.5 1974.98,12023.5L15387.5,12023.5C16417.6,12023.5 17254,11187.2 17254,10157.1L17254,1953.28C17254,923.149 16417.6,86.812 15387.5,86.812L1974.98,86.812C944.852,86.812 108.516,923.154 108.516,1953.28L108.516,10157.1Z" style="fill:rgb(230,230,230);"/>
            </g>
        </g>
        <g transform="matrix(11.4286,0,0,11.4286,5,1.35248)">
            <path d="M21.251,32.517L17.01,32.517L13.83,20.385C13.679,19.827 13.359,19.333 12.887,19.101C11.711,18.517 10.414,18.051 9,17.817L9,17.35L15.831,17.35C16.774,17.35 17.481,18.051 17.599,18.866L19.249,27.617L23.488,17.35L27.61,17.35L21.251,32.517ZM29.968,32.517L25.963,32.517L29.26,17.35L33.265,17.35L29.968,32.517ZM38.447,21.551C38.565,20.735 39.272,20.267 40.097,20.267C41.393,20.15 42.805,20.385 43.984,20.967L44.691,17.702C43.512,17.235 42.216,17 41.039,17C37.152,17 34.324,19.101 34.324,22.017C34.324,24.235 36.327,25.399 37.742,26.101C39.272,26.8 39.861,27.267 39.743,27.967C39.743,29.017 38.565,29.484 37.388,29.484C35.974,29.484 34.56,29.134 33.265,28.549L32.558,31.817C33.972,32.399 35.503,32.634 36.917,32.634C41.275,32.749 43.984,30.65 43.984,27.5C43.984,23.533 38.447,23.3 38.447,21.551ZM58,32.517L54.82,17.35L51.404,17.35C50.697,17.35 49.99,17.817 49.754,18.517L43.866,32.517L47.989,32.517L48.812,30.3L53.877,30.3L54.349,32.517L58,32.517ZM51.994,21.434L53.17,27.15L49.872,27.15L51.994,21.434Z" style="fill:rgb(23,43,133);"/>
        </g>
    </g>
</svg>
