<?xml version="1.0" encoding="UTF-8" standalone="no"?>
<!DOCTYPE svg PUBLIC "-//W3C//DTD SVG 1.1//EN" "http://www.w3.org/Graphics/SVG/1.1/DTD/svg11.dtd">
<svg width="100%" height="100%" viewBox="0 0 522 522" version="1.1" xmlns="http://www.w3.org/2000/svg" xmlns:xlink="http://www.w3.org/1999/xlink" xml:space="preserve" xmlns:serif="http://www.serif.com/" style="fill-rule:evenodd;clip-rule:evenodd;stroke-linejoin:round;stroke-miterlimit:2;">
    <g transform="matrix(0.0294888,0,0,0.0294888,5,5)">
        <path d="M17362.5,2083.5L17362.5,15279C17362.5,16428.9 16428.9,17362.5 15279,17362.5L2083.5,17362.5C933.59,17362.5 0,16428.9 0,15279L0,2083.5C0,933.59 933.585,0 2083.5,0L15279,0C16428.9,0 17362.5,933.585 17362.5,2083.5Z" style="fill:white;"/>
        <path d="M17362.5,2083.5L17362.5,15279C17362.5,16428.9 16428.9,17362.5 15279,17362.5L2083.5,17362.5C933.59,17362.5 0,16428.9 0,15279L0,2083.5C0,933.59 933.585,0 2083.5,0L15279,0C16428.9,0 17362.5,933.585 17362.5,2083.5ZM17023.4,2083.5C17023.4,1120.75 16241.8,339.112 15279,339.112L2083.5,339.112C1120.75,339.112 339.112,1120.75 339.112,2083.5L339.112,15279C339.112,16241.8 1120.75,17023.4 2083.5,17023.4L15279,17023.4C16241.8,17023.4 17023.4,16241.8 17023.4,15279L17023.4,2083.5Z" style="fill:rgb(230,230,230);"/>
    </g>
    <g transform="matrix(1.36508,0,0,1.36508,43.8343,61.8343)">
        <path d="M226.145,27.338L165.33,188.585L158.674,156.783C147.441,120.112 112.174,80.24 72.813,60.419L128.513,264.463L194.197,264.463L291.801,27.34C291.801,27.338 226.145,27.338 226.145,27.338Z" style="fill:rgb(35,148,188);fill-rule:nonzero;"/>
        <path d="M136.965,51.473C133.291,36.465 117.617,27.84 103.713,27.348L1.049,27.348L0,32.089C80.08,51.601 137.494,102.97 159.294,159.481C159.294,159.48 136.965,51.473 136.965,51.473Z" style="fill:rgb(239,199,94);fill-rule:nonzero;"/>
    </g>
</svg>
