<?xml version="1.0" encoding="UTF-8" standalone="no"?>
<!DOCTYPE svg PUBLIC "-//W3C//DTD SVG 1.1//EN" "http://www.w3.org/Graphics/SVG/1.1/DTD/svg11.dtd">
<svg width="100%" height="100%" viewBox="0 0 810 570" version="1.1" xmlns="http://www.w3.org/2000/svg" xmlns:xlink="http://www.w3.org/1999/xlink" xml:space="preserve" xmlns:serif="http://www.serif.com/" style="fill-rule:evenodd;clip-rule:evenodd;stroke-linejoin:round;stroke-miterlimit:2;">
    <g transform="matrix(0.0456219,0,0,0.0456219,8.94522,8.93535)">
        <path d="M-196.073,10214.7L-196.073,1887.64C-196.073,737.733 737.512,-195.857 1887.43,-195.857L15475.1,-195.857C16625,-195.857 17558.6,737.728 17558.6,1887.64L17558.6,10214.7C17558.6,11364.6 16625,12298.2 15475.1,12298.2L1887.43,12298.2C737.517,12298.2 -196.073,11364.6 -196.073,10214.7Z" style="fill:white;"/>
    </g>
    <g transform="matrix(0.0456219,0,0,0.0456219,8.94522,8.93535)">
        <path d="M-196.073,10214.7L-196.073,1887.64C-196.073,737.733 737.512,-195.857 1887.43,-195.857L15475.1,-195.857C16625,-195.857 17558.6,737.728 17558.6,1887.64L17558.6,10214.7C17558.6,11364.6 16625,12298.2 15475.1,12298.2L1887.43,12298.2C737.517,12298.2 -196.073,11364.6 -196.073,10214.7Z" style="fill:white;"/>
    </g>
    <g transform="matrix(0.806013,0,0,0.964501,-3.9897,0.350353)">
        <g id="path3069" transform="matrix(1.37481,0,0,1.37481,-188.333,-168.262)">
            <path d="M871.557,448.921L140.588,448.921L140.588,480.302C140.588,519.865 179.025,551.986 226.367,551.986L785.778,551.986C833.121,551.986 871.557,519.865 871.557,480.302L871.557,448.921Z" style="fill:rgb(253,184,39);"/>
        </g>
        <g id="path3065" transform="matrix(1.41285,0,0,1.40592,-204.968,-57.6642)">
            <path d="M148.578,142.058L859.866,142.058L859.866,110.854C859.866,72.167 822.464,40.757 776.396,40.757L232.047,40.757C185.979,40.757 148.578,72.167 148.578,110.854L148.578,142.058Z" style="fill:rgb(0,97,178);"/>
        </g>
    </g>
    <g transform="matrix(0.798906,0,0,0.798906,3.15248,49.1067)">
        <path id="path3071" d="M167.057,178.195L167.068,178.262L125.758,178.262L125.758,185.282C157.998,186.308 167.624,201.477 171.187,219.136L190.196,407.638L252.747,407.638L386.388,178.195L323.837,178.195L243.516,316.1L229.608,178.195L167.057,178.195Z" style="fill:rgb(0,97,178);"/>
        <path id="rect3086" d="M419.704,178.059L480.413,178.059L405.958,407.724L345.248,407.724L419.704,178.059Z" style="fill:rgb(0,97,178);"/>
        <path id="path3089" d="M754.183,182.637L636.772,407.728L702.638,407.728L719.771,373.36L796.23,373.36L798.853,407.728L859.563,407.728L842.384,182.637L754.183,182.637ZM786.084,240.4L793.35,335.566L738.624,335.566L786.084,240.4Z" style="fill:rgb(0,97,178);"/>
        <path id="path3105" d="M495.304,236.477C504.414,200.059 534.319,175.195 585.224,175.195C632.908,175.195 668.27,204.977 668.27,204.977L632.187,242.777C632.187,242.777 605.516,222.159 589.805,222.159C569.032,222.159 559.651,229.744 557.732,242.205C553.905,267.05 642.435,282.256 639.633,340.142C637.762,378.799 597.752,416.315 552.005,416.315C483.406,416.315 449.485,388.824 449.485,388.824L480.413,344.724C480.413,344.724 511.414,369.556 540.55,368.206C560.207,367.295 575.357,359.762 574.341,346.442C572.038,316.252 478.815,302.394 495.304,236.477Z" style="fill:rgb(0,97,178);fill-rule:nonzero;"/>
        <path id="path3151" d="M866.748,182.63C864.629,182.63 862.553,183.174 860.535,184.262C858.516,185.35 856.947,186.915 855.815,188.941C854.683,190.966 854.118,193.076 854.118,195.274C854.118,197.45 854.677,199.542 855.793,201.55C856.908,203.559 858.465,205.119 860.467,206.229C862.468,207.339 864.562,207.895 866.748,207.895C868.934,207.895 871.027,207.339 873.029,206.229C875.031,205.119 876.582,203.559 877.692,201.55C878.802,199.542 879.356,197.45 879.356,195.274C879.356,193.076 878.796,190.966 877.669,188.941C876.543,186.915 874.968,185.35 872.95,184.262C870.931,183.174 868.867,182.63 866.748,182.63ZM866.748,184.73C868.51,184.73 870.225,185.178 871.909,186.088C873.593,186.997 874.905,188.3 875.847,189.99C876.789,191.681 877.262,193.444 877.262,195.274C877.262,197.093 876.807,198.832 875.881,200.5C874.956,202.169 873.649,203.472 871.977,204.403C870.304,205.335 868.566,205.795 866.748,205.795C864.93,205.795 863.181,205.335 861.508,204.403C859.835,203.472 858.535,202.169 857.603,200.5C856.672,198.832 856.211,197.093 856.211,195.274C856.211,193.444 856.678,191.681 857.626,189.99C858.574,188.3 859.886,186.997 861.564,186.088C863.243,185.178 864.975,184.73 866.748,184.73Z" style="fill:rgb(0,97,178);fill-rule:nonzero;"/>
        <path id="path3147" d="M861.517,188.315L861.517,203.206L863.723,203.206L863.723,196.879L865.019,196.879C865.792,196.879 866.378,197.05 866.781,197.392C867.363,197.856 868.136,199.022 869.089,200.868L870.294,203.206L872.977,203.206L871.317,200.292C870.521,198.911 869.853,197.929 869.305,197.342C869.013,197.036 868.627,196.774 868.145,196.554C869.321,196.456 870.264,195.998 870.976,195.191C871.687,194.385 872.044,193.441 872.044,192.353C872.044,191.583 871.822,190.863 871.396,190.178C870.971,189.493 870.408,189.003 869.691,188.728C868.974,188.453 867.814,188.315 866.212,188.315L861.517,188.315ZM863.723,190.34L866.224,190.34C867.299,190.34 868.043,190.419 868.441,190.591C868.838,190.762 869.149,191.03 869.373,191.378C869.597,191.727 869.702,192.113 869.702,192.553C869.702,193.238 869.474,193.788 869.009,194.204C868.544,194.619 867.671,194.829 866.394,194.829L863.723,194.829L863.723,190.34Z" style="fill:rgb(0,97,178);fill-rule:nonzero;"/>
    </g>
</svg>
