<?xml version="1.0" encoding="UTF-8" standalone="no"?><!DOCTYPE svg PUBLIC "-//W3C//DTD SVG 1.1//EN" "http://www.w3.org/Graphics/SVG/1.1/DTD/svg11.dtd"><svg width="100%" height="100%" viewBox="0 0 4167 1353" version="1.1" xmlns="http://www.w3.org/2000/svg" xmlns:xlink="http://www.w3.org/1999/xlink" xml:space="preserve" xmlns:serif="http://www.serif.com/" style="fill-rule:evenodd;clip-rule:evenodd;stroke-linejoin:round;stroke-miterlimit:2;"><path d="M2713.29,2.083c-295.542,0 -559.667,153.209 -559.667,436.209c0,324.583 468.417,347 468.417,510.083c-0,68.667 -78.667,130.125 -213.084,130.125c-190.708,0 -333.25,-85.875 -333.25,-85.875l-61,285.625c0,0 164.209,72.542 382.209,72.542c323.125,-0 577.416,-160.709 577.416,-448.584c0,-343 -470.375,-364.75 -470.375,-516.083c0,-53.792 64.584,-112.708 198.584,-112.708c151.208,-0 274.541,62.458 274.541,62.458l59.709,-275.833c-0,-0 -134.25,-57.959 -323.542,-57.959l0.042,0Zm-2704.04,20.834l-7.167,41.625c0,-0 124.334,22.75 236.334,68.166c144.208,52.042 154.458,82.375 178.75,176.459l264.625,1020.12l354.75,-0l546.5,-1306.38l-353.917,-0l-351.167,888.208l-143.291,-752.917c-13.125,-86.166 -79.709,-135.333 -161.167,-135.333l-564.208,0l-0.042,0.042Zm1716.12,-0l-277.625,1306.38l337.5,-0l276.625,-1306.38l-336.5,-0Zm1882.33,-0c-81.375,-0 -124.5,43.583 -156.125,119.708l-494.458,1186.67l353.917,-0l68.458,-197.792l431.167,0l41.625,197.792l312.291,-0l-272.416,-1306.38l-284.459,-0Zm46.042,352.958l104.917,490.208l-281.042,0l176.167,-490.208l-0.042,0Z" style="fill-rule:nonzero;"/></svg>