<?xml version="1.0" encoding="UTF-8" standalone="no"?><!DOCTYPE svg PUBLIC "-//W3C//DTD SVG 1.1//EN" "http://www.w3.org/Graphics/SVG/1.1/DTD/svg11.dtd"><svg width="100%" height="100%" viewBox="0 0 3334 3334" version="1.1" xmlns="http://www.w3.org/2000/svg" xmlns:xlink="http://www.w3.org/1999/xlink" xml:space="preserve" xmlns:serif="http://www.serif.com/" style="fill-rule:evenodd;clip-rule:evenodd;stroke-linejoin:round;stroke-miterlimit:2;"><path d="M1666.63,-0.002c-920.468,0 -1666.66,746.19 -1666.66,1666.66c0,920.472 746.188,1666.66 1666.66,1666.66c920.469,-0 1666.66,-746.185 1666.66,-1666.66c0,-920.467 -746.187,-1666.66 -1666.66,-1666.66Zm-759.799,407.474c141.413,171.858 288.429,331.879 438.11,487.13c-157.919,104.985 -299.479,232.188 -419.728,379.897c-14.471,-1.273 -28.086,0 -42.892,0c-40.671,0 -78.633,5.985 -116.42,15.319c-72.527,-145.828 -129.293,-301.388 -168.504,-462.618c-11.882,-48.856 -17.006,-97.467 -18.382,-147.058c95.76,-105.508 205.24,-198.524 327.816,-272.67Zm-496.32,496.322c18.235,117.654 45.319,278.586 52.083,300.242c22.075,70.679 46.6,139.874 76.593,208.334c-90.509,88.936 -147.058,215.41 -147.058,352.325c-0,133.007 54.933,251.758 140.93,340.072c-26.203,127.733 -42.892,259.57 -42.892,395.216c0,15.27 -0.392,30.775 0,45.957c-183.931,-245.524 -294.115,-548.9 -294.115,-879.285c-0,-279.658 78.935,-540.271 214.459,-762.861Zm701.59,1289.82c123.357,109.128 260.169,202.598 404.407,281.857c-0.587,8.12 -3.06,16.245 -3.06,24.511c-0,189.508 153.626,343.138 343.135,343.138c116.098,0 219.769,-58.817 281.861,-147.062c143.307,24.408 291.92,32.734 441.173,21.45c44.913,-3.379 88.288,-9.236 131.74,-18.385c-266.591,269.732 -635.518,438.113 -1044.72,438.113c-353.796,-0 -677.646,-125.784 -931.366,-333.946c-25.999,-63.406 -51.871,-128.281 -49.02,-156.25c13.958,-136.95 48.115,-273.135 94.975,-404.409c32.815,6.92 66.227,12.254 101.102,12.254c83.858,-0 160.755,-24.159 229.777,-61.271Zm554.529,-1997.54c402.972,0 766.846,163.327 1032.47,425.854c-112.272,-21.768 -227.65,-33.698 -346.199,-33.698c-32.149,-0 -63.226,-1.665 -94.975,-0c-248.473,12.924 -485.01,77.25 -698.525,180.756c-147.185,-148.209 -291.546,-305.796 -435.046,-468.745c167.696,-66.511 350.903,-104.167 542.276,-104.167Zm1032.47,566.785c45.878,0.784 89.546,7.802 134.803,15.319c188.6,247.258 303.307,553.494 303.307,888.473c0,151.25 -24.993,297.725 -67.401,435.046c-90.283,-73.71 -179.503,-149.217 -269.607,-223.647c26.82,-48.905 42.892,-102.668 42.892,-162.377c0,-189.512 -153.626,-343.137 -343.135,-343.137c-80.04,-0 -153.028,27.591 -211.395,73.528c-151.239,-131.871 -301.357,-266.675 -450.365,-407.469c240.248,-133.899 502.39,-228.746 775.117,-269.609c28.409,-4.261 57.422,-6.587 85.784,-6.127Zm-1075.36,410.536c176.066,168.483 356.864,328.147 539.212,484.068c-3.158,18.699 -6.127,38.606 -6.127,58.21c-0,189.508 153.626,343.133 343.135,343.133c40.524,0 80.33,-8.55 116.421,-21.445c119.753,97.158 241.273,194.831 361.517,291.049c-26.331,52.128 -53.657,101.787 -85.784,150.124c-80.203,13.771 -162.988,25.593 -193.013,27.572c-168.693,11.112 -338.082,-7.547 -502.448,-45.952c-19.612,-170.878 -163.941,-303.308 -340.071,-303.308c-82.547,0 -158.323,28.023 -217.523,76.59c-115.116,-68.445 -225.298,-149.119 -327.817,-238.966c37.322,-69.17 61.275,-145.672 61.275,-229.779c-0,-111.508 -38.391,-214.817 -101.103,-297.181c106.299,-108.8 226.004,-205.708 352.326,-294.115Z" style="fill:url(#_Radial1);"/><defs><radialGradient id="_Radial1" cx="0" cy="0" r="1" gradientUnits="userSpaceOnUse" gradientTransform="matrix(-2718.32,3779.98,-3850.97,-2769.36,3341.67,-618.233)"><stop offset="0" style="stop-color:#8aebff;stop-opacity:1"/><stop offset="1" style="stop-color:#00bcf2;stop-opacity:1"/></radialGradient></defs></svg>