<?xml version="1.0" encoding="UTF-8" standalone="no"?><!DOCTYPE svg PUBLIC "-//W3C//DTD SVG 1.1//EN" "http://www.w3.org/Graphics/SVG/1.1/DTD/svg11.dtd"><svg width="100%" height="100%" viewBox="0 0 3334 2917" version="1.1" xmlns="http://www.w3.org/2000/svg" xmlns:xlink="http://www.w3.org/1999/xlink" xml:space="preserve" xmlns:serif="http://www.serif.com/" style="fill-rule:evenodd;clip-rule:evenodd;stroke-linejoin:round;stroke-miterlimit:2;"><g><g><path d="M1683.72,988.037l-1611.71,-952.676l3177.22,27.789l-1565.51,924.887Z" style="fill:#1defff;fill-rule:nonzero;"/><path d="M1683.72,988.037l-1611.71,-952.676l2774.4,265.772l-1162.69,686.904Z" style="fill:#1ac4ff;fill-rule:nonzero;"/><path d="M1683.72,988.037l0.42,1904.61l1565.09,-2829.49l-1565.51,924.887Z" style="fill:#128ac6;fill-rule:nonzero;"/><path d="M1918.64,1036.61l-239.786,1846.66l1559.81,-2838.86l-1301.71,981.38l-18.31,10.817Z" style="fill:#00a2e2;fill-rule:nonzero;"/><path d="M67.434,38.066l1611.71,952.676l0.421,1904.61l-1612.13,-2857.28Z" style="fill:#086fb5;fill-rule:nonzero;"/><path d="M67.434,38.066l1341.63,1112.23l270.494,1745.05l-1612.13,-2857.28Z" style="fill:#128ac6;fill-rule:nonzero;"/></g><path d="M3277.11,5.409c15.857,-0 26.428,5.408 36.999,16.226c15.857,16.226 21.143,43.269 10.572,64.904l-1612.13,2801.71c-10.571,21.635 -36.999,32.452 -58.142,27.043c-21.143,-5.408 -37,-27.043 -37,-54.087l0,-1855.18c0,-21.635 10.572,-37.861 26.429,-48.678l1606.84,-946.523c10.571,-5.408 15.857,-5.408 26.428,-5.408Zm-1559.27,2661.08l1411.27,-2460.96l-1411.27,832.939l-0,1628.02Z" style="fill:#2f5068;fill-rule:nonzero;"/><path d="M52.857,5.409c10.571,-0 15.857,-0 26.428,5.408l1612.13,951.931c15.857,10.818 26.428,27.044 26.428,48.679l-0,1849.77c-0,21.635 -15.857,43.27 -37,54.087c-21.142,5.409 -47.571,-5.408 -58.142,-27.043l-1612.13,-2807.12c-10.571,-21.634 -10.571,-48.678 10.572,-64.904c5.285,-5.409 21.142,-10.817 31.714,-10.817Zm1559.27,1033.06l-1411.27,-832.939l1411.27,2460.96l-0,-1628.02Z" style="fill:#2f5068;fill-rule:nonzero;"/><path d="M52.857,0l3224.26,0c21.142,0 42.285,16.226 52.856,43.27c10.572,27.043 -5.285,48.678 -26.428,59.495l-1612.13,951.931c-15.857,10.818 -37,10.818 -52.857,0l-1606.84,-946.522c-21.143,-5.409 -31.714,-27.044 -31.714,-54.087c0,-27.044 21.143,-54.087 52.857,-54.087Zm3028.68,108.174l-2833.12,-0l1416.56,838.348l1416.56,-838.348Z" style="fill:#2f5068;fill-rule:nonzero;"/></g></svg>